<svg width="592" height="380" viewBox="0 0 592 380" fill="none" xmlns="http://www.w3.org/2000/svg">
<path opacity="0.26" d="M592 327.205H6.45508V342.796H592V327.205Z" fill="#00899E"/>
<path d="M34.0112 330.302H458.097L424.586 111.143H0.5L34.0112 330.302Z" fill="#1B8F61"/>
<mask id="mask0_3257_101163" style="mask-type:luminance" maskUnits="userSpaceOnUse" x="0" y="111" width="459" height="220">
<path d="M34.0112 330.302H458.097L424.586 111.143H0.5L34.0112 330.302Z" fill="white"/>
</mask>
<g mask="url(#mask0_3257_101163)">
<path d="M219.631 96.9724L222.33 114.616C202.24 115.246 183.598 121.862 166.402 134.464L188.154 159.984C202.882 153.473 216.057 150.007 227.679 149.587L234.474 194.01C194.239 210.183 176.274 232.342 180.579 260.487C183.631 280.44 192.898 295.878 208.38 306.8C221.023 315.832 236.194 320.557 253.895 320.978L256.931 340.826H272.548L269.512 320.978C287.709 319.087 306.239 311.736 325.102 298.924C322.495 295.773 318.389 291.152 312.782 285.061C308.464 280.44 305.139 276.765 302.809 274.034C300.941 275.714 295.101 277.815 285.287 280.335C275.474 282.856 268.336 284.116 263.874 284.116L255.296 228.036C274.08 220.265 287.031 211.863 294.149 202.831C301.022 193.59 303.415 182.143 301.326 168.49C299.077 153.788 292.343 141.71 281.123 132.259C269.691 122.807 255.331 117.136 238.043 115.246L235.248 96.9724H219.631ZM248.208 283.801C234.874 282.751 227.194 275.609 225.17 262.377C223.468 251.245 228.689 242.318 240.835 235.597L248.208 283.801ZM243.344 149.902C251.688 153.052 256.567 159.249 257.98 168.49C259.137 176.052 256.17 182.353 249.079 187.394L243.344 149.902Z" fill="white"/>
</g>
<mask id="mask1_3257_101163" style="mask-type:luminance" maskUnits="userSpaceOnUse" x="0" y="111" width="459" height="220">
<path d="M34.0112 330.302H458.097L424.586 111.143H0.5L34.0112 330.302Z" fill="white"/>
</mask>
<g mask="url(#mask1_3257_101163)">
<path d="M49.6211 109.65C53.8983 137.605 34.6999 160.264 6.75039 160.264L-0.986758 109.65H49.6211ZM49.6211 87.5566H-0.992891H-26.7178L-22.8277 112.987L-15.0906 163.6L-12.2206 182.35H6.75039C16.6691 182.35 26.084 180.384 34.7491 176.5C43.3465 172.647 50.7826 167.11 56.8543 160.036C62.9997 152.877 67.3999 144.562 69.9256 135.313C72.4637 126.027 72.98 116.268 71.4559 106.306L68.5859 87.5566H49.6211Z" fill="#C7C7C7"/>
<path d="M25.7151 282.005C53.6708 282.005 79.7951 304.663 84.0662 332.619H33.4522L25.7151 282.005ZM25.7151 259.918H-0.00976562L3.8803 285.348L11.6174 335.962L14.4874 354.712H33.4584H84.0723H109.797L105.907 329.282C103.05 310.587 93.2229 293.134 78.2465 280.143C63.2085 267.102 44.5509 259.918 25.7151 259.918Z" fill="#C7C7C7"/>
<path d="M388.549 109.65H439.163L446.9 160.264C418.951 160.264 392.826 137.599 388.549 109.65ZM362.824 87.5566L366.714 112.987C369.572 131.681 379.399 149.134 394.375 162.126C409.413 175.166 428.071 182.35 446.906 182.35H472.625L468.735 156.92L460.998 106.306L458.128 87.5566H439.157H388.543H362.824Z" fill="white"/>
<path d="M464.378 282.005L472.115 332.619H421.501C417.23 304.669 436.422 282.005 464.378 282.005ZM483.349 259.918H464.378C454.459 259.918 445.044 261.885 436.379 265.769C427.781 269.622 420.346 275.159 414.274 282.232C408.128 289.392 403.728 297.707 401.202 306.956C398.664 316.241 398.148 326 399.672 335.962L402.542 354.712H421.513H472.127H497.852L493.962 329.282L486.225 278.668L483.349 259.918Z" fill="white"/>
</g>
<path d="M90.7956 330.302H514.875L481.364 111.143H57.2783L90.7956 330.302Z" fill="#00CE7C"/>
<mask id="mask2_3257_101163" style="mask-type:luminance" maskUnits="userSpaceOnUse" x="57" y="111" width="458" height="220">
<path d="M90.7956 330.302H514.875L481.364 111.143H57.2783L90.7956 330.302Z" fill="white"/>
</mask>
<g mask="url(#mask2_3257_101163)">
<path d="M282.914 144.138L284.334 154.831C296.717 155.212 309.26 159.225 321.963 166.864L313.113 182.332C302.979 178.386 294.327 176.285 287.155 176.027L290.738 202.956C318.134 212.764 332.969 226.192 335.237 243.258C336.847 255.358 333.866 264.712 326.314 271.33C320.156 276.806 311.712 279.67 300.97 279.922L302.568 291.954H293.024L291.426 279.922C279.977 278.779 267.373 274.323 253.619 266.555C254.664 264.644 256.366 261.848 258.732 258.154C260.563 255.352 261.958 253.127 262.905 251.468C264.337 252.488 268.276 253.76 274.71 255.291C281.145 256.821 285.729 257.583 288.451 257.583L283.935 223.586C271.103 218.879 261.756 213.747 255.893 208.21C250.024 202.673 246.546 195.766 245.446 187.488C244.26 178.577 246.306 171.252 251.579 165.524C256.852 159.796 264.607 156.355 274.845 155.212L273.371 144.132H282.914V144.138ZM277.642 176.223C273.088 178.134 271.189 181.889 271.932 187.494C272.541 192.078 275.448 195.895 280.659 198.955L277.642 176.223ZM297.971 257.399C305.935 256.766 309.383 252.433 308.32 244.413C307.422 237.665 302.678 232.258 294.087 228.177L297.971 257.399Z" fill="white"/>
</g>
<mask id="mask3_3257_101163" style="mask-type:luminance" maskUnits="userSpaceOnUse" x="57" y="111" width="458" height="220">
<path d="M90.7956 330.302H514.875L481.364 111.143H57.2783L90.7956 330.302Z" fill="white"/>
</mask>
<g mask="url(#mask3_3257_101163)">
<path d="M106.399 109.65C110.677 137.605 91.4782 160.264 63.5287 160.264L55.7916 109.65H106.399ZM106.399 87.5566H55.7854H30.0605L33.9506 112.987L41.6878 163.6L44.5577 182.35H63.5287C73.4475 182.35 82.8623 180.384 91.5274 176.5C100.125 172.647 107.561 167.11 113.633 160.036C119.778 152.877 124.178 144.562 126.704 135.313C129.242 126.027 129.758 116.268 128.234 106.306L125.364 87.5566H106.399Z" fill="#E0E0E0"/>
<path d="M82.4934 282.005C110.449 282.005 136.573 304.663 140.845 332.619H90.2306L82.4934 282.005ZM82.4934 259.918H56.7686L60.6586 285.348L68.3957 335.962L71.2657 354.712H90.2367H140.851H166.576L162.685 329.282C159.828 310.587 150.001 293.134 135.025 280.143C119.987 267.102 101.329 259.918 82.4934 259.918Z" fill="#E0E0E0"/>
<path d="M445.327 109.65H495.941L503.679 160.264C475.729 160.264 449.605 137.599 445.327 109.65ZM419.603 87.5566L423.493 112.987C426.35 131.681 436.177 149.134 451.153 162.126C466.191 175.166 484.849 182.35 503.685 182.35H529.41L525.519 156.92L517.782 106.306L514.912 87.5566H495.941H445.327H419.603Z" fill="#E0E0E0"/>
<path d="M521.156 282.005L528.893 332.619H478.279C474.008 304.669 493.206 282.005 521.156 282.005ZM540.127 259.918H521.156C511.237 259.918 501.822 261.885 493.157 265.769C484.56 269.622 477.124 275.159 471.052 282.232C464.907 289.392 460.507 297.707 457.981 306.956C455.443 316.241 454.926 326 456.451 335.962L459.32 354.712H478.291H528.905H554.63L550.74 329.282L543.003 278.668L540.127 259.918Z" fill="#E0E0E0"/>
</g>
<path d="M529.655 161.738L533.453 320.734H518.464L511.526 188.416L509.209 162.31L529.655 161.738Z" fill="#002D5D"/>
<path d="M486.292 162.949L488.769 175.873C489.291 178.614 490.551 181.17 492.401 183.26C494.797 185.964 497.188 188.674 499.585 191.378C518.943 232.798 538.301 274.212 557.659 315.633L571.056 310.95C550.438 260.305 529.826 209.667 509.208 159.022" fill="#194C82"/>
<path d="M503.125 76.0523C496.137 76.4272 487.755 77.4965 478.537 80.0038C473.442 81.3866 468.839 83.0089 464.765 84.6805C467.432 89.5047 470.099 94.3289 472.76 99.1531C475.064 99.6385 477.375 100.118 479.68 100.603C480.251 108.955 480.817 117.307 481.388 125.658C483.023 138.091 484.658 150.523 486.292 162.955C500.746 162.55 515.2 162.15 529.655 161.745L525.715 116.496L528.868 98.7352L533.219 90.6293C526.354 86.8314 519.49 83.0397 512.625 79.2418C509.467 78.1725 506.296 77.1155 503.125 76.0523Z" fill="#588DC4"/>
<path d="M547.04 120.459L557.61 139.24L546.972 146.602L535.191 126.814L547.04 120.459Z" fill="#E39184"/>
<path d="M471.654 99.2452C468.022 100.259 464.329 101.255 460.592 102.232C457.753 102.976 454.938 103.695 452.142 104.389C455.743 114.105 459.351 123.815 462.952 133.531C463.437 134.864 466.75 136.278 465.017 138.687C463.235 141.163 456.512 148.415 456.512 148.415C456.512 148.415 455.172 144.881 458.355 141.157L460.629 137.654L454.674 144.906C454.674 144.906 453.734 143.308 454.527 141.194C454.527 141.194 452.339 140.328 453.697 137.605L452.234 136.825L434.4 99.5832C433.319 97.334 434.474 94.6423 436.846 93.868C447.115 90.5126 456.155 87.4951 466.424 84.1397L471.654 99.2452Z" fill="#E39184"/>
<path d="M466.424 84.1335L468.562 99.9151L473.331 99.0424L466.424 84.1335Z" fill="#002D5D"/>
<path d="M547.058 120.459L534.976 126.857L526.483 107.941L528.72 98.9626L533.225 90.6293C533.225 90.6293 537.398 95.3675 539.813 103.738C542.222 112.095 547.058 120.459 547.058 120.459Z" fill="#588DC4"/>
<path d="M532.684 121.75L526.483 108.74L535.192 117.012L539.241 123.465C537.662 124.073 536.089 124.681 534.509 125.284C534.036 123.993 533.163 123.047 532.684 121.75Z" fill="#002D5D"/>
<path d="M547.059 120.459L535.321 127.527L534.51 125.29L547.059 120.459Z" fill="#002D5D"/>
<path d="M451.841 105.139L447.687 103.799C447.687 103.799 451.22 103.916 452.271 104.371L451.841 105.139Z" fill="#002D5D"/>
<path d="M533.452 320.734C535.732 324.028 538.006 327.322 540.286 330.616C542.117 333.332 543.949 336.048 545.78 338.771C539.721 339.096 533.655 339.428 527.596 339.754C524.554 338.113 521.512 336.466 518.47 334.825C518.47 330.13 518.47 325.435 518.47 320.74L533.452 320.734Z" fill="#193157"/>
<path d="M571.05 310.944L579.844 315.633L589.499 314.225V316.831L564.677 329.245L557.659 315.633" fill="#193157"/>
<path d="M561.316 144.937L538.406 165.979L530.091 157.732L554.12 133.039L561.316 144.937Z" fill="#E39184"/>
<path d="M531.726 156.085L528.813 152.016V159.022L520.492 169.377C520.492 169.377 521.807 169.814 524.874 168.357L523.122 171.227C523.122 171.227 523.27 173.175 525.021 172.733C526.773 172.29 527.43 174.619 528.678 173.753C529.925 172.886 538.412 165.979 538.412 165.979L531.726 156.085Z" fill="#E39184"/>
<path d="M509.394 87.7348C509.848 88.0298 512.362 89.603 515.57 88.8472C519.515 87.9192 521.027 84.2811 521.162 83.9369C519.036 82.8307 516.922 81.5033 514.795 80.3972C514.433 81.448 513.806 82.8861 512.712 84.3917C511.551 85.9772 510.309 87.0527 509.394 87.7348Z" fill="#002D5D"/>
<path d="M501.97 54.7951C501.97 54.7951 497.33 53.4862 496.445 57.7634C495.56 62.0406 504.895 65.4084 504.895 65.4084L501.97 54.7951Z" fill="#E39184"/>
<path d="M506.007 61.1865L501.232 77.0786C501.232 77.0786 503.697 89.3818 511.133 88.5706C511.133 88.5706 513.665 88.2019 513.824 87.0588L516.393 73.6126L506.007 61.1865Z" fill="#E39184"/>
<path d="M516.546 72.9059C516.159 74.9462 515.766 76.9864 515.379 79.0329C513.461 78.5904 511.304 77.9144 509.043 76.8635C508.373 76.5563 507.746 76.2306 507.15 75.9048C506.72 75.0015 506.523 74.2271 506.425 73.6863C506.283 72.912 506.265 72.1377 506.228 70.5829C506.222 70.3186 506.216 69.9499 506.216 69.4521C506.222 68.2968 506.271 67.2643 506.339 66.3794C509.743 68.5549 513.148 70.7304 516.546 72.9059Z" fill="#002D5D"/>
<path d="M518.052 39.364C518.052 39.364 522.471 39.4131 524.161 49.676C525.851 59.9389 522.809 75.2841 522.809 75.2841C522.809 75.2841 511.163 76.1568 507.918 74.9338C506.308 70.8102 504.698 66.6805 503.088 62.5569L500.839 49.7375L500.9 44.4216L518.052 39.364Z" fill="#E39184"/>
<path d="M506.96 42.6395C506.96 42.6395 515.944 43.0942 519.834 40.126L518.519 36.9242L506.96 39.5913L496.451 44.3418L496.058 48.8341L499.972 55.2499L502.228 57.5791L503.832 62.6552L506.689 61.9977C505.97 58.759 505.251 55.5265 504.532 52.2878C504.096 52.0359 503.377 51.532 502.805 50.6532C501.84 49.1844 501.939 47.6726 501.988 47.181C502.246 46.5664 502.701 45.7368 506.96 42.6395Z" fill="#002D5D"/>
<path d="M517.431 48.5637C518.101 51.8146 518.765 55.0655 519.435 58.3165C520.565 59.7791 521.69 61.2356 522.821 62.6982C522.415 63.1038 521.819 63.5955 521.014 63.9949C519.312 64.843 517.695 64.7508 516.958 64.6586" stroke="#002D5D" stroke-width="1.5034" stroke-miterlimit="10"/>
<path d="M507.452 51.661C507.452 51.661 507.445 51.6672 507.439 51.661C507.39 51.6426 507.446 51.1141 507.532 50.4872C508.244 50.0017 509.129 49.504 510.186 49.1107C511.889 48.4715 513.443 48.324 514.617 48.3363C514.574 48.8095 514.531 49.2889 514.488 49.7621C514.488 49.7682 509.136 50.5241 507.452 51.661Z" fill="#002D5D"/>
<path d="M519.183 49.1967L518.783 48.0229C519.385 47.9614 520.031 47.9184 520.713 47.9C521.598 47.8754 522.434 47.9 523.208 47.9553C523.337 48.2994 523.466 48.6374 523.595 48.9815C522.126 49.0491 520.658 49.1229 519.183 49.1967Z" fill="#002D5D"/>
<path d="M517.315 68.6286C516.633 68.6655 515.213 68.6594 513.652 67.9035C512.3 67.252 511.464 66.3487 511.053 65.8263" stroke="#002D5D" stroke-width="1.5034" stroke-miterlimit="10"/>
<path d="M514.377 55.717C514.377 55.717 514.089 59.5579 510.211 59.1523" stroke="#002D5D" stroke-width="1.1276" stroke-miterlimit="10"/>
<path d="M511.028 56.5774C511.897 56.5774 512.602 55.873 512.602 55.0041C512.602 54.1353 511.897 53.4309 511.028 53.4309C510.159 53.4309 509.455 54.1353 509.455 55.0041C509.455 55.873 510.159 56.5774 511.028 56.5774Z" fill="#002D5D"/>
<path d="M520.271 55.6125C521.014 55.6125 521.617 55.01 521.617 54.2667C521.617 53.5234 521.014 52.9208 520.271 52.9208C519.527 52.9208 518.925 53.5234 518.925 54.2667C518.925 55.01 519.527 55.6125 520.271 55.6125Z" fill="#002D5D"/>
<path d="M499.764 58.9802C499.764 58.9802 502.246 58.0707 503.623 59.9082" stroke="#002D5D" stroke-width="1.5034" stroke-miterlimit="10"/>
</svg>
