<svg width="592" height="380" viewBox="0 0 592 380" fill="none" xmlns="http://www.w3.org/2000/svg">
<path opacity="0.26" d="M1.6488 336.926H592V352.969H1.6488V336.926Z" fill="#00899E"/>
<path d="M184.593 204.972L306.299 200.265L307.938 154.275H267.925C252.763 154.275 238.094 159.651 226.529 169.449L184.593 204.972Z" fill="#A2CBDE"/>
<path d="M306.3 200.265L388.768 197.075C401.427 196.587 413.922 194.041 425.759 189.534L472.912 171.593C462.245 160.524 447.542 154.275 432.173 154.275H307.938L306.3 200.265Z" fill="#D4F1FF"/>
<path opacity="0.4" d="M301.165 219.187L309.853 212.224L258.343 147.943L245.481 149.694L301.165 219.187Z" fill="#EBF8FF"/>
<path d="M354.278 221.075L375.736 205.443L332.975 146.746L301.844 149.102L354.278 221.075Z" fill="#EBF8FF"/>
<path d="M302.561 154.275H309.853V200.269H302.561V154.275Z" fill="#193157"/>
<path d="M386.548 153.367L393.277 150.561L411.513 194.29L404.783 197.096L386.548 153.367Z" fill="#193157"/>
<path d="M549.048 245.858L562.398 262.549V313.838H20.1422C20.1422 313.838 20.1422 282.089 31.2367 245.862H549.048V245.858Z" fill="#193157"/>
<mask id="mask0_3257_100834" style="mask-type:luminance" maskUnits="userSpaceOnUse" x="22" y="140" width="541" height="148">
<path d="M23.8714 276.915C26.9919 258.897 32.7228 236.552 43.2468 215.249C43.2468 215.249 79.6465 202.759 159.586 199.314L222.57 158.744C240.8 147.001 262.021 140.76 283.704 140.76H510.305L497.127 152.684C497.127 152.684 534.154 174.649 547.331 243.684L562.394 262.51V276.92V287.024H518.94C510.608 265.004 489.326 249.35 464.388 249.35C439.451 249.35 418.174 265.008 409.837 287.024H168.817C160.485 265.004 139.203 249.35 114.265 249.35C90.8577 249.35 70.674 263.145 61.3904 283.048C60.2581 285.477 57.8205 287.024 55.1409 287.024H22.3112C22.7434 283.848 23.2577 280.468 23.8714 276.915ZM388.767 197.075C401.426 196.587 413.921 194.037 425.759 189.534L472.911 171.593C462.249 160.529 447.541 154.275 432.173 154.275H267.925C252.763 154.275 238.094 159.651 226.529 169.449L184.597 204.967L388.767 197.075Z" fill="white"/>
</mask>
<g mask="url(#mask0_3257_100834)">
<path d="M23.9445 284.267C27.2076 264.148 33.2021 239.197 44.2102 215.409C44.2102 215.409 82.2781 201.467 165.882 197.616L231.754 152.313C250.818 139.2 273.015 132.229 295.693 132.229H532.671L518.888 145.545C518.888 145.545 557.613 170.072 571.396 247.154L587.149 268.176V284.267V295.552H541.7C532.982 270.964 510.728 253.481 484.65 253.481C458.571 253.481 436.317 270.964 427.599 295.552H175.538C166.82 270.964 144.566 253.481 118.488 253.481C92.4046 253.481 70.155 270.964 61.4376 295.552H22.3194C22.7646 292.008 23.3005 288.23 23.9445 284.267Z" fill="#193157"/>
</g>
<mask id="mask1_3257_100834" style="mask-type:luminance" maskUnits="userSpaceOnUse" x="22" y="140" width="541" height="148">
<path d="M23.8714 276.915C26.9919 258.897 32.7228 236.552 43.2468 215.249C43.2468 215.249 79.6465 202.759 159.586 199.314L222.57 158.744C240.8 147.001 262.021 140.76 283.704 140.76H510.305L497.127 152.684C497.127 152.684 534.154 174.649 547.331 243.684L562.394 262.51V276.92V287.024H518.94C510.608 265.004 489.326 249.35 464.388 249.35C439.451 249.35 418.174 265.008 409.837 287.024H168.817C160.485 265.004 139.203 249.35 114.265 249.35C90.8577 249.35 70.674 263.145 61.3904 283.048C60.2581 285.477 57.8205 287.024 55.1409 287.024H22.3112C22.7434 283.848 23.2577 280.468 23.8714 276.915ZM388.767 197.075C401.426 196.587 413.921 194.037 425.759 189.534L472.911 171.593C462.249 160.529 447.541 154.275 432.173 154.275H267.925C252.763 154.275 238.094 159.651 226.529 169.449L184.597 204.967L388.767 197.075Z" fill="white"/>
</mask>
<g mask="url(#mask1_3257_100834)">
<path d="M443.915 335.53C418.977 335.53 390.651 287.024 378.07 289.639L145.989 329.518C137.656 307.497 104.869 357.991 79.9273 357.991C54.9895 357.991 36.0852 315.519 27.7525 337.535L-11.1236 301.637C-10.6958 298.465 -8.50886 283.087 -7.89514 279.534C-4.77467 261.516 0.956243 239.171 11.4802 217.868C11.4802 217.868 47.8799 205.378 127.819 201.933L190.803 161.363C209.033 149.62 230.254 139.71 251.937 139.71H478.539L465.361 155.299C465.361 155.299 502.175 179.688 515.353 248.723L530.627 265.125V279.534V289.639L494.232 328.848C485.899 306.832 468.853 335.53 443.915 335.53Z" fill="#3E7BBD"/>
</g>
<mask id="mask2_3257_100834" style="mask-type:luminance" maskUnits="userSpaceOnUse" x="22" y="140" width="541" height="148">
<path d="M23.8714 276.915C26.9919 258.897 32.7228 236.552 43.2468 215.249C43.2468 215.249 79.6465 202.759 159.586 199.314L222.57 158.744C240.8 147.001 262.021 140.76 283.704 140.76H510.305L497.127 152.684C497.127 152.684 534.154 174.649 547.331 243.684L562.394 262.51V276.92V287.024H518.94C510.608 265.004 489.326 249.35 464.388 249.35C439.451 249.35 418.174 265.008 409.837 287.024H168.817C160.485 265.004 139.203 249.35 114.265 249.35C90.8577 249.35 70.674 263.145 61.3904 283.048C60.2581 285.477 57.8205 287.024 55.1409 287.024H22.3112C22.7434 283.848 23.2577 280.468 23.8714 276.915ZM388.767 197.075C401.426 196.587 413.921 194.037 425.759 189.534L472.911 171.593C462.249 160.529 447.541 154.275 432.173 154.275H267.925C252.763 154.275 238.094 159.651 226.529 169.449L184.597 204.967L388.767 197.075Z" fill="white"/>
</mask>
<g mask="url(#mask2_3257_100834)">
<path d="M58.4425 235.947H35.1687V230.242H64.1475C64.1475 233.393 61.5932 235.947 58.4425 235.947Z" fill="#193157"/>
</g>
<mask id="mask3_3257_100834" style="mask-type:luminance" maskUnits="userSpaceOnUse" x="22" y="140" width="541" height="148">
<path d="M23.8714 276.915C26.9919 258.897 32.7228 236.552 43.2468 215.249C43.2468 215.249 79.6465 202.759 159.586 199.314L222.57 158.744C240.8 147.001 262.021 140.76 283.704 140.76H510.305L497.127 152.684C497.127 152.684 534.154 174.649 547.331 243.684L562.394 262.51V276.92V287.024H518.94C510.608 265.004 489.326 249.35 464.388 249.35C439.451 249.35 418.174 265.008 409.837 287.024H168.817C160.485 265.004 139.203 249.35 114.265 249.35C90.8577 249.35 70.674 263.145 61.3904 283.048C60.2581 285.477 57.8205 287.024 55.1409 287.024H22.3112C22.7434 283.848 23.2577 280.468 23.8714 276.915ZM388.767 197.075C401.426 196.587 413.921 194.037 425.759 189.534L472.911 171.593C462.249 160.529 447.541 154.275 432.173 154.275H267.925C252.763 154.275 238.094 159.651 226.529 169.449L184.597 204.967L388.767 197.075Z" fill="white"/>
</mask>
<g mask="url(#mask3_3257_100834)">
<path d="M29.7971 214.545H76.5609L80.1309 230.493H29.7971" fill="#D4F1FF"/>
<mask id="mask4_3257_100834" style="mask-type:luminance" maskUnits="userSpaceOnUse" x="29" y="214" width="52" height="17">
<path d="M29.7971 214.545H76.5609L80.1309 230.493H29.7971" fill="white"/>
</mask>
<g mask="url(#mask4_3257_100834)">
<path d="M23.3621 211.372H70.1302L73.7002 227.316H23.3621" fill="white"/>
</g>
</g>
<mask id="mask5_3257_100834" style="mask-type:luminance" maskUnits="userSpaceOnUse" x="22" y="140" width="541" height="148">
<path d="M23.8714 276.915C26.9919 258.897 32.7228 236.552 43.2468 215.249C43.2468 215.249 79.6465 202.759 159.586 199.314L222.57 158.744C240.8 147.001 262.021 140.76 283.704 140.76H510.305L497.127 152.684C497.127 152.684 534.154 174.649 547.331 243.684L562.394 262.51V276.92V287.024H518.94C510.608 265.004 489.326 249.35 464.388 249.35C439.451 249.35 418.174 265.008 409.837 287.024H168.817C160.485 265.004 139.203 249.35 114.265 249.35C90.8577 249.35 70.674 263.145 61.3904 283.048C60.2581 285.477 57.8205 287.024 55.1409 287.024H22.3112C22.7434 283.848 23.2577 280.468 23.8714 276.915ZM388.767 197.075C401.426 196.587 413.921 194.037 425.759 189.534L472.911 171.593C462.249 160.529 447.541 154.275 432.173 154.275H267.925C252.763 154.275 238.094 159.651 226.529 169.449L184.597 204.967L388.767 197.075Z" fill="white"/>
</mask>
<g mask="url(#mask5_3257_100834)">
<path d="M287.257 256.239H305.103V287.02H287.257V256.239Z" fill="#69A4C2"/>
</g>
<mask id="mask6_3257_100834" style="mask-type:luminance" maskUnits="userSpaceOnUse" x="22" y="140" width="541" height="148">
<path d="M23.8714 276.915C26.9919 258.897 32.7228 236.552 43.2468 215.249C43.2468 215.249 79.6465 202.759 159.586 199.314L222.57 158.744C240.8 147.001 262.021 140.76 283.704 140.76H510.305L497.127 152.684C497.127 152.684 534.154 174.649 547.331 243.684L562.394 262.51V276.92V287.024H518.94C510.608 265.004 489.326 249.35 464.388 249.35C439.451 249.35 418.174 265.008 409.837 287.024H168.817C160.485 265.004 139.203 249.35 114.265 249.35C90.8577 249.35 70.674 263.145 61.3904 283.048C60.2581 285.477 57.8205 287.024 55.1409 287.024H22.3112C22.7434 283.848 23.2577 280.468 23.8714 276.915ZM388.767 197.075C401.426 196.587 413.921 194.037 425.759 189.534L472.911 171.593C462.249 160.529 447.541 154.275 432.173 154.275H267.925C252.763 154.275 238.094 159.651 226.529 169.449L184.597 204.967L388.767 197.075Z" fill="white"/>
</mask>
<g mask="url(#mask6_3257_100834)">
<path d="M108.937 382.445C67.6351 382.445 34.1536 348.963 34.1536 307.662C34.1536 266.36 67.6351 232.879 108.937 232.879C150.238 232.879 183.72 266.36 183.72 307.662C183.72 348.963 150.238 382.445 108.937 382.445Z" fill="#91C5DE"/>
</g>
<mask id="mask7_3257_100834" style="mask-type:luminance" maskUnits="userSpaceOnUse" x="22" y="140" width="541" height="148">
<path d="M23.8714 276.915C26.9919 258.897 32.7228 236.552 43.2468 215.249C43.2468 215.249 79.6465 202.759 159.586 199.314L222.57 158.744C240.8 147.001 262.021 140.76 283.704 140.76H510.305L497.127 152.684C497.127 152.684 534.154 174.649 547.331 243.684L562.394 262.51V276.92V287.024H518.94C510.608 265.004 489.326 249.35 464.388 249.35C439.451 249.35 418.174 265.008 409.837 287.024H168.817C160.485 265.004 139.203 249.35 114.265 249.35C90.8577 249.35 70.674 263.145 61.3904 283.048C60.2581 285.477 57.8205 287.024 55.1409 287.024H22.3112C22.7434 283.848 23.2577 280.468 23.8714 276.915ZM388.767 197.075C401.426 196.587 413.921 194.037 425.759 189.534L472.911 171.593C462.249 160.529 447.541 154.275 432.173 154.275H267.925C252.763 154.275 238.094 159.651 226.529 169.449L184.597 204.967L388.767 197.075Z" fill="white"/>
</mask>
<g mask="url(#mask7_3257_100834)">
<path d="M26.2571 262.713H41.7125L52.2451 291.122H20.1415L26.2571 262.713Z" fill="#D1F0FF"/>
</g>
<mask id="mask8_3257_100834" style="mask-type:luminance" maskUnits="userSpaceOnUse" x="22" y="140" width="541" height="148">
<path d="M23.8714 276.915C26.9919 258.897 32.7228 236.552 43.2468 215.249C43.2468 215.249 79.6465 202.759 159.586 199.314L222.57 158.744C240.8 147.001 262.021 140.76 283.704 140.76H510.305L497.127 152.684C497.127 152.684 534.154 174.649 547.331 243.684L562.394 262.51V276.92V287.024H518.94C510.608 265.004 489.326 249.35 464.388 249.35C439.451 249.35 418.174 265.008 409.837 287.024H168.817C160.485 265.004 139.203 249.35 114.265 249.35C90.8577 249.35 70.674 263.145 61.3904 283.048C60.2581 285.477 57.8205 287.024 55.1409 287.024H22.3112C22.7434 283.848 23.2577 280.468 23.8714 276.915ZM388.767 197.075C401.426 196.587 413.921 194.037 425.759 189.534L472.911 171.593C462.249 160.529 447.541 154.275 432.173 154.275H267.925C252.763 154.275 238.094 159.651 226.529 169.449L184.597 204.967L388.767 197.075Z" fill="white"/>
</mask>
<g mask="url(#mask8_3257_100834)">
<path d="M537.3 208.533L502.322 203.364L500.192 213.706L545.205 232.866C544.406 228.855 543.282 224.386 541.683 219.602C540.317 215.5 538.809 211.805 537.3 208.533Z" fill="#D4F1FF"/>
<mask id="mask9_3257_100834" style="mask-type:luminance" maskUnits="userSpaceOnUse" x="500" y="203" width="46" height="30">
<path d="M537.3 208.533L502.322 203.364L500.192 213.706L545.205 232.866C544.406 228.855 543.282 224.386 541.683 219.602C540.317 215.5 538.809 211.805 537.3 208.533Z" fill="white"/>
</mask>
<g mask="url(#mask9_3257_100834)">
<path d="M541.458 204.31L506.481 199.141L504.35 209.484L549.363 228.643C548.564 224.632 547.44 220.163 545.841 215.379C544.475 211.277 542.967 207.582 541.458 204.31Z" fill="white"/>
</g>
</g>
<mask id="mask10_3257_100834" style="mask-type:luminance" maskUnits="userSpaceOnUse" x="22" y="140" width="541" height="148">
<path d="M23.8714 276.915C26.9919 258.897 32.7228 236.552 43.2468 215.249C43.2468 215.249 79.6465 202.759 159.586 199.314L222.57 158.744C240.8 147.001 262.021 140.76 283.704 140.76H510.305L497.127 152.684C497.127 152.684 534.154 174.649 547.331 243.684L562.394 262.51V276.92V287.024H518.94C510.608 265.004 489.326 249.35 464.388 249.35C439.451 249.35 418.174 265.008 409.837 287.024H168.817C160.485 265.004 139.203 249.35 114.265 249.35C90.8577 249.35 70.674 263.145 61.3904 283.048C60.2581 285.477 57.8205 287.024 55.1409 287.024H22.3112C22.7434 283.848 23.2577 280.468 23.8714 276.915ZM388.767 197.075C401.426 196.587 413.921 194.037 425.759 189.534L472.911 171.593C462.249 160.529 447.541 154.275 432.173 154.275H267.925C252.763 154.275 238.094 159.651 226.529 169.449L184.597 204.967L388.767 197.075Z" fill="white"/>
</mask>
<g mask="url(#mask10_3257_100834)">
<path d="M522.631 229.607L550.525 240.55L552.608 235.238L519.403 222.212C518.253 225.147 519.697 228.457 522.631 229.607Z" fill="#193157"/>
</g>
<mask id="mask11_3257_100834" style="mask-type:luminance" maskUnits="userSpaceOnUse" x="22" y="140" width="541" height="148">
<path d="M23.8714 276.915C26.9919 258.897 32.7228 236.552 43.2468 215.249C43.2468 215.249 79.6465 202.759 159.586 199.314L222.57 158.744C240.8 147.001 262.021 140.76 283.704 140.76H510.305L497.127 152.684C497.127 152.684 534.154 174.649 547.331 243.684L562.394 262.51V276.92V287.024H518.94C510.608 265.004 489.326 249.35 464.388 249.35C439.451 249.35 418.174 265.008 409.837 287.024H168.817C160.485 265.004 139.203 249.35 114.265 249.35C90.8577 249.35 70.674 263.145 61.3904 283.048C60.2581 285.477 57.8205 287.024 55.1409 287.024H22.3112C22.7434 283.848 23.2577 280.468 23.8714 276.915ZM388.767 197.075C401.426 196.587 413.921 194.037 425.759 189.534L472.911 171.593C462.249 160.529 447.541 154.275 432.173 154.275H267.925C252.763 154.275 238.094 159.651 226.529 169.449L184.597 204.967L388.767 197.075Z" fill="white"/>
</mask>
<g mask="url(#mask11_3257_100834)">
<path d="M469.319 232.879C486.789 232.879 502.849 238.886 515.578 248.926C517.337 255.422 522.181 274.318 522.7 287.024L539.003 292.85L542.158 290.746C543.415 296.183 544.103 301.84 544.103 307.657C544.103 348.958 510.62 382.441 469.319 382.441C428.019 382.441 394.536 348.958 394.536 307.657C394.536 266.357 428.019 232.879 469.319 232.879Z" fill="#91C5DE"/>
<path d="M522.705 287.024C522.186 274.322 517.341 255.422 515.582 248.926C528.703 259.277 538.268 273.92 542.162 290.75L539.007 292.855L522.705 287.024Z" fill="#7FACC2"/>
</g>
<path d="M438.185 307.662C438.185 284.323 457.106 265.401 480.445 265.401C503.783 265.401 522.705 284.323 522.705 307.662C522.705 331 503.783 349.922 480.445 349.922C469.999 349.922 467.466 349.857 457.668 349.602C445.713 349.287 438.185 320.55 438.185 307.662Z" fill="#193157"/>
<path d="M462.094 349.922C438.755 349.922 419.834 331.001 419.834 307.662C419.834 284.322 438.755 265.401 462.094 265.401C485.434 265.401 504.354 284.322 504.354 307.662C504.354 331.001 485.434 349.922 462.094 349.922Z" fill="#435C85"/>
<path d="M462.094 339.454C444.536 339.454 430.302 325.22 430.302 307.662C430.302 290.103 444.536 275.869 462.094 275.869C479.653 275.869 493.887 290.103 493.887 307.662C493.887 325.22 479.653 339.454 462.094 339.454Z" fill="#91C5DE"/>
<mask id="mask12_3257_100834" style="mask-type:luminance" maskUnits="userSpaceOnUse" x="430" y="275" width="64" height="65">
<path d="M462.094 339.454C444.536 339.454 430.302 325.22 430.302 307.662C430.302 290.103 444.536 275.869 462.094 275.869C479.653 275.869 493.887 290.103 493.887 307.662C493.887 325.22 479.653 339.454 462.094 339.454Z" fill="white"/>
</mask>
<g mask="url(#mask12_3257_100834)">
<path d="M428.858 319.971L455.68 307.329C459.121 305.708 463.015 306.184 465.915 308.232L449.69 315.878L454.367 324.751L480.445 312.459L478.31 307.925C473.56 297.842 461.493 293.503 451.41 298.257L427.263 309.637" fill="#435C85"/>
</g>
<path d="M82.1367 307.662C82.1367 284.323 101.058 265.401 124.397 265.401C147.736 265.401 166.657 284.323 166.657 307.662C166.657 331 147.736 349.922 124.397 349.922C113.951 349.922 111.418 349.857 101.62 349.602C89.6656 349.287 82.1367 320.55 82.1367 307.662Z" fill="#193157"/>
<path d="M106.045 349.922C82.7057 349.922 63.7851 331.001 63.7851 307.662C63.7851 284.322 82.7057 265.401 106.045 265.401C129.385 265.401 148.306 284.322 148.306 307.662C148.306 331.001 129.385 349.922 106.045 349.922Z" fill="#435C85"/>
<path d="M106.045 339.454C88.487 339.454 74.253 325.22 74.253 307.662C74.253 290.103 88.487 275.869 106.045 275.869C123.604 275.869 137.838 290.103 137.838 307.662C137.838 325.22 123.604 339.454 106.045 339.454Z" fill="#91C5DE"/>
<mask id="mask13_3257_100834" style="mask-type:luminance" maskUnits="userSpaceOnUse" x="74" y="275" width="64" height="65">
<path d="M106.045 339.454C88.487 339.454 74.253 325.22 74.253 307.662C74.253 290.103 88.487 275.869 106.045 275.869C123.604 275.869 137.838 290.103 137.838 307.662C137.838 325.22 123.604 339.454 106.045 339.454Z" fill="white"/>
</mask>
<g mask="url(#mask13_3257_100834)">
<path d="M72.8055 319.971L99.6277 307.329C103.068 305.708 106.962 306.184 109.862 308.232L93.6375 315.878L98.3138 324.751L124.393 312.459L122.258 307.925C117.508 297.842 105.441 293.503 95.3576 298.257L71.2107 309.637" fill="#435C85"/>
</g>
<path d="M404.953 220.954H375.149V217.324C375.149 215.319 376.774 213.693 378.779 213.693H397.692C401.703 213.693 404.953 216.944 404.953 220.954Z" fill="#193157"/>
<path d="M295.478 220.954H265.673V217.324C265.673 215.319 267.298 213.693 269.304 213.693H288.217C292.227 213.693 295.478 216.944 295.478 220.954Z" fill="#193157"/>
<path d="M454.772 225.484H482.005V212.142C482.005 206.597 477.51 202.102 471.965 202.102H454.772V225.484Z" fill="#69A4C2"/>
<path d="M306.205 198.688V313.795" stroke="#193157" stroke-width="4.0689" stroke-miterlimit="10"/>
<path d="M407.162 193.579L422.19 209.103C424.908 212.125 426.412 216.045 426.412 220.107V268.029" stroke="#193157" stroke-width="4.0689" stroke-miterlimit="10"/>
<path d="M523.055 313.795C523.306 311.785 523.44 309.736 523.44 307.662C523.44 279.746 499.98 257.121 471.041 257.121C442.101 257.121 418.641 279.75 418.641 307.662C418.641 309.741 418.775 311.785 419.026 313.795H159.392C159.642 311.785 159.776 309.736 159.776 307.662C159.776 279.746 136.317 257.121 107.377 257.121C78.4368 257.121 54.9772 279.75 54.9772 307.662C54.9772 309.741 55.1112 311.785 55.3618 313.795H10.1799C10.1799 313.795 10.18 303.089 12.4317 287.024H51.2084C59.8481 265.004 81.9117 249.35 107.766 249.35C133.62 249.35 155.683 265.008 164.323 287.024H414.198C422.838 265.004 444.901 249.35 470.755 249.35C496.609 249.35 518.673 265.008 527.313 287.024H572.369V313.795H523.055Z" fill="#193157"/>
<path d="M242.019 232.641C255.137 232.658 268.258 232.675 281.375 232.693C285.079 232.697 288.779 232.701 292.483 232.706C293.317 232.706 293.814 233.618 293.416 234.331C290.08 240.33 285.33 245.464 279.724 249.406C274.166 253.313 267.709 256.036 261.001 257.168C252.578 258.59 244.137 257.19 235.783 255.958C231.366 255.305 226.953 254.653 222.536 254.004C218.668 253.434 214.73 252.971 211.014 251.709C207.539 250.529 204.366 248.658 202.166 245.667C200.222 243.027 199.163 239.621 199.811 236.358C199.971 235.554 200.265 234.785 200.624 234.05C200.796 233.704 201.194 233.531 201.557 233.514C209.544 233.112 217.54 232.827 225.54 232.667C233.54 232.507 241.535 232.459 249.535 232.537C254.056 232.58 258.573 232.662 263.093 232.783C264.481 232.822 264.485 234.983 263.093 234.944C255.098 234.733 247.098 234.638 239.098 234.668C231.098 234.694 223.098 234.841 215.106 235.109C210.59 235.26 206.074 235.45 201.561 235.675C201.873 235.498 202.184 235.316 202.495 235.139C201.207 237.749 201.79 240.827 203.186 243.269C204.812 246.108 207.478 248.036 210.486 249.22C213.94 250.577 217.648 251.113 221.296 251.649C225.57 252.28 229.844 252.911 234.114 253.542C242.218 254.739 250.49 256.321 258.707 255.336C265.103 254.571 271.305 252.237 276.742 248.801C282.166 245.369 286.877 240.77 290.313 235.338C290.75 234.651 291.16 233.95 291.558 233.237C291.869 233.778 292.18 234.322 292.491 234.862C279.374 234.845 266.253 234.828 253.135 234.81C249.432 234.806 245.732 234.802 242.028 234.797C240.628 234.797 240.628 232.637 242.019 232.641Z" fill="#002D5D"/>
<path d="M305.777 200.269L184.593 204.972V295.552H306.114L305.777 200.269Z" fill="#193157"/>
<mask id="mask14_3257_100834" style="mask-type:luminance" maskUnits="userSpaceOnUse" x="181" y="156" width="126" height="150">
<path d="M302.557 164.717V219.187L292.357 305.254L181.711 295.007L197.767 181.732L261.135 156.423H306.114L302.557 164.717Z" fill="white"/>
</mask>
<g mask="url(#mask14_3257_100834)">
<path d="M226.106 274.348H288.196L288.796 271.543L292.954 252.185H246.536C235.251 252.185 226.106 261.33 226.106 272.615V274.348Z" fill="#34679E"/>
<path d="M263.875 274.348H288.195L305.172 196.617C292.253 193.795 279.491 201.976 276.668 214.895L263.875 274.348Z" fill="#3E7BBD"/>
<path d="M282.901 188.207L306.292 193.32L311.098 171.325L303.953 169.765C294.981 167.803 286.117 173.486 284.159 182.458L282.901 188.207Z" fill="#3E7BBD"/>
</g>
<path opacity="0.38" d="M312.394 347.679C223.745 347.679 151.881 275.814 151.881 187.165C151.881 98.5158 223.745 26.6514 312.394 26.6514C401.044 26.6514 472.908 98.5158 472.908 187.165C472.908 275.814 401.044 347.679 312.394 347.679Z" fill="url(#paint0_radial_3257_100834)"/>
<path d="M245.805 159.224L247.279 172.583L235.822 217.834L238.415 230.804C238.415 230.804 225.631 275.77 210.979 279.517L241.873 157.019L246.203 157.594" fill="#678C9E"/>
<path d="M242.75 115.269C242.75 115.269 246.774 115.226 249.657 119.552C249.657 119.552 250.819 140.306 246.203 157.598C246.203 157.598 218.24 272.131 209.307 288.939H205.227" fill="#193157"/>
<path d="M205.222 140.289C205.222 140.289 229.974 116.069 242.75 115.269C242.75 115.269 244.842 115.922 243.592 126.96C242.343 137.998 234.512 176.278 234.512 176.278L205.222 288.935H178.534C178.534 288.939 171.779 201.946 205.222 140.289Z" fill="#386FAB"/>
<path d="M193.916 183.076C204.479 181.011 215.042 178.949 225.605 176.883C227.005 176.611 228.401 176.334 229.801 176.062C230.674 173.473 231.539 170.763 232.373 167.928C234.08 162.158 235.688 155.878 237.067 149.132C238.977 139.783 240.139 131.096 240.814 123.269C240.909 122.137 239.798 121.29 238.722 121.666C233.959 123.334 230.199 125.279 227.489 126.878C223.366 129.315 217.842 132.691 213.166 138.526C212.211 139.723 211.286 141.019 210.422 142.437C209.095 144.607 208.083 146.776 207.314 148.877C207.072 149.525 206.856 150.165 206.661 150.796L193.916 183.076Z" fill="#ABCEDE"/>
<path d="M228.41 186.046L207.734 188.258L208.43 186.478C208.797 185.536 209.765 184.645 210.642 184.459L222.061 182.035C225.571 181.283 228.665 182.912 228.41 186.046Z" fill="#193157"/>
<path d="M212.111 180.155L192.71 183.941V176.715C192.71 174.778 193.924 172.73 195.506 172.103L203.428 168.97C207.949 167.18 212.111 169.812 212.111 175.085V180.155Z" fill="#193157"/>
<path d="M190.441 186.798L193.514 180.773L195.195 182.013L193.134 185.895C192.464 187.144 191.254 187.528 190.441 186.798Z" fill="#193157"/>
<path opacity="0.4" d="M207.314 148.877L225.605 176.883C227.005 176.611 228.401 176.334 229.801 176.062C230.674 173.473 231.539 170.763 232.373 167.928L213.166 138.526C212.211 139.723 211.286 141.019 210.422 142.437C209.095 144.607 208.084 146.776 207.314 148.877Z" fill="#EBF8FF"/>
<path d="M359.59 201.959C360.485 204.712 361.38 207.47 362.279 210.223C375.383 256.974 388.487 303.724 401.587 350.475L389.451 355.493C373.053 307.29 356.656 259.087 340.262 210.884" fill="#193157"/>
<path d="M260.807 130.88C260.474 130.889 256.918 131.036 255.388 133.681C254.203 135.725 254.955 138.007 255.47 139.559C255.733 140.362 256.226 141.547 258.534 144.481C259.671 145.929 261.274 147.831 263.383 149.944C263.859 151.79 264.334 153.64 264.809 155.485C265.341 155.373 266.21 155.126 267.122 154.513C268.051 153.89 268.617 153.164 268.92 152.706C270.143 153.804 271.413 154.91 272.727 156.021C274.452 157.477 276.15 158.86 277.823 160.17C279.802 157.797 281.786 155.424 283.766 153.052C283.009 150.312 280.861 143.954 274.893 138.409C269.43 133.331 263.573 131.537 260.807 130.88Z" fill="#E39184"/>
<path d="M274.482 148.367L289.445 160.892C292.855 157.097 296.261 153.302 299.671 149.508C294.312 144.65 288.957 139.792 283.597 134.938" fill="#E39184"/>
<path d="M253.5 131.731C258.539 128.032 263.578 124.328 268.614 120.628C271.963 120.866 275.308 121.108 278.658 121.346C279.95 124.285 281.238 127.228 282.53 130.167C284.907 134.009 287.28 137.847 289.657 141.689C288.555 142.804 287.457 143.919 286.355 145.034C282.699 144.913 279.042 144.792 275.386 144.671C274.444 140.311 272.171 137.441 269.953 137.436C268.614 137.432 266.595 138.478 266.535 139.865C266.5 140.639 267.088 141.274 267.447 141.603C268.32 142.644 269.193 143.686 270.066 144.728C269.443 145.337 268.825 145.946 268.203 146.556C266.34 144.607 264.477 142.657 262.615 140.704C263.025 136.308 262.312 135.046 261.573 134.714C260.722 134.329 259.797 135.025 257.204 135.029C256.248 135.029 255.457 134.938 254.913 134.848C254.442 133.806 253.971 132.769 253.5 131.731Z" fill="#002D5D"/>
<path d="M277.802 159.794C279.388 157.547 280.974 155.295 282.56 153.047C283.014 153.774 283.468 154.504 283.922 155.234C281.882 156.756 279.842 158.277 277.802 159.794Z" fill="#002D5D"/>
<path d="M258.915 144.689C260.574 146.819 262.23 148.95 263.889 151.081C264.196 152.55 264.503 154.02 264.81 155.489C265.276 155.45 265.895 155.347 266.569 155.057C267.991 154.452 268.786 153.406 269.123 152.9" stroke="#002D5D" stroke-width="1.7387" stroke-miterlimit="10"/>
<path d="M263.324 143.487C263.324 143.487 263.328 143.487 263.332 143.487C263.349 143.453 263.099 143.064 262.796 142.614C262.195 142.523 261.495 142.485 260.739 142.597C259.52 142.774 258.591 143.275 257.934 143.747C258.154 144.097 258.375 144.447 258.595 144.797C258.595 144.797 261.906 143.271 263.324 143.487Z" fill="#002D5D"/>
<path d="M272.382 155.74C272.646 155.416 273.065 154.806 273.247 153.946C273.338 153.505 273.342 153.112 273.32 152.814" stroke="#002D5D" stroke-width="1.8935" stroke-miterlimit="10"/>
<path d="M261.412 147.364C261.412 147.364 263.344 148.488 264.425 146.504" stroke="#002D5D" stroke-width="0.9305" stroke-miterlimit="10"/>
<path d="M261.961 147.476C261.19 147.476 260.565 146.851 260.565 146.08C260.565 145.309 261.19 144.684 261.961 144.684C262.732 144.684 263.357 145.309 263.357 146.08C263.357 146.851 262.732 147.476 261.961 147.476Z" fill="#002D5D"/>
<path d="M270.917 141.482C270.917 141.482 269.007 142.835 269.655 144.767" stroke="#002D5D" stroke-width="1.8935" stroke-miterlimit="10"/>
<path d="M325.335 215.292C314.629 231.794 303.923 248.295 293.218 264.796C296.779 296.437 300.341 328.079 303.906 359.72C309.144 359.093 314.383 358.462 319.621 357.835C317.944 329.756 316.267 301.676 314.59 273.6C324.928 257.929 335.262 242.257 345.6 226.581C346.91 224.515 348.526 221.382 349.356 217.311C350.972 209.363 348.565 202.875 347.407 200.243C343.616 202.084 338.603 204.842 333.149 208.853C333.153 208.848 328.17 210.923 325.335 215.292Z" fill="#194C82"/>
<path d="M336.948 171.373C343.15 178.897 351.089 189.14 359.591 201.959C356.833 203.537 354.063 205.11 351.28 206.687C348.107 208.481 344.027 210.785 342.886 211.416C338.945 213.598 332.566 216.632 322.361 219.874C314.858 210.888 307.355 201.903 299.852 192.918C295.868 189.24 291.878 185.562 287.894 181.884C285.949 179.943 284.004 177.998 282.059 176.058C284.609 169.263 287.168 162.478 289.726 155.679C291.321 153.034 292.916 150.376 294.511 147.731C296.369 146.746 299.446 145.415 303.306 145.276C310.748 145.009 318.631 149.153 336.948 171.373Z" fill="#588DC4"/>
<path d="M389.455 355.493L386.27 364.145L378.737 369.12L380.345 370.918L405.127 364.197L401.592 350.475" fill="#193157"/>
<path d="M303.867 354.525L301.054 363.065L292.639 366.328L293.823 368.429L319.47 367.128L318.929 352.969" fill="#193157"/>
<path d="M239.466 192.866C239.414 191.803 239.198 190.156 238.398 188.319C237.69 186.698 236.786 185.527 236.112 184.779C235.905 185.125 235.697 185.562 235.563 186.093C235.109 187.878 235.831 189.413 236.112 189.936C236.112 190.761 236.112 191.582 236.112 192.408" fill="#D98073"/>
<path d="M287.047 189.992L277.452 207.474L266.466 202.711L276.264 183.785L287.047 189.992Z" fill="#E39184"/>
<path d="M287.107 189.948L275.796 184.287L285.478 167.721L293.443 164.578C296.715 164.721 299.991 164.859 303.262 165.002C303.267 165.356 303.271 165.707 303.275 166.061C301.253 170.409 299.126 173.555 297.575 175.612C295.837 177.916 294.804 178.871 292.777 181.477C290.093 184.918 288.239 187.947 287.107 189.948Z" fill="#588DC4"/>
<path d="M275.831 184.317L287.854 188.423L287.128 190.009L275.831 184.317Z" fill="#002D5D"/>
<path d="M287.107 189.948L290.815 184.114L285.193 188.682" fill="#002D5D"/>
<path d="M274.781 213.17L233.488 200.157L236.056 191.146L280.615 201.704L274.781 213.17Z" fill="#E39184"/>
<path d="M239.889 193.41L231.409 187.908L219.105 192.161C219.105 192.161 218.941 193.462 222.199 193.302L217.994 196.051C217.994 196.051 216.991 197.983 221.875 196.051L219.109 199.163C219.109 199.163 219.109 200.464 223.993 199.163C223.993 199.163 219.844 201.592 226.111 200.287L234.923 199.988L239.894 201.454L240.939 193.817L239.889 193.41Z" fill="#E39184"/>
<path d="M231.409 187.908L236.419 191.193L237.845 191.586L235.692 200.883L233.488 200.157L228.254 200.023L231.409 187.908Z" fill="#D98073"/>
<defs>
<radialGradient id="paint0_radial_3257_100834" cx="0" cy="0" r="1" gradientUnits="userSpaceOnUse" gradientTransform="translate(312.396 187.166) rotate(180) scale(184.191 184.191)">
<stop offset="0.0027933" stop-color="white"/>
<stop offset="0.5621" stop-color="#FBFBFB" stop-opacity="0.2978"/>
<stop offset="0.7993" stop-color="#F7F7F7" stop-opacity="0"/>
</radialGradient>
</defs>
</svg>
