<svg width="592" height="380" viewBox="0 0 592 380" fill="none" xmlns="http://www.w3.org/2000/svg">
<path opacity="0.26" d="M0.30011 265.197H591.202V278.139H0.30011V265.197Z" fill="#00899E"/>
<path d="M279.334 71.9885V119.977H286.941V111.854C285.452 110.896 283.537 109.471 281.468 107.359C281.382 107.082 281.303 106.811 281.223 106.539C283.127 105.295 285.037 104.05 286.941 102.805V71.9885H279.334Z" fill="#193157"/>
<path d="M351.681 71.9885L428.065 124.881L406.026 133.983L120.486 118.328L99.718 81.0318L132.529 69.3766L197.726 71.0257L351.681 71.9885Z" fill="#D4F1FF"/>
<path d="M288.394 139.718L279.329 132.451L333.073 65.3816L346.489 67.2115L288.394 139.718Z" fill="#EBF8FF"/>
<path d="M232.98 141.686L210.589 125.376L255.205 64.1367L287.687 66.589L232.98 141.686Z" fill="#EBF8FF"/>
<path d="M286.937 119.98H279.33V71.9923H286.937V119.98Z" fill="#193157"/>
<path d="M180.307 116.643L173.286 113.715L192.312 68.0909L199.333 71.0188L180.307 116.643Z" fill="#193157"/>
<path d="M29.7658 167.545L15.8338 184.956V238.466H581.601C581.601 238.466 581.601 205.34 570.025 167.539H29.7658V167.545Z" fill="#193157"/>
<mask id="mask0_3257_100972" style="mask-type:luminance" maskUnits="userSpaceOnUse" x="15" y="57" width="565" height="154">
<path d="M577.707 199.946C574.451 181.147 568.472 157.836 557.492 135.606C557.492 135.606 519.515 122.578 436.109 118.982L370.391 76.6538C351.373 64.4027 329.228 57.8862 306.603 57.8862H70.1788L83.9301 70.3288C83.9301 70.3288 45.2991 93.2457 31.5479 165.273L15.8337 184.918V199.952V210.495H61.1728C69.8703 187.52 92.069 171.189 118.087 171.189C144.105 171.189 166.309 187.525 175.002 210.495H426.475C435.173 187.52 457.372 171.189 483.39 171.189C507.812 171.189 528.873 185.583 538.554 206.346C539.735 208.878 542.278 210.495 545.076 210.495H579.329C578.888 207.181 578.35 203.654 577.707 199.946ZM196.998 116.647C183.79 116.136 170.757 113.476 158.399 108.779L109.204 90.0592C120.332 78.5157 135.674 71.9885 151.707 71.9885H323.078C338.893 71.9885 354.198 77.6007 366.268 87.825L410.022 124.887L196.998 116.647Z" fill="white"/>
</mask>
<g mask="url(#mask0_3257_100972)">
<path d="M577.632 207.617C574.227 186.626 567.977 160.592 556.486 135.776C556.486 135.776 516.765 121.227 429.539 117.21L360.81 69.9458C340.92 56.2691 317.758 48.9918 294.102 48.9918H46.8466L61.2255 62.8813C61.2255 62.8813 20.8231 88.4686 6.44423 168.896L-9.98804 190.828V207.617V219.389H37.4309C46.5275 193.738 69.7423 175.497 96.9574 175.497C124.167 175.497 147.387 193.738 156.484 219.389H419.469C428.566 193.738 451.78 175.497 478.996 175.497C506.205 175.497 529.425 193.738 538.522 219.389H579.334C578.866 215.692 578.302 211.756 577.632 207.617Z" fill="#193157"/>
</g>
<mask id="mask1_3257_100972" style="mask-type:luminance" maskUnits="userSpaceOnUse" x="15" y="57" width="565" height="154">
<path d="M577.707 199.946C574.451 181.147 568.472 157.836 557.492 135.606C557.492 135.606 519.515 122.578 436.109 118.982L370.391 76.6538C351.373 64.4027 329.228 57.8862 306.603 57.8862H70.1788L83.9301 70.3288C83.9301 70.3288 45.2991 93.2457 31.5479 165.273L15.8337 184.918V199.952V210.495H61.1728C69.8703 187.52 92.069 171.189 118.087 171.189C144.105 171.189 166.309 187.525 175.002 210.495H426.475C435.173 187.52 457.372 171.189 483.39 171.189C507.812 171.189 528.873 185.583 538.554 206.346C539.735 208.878 542.278 210.495 545.076 210.495H579.329C578.888 207.181 578.35 203.654 577.707 199.946ZM196.998 116.647C183.79 116.136 170.757 113.476 158.399 108.779L109.204 90.0592C120.332 78.5157 135.674 71.9885 151.707 71.9885H323.078C338.893 71.9885 354.198 77.6007 366.268 87.825L410.022 124.887L196.998 116.647Z" fill="white"/>
</mask>
<g mask="url(#mask1_3257_100972)">
<path d="M139.456 257.903C165.475 257.903 199.462 187.052 208.154 210.022L450.297 251.626C458.995 228.651 493.2 281.331 519.218 281.331C545.236 281.331 564.961 237.013 573.659 259.989L614.221 222.533C613.774 219.225 611.492 203.175 610.853 199.473C607.598 180.673 601.619 157.363 590.639 135.132C590.639 135.132 552.662 122.104 469.256 118.508L403.538 76.1803C384.52 63.9292 362.375 57.4127 339.75 57.4127H103.326L117.077 69.8553C117.077 69.8553 78.6639 95.3043 64.9127 167.326C62.2689 177.365 59.625 187.403 56.9759 197.446C54.3107 201.638 51.6403 205.83 48.9752 210.016L86.9465 250.924C95.6494 227.959 113.433 257.903 139.456 257.903Z" fill="#3E7BBD"/>
</g>
<mask id="mask2_3257_100972" style="mask-type:luminance" maskUnits="userSpaceOnUse" x="15" y="57" width="565" height="154">
<path d="M577.707 199.946C574.451 181.147 568.472 157.836 557.492 135.606C557.492 135.606 519.515 122.578 436.109 118.982L370.391 76.6538C351.373 64.4027 329.228 57.8862 306.603 57.8862H70.1788L83.9301 70.3288C83.9301 70.3288 45.2991 93.2457 31.5479 165.273L15.8337 184.918V199.952V210.495H61.1728C69.8703 187.52 92.069 171.189 118.087 171.189C144.105 171.189 166.309 187.525 175.002 210.495H426.475C435.173 187.52 457.372 171.189 483.39 171.189C507.812 171.189 528.873 185.583 538.554 206.346C539.735 208.878 542.278 210.495 545.076 210.495H579.329C578.888 207.181 578.35 203.654 577.707 199.946ZM196.998 116.647C183.79 116.136 170.757 113.476 158.399 108.779L109.204 90.0592C120.332 78.5157 135.674 71.9885 151.707 71.9885H323.078C338.893 71.9885 354.198 77.6007 366.268 87.825L410.022 124.887L196.998 116.647Z" fill="white"/>
</mask>
<g mask="url(#mask2_3257_100972)">
<path d="M541.64 157.203H565.924V151.251H535.692C535.687 154.538 538.352 157.203 541.64 157.203Z" fill="#193157"/>
</g>
<mask id="mask3_3257_100972" style="mask-type:luminance" maskUnits="userSpaceOnUse" x="15" y="57" width="565" height="154">
<path d="M577.707 199.946C574.451 181.147 568.472 157.836 557.492 135.606C557.492 135.606 519.515 122.578 436.109 118.982L370.391 76.6538C351.373 64.4027 329.228 57.8862 306.603 57.8862H70.1788L83.9301 70.3288C83.9301 70.3288 45.2991 93.2457 31.5479 165.273L15.8337 184.918V199.952V210.495H61.1728C69.8703 187.52 92.069 171.189 118.087 171.189C144.105 171.189 166.309 187.525 175.002 210.495H426.475C435.173 187.52 457.372 171.189 483.39 171.189C507.812 171.189 528.873 185.583 538.554 206.346C539.735 208.878 542.278 210.495 545.076 210.495H579.329C578.888 207.181 578.35 203.654 577.707 199.946ZM196.998 116.647C183.79 116.136 170.757 113.476 158.399 108.779L109.204 90.0592C120.332 78.5157 135.674 71.9885 151.707 71.9885H323.078C338.893 71.9885 354.198 77.6007 366.268 87.825L410.022 124.887L196.998 116.647Z" fill="white"/>
</mask>
<g mask="url(#mask3_3257_100972)">
<path d="M571.525 134.877H522.734L519.01 151.511H571.525" fill="#D4F1FF"/>
<mask id="mask4_3257_100972" style="mask-type:luminance" maskUnits="userSpaceOnUse" x="519" y="134" width="53" height="18">
<path d="M571.525 134.877H522.734L519.01 151.511H571.525" fill="white"/>
</mask>
<g mask="url(#mask4_3257_100972)">
<path d="M578.238 131.563H529.447L525.723 148.197H578.238" fill="white"/>
</g>
</g>
<mask id="mask5_3257_100972" style="mask-type:luminance" maskUnits="userSpaceOnUse" x="15" y="57" width="565" height="154">
<path d="M577.707 199.946C574.451 181.147 568.472 157.836 557.492 135.606C557.492 135.606 519.515 122.578 436.109 118.982L370.391 76.6538C351.373 64.4027 329.228 57.8862 306.603 57.8862H70.1788L83.9301 70.3288C83.9301 70.3288 45.2991 93.2457 31.5479 165.273L15.8337 184.918V199.952V210.495H61.1728C69.8703 187.52 92.069 171.189 118.087 171.189C144.105 171.189 166.309 187.525 175.002 210.495H426.475C435.173 187.52 457.372 171.189 483.39 171.189C507.812 171.189 528.873 185.583 538.554 206.346C539.735 208.878 542.278 210.495 545.076 210.495H579.329C578.888 207.181 578.35 203.654 577.707 199.946ZM196.998 116.647C183.79 116.136 170.757 113.476 158.399 108.779L109.204 90.0592C120.332 78.5157 135.674 71.9885 151.707 71.9885H323.078C338.893 71.9885 354.198 77.6007 366.268 87.825L410.022 124.887L196.998 116.647Z" fill="white"/>
</mask>
<g mask="url(#mask5_3257_100972)">
<path d="M426.476 211.224V171.917H253.296C229.82 171.917 207.228 180.881 190.136 196.978L175.007 211.224" fill="#69A4C2"/>
</g>
<mask id="mask6_3257_100972" style="mask-type:luminance" maskUnits="userSpaceOnUse" x="7" y="178" width="565" height="153">
<path d="M9.48577 188.923C12.7414 207.722 18.7206 231.033 29.7003 253.263C29.7003 253.263 67.6769 266.291 151.083 269.887L216.802 312.215C235.819 324.466 257.965 330.983 280.589 330.983H517.014L503.262 318.54C503.262 318.54 541.893 295.623 555.645 223.596L571.359 203.95V188.917V178.374H526.02C517.322 201.349 495.123 217.68 469.105 217.68C443.087 217.68 420.883 201.344 412.191 178.374L160.717 178.374C152.019 201.349 129.821 217.68 103.802 217.68C79.3801 217.68 58.3198 203.286 48.6381 182.523C47.4571 179.991 44.9144 178.374 42.1162 178.374H7.86328C8.30481 181.688 8.8421 185.215 9.48577 188.923ZM390.194 272.222C403.403 272.733 416.436 275.393 428.793 280.09L477.989 298.81C466.86 310.353 451.519 316.88 435.485 316.88H264.114C248.299 316.88 232.994 311.268 220.924 301.044L177.17 263.982L390.194 272.222Z" fill="white"/>
</mask>
<g mask="url(#mask6_3257_100972)">
<path d="M302.905 210.494H284.286V178.379H302.905V210.494Z" fill="#91C5DE"/>
</g>
<mask id="mask7_3257_100972" style="mask-type:luminance" maskUnits="userSpaceOnUse" x="15" y="57" width="565" height="154">
<path d="M577.707 199.946C574.451 181.147 568.472 157.836 557.492 135.606C557.492 135.606 519.515 122.578 436.109 118.982L370.391 76.6538C351.373 64.4027 329.228 57.8862 306.603 57.8862H70.1788L83.9301 70.3288C83.9301 70.3288 45.2991 93.2457 31.5479 165.273L15.8337 184.918V199.952V210.495H61.1728C69.8703 187.52 92.069 171.189 118.087 171.189C144.105 171.189 166.309 187.525 175.002 210.495H426.475C435.173 187.52 457.372 171.189 483.39 171.189C507.812 171.189 528.873 185.583 538.554 206.346C539.735 208.878 542.278 210.495 545.076 210.495H579.329C578.888 207.181 578.35 203.654 577.707 199.946ZM196.998 116.647C183.79 116.136 170.757 113.476 158.399 108.779L109.204 90.0592C120.332 78.5157 135.674 71.9885 151.707 71.9885H323.078C338.893 71.9885 354.198 77.6007 366.268 87.825L410.022 124.887L196.998 116.647Z" fill="white"/>
</mask>
<g mask="url(#mask7_3257_100972)">
<path d="M488.954 310.046C445.863 310.046 410.931 275.114 410.931 232.024C410.931 188.933 445.863 154.001 488.954 154.001C532.045 154.001 566.977 188.933 566.977 232.024C566.977 275.114 532.045 310.046 488.954 310.046Z" fill="#91C5DE"/>
</g>
<mask id="mask8_3257_100972" style="mask-type:luminance" maskUnits="userSpaceOnUse" x="15" y="57" width="565" height="154">
<path d="M577.707 199.946C574.451 181.147 568.472 157.836 557.492 135.606C557.492 135.606 519.515 122.578 436.109 118.982L370.391 76.6538C351.373 64.4027 329.228 57.8862 306.603 57.8862H70.1788L83.9301 70.3288C83.9301 70.3288 45.2991 93.2457 31.5479 165.273L15.8337 184.918V199.952V210.495H61.1728C69.8703 187.52 92.069 171.189 118.087 171.189C144.105 171.189 166.309 187.525 175.002 210.495H426.475C435.173 187.52 457.372 171.189 483.39 171.189C507.812 171.189 528.873 185.583 538.554 206.346C539.735 208.878 542.278 210.495 545.076 210.495H579.329C578.888 207.181 578.35 203.654 577.707 199.946ZM196.998 116.647C183.79 116.136 170.757 113.476 158.399 108.779L109.204 90.0592C120.332 78.5157 135.674 71.9885 151.707 71.9885H323.078C338.893 71.9885 354.198 77.6007 366.268 87.825L410.022 124.887L196.998 116.647Z" fill="white"/>
</mask>
<g mask="url(#mask8_3257_100972)">
<path d="M575.217 185.126H559.093L548.103 214.772H581.601L575.217 185.126Z" fill="#D1F0FF"/>
</g>
<mask id="mask9_3257_100972" style="mask-type:luminance" maskUnits="userSpaceOnUse" x="15" y="57" width="565" height="154">
<path d="M577.707 199.946C574.451 181.147 568.472 157.836 557.492 135.606C557.492 135.606 519.515 122.578 436.109 118.982L370.391 76.6538C351.373 64.4027 329.228 57.8862 306.603 57.8862H70.1788L83.9301 70.3288C83.9301 70.3288 45.2991 93.2457 31.5479 165.273L15.8337 184.918V199.952V210.495H61.1728C69.8703 187.52 92.069 171.189 118.087 171.189C144.105 171.189 166.309 187.525 175.002 210.495H426.475C435.173 187.52 457.372 171.189 483.39 171.189C507.812 171.189 528.873 185.583 538.554 206.346C539.735 208.878 542.278 210.495 545.076 210.495H579.329C578.888 207.181 578.35 203.654 577.707 199.946ZM196.998 116.647C183.79 116.136 170.757 113.476 158.399 108.779L109.204 90.0592C120.332 78.5157 135.674 71.9885 151.707 71.9885H323.078C338.893 71.9885 354.198 77.6007 366.268 87.825L410.022 124.887L196.998 116.647Z" fill="white"/>
</mask>
<g mask="url(#mask9_3257_100972)">
<path d="M42.0222 128.6L78.5147 123.206L80.7383 133.994L33.7714 153.985C34.6066 149.804 35.777 145.138 37.4473 140.143C38.873 135.872 40.4476 132.015 42.0222 128.6Z" fill="#D4F1FF"/>
<mask id="mask10_3257_100972" style="mask-type:luminance" maskUnits="userSpaceOnUse" x="33" y="123" width="48" height="31">
<path d="M42.0222 128.6L78.5147 123.206L80.7383 133.994L33.7714 153.985C34.6066 149.804 35.777 145.138 37.4473 140.143C38.873 135.872 40.4476 132.015 42.0222 128.6Z" fill="white"/>
</mask>
<g mask="url(#mask10_3257_100972)">
<path d="M37.6813 124.195L74.1738 118.801L76.3975 129.589L29.4306 149.58C30.2658 145.399 31.4361 140.734 33.1065 135.739C34.5375 131.462 36.1067 127.61 37.6813 124.195Z" fill="white"/>
</g>
</g>
<mask id="mask11_3257_100972" style="mask-type:luminance" maskUnits="userSpaceOnUse" x="15" y="57" width="565" height="154">
<path d="M577.707 199.946C574.451 181.147 568.472 157.836 557.492 135.606C557.492 135.606 519.515 122.578 436.109 118.982L370.391 76.6538C351.373 64.4027 329.228 57.8862 306.603 57.8862H70.1788L83.9301 70.3288C83.9301 70.3288 45.2991 93.2457 31.5479 165.273L15.8337 184.918V199.952V210.495H61.1728C69.8703 187.52 92.069 171.189 118.087 171.189C144.105 171.189 166.309 187.525 175.002 210.495H426.475C435.173 187.52 457.372 171.189 483.39 171.189C507.812 171.189 528.873 185.583 538.554 206.346C539.735 208.878 542.278 210.495 545.076 210.495H579.329C578.888 207.181 578.35 203.654 577.707 199.946ZM196.998 116.647C183.79 116.136 170.757 113.476 158.399 108.779L109.204 90.0592C120.332 78.5157 135.674 71.9885 151.707 71.9885H323.078C338.893 71.9885 354.198 77.6007 366.268 87.825L410.022 124.887L196.998 116.647Z" fill="white"/>
</mask>
<g mask="url(#mask11_3257_100972)">
<path d="M57.3269 150.586L28.2233 162.002L26.0476 156.464L60.6942 142.872C61.8964 145.931 60.3857 149.389 57.3269 150.586Z" fill="#193157"/>
</g>
<mask id="mask12_3257_100972" style="mask-type:luminance" maskUnits="userSpaceOnUse" x="15" y="57" width="565" height="154">
<path d="M577.707 199.946C574.451 181.147 568.472 157.836 557.492 135.606C557.492 135.606 519.515 122.578 436.109 118.982L370.391 76.6538C351.373 64.4027 329.228 57.8862 306.603 57.8862H70.1788L83.9301 70.3288C83.9301 70.3288 45.2991 93.2457 31.5479 165.273L15.8337 184.918V199.952V210.495H61.1728C69.8703 187.52 92.069 171.189 118.087 171.189C144.105 171.189 166.309 187.525 175.002 210.495H426.475C435.173 187.52 457.372 171.189 483.39 171.189C507.812 171.189 528.873 185.583 538.554 206.346C539.735 208.878 542.278 210.495 545.076 210.495H579.329C578.888 207.181 578.35 203.654 577.707 199.946ZM196.998 116.647C183.79 116.136 170.757 113.476 158.399 108.779L109.204 90.0592C120.332 78.5157 135.674 71.9885 151.707 71.9885H323.078C338.893 71.9885 354.198 77.6007 366.268 87.825L410.022 124.887L196.998 116.647Z" fill="white"/>
</mask>
<g mask="url(#mask12_3257_100972)">
<path d="M112.948 154.001C94.7177 154.001 77.9663 160.267 64.6832 170.747C62.8479 177.524 57.7943 197.244 57.2517 210.495L40.245 216.575L36.9521 214.378C35.6382 220.049 34.9254 225.954 34.9254 232.024C34.9254 275.118 69.8592 310.052 112.948 310.052C156.042 310.052 190.971 275.118 190.971 232.024C190.971 188.935 156.037 154.001 112.948 154.001Z" fill="#91C5DE"/>
<path d="M57.2521 210.495C57.7947 197.239 62.8483 177.524 64.6836 170.747C50.9909 181.546 41.0113 196.824 36.9525 214.384L40.2453 216.581L57.2521 210.495Z" fill="#7FACC2"/>
</g>
<path d="M145.435 232.024C145.435 207.67 125.693 187.929 101.34 187.929C76.9872 187.929 57.2461 207.67 57.2461 232.024C57.2461 256.377 76.9872 276.118 101.34 276.118C112.24 276.118 114.884 276.049 125.103 275.783C137.577 275.458 145.435 245.477 145.435 232.024Z" fill="#193157"/>
<path d="M120.486 276.118C96.1333 276.118 76.3916 256.376 76.3916 232.024C76.3916 207.671 96.1333 187.929 120.486 187.929C144.838 187.929 164.58 207.671 164.58 232.024C164.58 256.376 144.838 276.118 120.486 276.118Z" fill="#435C85"/>
<path d="M120.486 265.191C102.168 265.191 87.3178 250.342 87.3178 232.024C87.3178 213.706 102.168 198.856 120.486 198.856C138.804 198.856 153.653 213.706 153.653 232.024C153.653 250.342 138.804 265.191 120.486 265.191Z" fill="#D4F1FF"/>
<mask id="mask13_3257_100972" style="mask-type:luminance" maskUnits="userSpaceOnUse" x="87" y="198" width="67" height="68">
<path d="M120.486 265.191C102.168 265.191 87.3178 250.342 87.3178 232.024C87.3178 213.706 102.168 198.856 120.486 198.856C138.804 198.856 153.653 213.706 153.653 232.024C153.653 250.342 138.804 265.191 120.486 265.191Z" fill="white"/>
</mask>
<g mask="url(#mask13_3257_100972)">
<path d="M155.165 244.871L127.178 231.683C123.593 229.992 119.523 230.492 116.496 232.625L133.423 240.604L128.545 249.86L101.335 237.04L103.564 232.311C108.522 221.794 121.108 217.267 131.631 222.225L156.824 234.098" fill="#435C85"/>
</g>
<path d="M516.919 232.024C516.919 207.67 497.178 187.929 472.825 187.929C448.472 187.929 428.73 207.67 428.73 232.024C428.73 256.377 448.472 276.118 472.825 276.118C483.725 276.118 486.368 276.049 496.587 275.783C509.062 275.458 516.919 245.477 516.919 232.024Z" fill="#193157"/>
<path d="M491.975 276.118C467.623 276.118 447.881 256.376 447.881 232.024C447.881 207.671 467.623 187.929 491.975 187.929C516.328 187.929 536.069 207.671 536.069 232.024C536.069 256.376 516.328 276.118 491.975 276.118Z" fill="#435C85"/>
<path d="M491.976 265.191C473.658 265.191 458.808 250.342 458.808 232.024C458.808 213.706 473.658 198.856 491.976 198.856C510.294 198.856 525.144 213.706 525.144 232.024C525.144 250.342 510.294 265.191 491.976 265.191Z" fill="#D4F1FF"/>
<mask id="mask14_3257_100972" style="mask-type:luminance" maskUnits="userSpaceOnUse" x="458" y="198" width="68" height="68">
<path d="M491.976 265.191C473.658 265.191 458.808 250.342 458.808 232.024C458.808 213.706 473.658 198.856 491.976 198.856C510.294 198.856 525.144 213.706 525.144 232.024C525.144 250.342 510.294 265.191 491.976 265.191Z" fill="white"/>
</mask>
<g mask="url(#mask14_3257_100972)">
<path d="M526.655 244.871L498.668 231.683C495.083 229.992 491.013 230.492 487.987 232.625L504.914 240.604L500.035 249.86L472.826 237.04L475.055 232.311C480.012 221.794 492.599 217.267 503.121 222.225L528.314 234.098" fill="#435C85"/>
</g>
<path d="M180.109 141.558H211.207V137.771C211.207 135.68 209.51 133.983 207.419 133.983H187.684C183.497 133.983 180.109 137.377 180.109 141.558Z" fill="#193157"/>
<path d="M294.325 141.558H325.424V137.771C325.424 135.68 323.727 133.983 321.636 133.983H301.901C297.719 133.983 294.325 137.377 294.325 141.558Z" fill="#193157"/>
<path d="M370.146 121.753H406.021V107.96C406.021 104.262 403.027 101.268 399.329 101.268H383.525C376.136 101.268 370.141 107.257 370.141 114.652V121.753H370.146Z" fill="#193157"/>
<path d="M128.13 146.287H99.7178V132.366C99.7178 126.578 104.41 121.892 110.192 121.892H128.13V146.287Z" fill="#69A4C2"/>
<path d="M283.139 118.328V238.423" stroke="#193157" stroke-width="4.1257" stroke-miterlimit="10"/>
<path d="M177.8 112.997L162.123 129.196C159.288 132.345 157.718 136.435 157.718 140.675V190.68" stroke="#193157" stroke-width="4.1257" stroke-miterlimit="10"/>
<path d="M411.995 126.568L404.037 116.088L400.047 119.115L404.979 125.605C406.654 127.812 409.793 128.238 411.995 126.568Z" fill="#193157"/>
<path d="M56.8847 238.423C56.6241 236.327 56.4804 234.189 56.4804 232.024C56.4804 202.899 80.956 179.29 111.155 179.29C141.349 179.29 165.83 202.899 165.83 232.024C165.83 234.189 165.692 236.327 165.426 238.423H436.316C436.056 236.327 435.912 234.189 435.912 232.024C435.912 202.899 460.388 179.29 490.587 179.29C520.786 179.29 545.262 202.899 545.262 232.024C545.262 234.189 545.124 236.327 544.858 238.423H592C592 238.423 592 227.257 589.649 210.49H549.188C540.171 187.514 517.153 171.183 490.177 171.183C463.202 171.183 440.184 187.52 431.167 210.49H170.453C161.436 187.514 138.418 171.183 111.443 171.183C84.4669 171.183 61.4489 187.52 52.4322 210.49H5.42284V238.423H56.8847Z" fill="#193157"/>
<mask id="mask15_3257_100972" style="mask-type:luminance" maskUnits="userSpaceOnUse" x="268" y="69" width="91" height="54">
<path d="M268.456 85.1386C270.983 96.6608 273.505 108.183 276.031 119.705C298.799 120.487 321.562 121.275 344.33 122.057C349.011 107.077 353.698 92.0966 358.379 77.1113L300.842 69.5894C290.049 74.7707 279.255 79.9519 268.456 85.1386Z" fill="white"/>
</mask>
<g mask="url(#mask15_3257_100972)">
<path d="M323.392 167.327L303.353 172.444L273.015 111.971C283.064 106.928 295.299 110.987 300.347 121.035L323.392 167.327Z" fill="#193157"/>
<path d="M289.596 100.358L271.397 109.492L262.811 92.3839L268.37 89.5964C275.35 86.0908 283.851 88.9102 287.351 95.8895L289.596 100.358Z" fill="#193157"/>
</g>
<mask id="mask16_3257_100972" style="mask-type:luminance" maskUnits="userSpaceOnUse" x="286" y="49" width="119" height="76">
<path d="M329.094 76.0101C329.094 76.0101 348.325 87.2771 367.385 101.395C367.417 101.422 367.449 101.64 367.629 101.757C368.746 102.475 372.683 98.4376 372.683 98.4429C372.672 98.4536 373.061 100.597 373.928 105.332C373.555 105.72 373.167 106.172 372.784 106.688C372.013 107.731 371.491 108.742 371.135 109.593C370.667 110.859 370.449 111.912 370.332 112.62C370.013 114.577 370.204 115.737 370.177 119.562C370.172 120.514 370.156 121.285 370.14 121.764C380.774 121.764 391.413 121.764 402.047 121.764C402.377 122.19 402.707 122.621 403.037 123.051C403.446 123.594 403.856 124.131 404.255 124.669C392.249 124.131 380.12 123.663 367.869 123.264C352.628 122.764 337.563 122.386 322.679 122.115L286.931 119.987V49.0344L302.634 50.1728L316.471 50.9708L329.094 76.0101Z" fill="white"/>
</mask>
<g mask="url(#mask16_3257_100972)">
<path d="M299.661 67.6051C299.661 67.6051 295.629 66.4667 294.863 70.1851C294.097 73.9035 302.204 76.8346 302.204 76.8346L299.661 67.6051Z" fill="#E39184"/>
<path d="M284.83 129.536C285.293 140.468 285.761 151.4 286.224 162.326C292.512 162.135 298.794 161.943 305.082 161.752C311.37 161.56 317.652 161.369 323.94 161.177C324.121 148.192 324.302 135.207 324.488 122.222C325.11 117.211 325.706 112.146 326.275 107.029C326.648 103.667 327.004 100.326 327.345 97.0067C321.206 94.4852 315.072 91.9637 308.934 89.4422C306.173 88.5272 303.417 87.6069 300.656 86.6973C298.092 87.9101 295.502 89.123 292.879 90.3252C287.527 92.7829 282.229 95.1395 276.995 97.395C277.856 100.113 278.692 102.949 279.49 105.906C280.037 107.954 280.543 109.96 281.006 111.923C281.202 118.487 284.639 122.966 284.83 129.536Z" fill="#588DC4"/>
<path d="M307.23 95.4639C306.342 95.8044 304.72 96.2991 302.672 96.1449C302.145 96.1023 299.469 95.8629 296.9 93.8468C294.948 92.3201 293.99 90.5061 293.564 89.5326C294.713 89.0113 295.868 88.49 297.017 87.9686C298.166 87.4473 299.32 86.926 300.469 86.4047C302.725 89.4262 304.98 92.4424 307.23 95.4639Z" fill="#002D5D"/>
<path d="M303.172 73.1642L299.023 86.9792C299.023 86.9792 301.167 97.6716 307.63 96.9641C307.63 96.9641 309.827 96.6449 309.971 95.6502L312.205 83.9577L303.172 73.1642Z" fill="#E39184"/>
<path d="M312.338 83.3512C311.997 85.1279 311.657 86.8993 311.322 88.6761C309.652 88.2931 307.779 87.7026 305.816 86.793C305.236 86.5217 304.688 86.245 304.167 85.9631C303.795 85.1758 303.624 84.5055 303.539 84.0374C303.417 83.3671 303.401 82.6915 303.369 81.3404C303.364 81.1116 303.358 80.7925 303.358 80.3562C303.364 79.3508 303.406 78.4571 303.465 77.6858C306.417 79.5689 309.375 81.4574 312.338 83.3512Z" fill="#002D5D"/>
<path d="M313.641 54.1945C313.641 54.1945 317.482 54.237 318.95 63.158C320.424 72.079 317.775 85.4205 317.775 85.4205C317.775 85.4205 307.652 86.1812 304.832 85.1173C303.433 81.5319 302.034 77.9465 300.635 74.3558L298.683 63.2165L298.736 58.5991L313.641 54.1945Z" fill="#E39184"/>
<path d="M303.997 57.0404C303.997 57.0404 311.806 57.4341 315.189 54.8541L314.046 52.0719L303.997 54.3859L294.863 58.514L294.517 62.4185L297.922 67.9988L299.88 70.0256L301.273 74.4355L303.758 73.861C303.13 71.047 302.507 68.2329 301.88 65.4188C301.502 65.2007 300.874 64.7645 300.374 63.9985C299.539 62.7218 299.619 61.4025 299.667 60.9822C299.906 60.4556 300.295 59.7321 303.997 57.0404Z" fill="#002D5D"/>
<path d="M313.098 62.1898C313.678 65.0145 314.258 67.8446 314.838 70.6693C315.816 71.9407 316.8 73.2067 317.779 74.4781C317.428 74.8292 316.912 75.2601 316.21 75.6059C314.731 76.34 313.327 76.2602 312.683 76.1804" stroke="#002D5D" stroke-width="1.5098" stroke-miterlimit="10"/>
<path d="M304.427 64.8868C304.427 64.8868 304.422 64.8921 304.416 64.8868C304.374 64.8709 304.422 64.4081 304.496 63.8655C305.119 63.4452 305.885 63.009 306.805 62.6686C308.289 62.1153 309.635 61.9876 310.656 61.9983C310.619 62.4132 310.582 62.8228 310.545 63.2378C310.539 63.2378 305.89 63.8921 304.427 64.8868Z" fill="#002D5D"/>
<path d="M314.625 62.7377L314.28 61.7163C314.806 61.6631 315.365 61.6259 315.955 61.6099C316.721 61.5887 317.45 61.6099 318.126 61.6578C318.238 61.9557 318.349 62.2536 318.461 62.5462C317.184 62.61 315.908 62.6739 314.625 62.7377Z" fill="#002D5D"/>
<path d="M313.003 79.6276C312.412 79.6595 311.173 79.6541 309.822 78.9998C308.646 78.4359 307.923 77.6486 307.561 77.1912" stroke="#002D5D" stroke-width="1.5098" stroke-miterlimit="10"/>
<path d="M349.059 101.411L367.438 105.103L366.252 116.296L346.522 112.827L349.059 101.411Z" fill="#C77F74"/>
<path d="M310.449 68.4084C310.449 68.4084 310.199 71.7492 306.832 71.3981" stroke="#002D5D" stroke-width="1.1324" stroke-miterlimit="10"/>
<path d="M315.232 68.318C315.45 68.6372 315.897 69.1851 316.642 69.6C317.211 69.9192 317.743 70.0362 318.094 70.0894" stroke="#002D5D" stroke-width="1.1324" stroke-miterlimit="10"/>
<path d="M309.284 69.1584C308.529 69.1584 307.917 68.5464 307.917 67.7913C307.917 67.0363 308.529 66.4242 309.284 66.4242C310.039 66.4242 310.651 67.0363 310.651 67.7913C310.651 68.5464 310.039 69.1584 309.284 69.1584Z" fill="#002D5D"/>
<path d="M317.296 68.0893C316.649 68.0893 316.125 67.5653 316.125 66.919C316.125 66.2726 316.649 65.7487 317.296 65.7487C317.942 65.7487 318.466 66.2726 318.466 66.919C318.466 67.5653 317.942 68.0893 317.296 68.0893Z" fill="#002D5D"/>
<path d="M349.188 101.401L347.874 113.221C340.16 111.96 332.441 110.694 324.728 109.433C324.739 107.646 324.744 105.853 324.755 104.066C323.382 101.071 326.281 99.1345 324.909 96.1395C334.426 98.2408 339.671 99.2941 349.188 101.401Z" fill="#588DC4"/>
<path d="M343.086 112.37L327.01 109.806L326.244 104.177L347.692 111.061C347.357 112.492 346.857 111.359 346.522 112.79C345.357 112.497 344.245 112.657 343.086 112.37Z" fill="#002D5D"/>
<path d="M349.192 101.401L348.527 113.301L346.522 112.79L349.192 101.401Z" fill="#002D5D"/>
<path d="M297.746 71.2491C297.746 71.2491 299.906 70.4564 301.103 72.0523" stroke="#002D5D" stroke-width="1.5098" stroke-miterlimit="10"/>
<path d="M367.385 105.092L394.116 109.284L393.01 119.407L366.252 116.295L367.385 105.092Z" fill="#C77F74"/>
<path d="M402.255 111.683C403.053 111.918 403.851 112.157 404.644 112.391C404.729 112.705 404.803 113.093 404.835 113.545C404.873 114.136 404.819 114.647 404.75 115.035C404.016 115.21 403.665 115.365 402.931 115.54C402.931 115.54 403.596 117.993 401.803 118.588L401.314 118.439C401.314 118.439 401.532 121.482 400.032 121.035C398.468 120.573 390.749 118.86 390.749 118.86L394.074 110.63C395.515 110.189 397.361 109.79 399.521 109.726C400.409 109.699 401.239 109.737 401.995 109.811C402.085 110.433 402.17 111.056 402.255 111.683Z" fill="#DB6958"/>
<mask id="mask17_3257_100972" style="mask-type:luminance" maskUnits="userSpaceOnUse" x="390" y="109" width="15" height="13">
<path d="M402.255 111.683C403.053 111.918 403.851 112.157 404.644 112.391C404.729 112.705 404.803 113.093 404.835 113.545C404.873 114.136 404.819 114.647 404.75 115.035C404.016 115.21 403.665 115.365 402.931 115.54C402.931 115.54 403.596 117.993 401.803 118.588L401.314 118.439C401.314 118.439 401.532 121.482 400.032 121.035C398.468 120.573 390.749 118.86 390.749 118.86L394.074 110.63C395.515 110.189 397.361 109.79 399.521 109.726C400.409 109.699 401.239 109.737 401.995 109.811C402.085 110.433 402.17 111.056 402.255 111.683Z" fill="white"/>
</mask>
<g mask="url(#mask17_3257_100972)">
<path d="M401.319 118.434L394.659 117.429C394.659 117.429 394.984 119.227 400.037 121.035C405.091 122.844 402.043 119.195 402.043 119.195L401.319 118.434C401.319 118.434 399.862 119.588 399.947 120.307Z" fill="#E39184"/>
</g>
<mask id="mask18_3257_100972" style="mask-type:luminance" maskUnits="userSpaceOnUse" x="390" y="109" width="15" height="13">
<path d="M402.255 111.683C403.053 111.918 403.851 112.157 404.644 112.391C404.729 112.705 404.803 113.093 404.835 113.545C404.873 114.136 404.819 114.647 404.75 115.035C404.016 115.21 403.665 115.365 402.931 115.54C402.931 115.54 403.596 117.993 401.803 118.588L401.314 118.439C401.314 118.439 401.532 121.482 400.032 121.035C398.468 120.573 390.749 118.86 390.749 118.86L394.074 110.63C395.515 110.189 397.361 109.79 399.521 109.726C400.409 109.699 401.239 109.737 401.995 109.811C402.085 110.433 402.17 111.056 402.255 111.683Z" fill="white"/>
</mask>
<g mask="url(#mask18_3257_100972)">
<path d="M403.873 118.705C404.607 117.29 403.17 115.088 400.665 113.79C398.159 112.492 395.531 112.588 394.803 114.003C394.068 115.418 395.505 117.62 398.01 118.918C400.511 120.216 403.138 120.12 403.873 118.705Z" fill="url(#paint0_radial_3257_100972)"/>
</g>
<mask id="mask19_3257_100972" style="mask-type:luminance" maskUnits="userSpaceOnUse" x="390" y="109" width="15" height="13">
<path d="M402.255 111.683C403.053 111.918 403.851 112.157 404.644 112.391C404.729 112.705 404.803 113.093 404.835 113.545C404.873 114.136 404.819 114.647 404.75 115.035C404.016 115.21 403.665 115.365 402.931 115.54C402.931 115.54 403.596 117.993 401.803 118.588L401.314 118.439C401.314 118.439 401.532 121.482 400.032 121.035C398.468 120.573 390.749 118.86 390.749 118.86L394.074 110.63C395.515 110.189 397.361 109.79 399.521 109.726C400.409 109.699 401.239 109.737 401.995 109.811C402.085 110.433 402.17 111.056 402.255 111.683Z" fill="white"/>
</mask>
<g mask="url(#mask19_3257_100972)">
<path d="M402.937 115.535L396.388 114.519C396.388 114.519 395.543 115.838 397.293 116.992C399.043 118.147 401.325 118.434 401.325 118.434L403.777 119.668L404.932 117.413L402.937 115.535Z" fill="#E39184"/>
</g>
<path d="M398.404 108.704L412.16 109.63C412.16 109.63 410.617 112.237 407.463 111.694L398.808 111.114L398.404 108.704Z" fill="#E39184"/>
<path d="M402.463 117.359C403.654 115.056 402.537 112.104 399.957 110.774C397.382 109.439 394.323 110.226 393.132 112.529C391.94 114.833 393.057 117.785 395.637 119.115C398.212 120.45 401.266 119.663 402.463 117.359Z" fill="url(#paint1_radial_3257_100972)"/>
<path d="M394.169 109.306L398.478 108.694L401.787 116.774C401.787 116.774 399.931 118.567 397.01 114.083C397.01 114.083 396.968 115.471 392.898 114.716L391.004 114.343" fill="#E39184"/>
</g>
<mask id="mask20_3257_100972" style="mask-type:luminance" maskUnits="userSpaceOnUse" x="286" y="49" width="119" height="76">
<path d="M329.094 76.0101C329.094 76.0101 348.325 87.2771 367.385 101.395C367.417 101.422 367.449 101.64 367.629 101.757C368.746 102.475 372.683 98.4376 372.683 98.4429C372.672 98.4536 373.061 100.597 373.928 105.332C373.555 105.72 373.167 106.172 372.784 106.688C372.013 107.731 371.491 108.742 371.135 109.593C370.667 110.859 370.449 111.912 370.332 112.62C370.013 114.577 370.204 115.737 370.177 119.562C370.172 120.514 370.156 121.285 370.14 121.764C380.774 121.764 391.413 121.764 402.047 121.764C402.377 122.19 402.707 122.621 403.037 123.051C403.446 123.594 403.856 124.131 404.255 124.669C392.249 124.131 380.12 123.663 367.869 123.264C352.628 122.764 337.563 122.386 322.679 122.115L286.931 119.987V49.0344L302.634 50.1728L316.471 50.9708L329.094 76.0101Z" fill="white"/>
</mask>
<g mask="url(#mask20_3257_100972)">
<path d="M407.139 107.587C411.336 107.587 415.107 109.391 417.725 112.269C416.916 112.13 416.091 112.051 415.246 112.051C407.341 112.051 400.931 118.461 400.931 126.366C400.931 130.073 402.34 133.451 404.654 135.994C397.93 134.818 392.823 128.956 392.823 121.897C392.823 113.998 399.234 107.587 407.139 107.587Z" fill="#002D5D"/>
</g>
<path d="M294.868 116.764L310.8 124.945L311.082 114.008L300.225 106.933L294.868 116.764Z" fill="#E39184"/>
<path d="M300.528 106.997C298.581 105.183 296.629 103.364 294.677 101.544C292.464 99.4856 290.251 97.4376 288.038 95.3895C287.548 95.2672 286.788 95.1342 285.862 95.2246C285.649 95.2459 284.777 95.3416 283.936 95.7247C282.436 96.4162 281.479 97.8312 281.16 98.6558C281.16 98.6558 279.399 103.273 293.661 115.801C293.677 115.817 293.698 115.833 293.698 115.833C294.187 116.258 294.581 116.556 294.868 116.764" fill="#5080B3"/>
<path d="M294.911 116.599L301.832 107.875L300.523 106.997C299.768 108.135 299.013 109.327 298.263 110.577C297.018 112.646 295.906 114.663 294.911 116.599Z" fill="#002D5D"/>
<path d="M310.801 124.945L345.389 126.249L346.219 116.535L311.083 114.008C310.604 115.024 310.024 116.567 309.838 118.519C309.567 121.434 310.311 123.743 310.801 124.945Z" fill="#E39184"/>
<path d="M351.825 126.775L353.086 125.919C354.724 128.185 356.363 126.775 356.363 126.775C357.746 128.323 359.448 128.238 359.448 128.238L356.092 120.301L357.969 123.642C359.64 127.818 363.087 128.238 363.087 128.238C363.087 128.238 360.055 119.674 358.805 117.168C357.586 114.732 355.022 116.822 353.73 116.647L343.654 116.402L344.841 126.227L351.825 126.775Z" fill="#E39184"/>
<path d="M279.329 119.817L286.941 120.126V71.9885H279.329V119.817Z" fill="#193157"/>
<path d="M184.289 94.4054C179.044 93.2031 172.905 92.235 166.022 91.9477C150.371 91.2934 137.429 94.432 128.619 97.4482C139.163 102.06 150.632 106.47 163.021 110.433C167.048 111.721 171.011 112.907 174.911 114.008C178.033 107.47 181.161 100.938 184.289 94.4054Z" fill="#69A4C2"/>
<mask id="mask21_3257_100972" style="mask-type:luminance" maskUnits="userSpaceOnUse" x="190" y="69" width="98" height="50">
<path d="M197.259 75.9357C195.035 81.2872 192.811 86.6334 190.588 91.9849C191.2 95.8097 192.04 99.9643 193.184 104.374C194.343 108.859 195.652 112.96 196.998 116.652C217.149 117.429 237.299 118.211 257.45 118.987C267.562 109.625 277.675 100.262 287.793 90.8997L233.905 69.3766H195.657C196.189 71.5629 196.727 73.7493 197.259 75.9357Z" fill="white"/>
</mask>
<g mask="url(#mask21_3257_100972)">
<path d="M231.57 169.651H210.893C207.031 151.958 203.164 134.27 199.302 116.577C198.355 112.237 197.408 107.896 196.456 103.555C197.78 103.268 204.855 101.858 211.792 106.305C216.181 109.119 219.49 113.604 220.692 119.099L231.57 169.651Z" fill="#193157"/>
<path d="M215.394 96.4055L195.504 100.752L191.418 82.0479L197.493 80.718C205.121 79.053 212.659 83.8832 214.324 91.5115L215.394 96.4055Z" fill="#193157"/>
</g>
<path d="M190.657 71.9885L173.315 113.577C174.118 113.811 174.975 114.035 175.884 114.226C177.725 114.625 179.438 114.849 180.981 114.96C186.954 100.635 192.928 86.3142 198.902 71.9885" fill="#193157"/>
<defs>
<radialGradient id="paint0_radial_3257_100972" cx="0" cy="0" r="1" gradientUnits="userSpaceOnUse" gradientTransform="translate(399.316 116.305) rotate(27.3798) scale(5.10939 2.88619)">
<stop offset="0.3296" stop-color="#DB6958"/>
<stop offset="0.4639" stop-color="#DC6C5B" stop-opacity="0.7997"/>
<stop offset="0.5683" stop-color="#DE7565" stop-opacity="0.644"/>
<stop offset="0.6625" stop-color="#E18375" stop-opacity="0.5034"/>
<stop offset="0.7508" stop-color="#E6988D" stop-opacity="0.3717"/>
<stop offset="0.835" stop-color="#EDB3AB" stop-opacity="0.2461"/>
<stop offset="0.916" stop-color="#F5D5D0" stop-opacity="0.1252"/>
<stop offset="0.9932" stop-color="#FEFBFB" stop-opacity="0.0101"/>
<stop offset="1" stop-color="white" stop-opacity="0"/>
</radialGradient>
<radialGradient id="paint1_radial_3257_100972" cx="0" cy="0" r="1" gradientUnits="userSpaceOnUse" gradientTransform="translate(397.871 114.916) rotate(27.3793) scale(5.25353 4.69802)">
<stop offset="0.3296" stop-color="#DB6958"/>
<stop offset="0.4639" stop-color="#DC6C5B" stop-opacity="0.7997"/>
<stop offset="0.5683" stop-color="#DE7565" stop-opacity="0.644"/>
<stop offset="0.6625" stop-color="#E18375" stop-opacity="0.5034"/>
<stop offset="0.7508" stop-color="#E6988D" stop-opacity="0.3717"/>
<stop offset="0.835" stop-color="#EDB3AB" stop-opacity="0.2461"/>
<stop offset="0.916" stop-color="#F5D5D0" stop-opacity="0.1252"/>
<stop offset="0.9932" stop-color="#FEFBFB" stop-opacity="0.0101"/>
<stop offset="1" stop-color="white" stop-opacity="0"/>
</radialGradient>
</defs>
</svg>
