<svg width="88" height="28" viewBox="0 0 88 28" fill="none" xmlns="http://www.w3.org/2000/svg">
<path d="M12.5994 16.3834C10.0638 16.3834 8.0033 18.4386 8.0033 20.9795C8.0033 23.5151 10.0584 25.5756 12.5994 25.5756C15.1349 25.5756 17.1954 23.5204 17.1954 20.9795C17.1954 18.4386 15.1349 16.3834 12.5994 16.3834Z" fill="#F3FFFA"/>
<path d="M12.5991 14.6538C9.11336 14.6538 6.27884 17.4883 6.27884 20.9741C6.27884 24.4598 9.11336 27.2943 12.5991 27.2943C16.0849 27.2943 18.9194 24.4598 18.9194 20.9741C18.9194 17.4883 16.0849 14.6538 12.5991 14.6538ZM12.5991 25.2872C10.2183 25.2872 8.28595 23.3548 8.28595 20.9741C8.28595 18.5933 10.2183 16.6609 12.5991 16.6609C14.9799 16.6609 16.9123 18.5933 16.9123 20.9741C16.9123 23.3548 14.9745 25.2872 12.5991 25.2872Z" fill="#009B5D"/>
<path d="M68.7345 16.3834C66.199 16.3834 64.1385 18.4386 64.1385 20.9795C64.1385 23.5151 66.1936 25.5756 68.7345 25.5756C71.2701 25.5756 73.3306 23.5204 73.3306 20.9795C73.3306 18.4386 71.2701 16.3834 68.7345 16.3834Z" fill="#F3FFFA"/>
<path d="M68.7343 14.6538C65.2485 14.6538 62.414 17.4883 62.414 20.9741C62.414 24.4598 65.2485 27.2943 68.7343 27.2943C72.22 27.2943 75.0545 24.4598 75.0545 20.9741C75.0545 17.4883 72.22 14.6538 68.7343 14.6538ZM68.7343 25.2872C66.3535 25.2872 64.4211 23.3548 64.4211 20.9741C64.4211 18.5933 66.3535 16.6609 68.7343 16.6609C71.115 16.6609 73.0474 18.5933 73.0474 20.9741C73.0474 23.3548 71.115 25.2872 68.7343 25.2872Z" fill="#009B5D"/>
<path d="M86.4032 13.1945C85.896 12.8422 85.6131 12.3831 85.4316 11.6091L85.4263 11.5878C85.421 11.5611 84.9245 9.02549 84.7537 8.06463C84.6309 7.37069 84.3373 6.71944 83.0349 6.6714C81.4441 6.61268 77.5793 6.27638 77.542 6.27638C77.5099 6.27638 77.4833 6.27104 77.4512 6.26037C77.3231 6.22834 64.6346 2.98814 58.3357 1.81911C54.6097 1.12516 51.5883 0.815552 48.551 0.815552C47.43 0.815552 46.3891 0.858258 45.3375 0.900963C41.1364 1.08246 36.5724 2.94543 34.8108 3.7408C31.955 5.02728 27.882 7.39204 24.9675 9.15359C24.8927 9.1963 24.8073 9.22833 24.7219 9.23367C24.4657 9.25502 18.4604 9.75146 15.5298 10.1305C12.391 10.5362 10.4586 10.9312 8.62232 11.5397C6.68995 12.1803 4.7202 13.3226 4.3839 13.7016C4.16504 13.9578 3.95152 14.3582 3.7807 14.6785C3.63657 14.9507 3.51915 15.1696 3.39638 15.3191C3.32164 15.4098 3.09208 15.6874 1.90169 16.4347C1.83764 16.4721 1.77361 16.5094 1.69888 16.5468L1.53871 16.6322L1.5334 16.8137C1.50137 17.5931 1.39995 20.9934 1.5334 22.1464C1.62948 22.9898 1.92839 23.1126 2.53692 23.1767C2.92126 23.214 3.77003 23.2567 4.41593 23.2888L4.74154 23.3048V20.924C4.74154 16.5948 8.26467 13.0717 12.5938 13.0717C16.923 13.0717 20.4461 16.5948 20.4461 20.924V23.6411H60.8712V20.924C60.8712 16.5948 64.3944 13.0717 68.7235 13.0717C73.0527 13.0717 76.5758 16.5948 76.5758 20.924V23.6144L76.9067 23.5984C77.5793 23.5664 78.5936 23.5023 79.6238 23.4009C81.3587 23.2354 84.5669 22.1838 85.8 21.5806C86.8409 21.0735 87.3693 20.198 87.4174 18.9009C87.4761 17.3368 87.284 15.3351 87.2092 14.5824C87.1238 13.7497 86.574 13.3066 86.4032 13.1945Z" fill="#F3FFFA"/>
<path d="M86.7233 12.7304C86.3336 12.4635 86.1254 12.1059 85.9813 11.4813C85.9813 11.4813 85.4795 8.92438 85.3141 7.96887C85.1432 7.01336 84.6361 6.1646 83.0614 6.11122C81.4867 6.0525 77.5952 5.71621 77.5952 5.71621C77.5952 5.71621 64.8053 2.44931 58.4423 1.26426C54.0758 0.452879 51.0704 0.255371 48.5509 0.255371C47.3978 0.255371 46.3462 0.298078 45.3107 0.340782C41.3552 0.5116 36.9566 2.15572 34.5758 3.22867C32.0349 4.37102 28.3143 6.47421 24.6684 8.67349C24.6684 8.67349 18.4602 9.18061 15.4496 9.57029C12.4389 9.95997 10.4264 10.3443 8.44069 11.0009C6.51899 11.6415 4.38912 12.8212 3.9514 13.3283C3.51368 13.8354 3.17739 14.6841 2.95853 14.951C2.73967 15.2179 1.98698 15.7037 1.60264 15.9439C1.21296 16.1841 0.994107 16.1361 0.972755 16.6699C0.946064 17.2037 0.828627 20.9403 0.972755 22.2001C1.11688 23.4599 1.77347 23.6574 2.47809 23.7268C3.18271 23.7962 5.30725 23.8763 5.30725 23.8763V20.9083C5.30725 16.8834 8.56882 13.6219 12.5937 13.6219C16.6186 13.6219 19.8802 16.8834 19.8802 20.9083V24.1859H61.4369V20.9083C61.4369 16.8834 64.6985 13.6219 68.7234 13.6219C72.7483 13.6219 76.0098 16.8834 76.0098 20.9083V24.1859C76.0098 24.1859 77.8034 24.1272 79.6771 23.9457C81.5507 23.7695 84.8283 22.6645 86.0507 22.072C87.2731 21.4742 87.9244 20.4386 87.9884 18.9065C88.0471 17.3692 87.871 15.4315 87.7802 14.5133C87.6788 13.5898 87.113 12.9973 86.7233 12.7304ZM87.097 18.8745C87.0489 20.0649 86.5952 20.8283 85.6557 21.2873C84.4386 21.8798 81.2838 22.9154 79.5863 23.0809C78.5721 23.177 77.5685 23.2411 76.8799 23.2731V20.9137C76.8799 16.4137 73.218 12.7518 68.7181 12.7518C64.2181 12.7518 60.5561 16.4137 60.5561 20.9137V23.3158H20.7556V20.9137C20.7556 16.4137 17.0937 12.7518 12.5937 12.7518C8.09373 12.7518 4.43184 16.4137 4.43184 20.9137V22.9688C3.78059 22.9421 2.94784 22.8994 2.57417 22.862C2.10442 22.814 1.93362 22.798 1.85355 22.1094C1.73077 21.0311 1.81618 17.8016 1.85355 16.8247C1.9176 16.7927 1.99233 16.75 2.07774 16.6966C3.31617 15.9226 3.55638 15.6236 3.65247 15.5115C3.7966 15.3354 3.91939 15.1058 4.06885 14.8176C4.23433 14.5133 4.43717 14.129 4.62934 13.8995C4.89091 13.6005 6.76456 12.4849 8.72897 11.8336C10.5386 11.2304 12.4603 10.8407 15.5777 10.4404C18.5296 10.0614 24.6951 9.55427 24.7538 9.54893C24.8873 9.53826 25.0207 9.49555 25.1382 9.42616C28.0474 7.66994 32.1043 5.30518 34.9495 4.02938C36.7004 3.24469 41.2164 1.39772 45.3641 1.21622C46.4157 1.17352 47.4459 1.13081 48.5669 1.13081C51.5882 1.13081 54.5882 1.44043 58.2982 2.12903C64.5597 3.29273 77.2696 6.53293 77.3924 6.56496C77.4404 6.57564 77.4885 6.58631 77.5365 6.58631C77.6966 6.60232 81.4653 6.92795 83.0454 6.98133C84.0703 7.01869 84.3425 7.42438 84.4653 8.11299C84.6361 9.06851 85.1166 11.54 85.1379 11.6414C85.1379 11.6521 85.1432 11.6628 85.1432 11.6788C85.3461 12.5276 85.6717 13.056 86.2429 13.4511C86.3817 13.5471 86.8461 13.9155 86.9101 14.5987C86.9635 15.3461 87.1557 17.3372 87.097 18.8745Z" fill="#009B5D"/>
<path d="M63.8393 4.31811C62.777 4.08857 57.5457 2.93022 54.6739 2.51385C51.802 2.09748 48.0066 1.91064 44.9532 2.23627C41.8999 2.56189 40.6027 3.15975 38.0565 4.04053C35.5102 4.92131 27.5405 9.45332 27.5405 9.45332C27.5405 9.45332 59.8571 7.60102 61.245 7.27539C62.6329 6.94977 63.9781 5.70066 64.3464 5.23625C64.7147 4.77184 64.9016 4.54764 63.8393 4.31811Z" fill="#009B5D"/>
<path d="M38.0619 18.8208L40.9711 22.44C41.1312 22.44 41.2914 22.44 41.4515 22.44L38.4676 18.7247C38.3288 18.7568 38.1953 18.7888 38.0619 18.8208Z" fill="#009B5D"/>
<path d="M39.3802 18.5008L42.5457 22.4403C42.7059 22.4403 42.866 22.4403 43.0262 22.4403L39.7806 18.3994C39.6472 18.4314 39.5137 18.4688 39.3802 18.5008Z" fill="#009B5D"/>
<path d="M40.6882 18.1643L44.1205 22.4347C44.2807 22.4347 44.4408 22.4347 44.601 22.4347L41.0832 18.0575C40.9497 18.0949 40.8216 18.1269 40.6882 18.1643Z" fill="#009B5D"/>
<path d="M35.3605 19.3813L37.816 22.4347C37.9762 22.4347 38.1363 22.4347 38.3018 22.4347L35.7822 19.3013C35.6381 19.3333 35.4993 19.3546 35.3605 19.3813Z" fill="#009B5D"/>
<path d="M33.9671 19.6157L36.2305 22.4342C36.3906 22.4342 36.5508 22.4342 36.7162 22.4342L34.3942 19.5463C34.2554 19.573 34.1113 19.5943 33.9671 19.6157Z" fill="#009B5D"/>
<path d="M36.7216 19.1146L39.3907 22.4402C39.5508 22.4402 39.7109 22.4402 39.8764 22.4402L37.1327 19.0292C36.9939 19.0559 36.8551 19.0879 36.7216 19.1146Z" fill="#009B5D"/>
<path d="M41.9799 17.8119L45.6952 22.4347C45.8554 22.4347 46.0155 22.4347 46.1757 22.4347L42.3697 17.6998C42.2415 17.7372 42.1081 17.7746 41.9799 17.8119Z" fill="#009B5D"/>
<path d="M45.7807 16.6539L50.4088 22.4137C50.569 22.4137 50.7291 22.4137 50.8892 22.4137L46.1597 16.5311C46.0369 16.5738 45.9088 16.6112 45.7807 16.6539Z" fill="#009B5D"/>
<path d="M44.5259 17.0542L48.8391 22.4243C48.9992 22.4243 49.1594 22.4243 49.3195 22.4243L44.9103 16.9368C44.7822 16.9741 44.6541 17.0168 44.5259 17.0542Z" fill="#009B5D"/>
<path d="M32.5529 19.8136L34.6507 22.4293C34.8109 22.4293 34.971 22.4293 35.1365 22.4293L32.9906 19.7549C32.8411 19.7762 32.697 19.7976 32.5529 19.8136Z" fill="#009B5D"/>
<path d="M43.2608 17.4377L47.2697 22.4287C47.4298 22.4287 47.5899 22.4287 47.7501 22.4287L43.6504 17.3256C43.517 17.3629 43.3889 17.4003 43.2608 17.4377Z" fill="#009B5D"/>
<path d="M67.7892 8.71578L70.597 12.2122C70.7999 12.2549 71.0027 12.3083 71.2002 12.3617L68.2003 8.63037C68.0668 8.65706 67.928 8.68909 67.7892 8.71578Z" fill="#009B5D"/>
<path d="M47.0245 16.2423L51.9835 22.4077C52.1437 22.4077 52.3038 22.4077 52.464 22.4077L47.4035 16.1141C47.2807 16.1515 47.1526 16.1995 47.0245 16.2423Z" fill="#009B5D"/>
<path d="M77.4086 18.7246L80.0083 21.9594C80.1364 21.9487 80.2378 21.9381 80.3125 21.9221C80.3552 21.9167 80.4033 21.906 80.446 21.9007L77.0777 17.7103C77.2058 18.0413 77.3179 18.3776 77.4086 18.7246Z" fill="#009B5D"/>
<path d="M69.1451 8.44338L72.8017 12.9967C73.1166 13.1569 73.4209 13.333 73.7145 13.5306L69.5668 8.36865C69.428 8.39 69.2893 8.41669 69.1451 8.44338Z" fill="#009B5D"/>
<path d="M74.9742 7.85077L84.8657 20.1603C84.9618 20.0749 85.0525 19.9842 85.1326 19.8934L75.4493 7.84009C75.2945 7.84009 75.1344 7.84543 74.9742 7.85077Z" fill="#009B5D"/>
<path d="M31.1167 19.9905L33.0704 22.4247C33.2306 22.4247 33.3907 22.4247 33.5562 22.4247L31.5598 19.9425C31.4103 19.9585 31.2608 19.9745 31.1167 19.9905Z" fill="#009B5D"/>
<path d="M82.3086 8.52378L81.8816 7.98997C81.6681 7.81381 81.4279 7.72841 81.161 7.69104L82.9225 9.88498C82.6877 9.31381 82.4902 8.86541 82.362 8.61452C82.3407 8.58249 82.3247 8.55047 82.3086 8.52378Z" fill="#009B5D"/>
<path d="M23.6596 20.5183L24.7165 21.8315C24.9301 21.9276 25.1596 22.013 25.4051 22.0877L24.1293 20.5023C23.9532 20.513 23.7984 20.5183 23.6596 20.5183Z" fill="#009B5D"/>
<path d="M28.1865 20.2676L29.9 22.3975C30.0601 22.3975 30.2203 22.4028 30.3858 22.4028L28.6402 20.2302C28.4854 20.2409 28.336 20.2569 28.1865 20.2676Z" fill="#009B5D"/>
<path d="M29.6597 20.1394L31.4853 22.4134C31.6454 22.4134 31.8056 22.4134 31.9711 22.4188L30.1081 20.1021C29.9586 20.1127 29.8091 20.1234 29.6597 20.1394Z" fill="#009B5D"/>
<path d="M26.6914 20.3749L28.3035 22.382C28.4637 22.382 28.6238 22.3874 28.7893 22.3874L27.1452 20.3429C26.9957 20.3536 26.8409 20.3642 26.6914 20.3749Z" fill="#009B5D"/>
<path d="M25.1864 20.4592L26.6971 22.3382C26.8519 22.3542 27.012 22.3595 27.1775 22.3649C27.1829 22.3649 27.1935 22.3649 27.1989 22.3649L25.6455 20.4325C25.4854 20.4432 25.3359 20.4485 25.1864 20.4592Z" fill="#009B5D"/>
<path d="M48.2574 15.8098L53.5527 22.397C53.7129 22.397 53.873 22.397 54.0332 22.3916L48.6311 15.671C48.5083 15.7191 48.3855 15.7671 48.2574 15.8098Z" fill="#009B5D"/>
<path d="M77.6916 20.972C77.6916 20.9934 77.6916 21.0147 77.6916 21.0414L78.4977 22.045C78.6632 22.0396 78.818 22.0343 78.9674 22.0236L77.6756 20.4169C77.6863 20.5984 77.6916 20.7852 77.6916 20.972Z" fill="#009B5D"/>
<path d="M65.1363 9.34059L67.3676 12.1217C67.5117 12.1004 67.6612 12.079 67.8053 12.0683L65.5366 9.24451C65.4032 9.2712 65.2697 9.30856 65.1363 9.34059Z" fill="#009B5D"/>
<path d="M70.8425 8.1553C70.7411 8.17131 70.6397 8.18732 70.5276 8.20334L81.3852 21.7193C81.5187 21.6873 81.6575 21.6552 81.7909 21.6179L70.96 8.13928C70.9226 8.14462 70.8799 8.14996 70.8425 8.1553Z" fill="#009B5D"/>
<path d="M63.8394 9.68806L66.044 12.4318C66.1721 12.3891 66.3056 12.3518 66.4337 12.3197L64.2344 9.5813C64.1009 9.61333 63.9675 9.65069 63.8394 9.68806Z" fill="#009B5D"/>
<path d="M66.4547 9.01527L68.8675 12.0153C69.033 12.0153 69.2038 12.0259 69.3693 12.0366L66.8658 8.91919C66.727 8.95122 66.5882 8.98324 66.4547 9.01527Z" fill="#009B5D"/>
<path d="M78.583 7.81409C78.4335 7.81409 78.2734 7.81942 78.1025 7.81942L85.5918 17.1343C85.5118 16.8568 85.3997 16.5151 85.2716 16.1361L78.583 7.81409Z" fill="#009B5D"/>
<path d="M80.083 7.71704C79.9389 7.73306 79.7894 7.74373 79.6346 7.75975L84.4015 13.6957C84.2627 13.322 84.1186 12.943 83.9745 12.564L80.083 7.71704Z" fill="#009B5D"/>
<path d="M76.5329 7.82446L85.6183 19.1305C85.677 18.9917 85.7197 18.8422 85.7464 18.6927L77.008 7.82446C76.8585 7.82446 76.6984 7.82446 76.5329 7.82446Z" fill="#009B5D"/>
<path d="M73.4479 7.9106L83.8464 20.85C83.9585 20.7913 84.0706 20.7273 84.1774 20.6632L73.907 7.88391C73.7575 7.89459 73.6027 7.89993 73.4479 7.9106Z" fill="#009B5D"/>
<path d="M71.9638 8.02256L82.6773 21.3517C82.8054 21.309 82.9282 21.2609 83.0509 21.2129L72.4175 7.97986C72.2627 7.99587 72.1132 8.00655 71.9638 8.02256Z" fill="#009B5D"/>
<path d="M62.558 10.0562L64.8481 12.9067C64.9655 12.848 65.083 12.8 65.2004 12.7466L62.9477 9.94409C62.8143 9.97612 62.6862 10.0135 62.558 10.0562Z" fill="#009B5D"/>
<path d="M53.0403 13.9097L59.7555 22.2637C59.7502 22.0609 59.7502 21.8634 59.7608 21.6659L53.3979 13.7495C53.2751 13.8029 53.1577 13.8563 53.0403 13.9097Z" fill="#009B5D"/>
<path d="M51.871 14.4173L58.2606 22.3656C58.4208 22.3656 58.5809 22.3656 58.7411 22.3603L52.234 14.2625C52.1112 14.3158 51.9884 14.3639 51.871 14.4173Z" fill="#009B5D"/>
<path d="M54.1881 13.3759L59.8038 20.3634C59.8145 20.1819 59.8358 20.0058 59.8572 19.8296L54.5351 13.2104C54.4177 13.2638 54.3056 13.3172 54.1881 13.3759Z" fill="#009B5D"/>
<path d="M49.4746 15.3679L55.1223 22.3928C55.2824 22.3928 55.4425 22.3928 55.6027 22.3874L49.8482 15.2238C49.7255 15.2718 49.6027 15.3198 49.4746 15.3679Z" fill="#009B5D"/>
<path d="M50.6809 14.903L56.6915 22.3816C56.8517 22.3816 57.0118 22.3816 57.172 22.3763L51.0492 14.7535C50.9264 14.8016 50.8037 14.855 50.6809 14.903Z" fill="#009B5D"/>
<path d="M57.6308 11.7742L61.1699 16.1781C61.2393 16.066 61.314 15.9593 61.3887 15.8472L57.9938 11.6248C57.871 11.6728 57.7482 11.7262 57.6308 11.7742Z" fill="#009B5D"/>
<path d="M60.0491 10.8616L62.7928 14.2726C62.8889 14.1872 62.9797 14.1071 63.0811 14.0271L60.4334 10.7281C60.3053 10.7762 60.1772 10.8189 60.0491 10.8616Z" fill="#009B5D"/>
<path d="M55.3141 12.8152L60.065 18.7245C60.1024 18.575 60.1451 18.4255 60.1931 18.2814L55.6664 12.6444C55.5437 12.7031 55.4262 12.7565 55.3141 12.8152Z" fill="#009B5D"/>
<path d="M58.8266 11.3046L61.9227 15.1587C62.0028 15.0626 62.0882 14.9665 62.1789 14.8757L59.2003 11.1711C59.0775 11.2085 58.9547 11.2566 58.8266 11.3046Z" fill="#009B5D"/>
<path d="M61.2929 10.4453L63.7644 13.52C63.8712 13.4506 63.9779 13.3812 64.0847 13.3172L61.6772 10.3225C61.5491 10.3652 61.421 10.4026 61.2929 10.4453Z" fill="#009B5D"/>
<path d="M56.4568 12.2758L60.5404 17.3576C60.5992 17.2295 60.6579 17.1014 60.7166 16.9786L56.8145 12.121C56.6917 12.169 56.5743 12.2224 56.4568 12.2758Z" fill="#009B5D"/>
</svg>
