<svg width="87" height="33" viewBox="0 0 87 33" fill="none" xmlns="http://www.w3.org/2000/svg">
<path d="M17.2935 30.1109C19.7869 29.5396 21.345 27.0553 20.7738 24.562C20.2026 22.0687 17.7183 20.5105 15.225 21.0817C12.7316 21.6529 11.1734 24.1372 11.7447 26.6305C12.3159 29.1239 14.8002 30.6821 17.2935 30.1109Z" fill="#F3FFFA"/>
<path d="M16.267 19.1306C12.7011 19.1306 9.79748 22.0342 9.79748 25.6001C9.79748 29.1711 12.7011 32.0697 16.267 32.0697C19.838 32.0697 22.7365 29.1661 22.7365 25.6001C22.7415 22.0342 19.838 19.1306 16.267 19.1306ZM16.267 29.963C13.8615 29.963 11.9042 28.0057 11.9042 25.6001C11.9042 23.1946 13.8615 21.2373 16.267 21.2373C18.6725 21.2373 20.6298 23.1946 20.6298 25.6001C20.6298 28.0057 18.6725 29.963 16.267 29.963Z" fill="#009B5D"/>
<path d="M71.8386 30.1219C74.3289 29.5366 75.8732 27.0434 75.2879 24.5531C74.7026 22.0628 72.2094 20.5185 69.7191 21.1038C67.2288 21.6891 65.6845 24.1823 66.2698 26.6726C66.8551 29.1629 69.3483 30.7072 71.8386 30.1219Z" fill="#F3FFFA"/>
<path d="M70.7774 19.1306C67.2114 19.1306 64.3079 22.0342 64.3079 25.6001C64.3079 29.1711 67.2114 32.0697 70.7774 32.0697C74.3434 32.0697 77.2469 29.1661 77.2469 25.6001C77.2519 22.0342 74.3483 19.1306 70.7774 19.1306ZM70.7774 29.963C68.3719 29.963 66.4146 28.0057 66.4146 25.6001C66.4146 23.1946 68.3719 21.2373 70.7774 21.2373C73.1829 21.2373 75.1402 23.1946 75.1402 25.6001C75.1402 28.0057 73.1829 29.963 70.7774 29.963Z" fill="#009B5D"/>
<path d="M86.3611 21.0817L86.3561 21.0119L86.3263 20.9721C86.2814 20.9123 86.1818 20.8277 86.0524 20.7281C85.6589 20.4143 85.0712 19.9412 85.0712 18.8554C85.0712 18.701 85.0712 18.5168 85.0762 18.3076C85.0862 16.7437 85.1111 13.4915 84.5284 11.9327C84.0751 10.7274 82.0133 7.67445 80.7781 5.84665C80.0161 4.7161 79.6426 4.16328 79.5181 3.90928C79.279 3.43116 79.4683 2.97297 79.6326 2.66418L79.7522 2.44504L79.5031 2.41019C79.4483 2.40521 79.3936 2.39525 79.3288 2.39027C77.5359 2.20101 63.3019 0.950928 53.0025 0.950928C50.2533 0.950928 47.9872 1.04058 46.264 1.2149C42.4291 1.60337 38.8084 2.3803 36.3232 3.35148C31.0987 5.39344 20.2266 11.2354 20.117 11.2952C20.0572 11.3251 19.9975 11.35 19.9327 11.3599C19.8729 11.3699 13.6574 12.5702 11.0427 13.3372C8.18895 14.1739 5.24057 15.3891 3.57712 16.176C2.19755 16.8334 2.06806 18.0088 2.05312 19.3634C2.05312 19.5128 2.04814 19.6573 2.04316 19.7917C2.03818 19.9611 2.0332 20.1155 2.02822 20.2699C2.00331 21.1315 1.98837 21.6992 1.44551 22.257C1.38575 22.3168 1.32598 22.3716 1.27617 22.4214C1.04209 22.6405 0.982331 22.7053 0.982331 22.9194C0.982331 23.0639 0.977353 23.2332 0.977353 23.4374C0.967392 24.045 0.952449 24.8767 1.02217 25.4395C1.06202 25.7931 1.20147 26.1517 2.35692 26.3659C3.29822 26.5402 6.82931 26.7543 7.89013 26.8191L8.07441 26.829V25.4694C8.07441 20.987 11.7201 17.3414 16.2024 17.3414C20.6848 17.3414 24.3304 20.987 24.3304 25.4694V27.4615H62.5997V25.4694C62.5997 20.987 66.2453 17.3414 70.7277 17.3414C75.21 17.3414 78.8557 20.987 78.8557 25.4694V26.1517L79.0449 26.1368C80.2502 26.0521 83.1587 25.828 84.1598 25.579C84.2644 25.5541 84.369 25.5291 84.4736 25.5042L84.4935 25.4993C85.8282 25.1755 86.2914 25.0162 86.3412 24.0948C86.391 23.2033 86.386 22.4513 86.3811 21.7192C86.3611 21.515 86.3611 21.2958 86.3611 21.0817Z" fill="#F3FFFA"/>
<path d="M85.7135 18.8C85.7135 17.3956 85.8331 13.5258 85.1259 11.6532C84.4236 9.78053 80.4393 4.27223 80.0907 3.56999C79.7371 2.86776 81.6147 1.93144 79.3885 1.69736C77.6055 1.50811 63.4064 0.253052 52.9924 0.253052C50.4126 0.253052 48.0568 0.327762 46.1892 0.521997C42.2099 0.925408 38.5592 1.73223 36.079 2.7034C30.76 4.78022 19.8031 10.677 19.8031 10.677C19.8031 10.677 13.5427 11.8823 10.8533 12.6692C8.16393 13.4561 5.18565 14.6464 3.2931 15.5428C1.20632 16.5339 1.4404 18.556 1.3906 19.7164C1.34578 20.8768 1.41052 21.3101 0.972241 21.7584C0.683379 22.0572 0.329775 22.2664 0.329775 22.869C0.329775 23.4716 0.279972 24.6769 0.369619 25.4638C0.464246 26.2507 0.972246 26.7139 2.22232 26.9479C3.4724 27.182 8.70679 27.4559 8.70679 27.4559V25.419C8.70679 21.2852 12.0586 17.9384 16.1873 17.9384C20.3211 17.9384 23.6679 21.2902 23.6679 25.419V28.0586H63.2271V25.419C63.2271 21.2852 66.5789 17.9384 70.7076 17.9384C74.8364 17.9384 78.1882 21.2902 78.1882 25.419V26.7886C78.1882 26.7886 82.8847 26.5047 84.2892 26.156C85.6936 25.8024 86.864 25.653 86.9537 24.0842C87.0234 22.8939 86.9935 21.9626 86.9935 21.0213C87.0035 20.0899 85.7135 20.2045 85.7135 18.8ZM86.1469 24.0394C86.102 24.8064 85.8032 24.9508 84.4336 25.2845C84.324 25.3094 84.2145 25.3393 84.0999 25.3642C83.1985 25.5883 80.6186 25.8074 79.0199 25.917V25.4239C79.0199 20.847 75.2946 17.1216 70.7176 17.1216C66.1406 17.1216 62.4153 20.847 62.4153 25.4239V27.2418H24.4946V25.4239C24.4946 20.847 20.7693 17.1216 16.1923 17.1216C11.6153 17.1216 7.89001 20.847 7.89001 25.4239V26.5943C6.12197 26.4897 3.20346 26.3005 2.37671 26.1461C1.25115 25.9369 1.21628 25.6132 1.1864 25.3741C1.12166 24.8263 1.1366 23.9946 1.14656 23.3919C1.15154 23.1927 1.15154 23.0184 1.15154 22.874C1.15154 22.7395 1.1615 22.7196 1.3906 22.5004C1.44538 22.4506 1.50514 22.3959 1.56491 22.3311C2.15758 21.7235 2.17252 21.096 2.19742 20.2244C2.2024 20.08 2.20738 19.9256 2.21236 19.7513C2.21734 19.6118 2.21734 19.4674 2.22232 19.313C2.23726 17.9733 2.35679 16.8975 3.64672 16.2849C5.3002 15.503 8.23863 14.2878 11.0824 13.4561C13.7021 12.6891 19.8927 11.4938 19.9575 11.4789C20.0372 11.4639 20.1169 11.434 20.1916 11.3942C20.3011 11.3344 31.1683 5.4974 36.3778 3.46042C38.8481 2.49423 42.4539 1.71729 46.2689 1.3338C47.9871 1.15948 50.2482 1.06984 52.9924 1.06984C63.2869 1.06984 77.5108 2.31991 79.3038 2.50917C79.3685 2.51415 79.4233 2.52411 79.4731 2.52909C79.2888 2.87274 79.0896 3.3907 79.3586 3.93356C79.4881 4.19254 79.8616 4.75035 80.6336 5.89086C81.8637 7.7087 83.9206 10.7517 84.3639 11.942C84.9366 13.471 84.9117 16.6983 84.9018 18.2522C84.9018 18.4614 84.8968 18.6456 84.8968 18.8C84.8968 19.9704 85.5542 20.4934 85.9476 20.8071C86.0323 20.8719 86.1518 20.9715 86.1867 21.0163V21.0213C86.1867 21.2404 86.1867 21.4595 86.1917 21.6787C86.1917 22.4058 86.1967 23.1529 86.1469 24.0394Z" fill="#009B5D"/>
<path d="M53.1517 2.18499C50.2631 2.13021 45.5417 2.46389 42.0455 2.85236C38.5492 3.24083 35.7154 4.79472 33.7133 5.57166C31.7161 6.3486 25.6102 9.56593 24.8183 9.9295C23.633 10.4823 24.1061 11.07 24.4348 11.568C24.7685 12.0661 25.2665 12.0661 25.9887 12.0661L66.4743 9.0131C66.4743 9.0131 66.2502 3.90323 66.1406 2.68303C63.9791 2.57346 56.0404 2.23978 53.1517 2.18499Z" fill="#009B5D"/>
<path d="M75.922 3.41542C74.9359 3.29589 68.4514 2.82275 68.4514 2.82275L68.9644 8.95361L79.1244 8.3211C79.1244 8.3211 78.6911 7.09593 78.1383 5.99028C77.5855 4.87467 76.9131 3.53495 75.922 3.41542Z" fill="#009B5D"/>
<path d="M38.0713 20.3644C37.9966 20.3844 37.9218 20.3993 37.8521 20.4142L42.5387 26.2463C42.6881 26.2463 42.8375 26.2463 42.9919 26.2463L38.2306 20.3246C38.1758 20.3345 38.1211 20.3495 38.0713 20.3644Z" fill="#009B5D"/>
<path d="M39.0722 20.11L44.0077 26.2508C44.1571 26.2508 44.3066 26.2508 44.461 26.2508L39.4457 20.0104C39.3212 20.0452 39.1967 20.0751 39.0722 20.11Z" fill="#009B5D"/>
<path d="M40.2874 19.7813L45.4869 26.2509C45.6363 26.2509 45.7857 26.2509 45.9401 26.2509L40.6559 19.6768C40.5314 19.7166 40.4069 19.7515 40.2874 19.7813Z" fill="#009B5D"/>
<path d="M35.2921 20.8923L39.5852 26.2312C39.7346 26.2312 39.884 26.2312 40.0384 26.2312L35.6955 20.8275C35.5561 20.8524 35.4266 20.8723 35.2921 20.8923Z" fill="#009B5D"/>
<path d="M36.5871 20.6786L41.0595 26.2417C41.2089 26.2417 41.3583 26.2417 41.5127 26.2417L36.9805 20.5989C36.851 20.6288 36.7166 20.6537 36.5871 20.6786Z" fill="#009B5D"/>
<path d="M47.4143 17.6696L54.3271 26.2708C54.4765 26.2708 54.6259 26.2708 54.7803 26.2708L47.7779 17.5601C47.6534 17.5949 47.5338 17.6348 47.4143 17.6696Z" fill="#009B5D"/>
<path d="M33.9624 21.0718L38.1061 26.2315C38.2555 26.2315 38.4049 26.2315 38.5593 26.2315L34.3708 21.022C34.2363 21.0369 34.0969 21.0519 33.9624 21.0718Z" fill="#009B5D"/>
<path d="M41.4877 19.4476L46.9611 26.2608C47.1106 26.2608 47.26 26.2608 47.4144 26.2608L41.8562 19.343C41.7317 19.3779 41.6072 19.4127 41.4877 19.4476Z" fill="#009B5D"/>
<path d="M46.2339 18.0334L52.8528 26.271C53.0023 26.271 53.1517 26.271 53.3061 26.271L46.5975 17.9238C46.4779 17.9587 46.3534 17.9985 46.2339 18.0334Z" fill="#009B5D"/>
<path d="M49.7701 16.9382L57.2706 26.2714C57.42 26.2714 57.5694 26.2714 57.7188 26.2714L50.1287 16.8286C50.0092 16.8635 49.8897 16.9033 49.7701 16.9382Z" fill="#009B5D"/>
<path d="M43.8682 18.7503L49.9094 26.2657C50.0589 26.2657 50.2083 26.2657 50.3627 26.2657L44.2368 18.6407C44.1123 18.6756 43.9878 18.7155 43.8682 18.7503Z" fill="#009B5D"/>
<path d="M42.6781 19.1035L48.4354 26.2603C48.5848 26.2603 48.7342 26.2603 48.8886 26.2603L43.0466 18.9939C42.9221 19.0288 42.8026 19.0636 42.6781 19.1035Z" fill="#009B5D"/>
<path d="M71.6589 13.0572L75.4839 17.8134C75.8973 18.0774 76.2857 18.3762 76.6493 18.7049L72.0773 13.0173C71.9379 13.0273 71.8034 13.0422 71.6589 13.0572Z" fill="#009B5D"/>
<path d="M26.6661 26.1708C26.6661 26.1708 26.691 26.1708 26.7458 26.1708L26.5764 25.9567C26.6312 26.1011 26.6661 26.1708 26.6661 26.1708Z" fill="#009B5D"/>
<path d="M25.914 23.8753L27.7667 26.1812C27.9061 26.1812 28.0556 26.1812 28.2199 26.1812L25.7596 23.1183C25.8094 23.3872 25.8592 23.6362 25.914 23.8753Z" fill="#009B5D"/>
<path d="M32.6076 21.2106L36.6318 26.2209C36.7812 26.2209 36.9306 26.2209 37.085 26.2209L33.026 21.1708C32.8815 21.1857 32.7421 21.2007 32.6076 21.2106Z" fill="#009B5D"/>
<path d="M48.5947 17.3069L55.8013 26.2716C55.9508 26.2716 56.1002 26.2716 56.2546 26.2716L48.9583 17.1924C48.8338 17.2322 48.7143 17.2671 48.5947 17.3069Z" fill="#009B5D"/>
<path d="M53.6598 15.7274C53.5402 15.7623 53.4207 15.8021 53.2962 15.837L61.6782 26.2609C61.7529 26.2609 61.8276 26.2609 61.9023 26.2609C61.8923 26.1563 61.8824 26.0518 61.8724 25.9422L53.6598 15.7274Z" fill="#009B5D"/>
<path d="M29.8237 21.4148L33.6735 26.2059C33.8229 26.2059 33.9723 26.2059 34.1267 26.2059L30.252 21.3849C30.1125 21.3998 29.9681 21.4098 29.8237 21.4148Z" fill="#009B5D"/>
<path d="M31.2281 21.3254L35.1576 26.2161C35.307 26.2161 35.4564 26.2161 35.6108 26.2161L31.6564 21.2905C31.507 21.3055 31.3675 21.3154 31.2281 21.3254Z" fill="#009B5D"/>
<path d="M26.9848 21.5448L30.72 26.1965C30.8695 26.1965 31.0189 26.1965 31.1733 26.1965L27.418 21.5249C27.2736 21.5349 27.1292 21.5398 26.9848 21.5448Z" fill="#009B5D"/>
<path d="M25.5704 21.614L29.2459 26.191C29.3904 26.191 29.5447 26.191 29.6991 26.191L25.9987 21.5891C25.8443 21.5941 25.6999 21.6041 25.5704 21.614Z" fill="#009B5D"/>
<path d="M28.4093 21.4845L32.1994 26.201C32.3488 26.201 32.4982 26.201 32.6526 26.201L28.8426 21.4646C28.6982 21.4746 28.5537 21.4795 28.4093 21.4845Z" fill="#009B5D"/>
<path d="M45.0537 18.3924L51.3788 26.2664C51.5283 26.2664 51.6777 26.2664 51.832 26.2664L45.4173 18.2828C45.2928 18.3227 45.1733 18.3575 45.0537 18.3924Z" fill="#009B5D"/>
<path d="M73.0236 12.923L82.043 24.1488C82.1825 24.1239 82.312 24.104 82.4365 24.0791L73.4419 12.8832C73.3025 12.8931 73.163 12.9081 73.0236 12.923Z" fill="#009B5D"/>
<path d="M79.0497 22.2524L80.7529 24.3691C80.8874 24.3442 81.0219 24.3242 81.1514 24.2993L78.442 20.9276C78.6761 21.3509 78.8803 21.7892 79.0497 22.2524Z" fill="#009B5D"/>
<path d="M79.5576 24.5721C79.6572 24.5571 79.7568 24.5372 79.8514 24.5223L79.5028 24.089C79.5277 24.2484 79.5476 24.4077 79.5576 24.5721Z" fill="#009B5D"/>
<path d="M70.3043 13.1973L73.178 16.7732C73.3871 16.833 73.5913 16.9027 73.7906 16.9774L70.7226 13.1575C70.5832 13.1674 70.4437 13.1824 70.3043 13.1973Z" fill="#009B5D"/>
<path d="M68.9496 13.3472L71.4498 16.4599C71.6141 16.4749 71.7785 16.4898 71.9428 16.5147L69.363 13.3024C69.2285 13.3123 69.0891 13.3323 68.9496 13.3472Z" fill="#009B5D"/>
<path d="M67.5999 13.4962L69.9805 16.4546C70.1249 16.4446 70.2644 16.4346 70.4088 16.4297L68.0132 13.4464C67.8788 13.4663 67.7393 13.4813 67.5999 13.4962Z" fill="#009B5D"/>
<path d="M80.1453 12.6302L82.1076 15.0706C81.5996 13.8903 80.9571 12.9689 80.1453 12.6302Z" fill="#009B5D"/>
<path d="M79.0152 12.4901C78.8807 12.4901 78.7313 12.4951 78.5719 12.5001L83.0493 18.0681C82.9845 17.7942 82.9198 17.5253 82.8451 17.2563L79.0152 12.4901Z" fill="#009B5D"/>
<path d="M74.3932 12.7935L83.3329 23.9197C83.4973 23.8898 83.6318 23.8649 83.7264 23.85L74.8115 12.7587C74.677 12.7686 74.5376 12.7836 74.3932 12.7935Z" fill="#009B5D"/>
<path d="M76.1959 12.6439C76.0565 12.6539 75.917 12.6638 75.7726 12.6788L83.801 22.6694C83.7811 22.4702 83.7562 22.2511 83.7263 22.017L76.1959 12.6439Z" fill="#009B5D"/>
<path d="M77.5906 12.5496C77.4511 12.5595 77.3117 12.5645 77.1623 12.5745L83.5123 20.4783C83.4774 20.2492 83.4376 20.0102 83.3928 19.7711L77.5906 12.5496Z" fill="#009B5D"/>
<path d="M54.4866 15.4835L61.8725 24.6773C61.8824 24.508 61.9024 24.3437 61.9223 24.1793L54.8601 15.3889C54.7206 15.4188 54.5961 15.4537 54.4866 15.4835Z" fill="#009B5D"/>
<path d="M55.7217 15.1943L62.1115 23.143C62.1464 23.0036 62.1863 22.8641 62.2261 22.7247L56.1102 15.1146C55.9807 15.1445 55.8462 15.1694 55.7217 15.1943Z" fill="#009B5D"/>
<path d="M57.0016 14.9547L62.5398 21.8476C62.5896 21.7281 62.6444 21.6085 62.7041 21.489L57.4 14.885C57.2655 14.9099 57.1311 14.9298 57.0016 14.9547Z" fill="#009B5D"/>
<path d="M58.3016 14.7416L63.1127 20.728C63.1774 20.6235 63.2422 20.5189 63.3119 20.4143L58.7 14.6769C58.5656 14.6968 58.4311 14.7167 58.3016 14.7416Z" fill="#009B5D"/>
<path d="M52.1209 16.2057L60.209 26.2661C60.3584 26.2661 60.5078 26.2661 60.6573 26.2661L52.4795 16.0912C52.3649 16.131 52.2454 16.1659 52.1209 16.2057Z" fill="#009B5D"/>
<path d="M66.2601 13.6555L68.6756 16.6637C68.8051 16.6338 68.9296 16.6039 69.0591 16.584L66.6685 13.6107C66.5341 13.6257 66.3946 13.6406 66.2601 13.6555Z" fill="#009B5D"/>
<path d="M50.9455 16.5696L58.7398 26.2664C58.8892 26.2664 59.0386 26.2664 59.188 26.2664L51.304 16.4551C51.1845 16.4949 51.065 16.5348 50.9455 16.5696Z" fill="#009B5D"/>
<path d="M64.9203 13.8201L67.5002 17.0324C67.6147 16.9876 67.7293 16.9428 67.8488 16.9029L65.3287 13.7703C65.1893 13.7852 65.0548 13.8051 64.9203 13.8201Z" fill="#009B5D"/>
<path d="M59.6114 14.5372L63.7999 19.7467C63.8746 19.652 63.9493 19.5624 64.029 19.4727L60.0148 14.4774C59.8754 14.4973 59.7409 14.5173 59.6114 14.5372Z" fill="#009B5D"/>
<path d="M63.5808 13.9894L66.4246 17.5304C66.5292 17.4707 66.6337 17.4159 66.7433 17.3661L63.9891 13.9396C63.8547 13.9545 63.7202 13.9695 63.5808 13.9894Z" fill="#009B5D"/>
<path d="M62.2509 14.1635L65.4583 18.1528C65.5529 18.0831 65.6475 18.0134 65.7471 17.9486L62.6593 14.1088C62.5248 14.1287 62.3854 14.1486 62.2509 14.1635Z" fill="#009B5D"/>
<path d="M60.9261 14.3484L64.5817 18.8955C64.6663 18.8158 64.751 18.7361 64.8406 18.6564L61.3345 14.2936C61.195 14.3085 61.0605 14.3284 60.9261 14.3484Z" fill="#009B5D"/>
</svg>
