<svg width="88" height="37" viewBox="0 0 88 37" fill="none" xmlns="http://www.w3.org/2000/svg">
<path d="M16.6929 34.3254C19.5287 34.3254 21.8276 31.5622 21.8276 28.1536C21.8276 24.745 19.5287 21.9818 16.6929 21.9818C13.857 21.9818 11.5581 24.745 11.5581 28.1536C11.5581 31.5622 13.857 34.3254 16.6929 34.3254Z" fill="#F3FFFA"/>
<path d="M16.693 19.4849C12.7132 19.4849 9.48047 23.3781 9.48047 28.1541C9.48047 32.9376 12.7195 36.8233 16.693 36.8233C20.6728 36.8233 23.9055 32.9301 23.9055 28.1541C23.9118 23.3705 20.6728 19.4849 16.693 19.4849ZM16.693 33.9864C14.0189 33.9864 11.8407 31.3682 11.8407 28.1541C11.8407 24.9399 14.0189 22.3218 16.693 22.3218C19.3671 22.3218 21.5453 24.9399 21.5453 28.1541C21.5453 31.3682 19.3734 33.9864 16.693 33.9864Z" fill="#009B5D"/>
<path d="M74.3243 34.3254C77.1602 34.3254 79.4591 31.5622 79.4591 28.1536C79.4591 24.745 77.1602 21.9818 74.3243 21.9818C71.4885 21.9818 69.1896 24.745 69.1896 28.1536C69.1896 31.5622 71.4885 34.3254 74.3243 34.3254Z" fill="#F3FFFA"/>
<path d="M74.3242 19.4849C70.3445 19.4849 67.1117 23.3781 67.1117 28.1541C67.1117 32.9376 70.3507 36.8233 74.3242 36.8233C78.2977 36.8233 81.5368 32.9376 81.5368 28.1541C81.5368 23.3705 78.304 19.4849 74.3242 19.4849ZM74.3242 33.9864C71.6501 33.9864 69.4719 31.3682 69.4719 28.1541C69.4719 24.9399 71.6501 22.3218 74.3242 22.3218C76.9983 22.3218 79.1765 24.9399 79.1765 28.1541C79.1765 31.3682 76.9983 33.9864 74.3242 33.9864Z" fill="#009B5D"/>
<path d="M87.0544 20.9312L87.0167 20.8784C86.2572 19.8221 85.8492 17.4605 85.9056 16.3061L85.9182 16.0797C85.9872 14.7745 85.9872 13.4918 85.5667 12.9561C84.9452 12.1488 80.8525 7.154 77.7766 4.38499C77.1928 3.85684 76.6656 3.62295 70.313 2.61946C66.327 1.98568 60.6147 1.85742 56.5219 1.85742C54.5195 1.85742 52.4731 1.8876 50.4393 1.94796C48.2988 2.00832 46.2775 2.21203 42.9882 2.68736C40.6971 3.01934 39.7994 3.50977 38.9332 3.97756C38.6758 4.11337 38.4121 4.26427 38.1234 4.39253C36.9747 4.92823 28.6887 9.9532 25.5187 12.1488L25.3743 12.2469L25.2049 12.2544C23.9431 12.2922 20.271 12.8957 17.5843 13.3334C16.4293 13.522 15.4312 13.688 14.7344 13.7861C12.7634 14.0728 8.38189 15.4007 6.51128 15.9666L6.46106 15.9816C6.08442 16.0948 5.80823 16.1778 5.63874 16.2306C3.79951 16.7588 2.87676 17.9962 2.6445 18.9016C2.52523 19.3694 2.40597 20.1088 2.29298 20.8406C2.10466 22.0176 1.91634 23.2324 1.62759 23.9718C1.53343 24.2132 1.3765 24.4622 1.2133 24.7263C1.06264 24.9677 0.893157 25.2394 0.811553 25.4355L0.748779 25.5789L0.780165 25.7373C0.943373 26.5975 1.42044 28.9213 1.55854 29.4796L1.60248 29.6532L1.7343 29.7362C1.80963 29.7815 1.91007 29.8343 2.01678 29.8871L2.04817 29.9022C2.32436 30.038 2.87676 30.1436 3.68652 30.287C4.30169 30.4001 6.11581 30.5888 7.52818 30.7321L7.92993 30.7698V28.2347C7.92993 22.41 11.872 17.6717 16.718 17.6717C21.5641 17.6717 25.5062 22.41 25.5062 28.2347V31.2678L65.5235 30.7698V28.2347C65.5235 22.41 69.4656 17.6717 74.3116 17.6717C79.1576 17.6717 83.0997 22.41 83.0997 28.2347V29.955L83.558 29.8192C84.5686 29.5249 85.3219 29.2608 85.7989 29.0345C86.4769 28.7101 86.6213 28.529 86.8661 28.0838C86.9288 27.9707 87.0104 27.8198 87.1046 27.6689C87.2741 27.4048 87.3117 27.2011 87.3117 26.6352C87.3117 26.5597 87.3117 26.4239 87.318 26.2353C87.3682 23.4587 87.2804 21.5951 87.0669 20.9764L87.0544 20.9312Z" fill="#F3FFFA"/>
<path d="M86.5521 16.2847C86.6023 15.2133 86.7592 13.2742 86.0374 12.3462C85.3155 11.4182 81.2667 6.48375 78.1594 3.68455C77.4564 3.05077 77.0295 2.81688 70.3882 1.76813C66.4273 1.14189 60.828 0.998535 56.5156 0.998535V2.24346C60.5958 2.24346 66.2892 2.37173 70.2564 3.00551C76.5839 4.00899 77.0421 4.23534 77.5443 4.68804C80.595 7.43442 84.6627 12.4066 85.2841 13.2063C85.6544 13.6817 85.5728 15.3114 85.5352 16.0055C85.5289 16.081 85.5289 16.1564 85.5226 16.2319C85.4599 17.5145 85.8867 19.9591 86.7216 21.121C86.8095 21.3625 87.0166 22.3584 86.9476 26.1913C86.9413 26.3799 86.9413 26.5233 86.9413 26.5987C86.9413 27.1344 86.9036 27.2099 86.8095 27.3608C86.7027 27.5268 86.6211 27.6852 86.5521 27.8059C86.3638 28.1454 86.2885 28.2888 85.6607 28.5906C85.1083 28.8547 84.2107 29.1414 83.47 29.3526V28.1907C83.47 22.1245 79.3647 17.1826 74.3115 17.1826C69.2646 17.1826 65.153 22.117 65.153 28.1907V30.2807L25.8764 30.7711V28.1832C25.8764 22.117 21.7648 17.175 16.7179 17.175C11.6711 17.175 7.55947 22.1094 7.55947 28.1832V30.2354C6.30402 30.1071 4.36436 29.9034 3.73664 29.7903C2.97709 29.6544 2.41842 29.5488 2.18616 29.4356L2.15478 29.4205C2.07945 29.3828 1.97274 29.33 1.90996 29.2847C1.77187 28.7415 1.29479 26.4176 1.13786 25.5726C1.21319 25.3991 1.40151 25.0973 1.50822 24.9237C1.68398 24.6446 1.85347 24.3729 1.96018 24.0938C2.26776 23.3016 2.46864 22.0566 2.65695 20.857C2.76994 20.1477 2.88921 19.4083 3.0022 18.9707C3.16541 18.3369 3.92495 17.1222 5.72652 16.6016C5.90228 16.5488 6.19103 16.4658 6.59905 16.3375C8.46339 15.7716 12.8323 14.4513 14.7783 14.1646C15.4751 14.0589 16.4794 13.9005 17.6344 13.7119C20.3085 13.2742 23.9744 12.6782 25.2173 12.6405L25.481 12.6329L25.7069 12.4745C28.8644 10.2864 37.1127 5.27655 38.2614 4.7484C38.5627 4.61259 38.8326 4.46168 39.09 4.31833C39.9311 3.85808 40.8037 3.38275 43.0321 3.06586C46.3151 2.59052 48.3238 2.39436 50.4518 2.334C52.4856 2.27364 54.5257 2.24346 56.5218 2.24346V0.998535C53.6092 0.998535 51.2741 1.06644 50.4267 1.08907C48.3175 1.14943 46.3088 1.3456 42.9128 1.82848C39.837 2.27363 39.1088 3.02059 37.891 3.58646C36.6481 4.15988 28.3873 9.17731 25.1922 11.3955C23.3718 11.4559 17.0695 12.5801 14.659 12.9347C12.2486 13.2893 6.49862 15.1077 5.49426 15.3944C3.43533 15.9829 2.32426 17.4315 2.02295 18.601C1.70282 19.8384 1.46428 22.4641 1.03115 23.5732C0.836557 24.0711 -0.0108681 25.0294 0.102122 25.6631C0.215112 26.2969 0.824003 29.3074 0.962102 29.7752C1.1002 30.2429 1.46428 30.4089 1.79697 30.5749C2.12967 30.7409 2.63185 30.8465 3.59226 31.0125C4.58406 31.1861 8.60149 31.5784 8.60149 31.5784V28.1756C8.60149 22.7809 12.236 18.4124 16.7242 18.4124C21.2124 18.4124 24.847 22.7809 24.847 28.1756V32.016L66.1888 31.4954V28.1756C66.1888 22.7809 69.8233 18.4124 74.3115 18.4124C78.7997 18.4124 82.4342 22.7809 82.4342 28.1756V30.8918C82.4342 30.8918 84.8698 30.2807 86.0374 29.7299C87.2175 29.1716 87.2238 28.7415 87.6318 28.1002C87.9331 27.6248 87.977 27.2023 87.977 26.5836C87.977 25.9649 88.1528 21.1286 87.5313 20.3213C86.9162 19.5215 86.5019 17.3561 86.5521 16.2847Z" fill="#009B5D"/>
<path d="M70.6268 7.50032C70.1371 7.0778 68.7185 5.54618 67.1617 4.34652C65.9188 3.38831 64.3433 3.45621 62.2027 3.38076C59.6604 3.29022 56.3837 3.05632 52.3789 3.25249C49.4097 3.39584 46.3653 3.59202 44.6642 3.72783C42.963 3.86364 41.061 4.53515 39.7554 5.28965C38.4497 6.0366 32.7814 9.31113 31.9277 9.92227C31.074 10.5334 31.3627 10.8729 31.6452 11.5595C31.6452 11.5595 32.0344 12.8497 32.6747 12.8196C38.3367 12.5555 62.9874 11.3105 68.4046 11.1747C69.8421 11.137 69.8358 10.9937 71.267 9.68838C72.1772 8.85843 71.4993 8.25482 70.6268 7.50032Z" fill="#009B5D"/>
<path d="M42.1094 23.7475L45.8255 29.3082C46.0138 29.3082 46.2021 29.3006 46.3904 29.3006L42.6116 23.6494C42.4421 23.6796 42.2789 23.7173 42.1094 23.7475Z" fill="#009B5D"/>
<path d="M40.4709 24.0668L43.9862 29.3257C44.1745 29.3257 44.3628 29.3182 44.5511 29.3182L40.9731 23.9688C40.8099 24.0065 40.6404 24.0367 40.4709 24.0668Z" fill="#009B5D"/>
<path d="M35.4807 24.9221L38.4687 29.3888C38.657 29.3888 38.8453 29.3887 39.0336 29.3812L35.9954 24.8391C35.8197 24.8693 35.6502 24.8995 35.4807 24.9221Z" fill="#009B5D"/>
<path d="M38.8201 24.3747L42.1533 29.3544C42.3416 29.3544 42.5299 29.3469 42.7182 29.3469L39.3285 24.2766C39.159 24.3143 38.9896 24.3445 38.8201 24.3747Z" fill="#009B5D"/>
<path d="M37.1565 24.656L40.3077 29.3716C40.496 29.3716 40.6843 29.3716 40.8726 29.364L37.6649 24.5654C37.4955 24.5956 37.326 24.6258 37.1565 24.656Z" fill="#009B5D"/>
<path d="M46.9241 22.6298L51.3181 29.194C51.5064 29.1864 51.6885 29.1864 51.8768 29.1789L47.4074 22.494C47.2505 22.5468 47.0873 22.5846 46.9241 22.6298Z" fill="#009B5D"/>
<path d="M43.7351 23.4092L47.6646 29.2792C47.853 29.2792 48.0413 29.2717 48.2233 29.2717L44.231 23.296C44.0615 23.3337 43.8983 23.3715 43.7351 23.4092Z" fill="#009B5D"/>
<path d="M48.4871 22.1928L53.1385 29.1493C53.3268 29.1418 53.5088 29.1418 53.6972 29.1342L48.9641 22.057C48.8072 22.1023 48.6503 22.1475 48.4871 22.1928Z" fill="#009B5D"/>
<path d="M45.342 23.0328L49.4913 29.2424C49.6796 29.2348 49.8616 29.2348 50.05 29.2273L45.8254 22.9121C45.6685 22.9574 45.5052 22.9951 45.342 23.0328Z" fill="#009B5D"/>
<path d="M50.0249 21.7137L54.9588 29.0852C55.1471 29.0777 55.3292 29.0701 55.5175 29.0701L50.4957 21.5553C50.3325 21.6081 50.1818 21.6609 50.0249 21.7137Z" fill="#009B5D"/>
<path d="M73.4579 15.155L74.2676 16.3622C74.2865 16.3622 74.3053 16.3622 74.3241 16.3622C74.4999 16.3622 74.6694 16.3698 74.8451 16.3773L74.117 15.2908C73.9036 15.2607 73.6901 15.2078 73.4579 15.155Z" fill="#009B5D"/>
<path d="M33.792 25.173L36.623 29.4057C36.8113 29.4057 36.9997 29.4057 37.188 29.4057L34.313 25.1051C34.131 25.1202 33.9615 25.1504 33.792 25.173Z" fill="#009B5D"/>
<path d="M84.8133 20.1991L80.4318 13.6425C80.3251 13.7255 80.2058 13.8235 80.0552 13.9367L85.1523 21.5572C85.1021 21.3459 85.0456 21.1271 84.9891 20.9008C84.9263 20.6669 84.8698 20.433 84.8133 20.1991Z" fill="#009B5D"/>
<path d="M77.2556 15.2948L78.8626 17.6941C79.2455 17.9356 79.6159 18.2072 79.9674 18.5014L77.7452 15.1816C77.582 15.2269 77.4188 15.2646 77.2556 15.2948Z" fill="#009B5D"/>
<path d="M27.1318 25.9411C27.1821 26.258 27.3766 26.6579 27.634 27.0653L27.9353 27.5105C28.6258 28.4838 29.5046 29.4042 29.5046 29.4042C29.5046 29.4042 29.5988 29.4042 29.7683 29.4042L27.4331 25.9185C27.3139 25.926 27.2072 25.9335 27.1318 25.9411Z" fill="#009B5D"/>
<path d="M32.0908 25.3972L34.7712 29.4036C34.9532 29.4036 35.1478 29.4036 35.3361 29.4036L32.6118 25.3293C32.4361 25.352 32.2603 25.3746 32.0908 25.3972Z" fill="#009B5D"/>
<path d="M28.6509 25.804L31.0613 29.4105C31.2371 29.4105 31.4254 29.4105 31.6326 29.4105L29.1844 25.7437C28.9961 25.7663 28.8141 25.7814 28.6509 25.804Z" fill="#009B5D"/>
<path d="M30.3772 25.6064L32.9195 29.4091C33.1015 29.4091 33.2898 29.4091 33.4844 29.4091L30.9045 25.546C30.7224 25.5687 30.5467 25.5913 30.3772 25.6064Z" fill="#009B5D"/>
<path d="M71.2609 14.6534L72.5351 16.5623C72.7046 16.5246 72.8678 16.4944 73.0373 16.4642L71.9137 14.7893C71.7191 14.744 71.4994 14.6987 71.2609 14.6534Z" fill="#009B5D"/>
<path d="M69.5031 14.368C69.4027 14.353 69.296 14.3454 69.1956 14.3303L71.016 17.0465C71.1666 16.9862 71.3173 16.9258 71.4679 16.873L69.8233 14.4133C69.7166 14.3982 69.6099 14.3831 69.5031 14.368Z" fill="#009B5D"/>
<path d="M75.4854 15.4097L76.2763 16.5867C76.5148 16.647 76.7471 16.7074 76.9793 16.7904L76.0566 15.4097C75.8557 15.4172 75.6674 15.4172 75.4854 15.4097Z" fill="#009B5D"/>
<path d="M67.2936 14.2656L69.6413 17.7815C69.7731 17.6985 69.9112 17.6156 70.043 17.5326L67.8523 14.2505C67.6702 14.258 67.4819 14.258 67.2936 14.2656Z" fill="#009B5D"/>
<path d="M65.5736 14.4627L68.4172 18.7181C68.5365 18.6125 68.6557 18.5069 68.7813 18.4088L66.0821 14.3722C65.9189 14.4024 65.7494 14.4325 65.5736 14.4627Z" fill="#009B5D"/>
<path d="M83.6646 12.9347C83.583 12.9196 83.3445 12.8668 83.0306 12.8291L83.809 13.991C83.7525 13.4704 83.7149 13.1083 83.7086 12.9876L83.6646 12.9347Z" fill="#009B5D"/>
<path d="M81.7563 12.8557C81.637 12.8783 81.524 12.901 81.411 12.9387C81.3546 12.9538 81.3106 12.9689 81.2729 12.984L84.2735 17.4733C84.2107 17.096 84.1542 16.7263 84.104 16.3641L81.7563 12.8557Z" fill="#009B5D"/>
<path d="M83.8529 25.1664L84.7757 26.5471C84.9828 26.5169 85.1586 26.4943 85.2967 26.4792L83.4386 23.7026C83.6018 24.1704 83.7399 24.6609 83.8529 25.1664Z" fill="#009B5D"/>
<path d="M63.9855 14.8652L67.325 19.8675C67.4317 19.7392 67.5384 19.6185 67.6451 19.4978L64.4563 14.7294C64.3056 14.7671 64.1487 14.8124 63.9855 14.8652Z" fill="#009B5D"/>
<path d="M79.1826 14.5621C79.0445 14.6451 78.9064 14.7206 78.7683 14.796L85.6733 25.1251C85.6607 24.846 85.6356 24.5215 85.5917 24.1594L79.1826 14.5621Z" fill="#009B5D"/>
<path d="M58.3297 17.4945L64.0545 26.0581C64.1487 25.9072 64.2366 25.7563 64.3182 25.6054L58.7377 17.2606C58.6059 17.3285 58.4678 17.4115 58.3297 17.4945Z" fill="#009B5D"/>
<path d="M55.7122 19.1324L62.0396 28.5938C62.1526 28.5108 62.2719 28.4052 62.3974 28.2845L56.1076 18.8759C55.9758 18.9588 55.844 19.0494 55.7122 19.1324Z" fill="#009B5D"/>
<path d="M54.3876 19.9231L60.3698 28.8639C60.5518 28.8564 60.7401 28.8413 60.9159 28.8337L54.8019 19.6892C54.6701 19.7722 54.5319 19.8477 54.3876 19.9231Z" fill="#009B5D"/>
<path d="M62.4916 15.3933L66.3709 21.2029C66.4588 21.0596 66.5529 20.9087 66.6471 20.7728L62.9373 15.2197C62.7929 15.2801 62.6422 15.3329 62.4916 15.3933Z" fill="#009B5D"/>
<path d="M57.0115 18.3001L63.1192 27.4371C63.2197 27.3088 63.3201 27.173 63.4143 27.0297L57.4069 18.0436C57.2814 18.1266 57.1433 18.2171 57.0115 18.3001Z" fill="#009B5D"/>
<path d="M52.9878 20.6038L58.5745 28.9561C58.7566 28.9485 58.9449 28.941 59.1269 28.9334L53.4272 20.4076C53.2765 20.468 53.1322 20.5359 52.9878 20.6038Z" fill="#009B5D"/>
<path d="M61.0603 16.0315L65.5673 22.7692C65.6427 22.5956 65.718 22.4296 65.7996 22.2636L61.4997 15.8278C61.3491 15.8957 61.2047 15.9636 61.0603 16.0315Z" fill="#009B5D"/>
<path d="M59.6793 16.7421L64.8831 24.5285C64.971 24.3324 65.0464 24.1588 65.1029 24.0004L60.0999 16.5157C59.9555 16.5912 59.8174 16.6666 59.6793 16.7421Z" fill="#009B5D"/>
<path d="M51.5251 21.1816L56.7666 29.0208C56.9549 29.0133 57.137 29.0058 57.319 28.9982L51.9771 21.0081C51.8327 21.0684 51.6821 21.1212 51.5251 21.1816Z" fill="#009B5D"/>
</svg>
