<svg width="88" height="28" viewBox="0 0 88 28" fill="none" xmlns="http://www.w3.org/2000/svg">
<path d="M13.3771 25.2896C15.733 25.2896 17.6429 23.3797 17.6429 21.0237C17.6429 18.6678 15.733 16.7579 13.3771 16.7579C11.0211 16.7579 9.11127 18.6678 9.11127 21.0237C9.11127 23.3797 11.0211 25.2896 13.3771 25.2896Z" fill="#F3FFFA"/>
<path d="M67.2316 25.2893C69.5876 25.2893 71.4974 23.3794 71.4974 21.0235C71.4974 18.6676 69.5876 16.7577 67.2316 16.7577C64.8757 16.7577 62.9658 18.6676 62.9658 21.0235C62.9658 23.3794 64.8757 25.2893 67.2316 25.2893Z" fill="#F3FFFA"/>
<path d="M86.5031 16.4971L86.493 16.472L86.478 16.4469C86.4378 16.3917 86.3625 16.3314 86.202 16.216C85.9309 16.0203 85.5244 15.7242 85.2033 15.127C84.867 14.4997 84.6914 13.4457 84.4856 12.2212C84.3802 11.5989 84.2748 10.9615 84.1343 10.3041C83.8181 8.8186 83.2962 8.00057 82.6237 7.94034C81.9964 7.88514 75.2865 7.51878 75.0004 7.50372L74.9452 7.4987L74.895 7.47361C74.8298 7.4435 68.4913 4.5578 67.327 4.05092L66.9456 3.88531C64.1301 2.66077 63.3723 2.33456 58.5695 1.65203C53.0892 0.879166 45.762 1.45129 45.6968 1.45631H45.6667C43.9353 1.45631 39.5992 1.98828 37.125 3.0472C35.4036 3.77992 32.7087 5.29554 30.5456 6.51506L30.5306 6.5251C29.6875 6.99684 28.8895 7.4435 28.2371 7.79982C27.0226 8.45726 26.0189 8.77343 22.9475 9.0344C15.7006 9.64667 8.35337 11.0218 3.77139 12.6227L3.70113 12.6478C3.30967 12.7833 2.57696 13.0292 2.31599 13.9727C2.0751 14.8409 1.96469 15.8045 1.87435 16.5774C1.79908 17.2147 1.75893 17.561 1.67863 17.7668C1.55818 18.093 1.31227 18.2837 1.11655 18.4292C1.00112 18.5196 0.900747 18.5948 0.840523 18.6852L0.825468 18.7103L0.815429 18.7404C0.679926 19.2523 0.830486 21.6261 1.21692 22.0677L1.24201 22.0978L1.27714 22.1129C2.22064 22.5495 4.89555 22.8606 5.69351 22.946L5.88924 22.966V21.1543C5.88924 16.9738 9.29185 13.5712 13.4723 13.5712C17.6528 13.5712 21.0555 16.9738 21.0555 21.1543V23.6737H59.8593V21.1543C59.8593 16.9738 63.2619 13.5712 67.4424 13.5712C71.6229 13.5712 75.0255 16.9738 75.0255 21.1543V22.3237L83.793 21.596L83.8181 21.5909C84.9473 21.335 86.2321 21.0489 86.5382 20.4316C86.8393 19.8344 86.6436 16.9387 86.5031 16.4971Z" fill="#F3FFFA"/>
<path d="M60.6223 24.4412H20.2827V21.159C20.2827 17.4001 17.2264 14.3437 13.4675 14.3437C9.70855 14.3437 6.65221 17.4001 6.65221 21.159V23.8138L6.1353 23.7687C5.72879 23.7335 2.15053 23.3973 0.910931 22.8001C0.649964 22.6746 0.464279 22.4036 0.31874 21.9519C0.0176237 21.0135 -0.127919 18.8555 0.143086 18.3586C0.278588 18.1127 0.474314 17.9621 0.644946 17.8317C0.81056 17.7062 0.91093 17.6209 0.956097 17.5055C1.00628 17.375 1.05647 16.9082 1.10666 16.4967C1.19197 15.7389 1.31242 14.695 1.57339 13.7716C1.94477 12.4367 2.99867 12.0803 3.45034 11.9248L3.51559 11.9047C8.1578 10.2837 15.5753 8.89353 22.8824 8.27624C25.9538 8.01528 26.7969 7.71416 27.8709 7.132C28.5233 6.7807 29.3212 6.32903 30.1694 5.85226C32.4629 4.56248 35.0676 3.10206 36.8241 2.34927C39.3886 1.25522 43.8501 0.703171 45.6468 0.698153C46.0683 0.668041 53.26 0.13607 58.675 0.898898C63.5832 1.59146 64.4364 1.96284 67.2518 3.18738L67.6333 3.35299C68.7273 3.82976 74.3833 6.40431 75.1311 6.74055C75.9792 6.78572 82.0768 7.12196 82.6941 7.17717C83.748 7.27252 84.4857 8.27122 84.8822 10.1482C85.0227 10.8157 85.1331 11.4681 85.2385 12.0954C85.4242 13.2045 85.5999 14.2484 85.8759 14.7703C86.1118 15.212 86.3978 15.4177 86.6488 15.5984C86.8495 15.7439 87.0603 15.8945 87.1807 16.1404C87.4317 16.6423 87.6525 19.9345 87.2209 20.7876C86.7491 21.7311 85.3891 22.0373 83.9487 22.3584L83.8835 22.3685L74.2528 23.1664V21.164C74.2528 17.4051 71.1965 14.3488 67.4375 14.3488C63.6786 14.3488 60.6223 17.4051 60.6223 21.164V24.4412ZM21.2313 23.4977H59.6838V21.159C59.6838 16.8781 63.1667 13.3952 67.4476 13.3952C71.7284 13.3952 75.2113 16.8781 75.2113 21.159V22.1326L83.7881 21.42C84.8872 21.1741 86.1218 20.893 86.3878 20.356C86.6487 19.8291 86.4932 17.0136 86.3426 16.5469C86.3125 16.5068 86.1921 16.4214 86.1067 16.3562C85.8207 16.1504 85.3941 15.8393 85.0528 15.2069C84.7065 14.5545 84.5259 13.4856 84.3151 12.246C84.2097 11.6287 84.1043 10.9863 83.9638 10.3389C83.6727 8.95877 83.1909 8.16584 82.6138 8.11565C81.9814 8.06044 75.0658 7.67903 74.9956 7.67903L74.9052 7.67401L74.8249 7.63888C74.7597 7.60877 68.4212 4.72307 67.2619 4.22121L66.8805 4.0556C64.0851 2.8411 63.3323 2.51489 58.5496 1.83738C53.0994 1.06953 45.7823 1.63663 45.707 1.64165H45.6668C43.9505 1.64165 39.6495 2.1686 37.1954 3.21749C35.4841 3.95021 32.7941 5.46081 30.6311 6.67531C29.783 7.15208 28.98 7.60375 28.3225 7.96007C27.0829 8.63257 26.0642 8.95376 22.9627 9.21472C15.7309 9.82699 8.39869 11.1971 3.82674 12.793L3.75648 12.8181C3.37005 12.9486 2.72265 13.1694 2.48176 14.0225C2.24588 14.8757 2.13547 15.8343 2.04513 16.6021C1.96985 17.2545 1.92469 17.6058 1.83938 17.8367C1.69886 18.2131 1.42283 18.4239 1.22208 18.5794C1.11669 18.6597 1.02636 18.73 0.981192 18.7952C0.850708 19.2971 1.02636 21.5906 1.34755 21.962C2.16558 22.3384 4.43399 22.6445 5.70871 22.78V21.164C5.70871 16.8832 9.19163 13.4002 13.4725 13.4002C17.7534 13.4002 21.2363 16.8832 21.2363 21.164V23.4977H21.2313Z" fill="#009B5D"/>
<path d="M13.3771 27.2063C9.96444 27.2063 7.18915 24.431 7.18915 21.0184C7.18915 17.6057 9.96444 14.8304 13.3771 14.8304C16.7897 14.8304 19.565 17.6057 19.565 21.0184C19.565 24.431 16.7897 27.2063 13.3771 27.2063ZM13.3771 16.9583C11.1388 16.9583 9.31704 18.7801 9.31704 21.0184C9.31704 23.2567 11.1388 25.0784 13.3771 25.0784C15.6154 25.0784 17.4371 23.2567 17.4371 21.0184C17.4422 18.7801 15.6154 16.9583 13.3771 16.9583Z" fill="#009B5D"/>
<path d="M67.2317 27.2063C63.8191 27.2063 61.0438 24.431 61.0438 21.0184C61.0438 17.6057 63.8191 14.8304 67.2317 14.8304C70.6444 14.8304 73.4196 17.6057 73.4196 21.0184C73.4196 24.431 70.6393 27.2063 67.2317 27.2063ZM67.2317 16.9583C64.9934 16.9583 63.1717 18.7801 63.1717 21.0184C63.1717 23.2567 64.9934 25.0784 67.2317 25.0784C69.47 25.0784 71.2918 23.2567 71.2918 21.0184C71.2918 18.7801 69.47 16.9583 67.2317 16.9583Z" fill="#009B5D"/>
<path d="M30.5256 7.45841C31.2333 6.94651 36.3221 4.25654 38.2342 3.5188C40.0209 2.83126 42.1136 2.53516 44.8337 2.32438C47.5538 2.11359 49.1045 2.0885 51.0718 2.0885C53.0391 2.0885 56.527 2.25412 58.6951 2.93665C60.8631 3.62419 61.9371 4.14111 62.71 4.48739C63.2419 4.72327 65.8667 5.90264 67.4375 7.09205C67.7185 7.30283 67.9444 7.86993 67.2719 7.89502C60.6774 8.14094 32.3022 8.81343 31.5896 8.8586C30.7816 8.9138 30.7766 8.57254 30.5256 8.25636C30.2747 7.94019 30.5256 7.45841 30.5256 7.45841Z" fill="#009B5D"/>
<path d="M40.076 17.0891C39.9355 17.1042 39.795 17.1142 39.6545 17.1293L43.8601 22.3637C44.0106 22.3637 44.1612 22.3586 44.3117 22.3586L40.076 17.0891Z" fill="#009B5D"/>
<path d="M38.6909 17.2146C38.5504 17.2297 38.4099 17.2397 38.2693 17.2547L42.3946 22.3838C42.5452 22.3838 42.6958 22.3787 42.8463 22.3787L38.6909 17.2146Z" fill="#009B5D"/>
<path d="M37.3109 17.3347C37.1703 17.3498 37.0248 17.3598 36.8893 17.3749L40.9293 22.4035C41.0798 22.4035 41.2304 22.3985 41.3809 22.3985L37.3109 17.3347Z" fill="#009B5D"/>
<path d="M35.9257 17.4601C35.7851 17.4751 35.6396 17.4852 35.4991 17.4952L39.4537 22.4185C39.6043 22.4185 39.7549 22.4134 39.9054 22.4134L35.9257 17.4601Z" fill="#009B5D"/>
<path d="M34.5405 17.5807C34.395 17.5957 34.2545 17.6058 34.114 17.6158L37.9833 22.4337C38.1339 22.4337 38.2844 22.4287 38.435 22.4287L34.5405 17.5807Z" fill="#009B5D"/>
<path d="M44.2214 16.7128C44.0809 16.7278 43.9404 16.7379 43.7999 16.7529L48.2614 22.3085C48.412 22.3085 48.5625 22.3035 48.7131 22.3035L44.2214 16.7128Z" fill="#009B5D"/>
<path d="M45.6016 16.5873C45.461 16.6023 45.3205 16.6124 45.18 16.6274L49.7319 22.2884C49.8824 22.2884 50.033 22.2834 50.1835 22.2834L45.6016 16.5873Z" fill="#009B5D"/>
<path d="M46.9817 16.4564C46.8412 16.4715 46.7006 16.4815 46.5601 16.4966L51.1973 22.268C51.3479 22.268 51.4984 22.2629 51.649 22.2629L46.9817 16.4564Z" fill="#009B5D"/>
<path d="M33.1554 17.7013C33.0099 17.7163 32.8693 17.7264 32.7288 17.7364L36.5179 22.4489C36.6684 22.4489 36.819 22.4439 36.9695 22.4439L33.1554 17.7013Z" fill="#009B5D"/>
<path d="M41.4562 16.9636C41.3156 16.9787 41.1751 16.9887 41.0346 17.0038L45.3255 22.3436C45.4761 22.3436 45.6266 22.3385 45.7772 22.3385L41.4562 16.9636Z" fill="#009B5D"/>
<path d="M42.8413 16.8381C42.7008 16.8532 42.5603 16.8632 42.4197 16.8783L46.796 22.3285C46.9465 22.3285 47.0971 22.3235 47.2476 22.3235L42.8413 16.8381Z" fill="#009B5D"/>
<path d="M26.7618 18.9711C26.6514 19.0213 26.5359 19.0714 26.4305 19.1216L29.1757 22.5393C29.3263 22.5393 29.4718 22.5343 29.6274 22.5343L26.7618 18.9711Z" fill="#009B5D"/>
<path d="M23.063 21.7515C22.9827 21.8569 22.9125 21.9622 22.8522 22.0526L23.2939 22.6046C23.4294 22.6046 23.5799 22.5996 23.7455 22.5996L23.063 21.7515Z" fill="#009B5D"/>
<path d="M23.8258 20.853C23.7405 20.9383 23.6602 21.0287 23.5799 21.114L24.7643 22.5895C24.9098 22.5895 25.0604 22.5844 25.216 22.5844L23.8258 20.853Z" fill="#009B5D"/>
<path d="M66.2732 10.9463C66.1478 10.9814 66.0223 11.0115 65.9019 11.0467L67.2619 12.7379C67.3271 12.7379 67.3874 12.7329 67.4526 12.7329C67.5429 12.7329 67.6283 12.7379 67.7186 12.7379L66.2732 10.9463Z" fill="#009B5D"/>
<path d="M70.7649 13.4103C71.0209 13.5207 71.2718 13.6412 71.5127 13.7767L68.8378 10.4443C68.7123 10.4644 68.5919 10.4795 68.4714 10.4995C68.4564 10.4995 68.4463 10.5046 68.4363 10.5046L70.7649 13.4103Z" fill="#009B5D"/>
<path d="M24.7041 20.1002C24.6088 20.1705 24.5134 20.2407 24.4231 20.316L26.2398 22.5744C26.3854 22.5744 26.5359 22.5694 26.6915 22.5694L24.7041 20.1002Z" fill="#009B5D"/>
<path d="M31.7703 17.8267C31.6147 17.8417 31.4742 17.8518 31.3437 17.8618L35.0474 22.4689C35.198 22.4689 35.3485 22.4638 35.4991 22.4638L31.7703 17.8267Z" fill="#009B5D"/>
<path d="M25.6978 19.4877C25.5924 19.5479 25.487 19.6031 25.3867 19.6633L27.7103 22.554C27.8558 22.554 28.0064 22.549 28.1619 22.549L25.6978 19.4877Z" fill="#009B5D"/>
<path d="M29.1004 18.1879C28.9749 18.218 28.8495 18.2481 28.724 18.2832L32.1166 22.5039C32.2671 22.5039 32.4177 22.4988 32.5683 22.4988L29.1004 18.1879Z" fill="#009B5D"/>
<path d="M30.3901 17.9521C30.2546 17.9672 30.1191 17.9873 29.9836 18.0124L33.582 22.489C33.7325 22.489 33.8831 22.4839 34.0337 22.4839L30.3901 17.9521Z" fill="#009B5D"/>
<path d="M48.3618 16.326C48.2263 16.3411 48.0858 16.3511 47.9402 16.3662L52.6628 22.243C52.8133 22.243 52.9639 22.238 53.1094 22.238L48.3618 16.326Z" fill="#009B5D"/>
<path d="M27.896 18.5344C27.7756 18.5746 27.6601 18.6147 27.5397 18.6599L30.6462 22.5242C30.7967 22.5242 30.9473 22.5192 31.0979 22.5192L27.896 18.5344Z" fill="#009B5D"/>
<path d="M80.1597 9.77686C80.0744 9.77686 79.9238 9.77686 79.708 9.78188L83.5924 14.6148C83.3515 14.133 83.2712 13.8419 82.9902 13.2999L80.1597 9.77686Z" fill="#009B5D"/>
<path d="M70.1827 10.2738C70.0421 10.2889 69.9016 10.3039 69.7661 10.319L78.0418 20.6121C78.1773 20.5921 78.3178 20.577 78.4533 20.5569L70.1827 10.2738Z" fill="#009B5D"/>
<path d="M75.5576 18.8054C75.6329 19.0664 75.6981 19.3374 75.7483 19.6084L76.6918 20.7828C76.8323 20.7677 76.9678 20.7526 77.1084 20.7326L75.5576 18.8054Z" fill="#009B5D"/>
<path d="M67.5279 10.6649C67.3974 10.69 67.2669 10.7151 67.1364 10.7452L68.8277 12.848C69.0084 12.8781 69.189 12.9132 69.3697 12.9534L67.5279 10.6649Z" fill="#009B5D"/>
<path d="M65.0737 11.2976C64.9533 11.3378 64.8328 11.3779 64.7174 11.4181L65.8868 12.8785C66.0172 12.8534 66.1527 12.8333 66.2882 12.8132L65.0737 11.2976Z" fill="#009B5D"/>
<path d="M71.5577 10.1434C71.4172 10.1535 71.2767 10.1685 71.1312 10.1786L79.3667 20.4265C79.5022 20.4065 79.6377 20.3864 79.7732 20.3663L71.5577 10.1434Z" fill="#009B5D"/>
<path d="M75.7984 9.8822C75.6529 9.88722 75.5074 9.89224 75.3618 9.90228L83.2711 19.7488C83.4066 19.7237 83.5371 19.6936 83.6626 19.6685L75.7984 9.8822Z" fill="#009B5D"/>
<path d="M78.6942 9.797C78.5537 9.80202 78.4031 9.80202 78.2475 9.80704L84.9725 18.1781C84.9323 17.9422 84.8871 17.6913 84.8269 17.4353L78.6942 9.797Z" fill="#009B5D"/>
<path d="M72.953 10.0376C72.8074 10.0476 72.6669 10.0577 72.5214 10.0677L80.6816 20.2203C80.8171 20.1953 80.9526 20.1752 81.0831 20.1501L72.953 10.0376Z" fill="#009B5D"/>
<path d="M49.7369 16.1957C49.6014 16.2107 49.4608 16.2208 49.3153 16.2358L54.1281 22.223C54.2787 22.223 54.4293 22.218 54.5748 22.218L49.7369 16.1957Z" fill="#009B5D"/>
<path d="M74.3682 9.95227C74.2227 9.96231 74.0771 9.96733 73.9316 9.97737L81.9814 19.9945C82.1169 19.9694 82.2474 19.9443 82.3779 19.9192L74.3682 9.95227Z" fill="#009B5D"/>
<path d="M63.9345 11.724C63.8191 11.7692 63.7087 11.8193 63.5983 11.8695L64.6723 13.2045C64.7927 13.1643 64.9131 13.1242 65.0336 13.0891L63.9345 11.724Z" fill="#009B5D"/>
<path d="M77.2389 9.83228C77.0933 9.83729 76.9478 9.84231 76.7972 9.84733L84.5409 19.4881C84.7015 19.4529 84.832 19.4228 84.9273 19.4028L77.2389 9.83228Z" fill="#009B5D"/>
<path d="M53.7468 15.6536C53.6163 15.6787 53.4858 15.7038 53.3503 15.7238L58.5094 22.1426C58.68 22.1376 58.8306 22.1326 58.9561 22.1326L53.7468 15.6536Z" fill="#009B5D"/>
<path d="M55.0215 15.3929C54.896 15.4231 54.7656 15.4481 54.6351 15.4783L59.0113 20.9234C59.0163 20.7478 59.0263 20.5721 59.0414 20.3965L55.0215 15.3929Z" fill="#009B5D"/>
<path d="M51.1019 16.05C50.9614 16.0651 50.8259 16.0802 50.6854 16.0952L55.5936 22.2029C55.7491 22.2029 55.8947 22.1978 56.0402 22.1978L51.1019 16.05Z" fill="#009B5D"/>
<path d="M56.2561 15.0865C56.1306 15.1217 56.0102 15.1518 55.8797 15.1869L59.207 19.3273C59.2371 19.1817 59.2773 19.0412 59.3174 18.8957L56.2561 15.0865Z" fill="#009B5D"/>
<path d="M52.4418 15.8693C52.3063 15.8893 52.1708 15.9094 52.0353 15.9295L57.0539 22.1776C57.2095 22.1726 57.3601 22.1726 57.5006 22.1676L52.4418 15.8693Z" fill="#009B5D"/>
<path d="M62.8455 12.2161C62.7351 12.2713 62.6297 12.3215 62.5193 12.3767L63.5682 13.6815C63.6736 13.6263 63.784 13.5711 63.8944 13.5209L62.8455 12.2161Z" fill="#009B5D"/>
<path d="M61.7966 12.7527C61.6912 12.8079 61.5858 12.8681 61.4804 12.9233L62.5745 14.2834C62.6698 14.2131 62.7702 14.1479 62.8706 14.0826L61.7966 12.7527Z" fill="#009B5D"/>
<path d="M60.7577 13.3099C60.6523 13.3651 60.5469 13.4203 60.4365 13.4756L61.6761 15.0163C61.7614 14.936 61.8518 14.8557 61.9421 14.7804L60.7577 13.3099Z" fill="#009B5D"/>
<path d="M58.6048 14.3186C58.4893 14.3638 58.3739 14.4089 58.2585 14.4541L60.1957 16.863C60.2609 16.7576 60.3262 16.6523 60.3964 16.5469L58.6048 14.3186Z" fill="#009B5D"/>
<path d="M57.4555 14.7302C57.3351 14.7704 57.2146 14.8105 57.0942 14.8457L59.6286 17.9973C59.6788 17.8719 59.734 17.7514 59.7892 17.631L57.4555 14.7302Z" fill="#009B5D"/>
<path d="M59.7088 13.8417C59.5984 13.8919 59.488 13.942 59.3776 13.9922L60.8832 15.8692C60.9585 15.7738 61.0388 15.6835 61.1141 15.5932L59.7088 13.8417Z" fill="#009B5D"/>
<path d="M41.9179 10.4848C41.7573 10.4848 41.6269 10.3543 41.6218 10.1937C41.6168 10.0331 41.7473 9.89764 41.9129 9.89262L45.3858 9.8324C45.5464 9.8324 45.6819 9.95786 45.6869 10.1235C45.6919 10.2841 45.5614 10.4196 45.3958 10.4246L41.923 10.4848C41.923 10.4848 41.923 10.4848 41.9179 10.4848Z" fill="#009B5D"/>
<path d="M60.537 10.4546C60.3764 10.4546 60.2459 10.3241 60.2409 10.1635C60.2359 10.0029 60.3664 9.86738 60.532 9.86236L64.0049 9.80214C64.1755 9.79712 64.301 9.92761 64.306 10.0932C64.311 10.2538 64.1805 10.3893 64.0149 10.3943L60.542 10.4546H60.537Z" fill="#009B5D"/>
</svg>
