<svg width="72" height="72" viewBox="0 0 72 72" fill="none" xmlns="http://www.w3.org/2000/svg">
<rect x="8" y="8" width="56" height="56" rx="28" fill="#E6FBF2"/>
<rect x="8" y="8" width="56" height="56" rx="28" stroke="#E6FBF2" stroke-width="6"/>

<g clip-path="url(#clip0_879_43850)">
<path d="M63.1112 45.7244C64.1745 44.6051 64.1614 43.015 64.8527 41.7277C65.0923 41.209 65.2958 40.6744 65.4618 40.1277H72C70.5383 41.3722 69.3959 42.4322 68.1745 43.3573C67.4009 43.9565 67.3449 44.322 68.1745 44.9409C69.4058 45.866 70.5449 46.9162 71.9145 48.0652H59.2856C60.4017 47.0248 62.0906 46.9195 63.1112 45.7244Z" fill="#02CD7D"/>
<path d="M6.47893 40.1343C7.02214 41.6092 7.56206 43.0973 8.12502 44.5623C8.28634 44.9969 8.3028 45.5269 8.8493 45.7244L12.9415 48.0751H0.13819L4.7637 44.1541L0.0361328 40.1343H6.47893Z" fill="#02CD7D"/>
<path d="M12.9286 48.0751L8.83643 45.7244L13.4224 44.2528C13.4224 45.2602 13.4224 46.2644 13.4224 47.2685C13.4126 47.6109 13.564 48.0948 12.9286 48.0751Z" fill="#009D5A"/>
<path d="M63.111 45.7244C62.0904 46.9195 60.4015 47.0413 59.2855 48.0652C58.6632 48.21 58.7192 47.7689 58.7159 47.4068C58.7159 46.3664 58.7159 45.3261 58.7159 44.2858L63.111 45.7244Z" fill="#009D5A"/>
<path d="M36.3985 50.1557C44.1678 50.1557 50.466 43.8575 50.466 36.0882C50.466 28.319 44.1678 22.0207 36.3985 22.0207C28.6293 22.0207 22.3311 28.319 22.3311 36.0882C22.3311 43.8575 28.6293 50.1557 36.3985 50.1557Z" fill="#F3FFFA"/>
<path d="M16.6123 36.6347C16.9305 36.6347 17.1884 36.3768 17.1884 36.0586C17.1884 35.7404 16.9305 35.4825 16.6123 35.4825C16.2941 35.4825 16.0361 35.7404 16.0361 36.0586C16.0361 36.3768 16.2941 36.6347 16.6123 36.6347Z" fill="#00C67C"/>
<path d="M56.2338 36.6347C56.552 36.6347 56.81 36.3768 56.81 36.0586C56.81 35.7404 56.552 35.4825 56.2338 35.4825C55.9157 35.4825 55.6577 35.7404 55.6577 36.0586C55.6577 36.3768 55.9157 36.6347 56.2338 36.6347Z" fill="#00C67C"/>
<path d="M36.3984 62.0965C50.7623 62.0965 62.4066 50.4522 62.4066 36.0882C62.4066 21.7243 50.7623 10.08 36.3984 10.08C22.0344 10.08 10.3901 21.7243 10.3901 36.0882C10.3901 50.4522 22.0344 62.0965 36.3984 62.0965Z" fill="url(#paint0_linear_879_43850)"/>
<path d="M58.706 44.2726C48.3554 41.2128 37.4921 40.2821 26.7719 41.5368C22.2437 42.0168 17.7715 42.9262 13.4155 44.2528L8.82948 45.7244C8.28298 45.5269 8.26652 44.9969 8.1052 44.5623C7.55541 43.0874 7.01549 41.5993 6.45911 40.1343C5.92578 38.5343 5.38915 36.9211 4.77351 35.3442C4.4443 34.531 4.59244 34.2248 5.46816 33.9253C16.7795 30.0081 28.7396 28.3068 40.6945 28.9146C49.3802 29.3693 57.9622 31.0166 66.199 33.81C67.2723 34.1689 67.5422 34.5442 67.0748 35.6207C66.4394 37.0825 65.9817 38.6199 65.4484 40.1277C65.2877 40.674 65.0898 41.2086 64.8558 41.7277C64.1645 43.015 64.1776 44.6051 63.1143 45.7244L58.706 44.2726Z" fill="#02BF6D"/>
<path d="M20.5243 20.5134C19.7619 21.2996 19.6419 22.1911 20.2456 22.7765C21.4061 23.9019 22.7388 21.8347 23.3191 22.3974C23.5063 22.5789 23.4457 22.838 23.1916 23.1001C22.8603 23.4417 22.1737 23.7565 21.5521 23.8075L21.8801 24.7521C22.575 24.6723 23.3254 24.3104 23.8564 23.7629C24.5643 23.0329 24.7807 22.1168 24.1256 21.4815C22.9417 20.3334 21.5855 22.3779 21.0193 21.8288C20.8602 21.6746 20.9213 21.4523 21.13 21.2371C21.3887 20.9704 21.9511 20.6713 22.4882 20.5201L22.1417 19.5758C21.5951 19.6995 20.9826 20.0408 20.5243 20.5134Z" fill="#F3FFFA"/>
<path d="M27.6221 19.1151L27.5594 15.6102L26.5467 16.1765L26.5781 18.4367L24.6463 17.239L23.6336 17.8052L26.6309 19.7066L27.334 20.964L28.341 20.401L27.6221 19.1151Z" fill="#F3FFFA"/>
<path d="M31.9881 18.0165L31.2064 14.5109L30.0739 14.7634L31.067 19.217L34.0891 18.5431L33.8777 17.5951L31.9881 18.0165Z" fill="#F3FFFA"/>
<path d="M40.0716 18.7314L40.493 14.1879L39.4156 14.088L39.1555 16.892L37.3191 13.8935L36.3001 13.799L35.8786 18.3424L36.9625 18.443L37.2221 15.6455L39.0525 18.6369L40.0716 18.7314Z" fill="#F3FFFA"/>
<path d="M43.9371 15.1296L41.975 19.2362L43.6998 20.0603C45.0198 20.691 46.3241 20.2837 46.9043 19.0693C47.4873 17.849 46.9936 16.5899 45.7029 15.9733L43.9371 15.1296ZM44.5833 16.4616L45.2814 16.7951C45.9444 17.1118 46.1872 17.8404 45.8396 18.5678C45.4949 19.2894 44.8018 19.5636 44.1623 19.2581L43.4173 18.9021L44.5833 16.4616Z" fill="#F3FFFA"/>
<path d="M49.469 24.2004L50.4039 25.1353L50.7926 23.3858C51.3619 23.5756 51.9265 23.4275 52.4218 22.9323C53.1437 22.2103 53.0604 21.3124 52.2042 20.4562L50.7556 19.0076L47.5159 22.2473L48.3397 23.0711L49.2515 22.1594L49.8994 22.8073L49.469 24.2004ZM49.8994 21.5114L50.9315 20.4793L51.5563 21.1041C51.9127 21.4605 51.9497 21.84 51.6118 22.1779C51.2693 22.5204 50.8806 22.4926 50.5242 22.1362L49.8994 21.5114Z" fill="#F3FFFA"/>
<path d="M21.7471 45.887C20.8986 44.5911 19.3325 44.2171 18.1035 45.0218C16.8563 45.8384 16.5387 47.411 17.3792 48.6947C17.7895 49.3214 18.542 49.7935 19.3092 49.9431L19.5642 48.8722C19.0648 48.7732 18.5992 48.487 18.3642 48.1281C17.922 47.4527 18.1289 46.5872 18.8407 46.1211C19.5403 45.663 20.4103 45.8235 20.8525 46.4988C21.0995 46.876 21.1574 47.4291 21 47.9321L22.1525 48.0727C22.3117 47.36 22.1614 46.5197 21.7471 45.887Z" fill="#F3FFFA"/>
<path d="M25.7483 51.6254L26.4074 50.8548L23.391 48.2749L20.0955 52.1281L23.1725 54.7597L23.8316 53.9891L21.7344 52.1954L22.3982 51.4193L24.2367 52.9917L24.8958 52.2211L23.0573 50.6487L23.7117 49.8835L25.7483 51.6254Z" fill="#F3FFFA"/>
<path d="M27.8572 57.244L29.1908 57.8456L28.9083 55.8828C29.5718 55.8563 30.0982 55.4819 30.4169 54.7755C30.8815 53.7456 30.4437 52.8489 29.2223 52.2979L27.1558 51.3657L25.0711 55.9872L26.2463 56.5174L26.833 55.2167L27.7573 55.6337L27.8572 57.244ZM27.2499 54.2924L27.9141 52.8202L28.8054 53.2222C29.3137 53.4515 29.5006 53.8298 29.2832 54.3118C29.0628 54.8004 28.6496 54.9238 28.1412 54.6945L27.2499 54.2924Z" fill="#F3FFFA"/>
<path d="M35.6929 54.9545L35.8483 53.9232L31.5655 53.2777L31.41 54.3091L32.9069 54.5346L32.3057 58.5238L33.5805 58.7159L34.1817 54.7268L35.6929 54.9545Z" fill="#F3FFFA"/>
<path d="M38.1331 58.8222L37.8863 53.7582L36.5986 53.821L36.8454 58.885L38.1331 58.8222Z" fill="#F3FFFA"/>
<path d="M43.0008 53.7359L42.7466 52.7543L39.1076 53.6967L40.3788 58.6047L41.6268 58.2815L41.1583 56.4726L43.3599 55.9024L43.1057 54.9208L40.9041 55.4909L40.6099 54.3551L43.0008 53.7359Z" fill="#F3FFFA"/>
<path d="M47.0417 56.2559L44.7922 51.7123L43.6368 52.2843L45.8863 56.8279L47.0417 56.2559Z" fill="#F3FFFA"/>
<path d="M49.6314 49.5509L49.0028 48.76L45.9069 51.2208L49.0503 55.1754L52.2083 52.6652L51.5796 51.8743L49.4272 53.5852L48.794 52.7886L50.6809 51.2888L50.0523 50.4979L48.1654 51.9977L47.5412 51.2124L49.6314 49.5509Z" fill="#F3FFFA"/>
<path d="M49.6355 48.1261L53.8203 50.9883L55.0224 49.2307C55.9424 47.8855 55.7171 46.3802 54.4796 45.5338C53.2362 44.6833 51.7657 45.0114 50.8662 46.3266L49.6355 48.1261ZM51.2122 47.6426L51.6988 46.9312C52.1608 46.2556 53.0042 46.1129 53.7455 46.62C54.4809 47.1229 54.6641 47.9327 54.2184 48.5843L53.6992 49.3435L51.2122 47.6426Z" fill="#F3FFFA"/>
<path d="M36.4248 21.6158L38.3935 20.0586L39.9112 22.0569L42.2026 21.0364L43.1771 23.3508L45.6528 22.9327L46.0215 25.415L48.5203 25.629L48.2602 28.1244L50.6306 28.9508L49.7549 31.3047L51.8454 32.694L50.4133 34.7549L52.0923 36.6216L50.1927 38.2611L51.3549 40.4866L49.1096 41.6026L49.6791 44.0454L47.2265 44.5689L47.1705 47.0808L44.6651 46.9755L43.987 49.3919L41.5837 48.6677L40.3293 50.8405L38.1828 49.5401L36.4248 51.3343L34.6668 49.5401L32.5203 50.8405L31.266 48.6677L28.8627 49.3919L28.1845 46.9755L25.6791 47.0808L25.6232 44.5689L23.1705 44.0454L23.74 41.6026L21.4948 40.4866L22.6536 38.2611L20.7573 36.6216L22.433 34.7549L21.0042 32.694L23.0915 31.3047L22.2191 28.9508L24.5894 28.1244L24.326 25.629L26.8281 25.415L27.1968 22.9327L29.6725 23.3508L30.6437 21.0364L32.9384 22.0569L34.4561 20.0586L36.4248 21.6158Z" fill="#F3FFFA"/>
<path d="M36.1187 32.8751H44.9055L45.4323 30.0833H36.1187C34.5489 30.0894 33.0451 30.7156 31.9351 31.8257C30.8251 32.9357 30.1988 34.4394 30.1928 36.0092V37.4051H38.9434C38.68 37.9311 38.2759 38.3739 37.7762 38.6842C37.2764 38.9945 36.7004 39.1603 36.1121 39.1631H27.3648L26.7393 41.9483H36.0956C37.666 41.944 39.1707 41.3182 40.2811 40.2078C41.3915 39.0975 42.0172 37.5927 42.0216 36.0224V34.6265H33.2808C33.5395 34.0958 33.9435 33.6495 34.4459 33.3395C34.9483 33.0294 35.5284 32.8684 36.1187 32.8751V32.8751Z" fill="#02CD7D"/>
<path d="M42.9434 39.3639H43.322V40.5788H43.5261V39.3639H43.908V39.173H42.9434V39.3639Z" fill="#02CD7D"/>
<path d="M44.7507 40.029L44.2075 39.173H44.0659V40.5788H44.2667V39.6306L44.6783 40.2759H44.8198L45.2313 39.6306V40.5788H45.4322V39.173H45.2906L44.7507 40.029Z" fill="#02CD7D"/>
</g>
<defs>

<linearGradient id="paint0_linear_879_43850" x1="23.3943" y1="62.0965" x2="49.4025" y2="10.08" gradientUnits="userSpaceOnUse">
<stop stop-color="#009B5D"/>
<stop offset="1" stop-color="#00CE7C"/>
</linearGradient>
<clipPath id="clip0_879_43850">
<rect width="72" height="52.0165" fill="white" transform="translate(0 10.08)"/>
</clipPath>
</defs>
</svg>
