<svg width="62" height="62" viewBox="0 0 62 62" fill="none" xmlns="http://www.w3.org/2000/svg">
<rect x="3" y="3" width="56" height="56" rx="28" fill="#F9FAFB"/>
<g clip-path="url(#clip0_879_43806)">
<path d="M31 56C44.8071 56 56 44.8071 56 31C56 17.1929 44.8071 6 31 6C17.1929 6 6 17.1929 6 31C6 44.8071 17.1929 56 31 56Z" fill="#00CE7C"/>
<path d="M15.4526 24.769L16.0696 26.1646C13.6139 27.4304 12.1361 29.0127 12.1361 30.674C12.1361 34.1139 18.3513 37.1044 26.4874 37.9525L26.3165 39.4937C17.1994 38.5538 10.5918 35.019 10.5918 30.6835C10.5918 28.3956 12.4114 26.3418 15.4526 24.769Z" fill="#00C67C"/>
<path d="M17.7343 24.769L16.0697 26.1646L15.4526 24.769H17.7343Z" fill="#00C67C"/>
<path d="M37.1552 34.8449L35.0698 37.9905C43.4812 37.2373 49.9875 34.1962 49.9875 30.6835C49.9875 29.1487 48.7501 27.7057 46.6584 26.5031L47.4052 25.1804C50.0033 26.693 51.5191 28.5949 51.5191 30.6835C51.5191 35.0918 44.7185 38.6645 35.3989 39.5221L38.3736 41.4209L37.5634 42.7088L32.3008 39.3671L35.8672 33.9873L37.1552 34.8449Z" fill="#00C67C"/>
<path d="M15.4526 24.769L16.0696 26.1646C13.6139 27.4304 12.1361 29.0127 12.1361 30.674C12.1361 34.1139 18.3513 37.1044 26.4874 37.9525L26.3165 39.4937C17.1994 38.5538 10.5918 35.019 10.5918 30.6835C10.5918 28.3956 12.4114 26.3418 15.4526 24.769Z" fill="#66E2B0"/>
<path d="M17.0096 29.1081L20.7355 25.2331V23.0827H10.899V25.9783H16.3282L13.0068 29.4274V31.4501H15.3914C16.8818 31.4501 17.7122 32.0675 17.7122 33.3237C17.7122 34.5373 16.9031 35.2612 15.4127 35.2612C14.0714 35.2612 12.7939 34.6438 11.6868 33.4515L10.1538 36.3258C11.5164 37.4116 13.6668 38.1355 15.7108 38.1355C19.1813 38.1355 21.4168 36.1341 21.4168 33.2811C21.4168 30.9817 19.8839 29.5552 17.7122 29.2145L17.0096 29.1081Z" fill="white"/>
<path d="M29.84 22.8911C25.6456 22.8911 22.9416 25.9783 22.9416 30.7262C22.9416 35.3038 25.3688 38.1355 29.3716 38.1355C32.7356 38.1355 34.9498 36.1341 34.9498 32.9831C34.9498 30.0875 33.0762 28.1713 30.138 28.1713C28.4773 28.1713 27.285 28.7674 26.5824 29.7681C26.5398 27.3196 27.6896 25.8079 30.0742 25.8079C31.2239 25.8079 32.3523 26.1486 33.204 26.766L34.6518 24.1259C33.3956 23.3595 31.5007 22.8911 29.84 22.8911ZM29.2864 30.9391C30.649 30.9391 31.4368 31.6843 31.4368 32.9618C31.4368 34.3457 30.5852 35.1122 29.2225 35.1122C27.6896 35.1122 26.9869 34.1328 26.9869 33.0256C26.9869 31.812 27.8173 30.9391 29.2864 30.9391Z" fill="white"/>
<path d="M43.0157 22.9336C38.7575 22.9336 36.3941 25.6376 36.3941 30.492C36.3941 35.3677 38.7575 38.0716 43.0157 38.0716C47.2313 38.0716 49.5946 35.3677 49.5946 30.492C49.5946 25.6376 47.2313 22.9336 43.0157 22.9336ZM43.0157 25.7015C44.8893 25.7015 45.7197 27.0854 45.7197 30.492C45.7197 33.8986 44.8893 35.3038 43.0157 35.3038C41.0995 35.3038 40.2904 33.8986 40.2904 30.492C40.2904 27.0854 41.0995 25.7015 43.0157 25.7015Z" fill="white"/>
<path d="M37.0917 34.8449L35.0063 37.9905C43.4177 37.2374 49.9272 34.1931 49.9272 30.6741C49.9272 29.1393 48.6898 27.6962 46.6012 26.4937L47.3449 25.1709C49.943 26.6836 51.4588 28.5855 51.4588 30.6741C51.4588 35.0823 44.6582 38.6551 35.3386 39.5127L38.3133 41.4114L37.5 42.7089L32.2373 39.3671L35.8038 33.9874L37.0917 34.8449Z" fill="#66E2B0"/>
<path d="M49.016 22.1392C48.6616 22.1398 48.315 22.0353 48.02 21.8389C47.7251 21.6425 47.495 21.363 47.3589 21.0357C47.2229 20.7085 47.187 20.3482 47.2557 20.0006C47.3245 19.6529 47.4948 19.3335 47.7452 19.0827C47.9955 18.8319 48.3147 18.661 48.6622 18.5916C49.0098 18.5222 49.3701 18.5575 49.6975 18.693C50.025 18.8285 50.3049 19.058 50.5019 19.3527C50.6988 19.6473 50.804 19.9937 50.804 20.3481C50.804 20.8226 50.6157 21.2777 50.2805 21.6135C49.9452 21.9493 49.4905 22.1384 49.016 22.1392ZM49.016 19.2405C48.7969 19.2405 48.5828 19.3054 48.4006 19.4272C48.2185 19.5489 48.0765 19.7218 47.9927 19.9242C47.9089 20.1266 47.8869 20.3493 47.9297 20.5642C47.9724 20.779 48.0779 20.9764 48.2328 21.1313C48.3877 21.2862 48.585 21.3917 48.7999 21.4344C49.0148 21.4771 49.2375 21.4552 49.4398 21.3714C49.6422 21.2875 49.8152 21.1456 49.9369 20.9634C50.0586 20.7813 50.1236 20.5671 50.1236 20.3481C50.1257 20.2013 50.0986 20.0556 50.0439 19.9194C49.9891 19.7832 49.9079 19.6592 49.8048 19.5546C49.7018 19.4501 49.5789 19.3671 49.4435 19.3105C49.3081 19.2538 49.1628 19.2247 49.016 19.2247V19.2405Z" fill="white"/>
</g>
<rect x="3" y="3" width="56" height="56" rx="28" stroke="#E6FBF2" stroke-width="6"/>
<defs>
<clipPath id="clip0_879_43806">
<rect width="50" height="50" fill="white" transform="translate(6 6)"/>
</clipPath>
</defs>
</svg>
