<svg width="18" height="20" viewBox="0 0 18 20" fill="none" xmlns="http://www.w3.org/2000/svg">
<path d="M16.5 8.21305H1.5M12.3333 1.54639V4.87972M5.66667 1.54639V4.87972M5.5 18.2131H12.5C13.9001 18.2131 14.6002 18.2131 15.135 17.9406C15.6054 17.7009 15.9878 17.3184 16.2275 16.848C16.5 16.3133 16.5 15.6132 16.5 14.2131V7.21305C16.5 5.81292 16.5 5.11286 16.2275 4.57808C15.9878 4.10767 15.6054 3.72522 15.135 3.48554C14.6002 3.21305 13.9001 3.21305 12.5 3.21305H5.5C4.09987 3.21305 3.3998 3.21305 2.86502 3.48554C2.39462 3.72522 2.01217 4.10767 1.77248 4.57808C1.5 5.11286 1.5 5.81292 1.5 7.21305V14.2131C1.5 15.6132 1.5 16.3133 1.77248 16.848C2.01217 17.3184 2.39462 17.7009 2.86502 17.9406C3.3998 18.2131 4.09987 18.2131 5.5 18.2131Z" stroke="#009B5D" stroke-width="1.66667" stroke-linecap="round" stroke-linejoin="round"/>
</svg>
