<svg width="16" height="17" viewBox="0 0 16 17" fill="none" xmlns="http://www.w3.org/2000/svg">
<path d="M7.94465 5.17809C8.13014 4.69582 8.22288 4.45469 8.35677 4.38474C8.47281 4.32411 8.61118 4.32411 8.72722 4.38474C8.8611 4.45469 8.95385 4.69582 9.13933 5.17809L9.48134 6.0673C9.6341 6.46447 9.71047 6.66305 9.82925 6.83009C9.93451 6.97813 10.0639 7.10748 10.2119 7.21275C10.3789 7.33152 10.5775 7.4079 10.9747 7.56065L11.8639 7.90266C12.3462 8.08815 12.5873 8.18089 12.6573 8.31477C12.7179 8.43082 12.7179 8.56918 12.6573 8.68523C12.5873 8.81911 12.3462 8.91186 11.8639 9.09734L10.9747 9.43935C10.5775 9.5921 10.3789 9.66848 10.2119 9.78725C10.0639 9.89252 9.93451 10.0219 9.82925 10.1699C9.71047 10.337 9.6341 10.5355 9.48134 10.9327L9.13933 11.8219C8.95385 12.3042 8.8611 12.5453 8.72722 12.6153C8.61118 12.6759 8.47281 12.6759 8.35677 12.6153C8.22288 12.5453 8.13014 12.3042 7.94465 11.8219L7.60265 10.9327C7.44989 10.5355 7.37351 10.337 7.25474 10.1699C7.14947 10.0219 7.02012 9.89252 6.87208 9.78725C6.70504 9.66848 6.50646 9.5921 6.10929 9.43935L5.22008 9.09734C4.73781 8.91186 4.49668 8.81911 4.42673 8.68523C4.36611 8.56918 4.36611 8.43082 4.42673 8.31477C4.49668 8.18089 4.73781 8.08815 5.22008 7.90266L6.10929 7.56065C6.50646 7.4079 6.70504 7.33152 6.87208 7.21275C7.02012 7.10748 7.14947 6.97813 7.25474 6.83009C7.37351 6.66305 7.44989 6.46447 7.60265 6.0673L7.94465 5.17809Z" fill="#009B5D"/>
<path d="M3.93717 13.9168V11.2085M3.93717 5.79183V3.0835M2.58301 4.43766H5.29134M2.58301 12.5627H5.29134M8.54134 3.62516L7.602 6.06746C7.44924 6.46463 7.37286 6.66321 7.25409 6.83025C7.14882 6.97829 7.01947 7.10764 6.87143 7.21291C6.70439 7.33168 6.50581 7.40806 6.10864 7.56082L3.66634 8.50016L6.10864 9.43951C6.50581 9.59227 6.70439 9.66864 6.87143 9.78742C7.01947 9.89269 7.14882 10.022 7.25409 10.1701C7.37286 10.3371 7.44924 10.5357 7.602 10.9329L8.54134 13.3752L9.48069 10.9329C9.63344 10.5357 9.70982 10.3371 9.8286 10.1701C9.93386 10.022 10.0632 9.89269 10.2113 9.78742C10.3783 9.66864 10.5769 9.59227 10.974 9.43951L13.4163 8.50016L10.974 7.56082C10.5769 7.40806 10.3783 7.33168 10.2113 7.21291C10.0632 7.10764 9.93386 6.97829 9.8286 6.83025C9.70982 6.66321 9.63344 6.46463 9.48069 6.06746L8.54134 3.62516Z" stroke="#1D2939" stroke-width="0.5" stroke-linecap="round" stroke-linejoin="round"/>
</svg>
