<svg width="20" height="20" viewBox="0 0 20 20" fill="none" xmlns="http://www.w3.org/2000/svg">
<path d="M10.0001 1.54639V3.62972M10.0001 1.54639C5.39771 1.54639 1.66675 5.27735 1.66675 9.87972M10.0001 1.54639C14.6025 1.54639 18.3334 5.27735 18.3334 9.87972M10.0001 16.1297V18.2131M10.0001 18.2131C14.6025 18.2131 18.3334 14.4821 18.3334 9.87972M10.0001 18.2131C5.39771 18.2131 1.66675 14.4821 1.66675 9.87972M3.75008 9.87972H1.66675M18.3334 9.87972H16.2501M15.8988 15.7784L14.4207 14.3003M4.10144 15.7784L5.58104 14.2988M4.10144 4.04639L5.54848 5.49343M15.8988 4.04639L11.25 8.62972M11.6667 9.87972C11.6667 10.8002 10.9206 11.5464 10.0001 11.5464C9.07961 11.5464 8.33342 10.8002 8.33342 9.87972C8.33342 8.95925 9.07961 8.21305 10.0001 8.21305C10.9206 8.21305 11.6667 8.95925 11.6667 9.87972Z" stroke="#009B5D" stroke-width="1.66667" stroke-linecap="round" stroke-linejoin="round"/>
</svg>
