<svg width="24" height="20" viewBox="0 0 24 20" fill="none" xmlns="http://www.w3.org/2000/svg">
<path d="M7.03568 9H3.92854C3.32848 9 3.02845 9 2.79926 9.10899C2.59766 9.20487 2.43375 9.35785 2.33103 9.54601C2.21425 9.75992 2.21425 10.0399 2.21425 10.6V19M16.6785 9H19.7857C20.3857 9 20.6858 9 20.915 9.10899C21.1166 9.20487 21.2805 9.35785 21.3832 9.54601C21.5 9.75992 21.5 10.0399 21.5 10.6V19M16.6785 19V4.2C16.6785 3.0799 16.6785 2.51984 16.445 2.09202C16.2395 1.71569 15.9117 1.40973 15.5085 1.21799C15.0501 1 14.4501 1 13.25 1H10.4643C9.26414 1 8.66408 1 8.2057 1.21799C7.8025 1.40973 7.47468 1.71569 7.26924 2.09202C7.03568 2.51984 7.03568 3.0799 7.03568 4.2V19M22.5714 19H1.14282M10.7857 5H12.9285M10.7857 9H12.9285M10.7857 13H12.9285" stroke="#98A2B3" stroke-width="2" stroke-linecap="round" stroke-linejoin="round"/>
</svg>
