<svg width="26" height="24" viewBox="0 0 26 24" fill="none" xmlns="http://www.w3.org/2000/svg">
<path d="M11.7853 4H8.35672C6.55656 4 5.65647 4 4.9689 4.32698C4.36409 4.6146 3.87237 5.07354 3.5642 5.63803C3.21387 6.27976 3.21387 7.11984 3.21387 8.8V16.2C3.21387 17.8802 3.21387 18.7202 3.5642 19.362C3.87237 19.9265 4.36409 20.3854 4.9689 20.673C5.65647 21 6.55656 21 8.35672 21H16.2853C18.0855 21 18.9856 21 19.6731 20.673C20.2779 20.3854 20.7697 19.9265 21.0778 19.362C21.4282 18.7202 21.4282 17.8802 21.4282 16.2V13M13.9282 17H7.49958M16.071 13H7.49958M21.5581 3.87868C22.8134 5.05025 22.8134 6.94975 21.5581 8.12132C20.3029 9.29289 18.2677 9.29289 17.0125 8.12132C15.7572 6.94975 15.7572 5.05025 17.0125 3.87868C18.2677 2.70711 20.3029 2.70711 21.5581 3.87868Z" stroke="#98A2B3" stroke-width="2" stroke-linecap="round" stroke-linejoin="round"/>
</svg>
