<svg width="26" height="23" viewBox="0 0 26 23" fill="none" xmlns="http://www.w3.org/2000/svg">
<path d="M11.3745 8.50261C11.5948 7.91825 12.0295 7.42551 12.6017 7.11164C13.1739 6.79777 13.8467 6.68304 14.5008 6.78776C15.155 6.89249 15.7483 7.20991 16.1757 7.68381C16.6031 8.15771 16.8371 8.7575 16.8361 9.37696C16.8361 11.1257 14.0257 12 14.0257 12M14.0619 15.5H14.0744M13.8745 21.3333C19.7426 21.3333 24.4995 16.8935 24.4995 11.4167C24.4995 5.93984 19.7426 1.5 13.8745 1.5C8.00651 1.5 3.24953 5.93984 3.24953 11.4167C3.24953 12.525 3.44434 13.5909 3.80374 14.586C3.93899 14.9606 4.00662 15.1478 4.01882 15.2917C4.03086 15.4337 4.02176 15.5333 3.9841 15.6714C3.94597 15.8113 3.86178 15.9567 3.6934 16.2476L1.64883 19.7797C1.35719 20.2836 1.21137 20.5355 1.244 20.7299C1.27243 20.8992 1.37922 21.0483 1.536 21.1376C1.716 21.2401 2.02115 21.2106 2.63146 21.1518L9.03274 20.5342C9.22659 20.5155 9.32351 20.5061 9.41186 20.5093C9.49875 20.5124 9.56009 20.52 9.64482 20.5382C9.73097 20.5568 9.83931 20.5957 10.056 20.6736C11.241 21.0997 12.5286 21.3333 13.8745 21.3333Z" stroke="#98A2B3" stroke-width="2" stroke-linecap="round" stroke-linejoin="round"/>
</svg>
