<svg width="22" height="20" viewBox="0 0 22 20" fill="none" xmlns="http://www.w3.org/2000/svg">
<path d="M16.7496 4.5L4.96387 15.5M7.10672 8.5V4.5M4.96387 6.5H9.24958M12.4639 13.5H16.7496M6.35672 19H15.3567C17.1569 19 18.057 19 18.7446 18.673C19.3494 18.3854 19.8411 17.9265 20.1492 17.362C20.4996 16.7202 20.4996 15.8802 20.4996 14.2V5.8C20.4996 4.11984 20.4996 3.27976 20.1492 2.63803C19.8411 2.07354 19.3494 1.6146 18.7446 1.32698C18.057 1 17.1569 1 15.3567 1H6.35672C4.55656 1 3.65647 1 2.9689 1.32698C2.36409 1.6146 1.87237 2.07354 1.5642 2.63803C1.21387 3.27976 1.21387 4.11984 1.21387 5.8V14.2C1.21387 15.8802 1.21387 16.7202 1.5642 17.362C1.87237 17.9265 2.36409 18.3854 2.9689 18.673C3.65647 19 4.55656 19 6.35672 19Z" stroke="#98A2B3" stroke-width="2" stroke-linecap="round" stroke-linejoin="round"/>
</svg>
