<svg width="88" height="32" viewBox="0 0 88 32" fill="none" xmlns="http://www.w3.org/2000/svg">
<path d="M16.3253 29.2676C18.8805 28.6671 20.4651 26.1088 19.8645 23.5536C19.264 20.9984 16.7058 19.4139 14.1505 20.0144C11.5953 20.615 10.0108 23.1732 10.6113 25.7284C11.2119 28.2836 13.7701 29.8682 16.3253 29.2676Z" fill="#F3FFFA"/>
<path d="M15.2295 17.9762C11.5547 17.9762 8.5643 20.9666 8.5643 24.6414C8.5643 28.3163 11.5547 31.3066 15.2295 31.3066C18.9044 31.3066 21.8947 28.3163 21.8947 24.6414C21.8947 20.9666 18.9044 17.9762 15.2295 17.9762ZM15.2295 29.0202C12.812 29.0202 10.8508 27.0541 10.8508 24.6414C10.8508 22.2287 12.8169 20.2627 15.2295 20.2627C17.6471 20.2627 19.6083 22.2287 19.6083 24.6414C19.6083 27.0541 17.6422 29.0202 15.2295 29.0202Z" fill="#009B5D"/>
<path d="M73.4637 28.0024C75.3197 26.1464 75.3196 23.1373 73.4637 21.2813C71.6077 19.4254 68.5986 19.4254 66.7426 21.2813C64.8867 23.1373 64.8867 26.1464 66.7426 28.0024C68.5986 29.8583 71.6077 29.8583 73.4637 28.0024Z" fill="#F3FFFA"/>
<path d="M70.1048 17.9755C66.43 17.9755 63.4396 20.9658 63.4396 24.6407C63.4396 28.3155 66.43 31.3059 70.1048 31.3059C73.7797 31.3059 76.77 28.3155 76.77 24.6407C76.77 20.9658 73.7797 17.9755 70.1048 17.9755ZM70.1048 29.0194C67.6873 29.0194 65.7261 27.0534 65.7261 24.6407C65.7261 22.228 67.6921 20.2619 70.1048 20.2619C72.5224 20.2619 74.4836 22.228 74.4836 24.6407C74.4836 27.0534 72.5175 29.0194 70.1048 29.0194Z" fill="#009B5D"/>
<path d="M86.8138 17.1174L86.8041 17.1126C86.0177 16.7048 86.0225 16.2242 86.0371 15.5591C86.0468 14.9717 86.0516 12.86 86.0225 11.5881C85.9982 10.525 85.8817 10.2968 85.5177 9.74343C85.4594 9.6512 85.3914 9.54925 85.3138 9.43275C85.0808 9.06381 83.9642 7.38415 82.8865 5.76275C81.3671 3.48114 80.3622 1.96654 80.236 1.74809C79.833 1.03933 78.9495 0.782043 76.5951 0.689807C75.1242 0.631553 68.8619 0.583008 63.1967 0.583008C58.0752 0.583008 54.2062 0.621844 52.3081 0.689807C47.2837 0.874278 44.2399 1.07817 41.803 1.38885C40.366 1.57332 38.3271 1.97139 37.0019 2.44713C36.1038 2.77238 31.5503 5.50546 27.356 8.04436L27.3366 8.05407C25.9725 8.87933 24.9918 9.47158 24.686 9.64149C24.6132 9.68033 24.5307 9.7046 24.4481 9.7046C22.8947 9.73858 15.6275 10.4959 13.8654 10.7774C11.9041 11.093 4.75833 12.6221 4.15638 12.8309L4.1418 12.8357C3.76315 12.9911 3.20003 13.5833 3.07866 13.8503L3.06412 13.8843L3.05926 13.9232C2.96217 14.4717 2.31167 18.2679 2.27769 18.632C2.22915 19.1854 1.8796 19.4864 1.58347 19.6854L1.51067 19.734L1.47669 19.8165C1.433 19.9184 1.39901 20.0884 1.41358 20.2291C1.42814 20.3554 1.4427 20.7146 1.47183 21.336C1.53494 22.7146 1.60291 24.0351 1.66116 24.3215C1.67572 24.404 1.69027 24.4817 1.70484 24.5545C1.71454 24.6127 1.72911 24.6904 1.73882 24.7438L1.77766 24.9186L1.96214 24.9671C2.41361 25.0739 5.43795 25.5205 6.35545 25.6516L6.68069 25.7002V23.9574C6.68069 19.2048 10.5449 15.3407 15.2974 15.3407C20.05 15.3407 23.9141 19.2048 23.9141 23.9574V25.773L61.5802 25.2098V23.6758C61.5802 18.9233 65.4443 15.0591 70.1969 15.0591C74.9494 15.0591 78.8136 18.9233 78.8136 23.6758V24.9283L79.1388 24.8846C80.0224 24.7632 84.4642 24.1564 85.1196 23.9671C85.7458 23.7826 85.7944 23.7681 86.1342 23.4525L86.207 23.3846C86.5371 23.0787 87.0565 22.4331 87.1633 22.1418L87.1827 22.0884V22.035C87.1779 21.7486 87.1827 21.1224 87.1876 20.3893C87.1973 19.3845 87.2119 18.0058 87.1827 17.6417C87.1488 17.3164 87.0031 17.2145 86.8138 17.1174Z" fill="#F3FFFA"/>
<path d="M87.6488 17.6033C87.6003 16.9577 87.1828 16.7538 87.0032 16.6615C86.5129 16.4091 86.4983 16.2392 86.5129 15.5741C86.5226 15.0159 86.5323 12.8799 86.4983 11.5837C86.4643 10.1128 86.2119 9.96233 85.7119 9.16619C85.2167 8.37006 80.8817 1.91358 80.6438 1.4961C80.1292 0.588307 79.1098 0.27762 76.5757 0.18053C75.1291 0.122276 69.0464 0.0737305 63.1531 0.0737305C58.7209 0.0737305 54.4004 0.102858 52.245 0.18053C47.4002 0.360146 44.2594 0.554324 41.6962 0.88443C40.3369 1.05919 38.2155 1.45726 36.7883 1.96698C35.3611 2.48156 25.4433 8.61764 24.3996 9.19532C22.8171 9.2293 15.5451 9.9866 13.744 10.273C11.943 10.5594 4.45738 12.1469 3.91853 12.3604C3.37968 12.574 2.58842 13.4042 2.5156 13.8022C2.44279 14.2003 1.7583 18.1955 1.72432 18.5888C1.69034 18.9868 1.39908 19.1665 1.18548 19.3072C0.97188 19.448 0.826224 19.9189 0.860206 20.2781C0.894187 20.6374 1.00585 23.8753 1.11265 24.419C1.21945 24.9579 1.18545 25.3171 1.79712 25.4627C2.40879 25.6084 7.15164 26.2928 7.15164 26.2928V23.9578C7.15164 19.482 10.7779 15.8557 15.2538 15.8557C19.7296 15.8557 23.3559 19.482 23.3559 23.9578V26.2928L62.0511 25.7152V23.6763C62.0511 19.2004 65.6774 15.5741 70.1532 15.5741C74.6291 15.5741 78.2554 19.2004 78.2554 23.6763V25.5161C78.2554 25.5161 84.3769 24.7054 85.2216 24.4578C86.0663 24.2103 86.0954 24.1472 86.5129 23.7637C86.8333 23.4675 87.6683 22.5258 87.6537 22.0743C87.6294 21.4772 87.6974 18.2489 87.6488 17.6033ZM86.8575 20.3849C86.8527 21.1131 86.843 21.7442 86.8527 22.0403C86.7702 22.2636 86.2993 22.8656 85.9692 23.1714L85.8964 23.2394C85.61 23.5064 85.6099 23.5064 84.9934 23.686C84.4885 23.8316 81.3865 24.2782 79.0515 24.5986V23.6763C79.0515 18.7684 75.0563 14.7731 70.1484 14.7731C65.2405 14.7731 61.2452 18.7684 61.2452 23.6763V24.9287L24.1472 25.4821V23.9578C24.1472 19.0499 20.152 15.0547 15.2441 15.0547C10.3362 15.0547 6.34095 19.0499 6.34095 23.9578V25.3705C4.53022 25.1035 2.33114 24.7734 1.9719 24.6909H1.96704C1.95734 24.6375 1.94277 24.5695 1.93306 24.5112C1.9185 24.4336 1.90392 24.3559 1.88936 24.2685C1.82625 23.9627 1.74858 22.1811 1.70974 21.3267C1.68061 20.681 1.66605 20.3364 1.65149 20.2053C1.64178 20.1179 1.67092 19.9966 1.69519 19.9286C1.9719 19.7441 2.44764 19.38 2.5156 18.6664C2.54473 18.3266 3.19037 14.5644 3.29231 13.9819C3.39426 13.7683 3.90883 13.2343 4.20496 13.108C4.7875 12.9042 11.9673 11.3701 13.8654 11.0643C15.6227 10.7827 22.8656 10.0303 24.4094 9.99631C24.5404 9.99146 24.6666 9.95748 24.7783 9.89922C25.089 9.72932 26.0842 9.12736 27.458 8.29724C30.4823 6.4671 36.1087 3.0641 37.0553 2.72428C38.3612 2.2534 40.3758 1.86018 41.7981 1.68057C44.2254 1.36988 47.2643 1.17085 52.2741 0.986376C54.1674 0.918413 58.0316 0.879576 63.1531 0.879576C68.8182 0.879576 75.0708 0.928122 76.5417 0.986376C79.0224 1.08347 79.6535 1.38444 79.9448 1.89902C80.0758 2.12718 81.037 3.57382 82.605 5.9331C83.6827 7.5545 84.7992 9.2293 85.0274 9.59824C85.1002 9.71961 85.173 9.82155 85.2313 9.91864C85.5565 10.4138 85.6633 10.5788 85.6876 11.6129C85.7167 12.8847 85.7119 14.9916 85.7022 15.5741C85.6925 16.2538 85.6779 16.8945 86.6245 17.3849L86.6342 17.3897C86.775 17.4625 86.8284 17.4868 86.843 17.681C86.877 18.0111 86.8673 19.3849 86.8575 20.3849Z" fill="#009B5D"/>
<path d="M71.8717 1.85523C70.3328 1.81154 45.9487 1.85523 45.3759 1.85523C44.803 1.85523 43.3127 2.03 41.2447 2.24845C39.1815 2.4669 37.1135 3.34556 36.1475 3.91839C35.1814 4.49122 30.2153 7.73888 29.4677 8.31171C28.7201 8.88454 29.3609 9.25348 29.6861 9.59329C30.3415 10.2729 31.0939 10.1564 32.4241 10.1127C33.7105 10.0739 78.6825 7.85053 78.6825 7.85053C78.6825 7.85053 75.697 4.03005 74.5513 2.88439C73.4105 1.74358 73.4106 1.89892 71.8717 1.85523Z" fill="#009B5D"/>
<path d="M42.3467 19.2979L45.8177 23.6135L46.2449 23.599L42.7594 19.259C42.6234 19.2736 42.4875 19.2882 42.3467 19.2979Z" fill="#009B5D"/>
<path d="M39.6573 19.5163L43.0166 23.696L43.4438 23.6814L40.07 19.4823C39.934 19.4969 39.7933 19.5066 39.6573 19.5163Z" fill="#009B5D"/>
<path d="M41.002 19.4096L44.4148 23.6573L44.842 23.6427L41.4098 19.3756C41.2788 19.3853 41.138 19.395 41.002 19.4096Z" fill="#009B5D"/>
<path d="M50.4149 18.6279L54.2208 23.3658L54.648 23.3513L50.8226 18.5939C50.6867 18.6036 50.5508 18.6133 50.4149 18.6279Z" fill="#009B5D"/>
<path d="M35.6232 19.851L38.8175 23.8268L39.2447 23.8123L36.0358 19.817C35.8951 19.8267 35.7592 19.8364 35.6232 19.851Z" fill="#009B5D"/>
<path d="M34.2785 19.9582L37.4194 23.866L37.8466 23.8515L34.6912 19.9242C34.5504 19.9388 34.4145 19.9485 34.2785 19.9582Z" fill="#009B5D"/>
<path d="M36.9679 19.7395L40.2156 23.7833L40.6428 23.7688L37.3757 19.7056C37.2398 19.7153 37.1039 19.7298 36.9679 19.7395Z" fill="#009B5D"/>
<path d="M43.6915 19.1859L47.2158 23.5695L47.643 23.555L44.1041 19.1471C43.9682 19.1617 43.8322 19.1762 43.6915 19.1859Z" fill="#009B5D"/>
<path d="M47.7256 18.8513L51.415 23.4437L51.8422 23.4291L48.1333 18.8125C48.0022 18.8271 47.8663 18.8416 47.7256 18.8513Z" fill="#009B5D"/>
<path d="M49.0702 18.7398L52.8178 23.405L53.245 23.3904L49.478 18.7058C49.3469 18.7155 49.2109 18.7301 49.0702 18.7398Z" fill="#009B5D"/>
<path d="M46.3809 18.9631L50.0169 23.4874L50.4441 23.4729L46.7935 18.9291C46.6576 18.9436 46.5216 18.9534 46.3809 18.9631Z" fill="#009B5D"/>
<path d="M45.0362 19.0745L48.6139 23.5309L49.0411 23.5164L45.444 19.0405C45.3129 19.0551 45.1769 19.0648 45.0362 19.0745Z" fill="#009B5D"/>
<path d="M38.3127 19.6277L41.6186 23.7395L42.0458 23.7249L38.7253 19.5938C38.5845 19.6083 38.4486 19.618 38.3127 19.6277Z" fill="#009B5D"/>
<path d="M72.0757 11.6716L74.7116 14.9484C75.0078 15.1086 75.299 15.2834 75.5758 15.4775L72.498 11.6473C72.3524 11.657 72.2116 11.6668 72.0757 11.6716Z" fill="#009B5D"/>
<path d="M24.9725 20.7637C25.0016 20.8317 25.0259 20.9045 25.0502 20.9724L27.6133 24.1618L28.0405 24.1473L25.288 20.7249C25.1278 20.7443 25.021 20.754 24.9725 20.7637Z" fill="#009B5D"/>
<path d="M25.4579 23.269L26.2104 24.2059L26.6376 24.1913L25.4142 22.6719C25.4385 22.8612 25.4531 23.0602 25.4579 23.269Z" fill="#009B5D"/>
<path d="M61.8083 14.9627L63.1968 16.6909C63.2793 16.6083 63.357 16.5258 63.4395 16.4481L62.0657 14.7345C61.9783 14.8122 61.8957 14.885 61.8083 14.9627Z" fill="#009B5D"/>
<path d="M85.3527 20.5113L77.9641 11.3169C77.8282 11.3266 77.6874 11.3315 77.5418 11.3412L85.377 21.0938C85.3867 20.9482 85.3867 20.7977 85.3672 20.6472C85.3672 20.6035 85.3624 20.5598 85.3527 20.5113Z" fill="#009B5D"/>
<path d="M27.555 20.521L30.4143 24.0745L30.8415 24.0599L27.9677 20.4822C27.8269 20.4967 27.6909 20.5113 27.555 20.521Z" fill="#009B5D"/>
<path d="M30.2444 20.2928L33.2154 23.9919L33.6426 23.9773L30.6522 20.2588C30.5163 20.2734 30.3755 20.2831 30.2444 20.2928Z" fill="#009B5D"/>
<path d="M31.5844 20.1815L34.6136 23.9486L35.0408 23.9341L31.997 20.1427C31.8611 20.1621 31.7203 20.1718 31.5844 20.1815Z" fill="#009B5D"/>
<path d="M26.2153 20.6376L29.0114 24.1183L29.4386 24.1037L26.623 20.5988C26.4823 20.6133 26.3463 20.6279 26.2153 20.6376Z" fill="#009B5D"/>
<path d="M28.8997 20.4096L31.8173 24.0359L32.2445 24.0213L29.3124 20.3707C29.1716 20.3853 29.0356 20.395 28.8997 20.4096Z" fill="#009B5D"/>
<path d="M32.929 20.0695L36.0116 23.9094L36.4388 23.8948L33.3367 20.0355C33.2057 20.0501 33.0697 20.0598 32.929 20.0695Z" fill="#009B5D"/>
<path d="M80.7312 11.1908C80.5953 11.1957 80.4545 11.2005 80.304 11.2054L83.4982 15.1763C83.406 14.8802 83.3283 14.5986 83.2555 14.3268L80.7312 11.1908Z" fill="#009B5D"/>
<path d="M70.7067 11.7589L72.5999 14.1133C72.7941 14.1667 72.9883 14.2201 73.1776 14.2881L71.1241 11.7346C70.9834 11.7395 70.8474 11.7492 70.7067 11.7589Z" fill="#009B5D"/>
<path d="M79.7361 22.594L79.8526 22.5891L79.7166 22.4192C79.7215 22.4774 79.7312 22.5357 79.7361 22.594Z" fill="#009B5D"/>
<path d="M51.7547 18.5113L55.6189 23.3221L56.0461 23.3075L52.1625 18.4773C52.0314 18.487 51.8955 18.4967 51.7547 18.5113Z" fill="#009B5D"/>
<path d="M65.5318 12.4577L67.0076 14.2927C67.1241 14.2539 67.2406 14.2151 67.3571 14.1811L65.8668 12.3267C65.7551 12.3655 65.6435 12.4092 65.5318 12.4577Z" fill="#009B5D"/>
<path d="M79.401 20.7929L80.8234 22.56L81.2506 22.5454L79.0661 19.8269C79.1971 20.1473 79.3088 20.4628 79.401 20.7929Z" fill="#009B5D"/>
<path d="M66.6677 12.0839L68.1872 13.9723C68.3134 13.948 68.4445 13.9237 68.5707 13.9043L67.0464 12.0062C66.9201 12.0305 66.7939 12.0548 66.6677 12.0839Z" fill="#009B5D"/>
<path d="M67.9687 11.919L69.4833 13.8074C69.6241 13.7977 69.7648 13.7929 69.9105 13.788L68.391 11.8948C68.2454 11.9045 68.1046 11.9142 67.9687 11.919Z" fill="#009B5D"/>
<path d="M81.7361 11.2054L82.7943 12.5259C82.7118 12.2103 82.6293 11.953 82.5419 11.7637C82.3817 11.4093 82.1098 11.2588 81.7361 11.2054Z" fill="#009B5D"/>
<path d="M79.338 11.2444C79.2069 11.2492 79.0662 11.2589 78.9157 11.2638L84.7362 18.5067C84.6148 18.1863 84.4789 17.8368 84.3284 17.4484L79.338 11.2444Z" fill="#009B5D"/>
<path d="M74.8087 11.5062L83.6244 22.4774L84.0516 22.4628L75.2262 11.4819C75.0902 11.4916 74.9495 11.4965 74.8087 11.5062Z" fill="#009B5D"/>
<path d="M73.4397 11.5886L82.2215 22.5161L82.6487 22.5015L73.862 11.5643C73.7212 11.574 73.5804 11.5789 73.4397 11.5886Z" fill="#009B5D"/>
<path d="M76.1777 11.4237L84.9934 22.3948C85.0274 22.3366 85.0905 22.2152 85.1536 22.0502L76.5952 11.3994C76.4592 11.4091 76.3185 11.414 76.1777 11.4237Z" fill="#009B5D"/>
<path d="M69.3376 11.8413L70.9299 13.8219C71.0901 13.8365 71.2503 13.851 71.4105 13.8753L69.7552 11.817C69.6144 11.8219 69.4784 11.8316 69.3376 11.8413Z" fill="#009B5D"/>
<path d="M56.0072 18.1085C55.949 18.1182 55.8616 18.1279 55.7596 18.1376L59.818 23.1912L60.2452 23.1766L56.1529 18.0842C56.1092 18.0939 56.0606 18.1036 56.0072 18.1085Z" fill="#009B5D"/>
<path d="M57.0461 17.9579L60.5073 22.2638C60.5267 22.1084 60.551 21.9531 60.5753 21.8026L57.4296 17.8899C57.3082 17.9142 57.182 17.9384 57.0461 17.9579Z" fill="#009B5D"/>
<path d="M53.0945 18.3948L57.017 23.2784L57.4441 23.2638L53.5023 18.356C53.3712 18.3705 53.2353 18.3802 53.0945 18.3948Z" fill="#009B5D"/>
<path d="M58.2597 17.6811L60.7937 20.8365C60.8326 20.7055 60.8714 20.5695 60.9151 20.4385L58.5946 17.55C58.483 17.6034 58.3713 17.6423 58.2597 17.6811Z" fill="#009B5D"/>
<path d="M54.4295 18.2735L58.4151 23.2348L58.8423 23.2203L54.8324 18.2299C54.7111 18.2444 54.5752 18.259 54.4295 18.2735Z" fill="#009B5D"/>
<path d="M59.2889 17.1764L61.2355 19.5988C61.2889 19.4823 61.3423 19.3658 61.3957 19.2493L59.5656 16.9725C59.4733 17.0502 59.3811 17.1182 59.2889 17.1764Z" fill="#009B5D"/>
<path d="M62.6627 14.2394L64.0268 15.9336C64.1142 15.8608 64.2064 15.7928 64.2987 15.7248L62.9346 14.0258C62.8423 14.0986 62.7501 14.1665 62.6627 14.2394Z" fill="#009B5D"/>
<path d="M64.5074 12.9626L65.9298 14.7297C66.0366 14.6811 66.1434 14.6326 66.2502 14.584L64.8133 12.7927C64.7113 12.851 64.6094 12.9092 64.5074 12.9626Z" fill="#009B5D"/>
<path d="M63.556 13.5695L64.9347 15.2832C65.0317 15.2201 65.1289 15.1618 65.2308 15.1036L63.8424 13.3754C63.7453 13.4385 63.6531 13.5016 63.556 13.5695Z" fill="#009B5D"/>
<path d="M60.2792 16.3802C60.2404 16.4142 60.2016 16.4482 60.1676 16.4822L61.7987 18.5113C61.8618 18.4094 61.9249 18.3026 61.988 18.2006L60.42 16.2491C60.3714 16.2928 60.3229 16.3365 60.2792 16.3802Z" fill="#009B5D"/>
<path d="M60.9831 15.7198L62.4491 17.5451C62.5219 17.4529 62.5948 17.3607 62.6676 17.2733L61.2307 15.4868C61.1482 15.5645 61.0656 15.6422 60.9831 15.7198Z" fill="#009B5D"/>
</svg>
