<svg width="592" height="380" viewBox="0 0 592 380" fill="none" xmlns="http://www.w3.org/2000/svg">
<g clip-path="url(#clip0_3257_101251)">
<path d="M228.854 314.154C269.152 313.862 312.404 312.043 358.2 308.036C395.833 304.745 431.467 300.297 464.932 295.11C435.695 280.713 406.453 266.319 377.217 251.921L292.036 255.897C270.975 275.319 249.914 294.737 228.854 314.154Z" fill="#969696"/>
<path d="M232.87 65.2678C222.105 82.4434 206.807 104.738 186.196 129.009C167.292 151.272 149.594 172.117 121.343 193.169C121.343 193.169 111.02 200.863 45.8877 238.703L185.156 308.338C185.156 308.338 234.158 338.641 352.149 266.427L441.125 292.22C441.125 292.22 495.285 307.05 529.457 269.655C563.628 232.261 592 177.767 592 177.767C524.567 185.02 475.269 174.476 442.417 163.27C407.895 151.492 388.986 138.117 297.345 94.9277C270.13 82.0967 247.655 71.8994 232.87 65.2678Z" fill="#D9D9D9"/>
<path d="M470.956 270.331C471.978 270.988 471.199 273.613 471.875 274.369C472.685 275.278 475.395 275.017 475.701 275.994C476.044 277.088 473.639 278.245 473.347 279.317C473.072 280.316 474.67 282.477 473.846 283.364C473.162 284.103 470.735 282.828 469.668 283.432C468.412 284.148 467.926 287.024 466.409 287.412C464.986 287.772 463.1 285.498 461.565 285.575C460.065 285.647 458.445 288.105 456.945 287.907C455.433 287.709 454.51 284.917 453.105 284.449C451.633 283.954 449.161 285.579 447.937 284.791C446.915 284.134 447.694 281.509 447.018 280.753C446.208 279.844 443.498 280.105 443.191 279.128C442.849 278.034 445.253 276.877 445.546 275.805C445.821 274.806 444.222 272.645 445.046 271.758C445.731 271.019 448.157 272.293 449.224 271.69C450.48 270.974 450.967 268.097 452.484 267.71C453.907 267.35 455.793 269.619 457.328 269.547C458.827 269.475 460.448 267.017 461.947 267.215C463.46 267.413 464.383 270.204 465.788 270.673C467.26 271.163 469.732 269.538 470.956 270.331Z" fill="#193157"/>
<path d="M258.24 123.998C237.071 154.937 214.096 180.81 171.515 213.928C158.328 224.184 145.322 233.085 132.797 240.815" stroke="#193157" stroke-width="2.338" stroke-miterlimit="10"/>
<path d="M94.4741 246.816C96.7117 245.389 99.7506 243.93 101.835 242.543C104.775 240.59 105.252 238.059 104.064 235.016C103.929 234.674 103.528 234.224 103.357 233.872C101.07 235.232 98.7781 236.502 96.4325 237.776C96.6802 236.677 96.7792 236.038 97.9137 235.39C100.606 233.845 103.739 232.211 106.256 230.23C105.883 229.366 105.554 228.501 105.18 227.628C102.618 229.604 99.1608 231.432 96.5811 233.084C93.5782 235.007 93.3441 237.465 94.4561 240.477C94.5822 240.815 94.9693 241.287 95.1179 241.648C97.414 240.324 99.7011 239.072 102.024 237.776C101.799 238.888 101.628 239.55 100.516 240.207C98.3685 241.481 95.8518 242.836 93.6367 244.155C93.9068 245.038 94.1635 245.929 94.4741 246.816Z" fill="#193157"/>
<path d="M111.727 222.703C111.331 224.958 112.019 231.072 112.159 232.445C112.299 233.814 112.195 232.792 112.195 232.792C112.708 233.89 113.073 234.575 113.487 235.538C112.731 236.087 111.979 236.655 111.222 237.208C110.84 236.349 110.367 235.417 109.989 234.629C109.21 234.111 110.381 234.894 109.147 234.066C107.913 233.242 104.397 230.676 102.894 229.294C103.587 228.717 104.411 228.209 105.154 227.65C105.838 228.213 106.617 228.834 107.288 229.361C107.958 229.888 108.512 230.284 109.183 230.793C109.152 230.316 109.156 230.676 109.129 230.005C109.098 229.334 108.994 227.538 108.94 226.7C108.886 225.863 108.877 225.246 108.872 224.454C109.786 223.851 110.75 223.121 111.727 222.703Z" fill="#193157"/>
<path d="M122.756 226.223C123.13 227.061 123.512 227.894 123.886 228.731C121.806 230.338 119.641 231.806 117.597 233.485C116.939 232.04 117.164 232.432 116.268 230.572C115.373 228.713 113.401 224.585 112.514 222.198C113.275 221.645 114.094 221.217 114.868 220.699C116.012 223.576 117.29 226.376 118.619 229.172C119.996 228.186 121.405 227.241 122.756 226.223Z" fill="#193157"/>
<path d="M128.154 211.434C129.338 213.662 131.175 218.502 132.094 220.141C133.012 221.784 132.328 220.542 132.927 221.64C132.332 221.991 131.77 222.518 131.265 222.959C130.504 222.707 131.238 222.959 130.131 222.572C129.023 222.185 126.115 221.014 124.688 220.42C125.467 222.315 126.421 224.224 127.294 226.12C126.547 226.664 125.849 227.326 125.052 227.785C124.048 225.543 121.991 221.001 121.19 219.322C120.388 217.642 120.919 218.781 120.37 217.638C120.91 217.327 121.433 216.85 121.892 216.445C122.689 216.728 122.058 216.499 123.193 216.913C124.327 217.323 127.2 218.426 128.623 219.074C127.871 217.066 127.006 215.067 126.011 213.127C126.732 212.577 127.389 211.907 128.154 211.434Z" fill="#193157"/>
<path d="M132.054 208.008C130.338 209.358 130.671 209.367 129.199 210.479C129.825 211.429 129.938 211.835 130.55 213.01C131.162 214.189 132.207 216.899 132.751 218.11C133.292 219.322 133.566 219.641 134.107 220.645C135.223 219.592 136.907 218.367 137.888 217.336C140.301 214.797 140.576 212.159 139.261 209.115C139.095 208.728 138.798 208.561 138.586 208.26C137.024 206.031 133.341 206.995 132.054 208.008ZM136.997 210.714C137.465 211.434 137.501 212.226 137.384 213.073C137.263 213.919 136.839 214.603 136.205 215.252C135.921 215.544 135.385 215.976 135.061 216.283C134.201 214.576 133.413 212.843 132.558 211.132C132.873 210.885 133.287 210.425 133.58 210.205C134.8 209.282 136.155 209.43 136.997 210.714Z" fill="#193157"/>
<path d="M145.335 199.886C144.137 198.247 142.265 197.954 140.594 199.364C139.464 200.314 138.028 201.916 136.894 203.019C137.218 203.578 137.762 204.446 138.037 204.901C138.307 205.356 138.082 204.973 138.366 205.441C138.645 205.905 139.023 206.531 139.428 207.202C139.833 207.877 140.324 208.687 140.833 209.538C141.342 210.385 142.107 211.641 142.656 212.564C143.318 211.875 143.989 211.182 144.673 210.511C144.052 209.502 143.426 208.498 142.809 207.494C143.07 207.242 143.332 206.99 143.593 206.738C144.889 207.098 146.181 207.458 147.474 207.823C148.23 207.098 148.986 206.378 149.743 205.653C148.356 205.252 146.942 204.874 145.574 204.469C146.1 202.952 146.366 201.295 145.335 199.886ZM143.318 201.714C143.525 201.979 143.561 202.299 143.521 202.637C143.48 202.974 143.377 203.204 143.097 203.492C142.584 204.014 141.922 204.631 141.378 205.171C141.009 204.582 140.644 203.996 140.279 203.398C140.873 202.835 141.549 202.119 142.13 201.597C142.562 201.196 143.012 201.322 143.318 201.714Z" fill="#193157"/>
<path d="M147.536 252.624C147.536 252.624 231.181 194.429 241.095 179.424" stroke="#193157" stroke-width="2.338" stroke-miterlimit="10"/>
<path d="M341.943 186.744L216.334 279.65" stroke="#193157" stroke-width="2.338" stroke-miterlimit="10"/>
<path d="M237.643 283.526C237.643 283.526 325.749 213.1 331.814 206.288" stroke="#193157" stroke-width="2.338" stroke-miterlimit="10"/>
<path d="M302.478 273.401C301.933 273.712 301.316 273.46 300.821 273.167C300.294 272.861 299.817 272.465 299.331 272.1C298.25 271.285 297.183 270.443 296.143 269.579C295.652 269.174 295.162 268.768 294.689 268.345C294.266 267.967 293.861 267.557 293.604 267.044C293.379 266.594 293.302 266.018 293.5 265.545C293.735 264.978 294.338 264.766 294.883 264.613C295.517 264.433 296.17 264.325 296.832 264.289C297.147 264.275 297.462 264.275 297.777 264.293C298.088 264.311 298.435 264.316 298.732 264.415C299.749 264.766 297.795 266.742 297.462 267.058C296.611 267.859 295.63 268.516 294.644 269.142C293.622 269.795 292.573 270.398 291.497 270.961C287.193 273.207 282.502 274.711 277.693 275.386C276.5 275.553 275.285 275.697 274.078 275.729C273.542 275.742 272.908 275.684 272.638 275.152C272.421 274.734 272.489 274.207 272.584 273.761C272.822 272.654 273.214 271.429 273.934 270.538C274.664 269.637 275.834 269.088 276.96 269.561C278.063 270.024 278.923 271.078 279.625 272.014C280.368 273.005 281.052 274.049 281.691 275.112C282.997 277.268 284.109 279.546 285.005 281.906C285.221 282.473 285.424 283.045 285.613 283.621C285.676 283.805 285.905 283.882 286.054 283.738C287.585 282.225 288.728 280.361 289.385 278.317C289.458 278.088 289.192 277.921 288.998 278.02C284.829 280.159 280.71 282.383 276.635 284.688C276.757 284.809 276.874 284.926 276.996 285.048C279.184 281.901 282.173 279.447 285.113 277.039C284.987 276.913 284.865 276.791 284.739 276.665C281.673 279.551 278.409 282.221 274.974 284.656C274.002 285.345 273.016 286.016 272.016 286.664C272.147 286.741 272.282 286.817 272.412 286.889C272.196 285.102 271.976 283.315 271.76 281.532C271.719 281.203 271.215 281.185 271.233 281.532C271.413 285.224 272.21 288.875 273.601 292.301C273.727 292.612 274.236 292.477 274.11 292.161C272.741 288.776 271.94 285.179 271.764 281.532C271.589 281.532 271.413 281.532 271.237 281.532C271.454 283.319 271.674 285.107 271.89 286.889C271.913 287.074 272.102 287.236 272.286 287.114C275.834 284.8 279.229 282.248 282.425 279.465C283.339 278.673 284.235 277.863 285.113 277.034C285.365 276.8 284.996 276.453 284.739 276.661C281.759 279.105 278.756 281.59 276.541 284.778C276.383 285.003 276.685 285.26 276.901 285.138C280.975 282.828 285.099 280.604 289.264 278.47C289.133 278.371 289.007 278.272 288.877 278.173C288.246 280.136 287.148 281.915 285.68 283.364C285.829 283.405 285.973 283.441 286.121 283.481C285.244 280.839 284.109 278.277 282.736 275.85C282.056 274.648 281.313 273.482 280.516 272.352C279.764 271.285 278.936 270.2 277.847 269.453C276.771 268.719 275.492 268.66 274.402 269.403C273.335 270.128 272.777 271.317 272.394 272.51C272.088 273.455 271.629 274.779 272.345 275.657C272.728 276.125 273.326 276.255 273.903 276.26C274.555 276.264 275.213 276.192 275.861 276.129C281.223 275.621 286.477 274.099 291.285 271.663C292.496 271.051 293.68 270.38 294.829 269.651C295.905 268.966 296.981 268.251 297.903 267.368C298.363 266.927 298.781 266.441 299.128 265.905C299.394 265.495 299.655 264.955 299.479 264.455C299.268 263.848 298.529 263.825 297.989 263.78C297.264 263.721 296.539 263.753 295.824 263.865C294.684 264.041 293.163 264.379 292.911 265.707C292.681 266.931 293.46 267.944 294.32 268.714C295.405 269.687 296.553 270.601 297.696 271.497C298.264 271.942 298.835 272.379 299.412 272.811C299.952 273.216 300.492 273.649 301.127 273.896C301.663 274.108 302.235 274.144 302.748 273.851C303.036 273.685 302.77 273.23 302.478 273.401Z" fill="#193157"/>
<path d="M276.528 290.838C276.865 290.838 276.865 290.311 276.528 290.311C276.19 290.316 276.19 290.838 276.528 290.838Z" fill="#193157"/>
<path d="M269.941 289.915C270.278 289.915 270.278 289.388 269.941 289.388C269.603 289.388 269.603 289.915 269.941 289.915Z" fill="#193157"/>
<path d="M486.875 268.359C486.875 268.359 503.06 250.895 504.609 244.263" stroke="#193157" stroke-width="1.9908" stroke-miterlimit="10"/>
<path d="M474.967 263.789C476.655 262.407 478.618 260.579 480.563 258.224C482.598 255.766 484.075 253.394 485.133 251.408" stroke="#193157" stroke-width="1.9908" stroke-miterlimit="10"/>
<path opacity="0.14" d="M516.252 233.197C476.705 245.222 418.173 258.224 346.634 257.288C276.685 256.374 219.625 242.462 180.78 229.78C180.96 223.454 181.136 217.129 181.316 210.808L514.379 220.195C514.082 230.748 516.549 222.64 516.252 233.197Z" fill="#00899E"/>
<path d="M376.744 128.766L423.089 160.857L409.718 166.381L236.462 156.882L223.856 134.249L243.769 127.176L283.33 128.176L376.744 128.766Z" fill="#D4F1FF"/>
<path d="M338.341 169.857L332.844 165.454L365.453 124.754L373.592 125.862L338.341 169.857Z" fill="#EBF8FF"/>
<path d="M304.715 171.054L291.132 161.159L318.203 123.998L337.913 125.488L304.715 171.054Z" fill="#EBF8FF"/>
<path d="M337.458 128.766H332.844V157.885H337.458V128.766Z" fill="#193157"/>
<path d="M284.291 128.194L280.031 126.418L268.487 154.102L272.746 155.878L284.291 128.194Z" fill="#193157"/>
<path d="M181.41 186.744L172.955 197.311V229.78H516.247C516.247 229.78 516.247 209.678 509.223 186.744H181.41Z" fill="#193157"/>
<mask id="mask0_3257_101251" style="mask-type:luminance" maskUnits="userSpaceOnUse" x="172" y="120" width="343" height="93">
<path d="M513.892 206.405C511.916 194.997 508.287 180.851 501.624 167.367C501.624 167.367 478.577 159.461 427.969 157.278L388.094 131.593C376.555 124.16 363.116 120.207 349.389 120.207H205.933L214.276 127.757C214.276 127.757 190.833 141.664 182.491 185.366L172.955 197.284V206.405V212.802H200.468C205.744 198.864 219.214 188.95 235.003 188.95C250.792 188.95 264.263 198.864 269.539 212.802H422.125C427.402 198.864 440.872 188.95 456.661 188.95C471.482 188.95 484.259 197.684 490.134 210.281C490.85 211.816 492.394 212.798 494.092 212.798H514.878C514.603 210.795 514.279 208.656 513.892 206.405ZM282.884 155.86C274.87 155.549 266.959 153.937 259.463 151.083L229.614 139.724C236.368 132.719 245.678 128.761 255.407 128.761H359.388C368.987 128.761 378.27 132.165 385.595 138.369L412.144 160.857L282.884 155.86Z" fill="white"/>
</mask>
<g mask="url(#mask0_3257_101251)">
<path d="M513.847 211.06C511.78 198.324 507.985 182.526 501.016 167.466C501.016 167.466 476.916 158.637 423.989 156.202L382.286 127.523C370.216 119.221 356.164 114.809 341.807 114.809H191.778L200.503 123.237C200.503 123.237 175.989 138.765 167.264 187.564L157.292 200.872V211.06V218.205H186.065C191.585 202.641 205.672 191.57 222.181 191.57C238.695 191.57 252.782 202.637 258.297 218.205H417.875C423.395 202.641 437.482 191.57 453.991 191.57C470.505 191.57 484.592 202.637 490.107 218.205H514.873C514.594 215.958 514.252 213.568 513.847 211.06Z" fill="#193157"/>
</g>
<mask id="mask1_3257_101251" style="mask-type:luminance" maskUnits="userSpaceOnUse" x="172" y="120" width="343" height="93">
<path d="M513.892 206.405C511.916 194.997 508.287 180.851 501.624 167.367C501.624 167.367 478.577 159.461 427.969 157.278L388.094 131.593C376.555 124.16 363.116 120.207 349.389 120.207H205.933L214.276 127.757C214.276 127.757 190.833 141.664 182.491 185.366L172.955 197.284V206.405V212.802H200.468C205.744 198.864 219.214 188.95 235.003 188.95C250.792 188.95 264.263 198.864 269.539 212.802H422.125C427.402 198.864 440.872 188.95 456.661 188.95C471.482 188.95 484.259 197.684 490.134 210.281C490.85 211.816 492.394 212.798 494.092 212.798H514.878C514.603 210.795 514.279 208.656 513.892 206.405ZM282.884 155.86C274.87 155.549 266.959 153.937 259.463 151.083L229.614 139.724C236.368 132.719 245.678 128.761 255.407 128.761H359.388C368.987 128.761 378.27 132.165 385.595 138.369L412.144 160.857L282.884 155.86Z" fill="white"/>
</mask>
<g mask="url(#mask1_3257_101251)">
<path d="M247.97 241.571C263.759 241.571 284.378 198.58 289.655 212.519L436.582 237.767C441.858 223.828 462.613 255.793 478.402 255.793C494.191 255.793 506.158 228.902 511.434 242.845L536.047 220.118C535.777 218.11 534.39 208.372 534.003 206.126C532.027 194.717 528.398 180.572 521.735 167.088C521.735 167.088 498.689 159.182 448.08 156.999L408.205 131.314C396.666 123.881 383.227 119.928 369.5 119.928H226.049L234.391 127.478C234.391 127.478 211.084 142.92 202.741 186.623C201.139 192.714 199.531 198.805 197.929 204.897C196.312 207.44 194.691 209.984 193.075 212.528L216.117 237.353C221.389 223.405 232.181 241.571 247.97 241.571Z" fill="#3E7BBD"/>
</g>
<mask id="mask2_3257_101251" style="mask-type:luminance" maskUnits="userSpaceOnUse" x="172" y="120" width="343" height="93">
<path d="M513.892 206.405C511.916 194.997 508.287 180.851 501.624 167.367C501.624 167.367 478.577 159.461 427.969 157.278L388.094 131.593C376.555 124.16 363.116 120.207 349.389 120.207H205.933L214.276 127.757C214.276 127.757 190.833 141.664 182.491 185.366L172.955 197.284V206.405V212.802H200.468C205.744 198.864 219.214 188.95 235.003 188.95C250.792 188.95 264.263 198.864 269.539 212.802H422.125C427.402 198.864 440.872 188.95 456.661 188.95C471.482 188.95 484.259 197.684 490.134 210.281C490.85 211.816 492.394 212.798 494.092 212.798H514.878C514.603 210.795 514.279 208.656 513.892 206.405ZM282.884 155.86C274.87 155.549 266.959 153.937 259.463 151.083L229.614 139.724C236.368 132.719 245.678 128.761 255.407 128.761H359.388C368.987 128.761 378.27 132.165 385.595 138.369L412.144 160.857L282.884 155.86Z" fill="white"/>
</mask>
<g mask="url(#mask2_3257_101251)">
<path d="M492.002 180.468H506.738V176.858H488.392C488.392 178.852 490.008 180.468 492.002 180.468Z" fill="#193157"/>
</g>
<mask id="mask3_3257_101251" style="mask-type:luminance" maskUnits="userSpaceOnUse" x="172" y="120" width="343" height="93">
<path d="M513.892 206.405C511.916 194.997 508.287 180.851 501.624 167.367C501.624 167.367 478.577 159.461 427.969 157.278L388.094 131.593C376.555 124.16 363.116 120.207 349.389 120.207H205.933L214.276 127.757C214.276 127.757 190.833 141.664 182.491 185.366L172.955 197.284V206.405V212.802H200.468C205.744 198.864 219.214 188.95 235.003 188.95C250.792 188.95 264.263 198.864 269.539 212.802H422.125C427.402 198.864 440.872 188.95 456.661 188.95C471.482 188.95 484.259 197.684 490.134 210.281C490.85 211.816 492.394 212.798 494.092 212.798H514.878C514.603 210.795 514.279 208.656 513.892 206.405ZM282.884 155.86C274.87 155.549 266.959 153.937 259.463 151.083L229.614 139.724C236.368 132.719 245.678 128.761 255.407 128.761H359.388C368.987 128.761 378.27 132.165 385.595 138.369L412.144 160.857L282.884 155.86Z" fill="white"/>
</mask>
<g mask="url(#mask3_3257_101251)">
<path d="M510.141 166.921H480.535L478.275 177.015H510.141" fill="#D4F1FF"/>
<mask id="mask4_3257_101251" style="mask-type:luminance" maskUnits="userSpaceOnUse" x="478" y="166" width="33" height="12">
<path d="M510.141 166.921H480.535L478.275 177.015H510.141" fill="white"/>
</mask>
<g mask="url(#mask4_3257_101251)">
<path d="M514.216 164.909H484.606L482.346 175.007H514.216" fill="white"/>
</g>
</g>
<mask id="mask5_3257_101251" style="mask-type:luminance" maskUnits="userSpaceOnUse" x="172" y="120" width="343" height="93">
<path d="M513.892 206.405C511.916 194.997 508.287 180.851 501.624 167.367C501.624 167.367 478.577 159.461 427.969 157.278L388.094 131.593C376.555 124.16 363.116 120.207 349.389 120.207H205.933L214.276 127.757C214.276 127.757 190.833 141.664 182.491 185.366L172.955 197.284V206.405V212.802H200.468C205.744 198.864 219.214 188.95 235.003 188.95C250.792 188.95 264.263 198.864 269.539 212.802H422.125C427.402 198.864 440.872 188.95 456.661 188.95C471.482 188.95 484.259 197.684 490.134 210.281C490.85 211.816 492.394 212.798 494.092 212.798H514.878C514.603 210.795 514.279 208.656 513.892 206.405ZM282.884 155.86C274.87 155.549 266.959 153.937 259.463 151.083L229.614 139.724C236.368 132.719 245.678 128.761 255.407 128.761H359.388C368.987 128.761 378.27 132.165 385.595 138.369L412.144 160.857L282.884 155.86Z" fill="white"/>
</mask>
<g mask="url(#mask5_3257_101251)">
<path d="M422.126 213.248V189.396H317.046C302.801 189.396 289.092 194.834 278.724 204.604L269.544 213.248" fill="#69A4C2"/>
</g>
<mask id="mask6_3257_101251" style="mask-type:luminance" maskUnits="userSpaceOnUse" x="172" y="120" width="343" height="93">
<path d="M513.892 206.405C511.916 194.997 508.287 180.851 501.624 167.367C501.624 167.367 478.577 159.461 427.969 157.278L388.094 131.593C376.555 124.16 363.116 120.207 349.389 120.207H205.933L214.276 127.757C214.276 127.757 190.833 141.664 182.491 185.366L172.955 197.284V206.405V212.802H200.468C205.744 198.864 219.214 188.95 235.003 188.95C250.792 188.95 264.263 198.864 269.539 212.802H422.125C427.402 198.864 440.872 188.95 456.661 188.95C471.482 188.95 484.259 197.684 490.134 210.281C490.85 211.816 492.394 212.798 494.092 212.798H514.878C514.603 210.795 514.279 208.656 513.892 206.405ZM282.884 155.86C274.87 155.549 266.959 153.937 259.463 151.083L229.614 139.724C236.368 132.719 245.678 128.761 255.407 128.761H359.388C368.987 128.761 378.27 132.165 385.595 138.369L412.144 160.857L282.884 155.86Z" fill="white"/>
</mask>
<g mask="url(#mask6_3257_101251)">
<path d="M347.146 193.317H335.851V212.802H347.146V193.317Z" fill="#91C5DE"/>
</g>
<mask id="mask7_3257_101251" style="mask-type:luminance" maskUnits="userSpaceOnUse" x="172" y="120" width="343" height="93">
<path d="M513.892 206.405C511.916 194.997 508.287 180.851 501.624 167.367C501.624 167.367 478.577 159.461 427.969 157.278L388.094 131.593C376.555 124.16 363.116 120.207 349.389 120.207H205.933L214.276 127.757C214.276 127.757 190.833 141.664 182.491 185.366L172.955 197.284V206.405V212.802H200.468C205.744 198.864 219.214 188.95 235.003 188.95C250.792 188.95 264.263 198.864 269.539 212.802H422.125C427.402 198.864 440.872 188.95 456.661 188.95C471.482 188.95 484.259 197.684 490.134 210.281C490.85 211.816 492.394 212.798 494.092 212.798H514.878C514.603 210.795 514.279 208.656 513.892 206.405ZM282.884 155.86C274.87 155.549 266.959 153.937 259.463 151.083L229.614 139.724C236.368 132.719 245.678 128.761 255.407 128.761H359.388C368.987 128.761 378.27 132.165 385.595 138.369L412.144 160.857L282.884 155.86Z" fill="white"/>
</mask>
<g mask="url(#mask7_3257_101251)">
<path d="M460.038 273.212C486.185 273.212 507.382 252.015 507.382 225.868C507.382 199.72 486.185 178.523 460.038 178.523C433.89 178.523 412.693 199.72 412.693 225.868C412.693 252.015 433.89 273.212 460.038 273.212Z" fill="#91C5DE"/>
</g>
<mask id="mask8_3257_101251" style="mask-type:luminance" maskUnits="userSpaceOnUse" x="172" y="120" width="343" height="93">
<path d="M513.892 206.405C511.916 194.997 508.287 180.851 501.624 167.367C501.624 167.367 478.577 159.461 427.969 157.278L388.094 131.593C376.555 124.16 363.116 120.207 349.389 120.207H205.933L214.276 127.757C214.276 127.757 190.833 141.664 182.491 185.366L172.955 197.284V206.405V212.802H200.468C205.744 198.864 219.214 188.95 235.003 188.95C250.792 188.95 264.263 198.864 269.539 212.802H422.125C427.402 198.864 440.872 188.95 456.661 188.95C471.482 188.95 484.259 197.684 490.134 210.281C490.85 211.816 492.394 212.798 494.092 212.798H514.878C514.603 210.795 514.279 208.656 513.892 206.405ZM282.884 155.86C274.87 155.549 266.959 153.937 259.463 151.083L229.614 139.724C236.368 132.719 245.678 128.761 255.407 128.761H359.388C368.987 128.761 378.27 132.165 385.595 138.369L412.144 160.857L282.884 155.86Z" fill="white"/>
</mask>
<g mask="url(#mask8_3257_101251)">
<path d="M512.379 197.414H502.596L495.929 215.4H516.251L512.379 197.414Z" fill="#D1F0FF"/>
</g>
<mask id="mask9_3257_101251" style="mask-type:luminance" maskUnits="userSpaceOnUse" x="172" y="120" width="343" height="93">
<path d="M513.892 206.405C511.916 194.997 508.287 180.851 501.624 167.367C501.624 167.367 478.577 159.461 427.969 157.278L388.094 131.593C376.555 124.16 363.116 120.207 349.389 120.207H205.933L214.276 127.757C214.276 127.757 190.833 141.664 182.491 185.366L172.955 197.284V206.405V212.802H200.468C205.744 198.864 219.214 188.95 235.003 188.95C250.792 188.95 264.263 198.864 269.539 212.802H422.125C427.402 198.864 440.872 188.95 456.661 188.95C471.482 188.95 484.259 197.684 490.134 210.281C490.85 211.816 492.394 212.798 494.092 212.798H514.878C514.603 210.795 514.279 208.656 513.892 206.405ZM282.884 155.86C274.87 155.549 266.959 153.937 259.463 151.083L229.614 139.724C236.368 132.719 245.678 128.761 255.407 128.761H359.388C368.987 128.761 378.27 132.165 385.595 138.369L412.144 160.857L282.884 155.86Z" fill="white"/>
</mask>
<g mask="url(#mask9_3257_101251)">
<path d="M188.848 163.117L210.989 159.844L212.335 166.39L183.837 178.519C184.341 175.98 185.052 173.152 186.065 170.122C186.939 167.525 187.893 165.188 188.848 163.117Z" fill="#D4F1FF"/>
<mask id="mask10_3257_101251" style="mask-type:luminance" maskUnits="userSpaceOnUse" x="183" y="159" width="30" height="20">
<path d="M188.848 163.117L210.989 159.844L212.335 166.39L183.837 178.519C184.341 175.98 185.052 173.152 186.065 170.122C186.939 167.525 187.893 165.188 188.848 163.117Z" fill="white"/>
</mask>
<g mask="url(#mask10_3257_101251)">
<path d="M186.214 160.443L208.355 157.17L209.702 163.716L181.203 175.845C181.707 173.305 182.419 170.478 183.432 167.448C184.305 164.85 185.26 162.514 186.214 160.443Z" fill="white"/>
</g>
</g>
<mask id="mask11_3257_101251" style="mask-type:luminance" maskUnits="userSpaceOnUse" x="172" y="120" width="343" height="93">
<path d="M513.892 206.405C511.916 194.997 508.287 180.851 501.624 167.367C501.624 167.367 478.577 159.461 427.969 157.278L388.094 131.593C376.555 124.16 363.116 120.207 349.389 120.207H205.933L214.276 127.757C214.276 127.757 190.833 141.664 182.491 185.366L172.955 197.284V206.405V212.802H200.468C205.744 198.864 219.214 188.95 235.003 188.95C250.792 188.95 264.263 198.864 269.539 212.802H422.125C427.402 198.864 440.872 188.95 456.661 188.95C471.482 188.95 484.259 197.684 490.134 210.281C490.85 211.816 492.394 212.798 494.092 212.798H514.878C514.603 210.795 514.279 208.656 513.892 206.405ZM282.884 155.86C274.87 155.549 266.959 153.937 259.463 151.083L229.614 139.724C236.368 132.719 245.678 128.761 255.407 128.761H359.388C368.987 128.761 378.27 132.165 385.595 138.369L412.144 160.857L282.884 155.86Z" fill="white"/>
</mask>
<g mask="url(#mask11_3257_101251)">
<path d="M198.135 176.457L180.473 183.386L179.154 180.022L200.175 171.775C200.904 173.629 199.99 175.727 198.135 176.457Z" fill="#193157"/>
</g>
<mask id="mask12_3257_101251" style="mask-type:luminance" maskUnits="userSpaceOnUse" x="172" y="120" width="343" height="93">
<path d="M513.892 206.405C511.916 194.997 508.287 180.851 501.624 167.367C501.624 167.367 478.577 159.461 427.969 157.278L388.094 131.593C376.555 124.16 363.116 120.207 349.389 120.207H205.933L214.276 127.757C214.276 127.757 190.833 141.664 182.491 185.366L172.955 197.284V206.405V212.802H200.468C205.744 198.864 219.214 188.95 235.003 188.95C250.792 188.95 264.263 198.864 269.539 212.802H422.125C427.402 198.864 440.872 188.95 456.661 188.95C471.482 188.95 484.259 197.684 490.134 210.281C490.85 211.816 492.394 212.798 494.092 212.798H514.878C514.603 210.795 514.279 208.656 513.892 206.405ZM282.884 155.86C274.87 155.549 266.959 153.937 259.463 151.083L229.614 139.724C236.368 132.719 245.678 128.761 255.407 128.761H359.388C368.987 128.761 378.27 132.165 385.595 138.369L412.144 160.857L282.884 155.86Z" fill="white"/>
</mask>
<g mask="url(#mask12_3257_101251)">
<path d="M231.884 178.528C220.822 178.528 210.656 182.332 202.597 188.689C201.485 192.804 198.415 204.766 198.091 212.807L187.772 216.499L185.773 215.166C184.976 218.61 184.544 222.189 184.544 225.872C184.544 252.02 205.74 273.216 231.888 273.216C258.037 273.216 279.233 252.02 279.233 225.872C279.228 199.724 258.032 178.528 231.884 178.528Z" fill="#91C5DE"/>
<path d="M198.091 212.802C198.42 204.762 201.485 192.795 202.598 188.685C194.291 195.235 188.236 204.51 185.769 215.162L187.767 216.494L198.091 212.802Z" fill="#7FACC2"/>
</g>
<path d="M251.598 225.868C251.598 211.092 239.618 199.111 224.842 199.111C210.066 199.111 198.086 211.092 198.086 225.868C198.086 240.644 210.066 252.624 224.842 252.624C231.456 252.624 233.058 252.583 239.262 252.421C246.83 252.223 251.598 234.03 251.598 225.868Z" fill="#193157"/>
<path d="M236.462 252.624C251.239 252.624 263.218 240.645 263.218 225.868C263.218 211.091 251.239 199.111 236.462 199.111C221.685 199.111 209.706 211.091 209.706 225.868C209.706 240.645 221.685 252.624 236.462 252.624Z" fill="#435C85"/>
<path d="M236.462 245.992C247.577 245.992 256.587 236.982 256.587 225.868C256.587 214.753 247.577 205.743 236.462 205.743C225.348 205.743 216.338 214.753 216.338 225.868C216.338 236.982 225.348 245.992 236.462 245.992Z" fill="#D4F1FF"/>
<mask id="mask13_3257_101251" style="mask-type:luminance" maskUnits="userSpaceOnUse" x="216" y="205" width="41" height="41">
<path d="M236.462 245.992C247.577 245.992 256.587 236.982 256.587 225.868C256.587 214.753 247.577 205.743 236.462 205.743C225.348 205.743 216.338 214.753 216.338 225.868C216.338 236.982 225.348 245.992 236.462 245.992Z" fill="white"/>
</mask>
<g mask="url(#mask13_3257_101251)">
<path d="M257.501 233.665L240.519 225.66C238.34 224.634 235.873 224.936 234.041 226.232L244.314 231.072L241.352 236.691L224.843 228.911L226.193 226.043C229.201 219.659 236.841 216.913 243.225 219.92L258.514 227.124" fill="#435C85"/>
</g>
<path d="M477.006 225.868C477.006 211.092 465.026 199.111 450.25 199.111C435.474 199.111 423.494 211.092 423.494 225.868C423.494 240.644 435.474 252.624 450.25 252.624C456.864 252.624 458.467 252.583 464.671 252.421C472.239 252.223 477.006 234.03 477.006 225.868Z" fill="#193157"/>
<path d="M461.87 252.624C476.647 252.624 488.627 240.645 488.627 225.868C488.627 211.091 476.647 199.111 461.87 199.111C447.093 199.111 435.114 211.091 435.114 225.868C435.114 240.645 447.093 252.624 461.87 252.624Z" fill="#435C85"/>
<path d="M461.871 245.992C472.985 245.992 481.995 236.982 481.995 225.868C481.995 214.753 472.985 205.743 461.871 205.743C450.756 205.743 441.746 214.753 441.746 225.868C441.746 236.982 450.756 245.992 461.871 245.992Z" fill="#D4F1FF"/>
<mask id="mask14_3257_101251" style="mask-type:luminance" maskUnits="userSpaceOnUse" x="441" y="205" width="41" height="41">
<path d="M461.871 245.992C472.985 245.992 481.995 236.982 481.995 225.868C481.995 214.753 472.985 205.743 461.871 205.743C450.756 205.743 441.746 214.753 441.746 225.868C441.746 236.982 450.756 245.992 461.871 245.992Z" fill="white"/>
</mask>
<g mask="url(#mask14_3257_101251)">
<path d="M482.913 233.665L465.931 225.66C463.752 224.634 461.285 224.936 459.453 226.232L469.727 231.072L466.764 236.691L450.255 228.911L451.606 226.043C454.613 219.659 462.253 216.913 468.637 219.92L483.926 227.124" fill="#435C85"/>
</g>
<path d="M272.637 170.978H291.505V168.677C291.505 167.408 290.474 166.377 289.205 166.377H277.229C274.694 166.381 272.637 168.439 272.637 170.978Z" fill="#193157"/>
<path d="M341.942 170.978H360.811V168.677C360.811 167.408 359.78 166.377 358.51 166.377H346.535C344 166.381 341.942 168.439 341.942 170.978Z" fill="#193157"/>
<path d="M387.95 158.962H409.718V150.588C409.718 148.345 407.899 146.527 405.657 146.527H396.067C391.583 146.527 387.945 150.16 387.945 154.648V158.962H387.95Z" fill="#193157"/>
<path d="M241.095 173.846H223.856V165.4C223.856 161.888 226.702 159.043 230.213 159.043H241.095V173.846Z" fill="#69A4C2"/>
<path d="M335.153 156.882V229.753" stroke="#193157" stroke-width="2.9579" stroke-miterlimit="10"/>
<path d="M271.237 153.649L261.724 163.477C260.004 165.391 259.05 167.871 259.05 170.442V200.782" stroke="#193157" stroke-width="2.9579" stroke-miterlimit="10"/>
<path d="M413.342 161.879L408.511 155.522L406.089 157.359L409.078 161.298C410.1 162.635 412.005 162.896 413.342 161.879Z" fill="#193157"/>
<path d="M197.866 229.753C197.708 228.479 197.623 227.182 197.623 225.868C197.623 208.197 212.475 193.871 230.799 193.871C249.123 193.871 263.975 208.197 263.975 225.868C263.975 227.182 263.889 228.479 263.732 229.753H428.104C427.947 228.479 427.861 227.182 427.861 225.868C427.861 208.197 442.714 193.871 461.038 193.871C479.361 193.871 494.214 208.197 494.214 225.868C494.214 227.182 494.128 228.479 493.971 229.753H522.577C522.577 229.753 522.577 222.977 521.15 212.802H496.6C491.13 198.864 477.164 188.95 460.794 188.95C444.425 188.95 430.459 198.864 424.989 212.802H266.78C261.31 198.864 247.344 188.95 230.974 188.95C214.605 188.95 200.639 198.864 195.169 212.802H166.644V229.753H197.866Z" fill="#193157"/>
<path d="M10.6494 244.907C10.6494 244.907 50.3537 268.665 62.4329 272.694" stroke="#193157" stroke-width="2.338" stroke-miterlimit="10"/>
<path d="M0.290039 252.624L20.3605 264.014" stroke="#193157" stroke-width="2.338" stroke-miterlimit="10"/>
</g>
<defs>
<clipPath id="clip0_3257_101251">
<rect width="592" height="380" fill="white"/>
</clipPath>
</defs>
</svg>
