<svg width="592" height="380" viewBox="0 0 592 380" fill="none" xmlns="http://www.w3.org/2000/svg">
<g clip-path="url(#clip0_3257_101390)">
<path opacity="0.26" d="M592 271.562H-0.75V278.321H592V271.562Z" fill="#00899E"/>
<path d="M209.236 117.076L244.635 141.589L234.422 145.804L102.1 138.552L92.4766 121.265L107.68 115.866L137.893 116.629L209.236 117.076Z" fill="#D4F1FF"/>
<path d="M179.91 148.464L175.712 145.095L200.614 114.014L206.833 114.86L179.91 148.464Z" fill="#EBF8FF"/>
<path d="M154.227 149.377L143.854 141.819L164.528 113.437L179.581 114.576L154.227 149.377Z" fill="#EBF8FF"/>
<path d="M179.236 117.076H175.712V139.315H179.236V117.076Z" fill="#193157"/>
<path d="M138.627 116.644L135.374 115.288L126.557 136.432L129.809 137.788L138.627 116.644Z" fill="#193157"/>
<path d="M60.0564 161.358L53.6025 169.426V194.222H315.782C315.782 194.222 315.782 178.871 310.419 161.354H60.0564V161.358Z" fill="#193157"/>
<mask id="mask0_3257_101390" style="mask-type:luminance" maskUnits="userSpaceOnUse" x="53" y="110" width="262" height="72">
<path d="M313.982 176.376C312.475 167.666 309.705 156.859 304.612 146.562C304.612 146.562 287.01 140.525 248.362 138.858L217.91 119.244C209.098 113.566 198.836 110.547 188.349 110.547H78.7881L85.1622 116.314C85.1622 116.314 67.2589 126.935 60.8892 160.312L53.6064 169.417V176.385V181.269H74.617C78.6462 170.622 88.9343 163.051 100.991 163.051C113.048 163.051 123.336 170.622 127.365 181.269H243.898C247.927 170.622 258.215 163.051 270.272 163.051C281.589 163.051 291.349 169.723 295.835 179.346C296.385 180.52 297.564 181.269 298.858 181.269H314.731C314.527 179.727 314.279 178.091 313.982 176.376ZM137.556 137.772C131.434 137.537 125.392 136.305 119.67 134.124L96.8731 125.45C102.028 120.1 109.138 117.076 116.572 117.076H195.986C203.318 117.076 210.41 119.678 215.999 124.412L236.274 141.584L137.556 137.772Z" fill="white"/>
</mask>
<g mask="url(#mask0_3257_101390)">
<path d="M313.947 179.926C312.369 170.201 309.47 158.136 304.151 146.633C304.151 146.633 285.747 139.891 245.321 138.029L213.473 116.124C204.258 109.785 193.522 106.412 182.56 106.412H67.9772L74.6394 112.848C74.6394 112.848 55.9161 124.705 49.2539 161.974L41.6387 172.138V179.918V185.374H63.6111C67.8265 173.486 78.5844 165.033 91.1952 165.033C103.806 165.033 114.564 173.486 118.779 185.374H240.654C244.869 173.486 255.627 165.033 268.238 165.033C280.849 165.033 291.607 173.486 295.822 185.374H314.736C314.519 183.672 314.257 181.846 313.947 179.926Z" fill="#193157"/>
</g>
<mask id="mask1_3257_101390" style="mask-type:luminance" maskUnits="userSpaceOnUse" x="53" y="110" width="262" height="72">
<path d="M313.982 176.376C312.475 167.666 309.705 156.859 304.612 146.562C304.612 146.562 287.01 140.525 248.362 138.858L217.91 119.244C209.098 113.566 198.836 110.547 188.349 110.547H78.7881L85.1622 116.314C85.1622 116.314 67.2589 126.935 60.8892 160.312L53.6064 169.417V176.385V181.269H74.617C78.6462 170.622 88.9343 163.051 100.991 163.051C113.048 163.051 123.336 170.622 127.365 181.269H243.898C247.927 170.622 258.215 163.051 270.272 163.051C281.589 163.051 291.349 169.723 295.835 179.346C296.385 180.52 297.564 181.269 298.858 181.269H314.731C314.527 179.727 314.279 178.091 313.982 176.376ZM137.556 137.772C131.434 137.537 125.392 136.305 119.67 134.124L96.8731 125.45C102.028 120.1 109.138 117.076 116.572 117.076H195.986C203.318 117.076 210.41 119.678 215.999 124.412L236.274 141.584L137.556 137.772Z" fill="white"/>
</mask>
<g mask="url(#mask1_3257_101390)">
<path d="M110.889 204.714C122.946 204.714 136.643 181.261 142.724 182.524L254.936 201.806C258.965 191.159 274.816 215.573 286.877 215.573C298.934 215.573 308.074 195.037 312.103 205.684L330.902 188.326C330.693 186.793 329.638 179.355 329.341 177.639C327.834 168.929 325.064 158.122 319.971 147.826C319.971 147.826 302.369 141.788 263.721 140.122L233.269 120.507C224.457 114.829 214.196 110.038 203.708 110.038H94.1475L100.522 117.577C100.522 117.577 82.7202 129.368 76.3505 162.746L68.9658 170.676V177.644V182.528L86.5633 201.487C90.5881 190.84 98.8327 204.714 110.889 204.714Z" fill="#3E7BBD"/>
</g>
<mask id="mask2_3257_101390" style="mask-type:luminance" maskUnits="userSpaceOnUse" x="53" y="110" width="262" height="72">
<path d="M313.982 176.376C312.475 167.666 309.705 156.859 304.612 146.562C304.612 146.562 287.01 140.525 248.362 138.858L217.91 119.244C209.098 113.566 198.836 110.547 188.349 110.547H78.7881L85.1622 116.314C85.1622 116.314 67.2589 126.935 60.8892 160.312L53.6064 169.417V176.385V181.269H74.617C78.6462 170.622 88.9343 163.051 100.991 163.051C113.048 163.051 123.336 170.622 127.365 181.269H243.898C247.927 170.622 258.215 163.051 270.272 163.051C281.589 163.051 291.349 169.723 295.835 179.346C296.385 180.52 297.564 181.269 298.858 181.269H314.731C314.527 179.727 314.279 178.091 313.982 176.376ZM137.556 137.772C131.434 137.537 125.392 136.305 119.67 134.124L96.8731 125.45C102.028 120.1 109.138 117.076 116.572 117.076H195.986C203.318 117.076 210.41 119.678 215.999 124.412L236.274 141.584L137.556 137.772Z" fill="white"/>
</mask>
<g mask="url(#mask2_3257_101390)">
<path d="M297.267 156.567H308.521V153.81H294.51C294.505 155.33 295.742 156.567 297.267 156.567Z" fill="#193157"/>
</g>
<mask id="mask3_3257_101390" style="mask-type:luminance" maskUnits="userSpaceOnUse" x="53" y="110" width="262" height="72">
<path d="M313.982 176.376C312.475 167.666 309.705 156.859 304.612 146.562C304.612 146.562 287.01 140.525 248.362 138.858L217.91 119.244C209.098 113.566 198.836 110.547 188.349 110.547H78.7881L85.1622 116.314C85.1622 116.314 67.2589 126.935 60.8892 160.312L53.6064 169.417V176.385V181.269H74.617C78.6462 170.622 88.9343 163.051 100.991 163.051C113.048 163.051 123.336 170.622 127.365 181.269H243.898C247.927 170.622 258.215 163.051 270.272 163.051C281.589 163.051 291.349 169.723 295.835 179.346C296.385 180.52 297.564 181.269 298.858 181.269H314.731C314.527 179.727 314.279 178.091 313.982 176.376ZM137.556 137.772C131.434 137.537 125.392 136.305 119.67 134.124L96.8731 125.45C102.028 120.1 109.138 117.076 116.572 117.076H195.986C203.318 117.076 210.41 119.678 215.999 124.412L236.274 141.584L137.556 137.772Z" fill="white"/>
</mask>
<g mask="url(#mask3_3257_101390)">
<path d="M311.119 146.216H288.504L286.779 153.929H311.119" fill="#D4F1FF"/>
<mask id="mask4_3257_101390" style="mask-type:luminance" maskUnits="userSpaceOnUse" x="286" y="146" width="26" height="8">
<path d="M311.119 146.216H288.504L286.779 153.929H311.119" fill="white"/>
</mask>
<g mask="url(#mask4_3257_101390)">
<path d="M314.226 144.683H291.615L289.891 152.396H314.226" fill="white"/>
</g>
</g>
<mask id="mask5_3257_101390" style="mask-type:luminance" maskUnits="userSpaceOnUse" x="53" y="110" width="262" height="72">
<path d="M313.982 176.376C312.475 167.666 309.705 156.859 304.612 146.562C304.612 146.562 287.01 140.525 248.362 138.858L217.91 119.244C209.098 113.566 198.836 110.547 188.349 110.547H78.7881L85.1622 116.314C85.1622 116.314 67.2589 126.935 60.8892 160.312L53.6064 169.417V176.385V181.269H74.617C78.6462 170.622 88.9343 163.051 100.991 163.051C113.048 163.051 123.336 170.622 127.365 181.269H243.898C247.927 170.622 258.215 163.051 270.272 163.051C281.589 163.051 291.349 169.723 295.835 179.346C296.385 180.52 297.564 181.269 298.858 181.269H314.731C314.527 179.727 314.279 178.091 313.982 176.376ZM137.556 137.772C131.434 137.537 125.392 136.305 119.67 134.124L96.8731 125.45C102.028 120.1 109.138 117.076 116.572 117.076H195.986C203.318 117.076 210.41 119.678 215.999 124.412L236.274 141.584L137.556 137.772Z" fill="white"/>
</mask>
<g mask="url(#mask5_3257_101390)">
<path d="M186.638 166.376H178.008V181.261H186.638V166.376Z" fill="#69A4C2"/>
</g>
<mask id="mask6_3257_101390" style="mask-type:luminance" maskUnits="userSpaceOnUse" x="53" y="110" width="262" height="72">
<path d="M313.982 176.376C312.475 167.666 309.705 156.859 304.612 146.562C304.612 146.562 287.01 140.525 248.362 138.858L217.91 119.244C209.098 113.566 198.836 110.547 188.349 110.547H78.7881L85.1622 116.314C85.1622 116.314 67.2589 126.935 60.8892 160.312L53.6064 169.417V176.385V181.269H74.617C78.6462 170.622 88.9343 163.051 100.991 163.051C113.048 163.051 123.336 170.622 127.365 181.269H243.898C247.927 170.622 258.215 163.051 270.272 163.051C281.589 163.051 291.349 169.723 295.835 179.346C296.385 180.52 297.564 181.269 298.858 181.269H314.731C314.527 179.727 314.279 178.091 313.982 176.376ZM137.556 137.772C131.434 137.537 125.392 136.305 119.67 134.124L96.8731 125.45C102.028 120.1 109.138 117.076 116.572 117.076H195.986C203.318 117.076 210.41 119.678 215.999 124.412L236.274 141.584L137.556 137.772Z" fill="white"/>
</mask>
<g mask="url(#mask6_3257_101390)">
<path d="M272.852 227.395C292.821 227.395 309.009 211.207 309.009 191.238C309.009 171.27 292.821 155.082 272.852 155.082C252.883 155.082 236.695 171.27 236.695 191.238C236.695 211.207 252.883 227.395 272.852 227.395Z" fill="#91C5DE"/>
</g>
<mask id="mask7_3257_101390" style="mask-type:luminance" maskUnits="userSpaceOnUse" x="53" y="110" width="262" height="72">
<path d="M313.982 176.376C312.475 167.666 309.705 156.859 304.612 146.562C304.612 146.562 287.01 140.525 248.362 138.858L217.91 119.244C209.098 113.566 198.836 110.547 188.349 110.547H78.7881L85.1622 116.314C85.1622 116.314 67.2589 126.935 60.8892 160.312L53.6064 169.417V176.385V181.269H74.617C78.6462 170.622 88.9343 163.051 100.991 163.051C113.048 163.051 123.336 170.622 127.365 181.269H243.898C247.927 170.622 258.215 163.051 270.272 163.051C281.589 163.051 291.349 169.723 295.835 179.346C296.385 180.52 297.564 181.269 298.858 181.269H314.731C314.527 179.727 314.279 178.091 313.982 176.376ZM137.556 137.772C131.434 137.537 125.392 136.305 119.67 134.124L96.8731 125.45C102.028 120.1 109.138 117.076 116.572 117.076H195.986C203.318 117.076 210.41 119.678 215.999 124.412L236.274 141.584L137.556 137.772Z" fill="white"/>
</mask>
<g mask="url(#mask7_3257_101390)">
<path d="M312.825 169.505H305.356L300.263 183.242H315.781L312.825 169.505Z" fill="#D1F0FF"/>
</g>
<mask id="mask8_3257_101390" style="mask-type:luminance" maskUnits="userSpaceOnUse" x="53" y="110" width="262" height="72">
<path d="M313.982 176.376C312.475 167.666 309.705 156.859 304.612 146.562C304.612 146.562 287.01 140.525 248.362 138.858L217.91 119.244C209.098 113.566 198.836 110.547 188.349 110.547H78.7881L85.1622 116.314C85.1622 116.314 67.2589 126.935 60.8892 160.312L53.6064 169.417V176.385V181.269H74.617C78.6462 170.622 88.9343 163.051 100.991 163.051C113.048 163.051 123.336 170.622 127.365 181.269H243.898C247.927 170.622 258.215 163.051 270.272 163.051C281.589 163.051 291.349 169.723 295.835 179.346C296.385 180.52 297.564 181.269 298.858 181.269H314.731C314.527 179.727 314.279 178.091 313.982 176.376ZM137.556 137.772C131.434 137.537 125.392 136.305 119.67 134.124L96.8731 125.45C102.028 120.1 109.138 117.076 116.572 117.076H195.986C203.318 117.076 210.41 119.678 215.999 124.412L236.274 141.584L137.556 137.772Z" fill="white"/>
</mask>
<g mask="url(#mask8_3257_101390)">
<path d="M65.7384 143.313L82.6488 140.813L83.6772 145.813L61.9131 155.077C62.2987 153.14 62.8439 150.977 63.6152 148.663C64.2801 146.682 65.007 144.896 65.7384 143.313Z" fill="#D4F1FF"/>
<mask id="mask9_3257_101390" style="mask-type:luminance" maskUnits="userSpaceOnUse" x="61" y="140" width="23" height="16">
<path d="M65.7384 143.313L82.6488 140.813L83.6772 145.813L61.9131 155.077C62.2987 153.14 62.8439 150.977 63.6152 148.663C64.2801 146.682 65.007 144.896 65.7384 143.313Z" fill="white"/>
</mask>
<g mask="url(#mask9_3257_101390)">
<path d="M63.7257 141.27L80.6361 138.77L81.6645 143.77L59.9004 153.034C60.286 151.097 60.8312 148.934 61.6025 146.62C62.2674 144.638 62.9988 142.852 63.7257 141.27Z" fill="white"/>
</g>
</g>
<mask id="mask10_3257_101390" style="mask-type:luminance" maskUnits="userSpaceOnUse" x="53" y="110" width="262" height="72">
<path d="M313.982 176.376C312.475 167.666 309.705 156.859 304.612 146.562C304.612 146.562 287.01 140.525 248.362 138.858L217.91 119.244C209.098 113.566 198.836 110.547 188.349 110.547H78.7881L85.1622 116.314C85.1622 116.314 67.2589 126.935 60.8892 160.312L53.6064 169.417V176.385V181.269H74.617C78.6462 170.622 88.9343 163.051 100.991 163.051C113.048 163.051 123.336 170.622 127.365 181.269H243.898C247.927 170.622 258.215 163.051 270.272 163.051C281.589 163.051 291.349 169.723 295.835 179.346C296.385 180.52 297.564 181.269 298.858 181.269H314.731C314.527 179.727 314.279 178.091 313.982 176.376ZM137.556 137.772C131.434 137.537 125.392 136.305 119.67 134.124L96.8731 125.45C102.028 120.1 109.138 117.076 116.572 117.076H195.986C203.318 117.076 210.41 119.678 215.999 124.412L236.274 141.584L137.556 137.772Z" fill="white"/>
</mask>
<g mask="url(#mask10_3257_101390)">
<path d="M72.8305 153.499L59.3421 158.792L58.3359 156.225L74.3908 149.927C74.9449 151.345 74.249 152.945 72.8305 153.499Z" fill="#193157"/>
</g>
<mask id="mask11_3257_101390" style="mask-type:luminance" maskUnits="userSpaceOnUse" x="53" y="110" width="262" height="72">
<path d="M313.982 176.376C312.475 167.666 309.705 156.859 304.612 146.562C304.612 146.562 287.01 140.525 248.362 138.858L217.91 119.244C209.098 113.566 198.836 110.547 188.349 110.547H78.7881L85.1622 116.314C85.1622 116.314 67.2589 126.935 60.8892 160.312L53.6064 169.417V176.385V181.269H74.617C78.6462 170.622 88.9343 163.051 100.991 163.051C113.048 163.051 123.336 170.622 127.365 181.269H243.898C247.927 170.622 258.215 163.051 270.272 163.051C281.589 163.051 291.349 169.723 295.835 179.346C296.385 180.52 297.564 181.269 298.858 181.269H314.731C314.527 179.727 314.279 178.091 313.982 176.376ZM137.556 137.772C131.434 137.537 125.392 136.305 119.67 134.124L96.8731 125.45C102.028 120.1 109.138 117.076 116.572 117.076H195.986C203.318 117.076 210.41 119.678 215.999 124.412L236.274 141.584L137.556 137.772Z" fill="white"/>
</mask>
<g mask="url(#mask11_3257_101390)">
<path d="M98.606 155.082C90.1574 155.082 82.3959 157.985 76.239 162.839C75.388 165.981 73.0476 175.117 72.7949 181.261L64.9137 184.08L63.3889 183.065C62.7817 185.693 62.4492 188.428 62.4492 191.243C62.4492 211.212 78.6371 227.4 98.606 227.4C118.575 227.4 134.763 211.212 134.763 191.243C134.763 171.27 118.575 155.082 98.606 155.082Z" fill="#91C5DE"/>
<path d="M72.7947 181.261C73.0429 175.117 75.3877 165.981 76.2388 162.839C69.8957 167.843 65.2681 174.922 63.3887 183.06L64.9135 184.075L72.7947 181.261Z" fill="#7FACC2"/>
</g>
<mask id="mask12_3257_101390" style="mask-type:luminance" maskUnits="userSpaceOnUse" x="53" y="110" width="262" height="72">
<path d="M313.982 176.376C312.475 167.666 309.705 156.859 304.612 146.562C304.612 146.562 287.01 140.525 248.362 138.858L217.91 119.244C209.098 113.566 198.836 110.547 188.349 110.547H78.7881L85.1622 116.314C85.1622 116.314 67.2589 126.935 60.8892 160.312L53.6064 169.417V176.385V181.269H74.617C78.6462 170.622 88.9343 163.051 100.991 163.051C113.048 163.051 123.336 170.622 127.365 181.269H243.898C247.927 170.622 258.215 163.051 270.272 163.051C281.589 163.051 291.349 169.723 295.835 179.346C296.385 180.52 297.564 181.269 298.858 181.269H314.731C314.527 179.727 314.279 178.091 313.982 176.376ZM137.556 137.772C131.434 137.537 125.392 136.305 119.67 134.124L96.8731 125.45C102.028 120.1 109.138 117.076 116.572 117.076H195.986C203.318 117.076 210.41 119.678 215.999 124.412L236.274 141.584L137.556 137.772Z" fill="white"/>
</mask>
<g mask="url(#mask12_3257_101390)">
<path d="M100.96 173.388C149.403 173.388 188.673 134.118 188.673 85.676C188.673 37.2338 149.403 -2.03641 100.96 -2.03641C52.5182 -2.03641 13.248 37.2338 13.248 85.676C13.248 134.118 52.5182 173.388 100.96 173.388Z" fill="url(#paint0_radial_3257_101390)"/>
</g>
<path d="M113.66 191.238C113.66 179.953 104.511 170.804 93.2253 170.804C81.9399 170.804 72.791 179.953 72.791 191.238C72.791 202.524 81.9399 211.673 93.2253 211.673C98.2785 211.673 99.5019 211.642 104.24 211.517C110.02 211.367 113.66 197.471 113.66 191.238Z" fill="#193157"/>
<path d="M102.099 211.673C113.385 211.673 122.534 202.524 122.534 191.238C122.534 179.953 113.385 170.804 102.099 170.804C90.8138 170.804 81.665 179.953 81.665 191.238C81.665 202.524 90.8138 211.673 102.099 211.673Z" fill="#435C85"/>
<path d="M102.1 206.611C110.59 206.611 117.472 199.728 117.472 191.238C117.472 182.748 110.59 175.866 102.1 175.866C93.6099 175.866 86.7275 182.748 86.7275 191.238C86.7275 199.728 93.6099 206.611 102.1 206.611Z" fill="#91C5DE"/>
<mask id="mask13_3257_101390" style="mask-type:luminance" maskUnits="userSpaceOnUse" x="86" y="175" width="32" height="32">
<path d="M102.1 206.611C110.59 206.611 117.472 199.728 117.472 191.238C117.472 182.748 110.59 175.866 102.1 175.866C93.6099 175.866 86.7275 182.748 86.7275 191.238C86.7275 199.728 93.6099 206.611 102.1 206.611Z" fill="white"/>
</mask>
<g mask="url(#mask13_3257_101390)">
<path d="M118.173 197.191L105.203 191.079C103.541 190.294 101.657 190.525 100.256 191.518L108.102 195.214L105.841 199.505L93.2305 193.561L94.2633 191.371C96.5593 186.496 102.393 184.399 107.269 186.695L118.944 192.196" fill="#435C85"/>
</g>
<path d="M285.813 191.238C285.813 179.953 276.664 170.804 265.379 170.804C254.093 170.804 244.944 179.953 244.944 191.238C244.944 202.524 254.093 211.673 265.379 211.673C270.432 211.673 271.655 211.642 276.394 211.517C282.169 211.367 285.813 197.471 285.813 191.238Z" fill="#193157"/>
<path d="M274.249 211.673C285.534 211.673 294.683 202.524 294.683 191.238C294.683 179.953 285.534 170.804 274.249 170.804C262.963 170.804 253.814 179.953 253.814 191.238C253.814 202.524 262.963 211.673 274.249 211.673Z" fill="#435C85"/>
<path d="M274.248 206.611C282.738 206.611 289.621 199.728 289.621 191.238C289.621 182.748 282.738 175.866 274.248 175.866C265.758 175.866 258.876 182.748 258.876 191.238C258.876 199.728 265.758 206.611 274.248 206.611Z" fill="#91C5DE"/>
<mask id="mask14_3257_101390" style="mask-type:luminance" maskUnits="userSpaceOnUse" x="258" y="175" width="32" height="32">
<path d="M274.248 206.611C282.738 206.611 289.621 199.728 289.621 191.238C289.621 182.748 282.738 175.866 274.248 175.866C265.758 175.866 258.876 182.748 258.876 191.238C258.876 199.728 265.758 206.611 274.248 206.611Z" fill="white"/>
</mask>
<g mask="url(#mask14_3257_101390)">
<path d="M290.321 197.191L277.351 191.079C275.689 190.294 273.805 190.525 272.405 191.518L280.25 195.214L277.99 199.505L265.379 193.561L266.412 191.371C268.708 186.496 274.541 184.399 279.417 186.695L291.092 192.196" fill="#435C85"/>
</g>
<path d="M129.728 149.315H144.138V147.56C144.138 146.589 143.353 145.804 142.383 145.804H133.238C131.301 145.804 129.728 147.378 129.728 149.315Z" fill="#193157"/>
<path d="M182.657 149.315H197.068V147.56C197.068 146.589 196.283 145.804 195.312 145.804H186.168C184.231 145.804 182.657 147.378 182.657 149.315Z" fill="#193157"/>
<path d="M217.795 140.139H234.422V133.748C234.422 132.037 233.034 130.645 231.319 130.645H223.996C220.57 130.645 217.795 133.42 217.795 136.846V140.139Z" fill="#193157"/>
<path d="M105.641 151.509H92.4766V145.059C92.4766 142.378 94.6485 140.206 97.3303 140.206H105.641V151.509Z" fill="#69A4C2"/>
<path d="M177.472 138.552V194.204" stroke="#193157" stroke-width="1.9182" stroke-miterlimit="10"/>
<path d="M128.66 136.079L121.395 143.583C120.079 145.042 119.352 146.939 119.352 148.903V172.076" stroke="#193157" stroke-width="1.9182" stroke-miterlimit="10"/>
<path d="M237.188 142.369L233.5 137.511L231.651 138.916L233.934 141.926C234.714 142.945 236.168 143.145 237.188 142.369Z" fill="#193157"/>
<path d="M72.6227 194.204C72.4986 193.233 72.4366 192.24 72.4366 191.238C72.4366 177.741 83.7796 166.801 97.7733 166.801C111.767 166.801 123.11 177.741 123.11 191.238C123.11 192.245 123.048 193.233 122.924 194.204H248.46C248.336 193.233 248.274 192.24 248.274 191.238C248.274 177.741 259.617 166.801 273.61 166.801C287.604 166.801 298.947 177.741 298.947 191.238C298.947 192.245 298.885 193.233 298.761 194.204H320.609C320.609 194.204 320.609 189.026 319.519 181.261H300.769C296.589 170.613 285.924 163.043 273.424 163.043C260.924 163.043 250.255 170.613 246.079 181.261H125.255C121.076 170.613 110.411 163.043 97.9107 163.043C85.4108 163.043 74.7415 170.613 70.566 181.261H48.7842V194.204H72.6227Z" fill="#193157"/>
<path d="M541.242 206.868L539.398 270.529L545.702 269.562C547.018 252.555 548.184 234.048 549.5 217.041C549.824 213.853 550.444 210.232 550.768 207.045C547.692 206.841 544.319 207.072 541.242 206.868Z" fill="#002D5D"/>
<path d="M557.487 205.485C557.607 206.681 557.727 207.883 557.851 209.079C559.043 229.239 560.236 249.403 561.428 269.562L556.051 270.529C553.649 249.487 551.246 228.446 548.844 207.404" fill="#194C82"/>
<path d="M551.841 165.786C551.841 165.786 553.623 165.281 553.964 166.925C554.305 168.57 550.715 169.869 550.715 169.869L551.841 165.786Z" fill="#E39184"/>
<path d="M558.552 193.069C558.348 197.905 558.14 202.741 557.936 207.577C555.152 207.493 552.373 207.408 549.589 207.324C546.805 207.24 544.026 207.156 541.243 207.072C541.163 201.327 541.083 195.582 541.003 189.833C540.742 187.59 540.476 185.352 540.214 183.109C540.126 181.97 540.037 180.831 539.948 179.691C542.595 178.237 545.236 176.784 547.887 175.33C549.106 174.926 550.329 174.519 551.548 174.115C552.648 174.572 553.8 175.099 554.988 175.72C557.586 177.072 559.775 178.548 561.584 179.948C560.657 181.416 559.731 182.883 558.805 184.35C558.72 187.258 558.636 190.166 558.552 193.069Z" fill="#588DC4"/>
<path d="M548.489 178.113C548.884 178.264 549.602 178.481 550.506 178.415C550.741 178.397 551.924 178.291 553.059 177.4C553.924 176.722 554.345 175.919 554.535 175.489C554.026 175.259 553.516 175.028 553.006 174.798C552.496 174.567 551.987 174.337 551.477 174.106C550.484 175.441 549.487 176.779 548.489 178.113Z" fill="#002D5D"/>
<path d="M550.285 168.246L552.12 174.359C552.12 174.359 551.171 179.088 548.312 178.778C548.312 178.778 547.342 178.636 547.279 178.198L546.291 173.025L550.285 168.246Z" fill="#E39184"/>
<path d="M546.233 172.754C546.384 173.539 546.535 174.323 546.685 175.108C547.426 174.94 548.255 174.678 549.123 174.275C549.381 174.155 549.624 174.031 549.85 173.907C550.014 173.561 550.09 173.264 550.13 173.056C550.183 172.759 550.192 172.457 550.205 171.863C550.209 171.761 550.209 171.62 550.209 171.429C550.209 170.986 550.187 170.587 550.161 170.25C548.849 171.083 547.541 171.917 546.233 172.754Z" fill="#002D5D"/>
<path d="M545.652 159.851C545.652 159.851 543.954 159.869 543.303 163.818C542.651 167.768 543.822 173.667 543.822 173.667C543.822 173.667 548.298 174.004 549.548 173.53C550.169 171.943 550.785 170.356 551.406 168.769L552.27 163.84L552.243 161.797L545.652 159.851Z" fill="#E39184"/>
<path d="M549.921 161.114C549.921 161.114 546.464 161.287 544.966 160.148L545.471 158.916L549.917 159.94L553.96 161.766L554.11 163.495L552.603 165.964L551.739 166.859L551.123 168.809L550.023 168.557C550.298 167.311 550.578 166.066 550.852 164.82C551.021 164.722 551.296 164.532 551.517 164.191C551.89 163.628 551.85 163.043 551.832 162.856C551.734 162.626 551.562 162.302 549.921 161.114Z" fill="#002D5D"/>
<path d="M545.892 163.393C545.635 164.643 545.378 165.893 545.121 167.147C544.686 167.71 544.252 168.269 543.817 168.831C543.973 168.987 544.203 169.177 544.513 169.332C545.169 169.656 545.79 169.625 546.074 169.589" stroke="#002D5D" stroke-width="0.8018" stroke-miterlimit="10"/>
<path d="M549.73 164.585C549.752 164.576 549.73 164.377 549.699 164.133C549.424 163.947 549.083 163.756 548.68 163.601C548.024 163.357 547.425 163.3 546.978 163.304C546.995 163.486 547.009 163.672 547.026 163.854C547.026 163.854 549.083 164.146 549.73 164.585Z" fill="#002D5D"/>
<path d="M545.218 163.632L545.369 163.18C545.134 163.158 544.89 163.14 544.629 163.131C544.287 163.122 543.968 163.131 543.667 163.153C543.618 163.286 543.569 163.415 543.521 163.548C544.088 163.579 544.651 163.605 545.218 163.632Z" fill="#002D5D"/>
<path d="M545.937 171.11C546.198 171.123 546.743 171.119 547.346 170.831C547.865 170.582 548.188 170.232 548.348 170.033" stroke="#002D5D" stroke-width="0.8018" stroke-miterlimit="10"/>
<path d="M534.491 191.079L530.32 198.246L534.372 201.141L539.017 193.592L534.491 191.079Z" fill="#E39184"/>
<path d="M547.066 166.141C547.066 166.141 547.177 167.617 548.667 167.462" stroke="#002D5D" stroke-width="0.6013" stroke-miterlimit="10"/>
<path d="M544.952 166.101C544.855 166.243 544.66 166.482 544.327 166.668C544.075 166.81 543.84 166.863 543.685 166.886" stroke="#002D5D" stroke-width="0.6013" stroke-miterlimit="10"/>
<path d="M547.488 166.478C547.824 166.478 548.095 166.206 548.095 165.87C548.095 165.535 547.824 165.263 547.488 165.263C547.153 165.263 546.881 165.535 546.881 165.87C546.881 166.206 547.153 166.478 547.488 166.478Z" fill="#002D5D"/>
<path d="M544.039 166.105C544.326 166.105 544.558 165.873 544.558 165.587C544.558 165.3 544.326 165.068 544.039 165.068C543.753 165.068 543.521 165.3 543.521 165.587C543.521 165.873 543.753 166.105 544.039 166.105Z" fill="#002D5D"/>
<path d="M534.487 191.079L539.102 193.61L542.479 186.38L541.668 182.909L539.948 179.691C539.948 179.691 538.348 181.473 537.373 184.682C536.393 187.887 534.487 191.079 534.487 191.079Z" fill="#588DC4"/>
<path d="M540.01 191.659L540.994 189.696L541.034 186.429L537.475 192.284C538.077 192.528 538.68 192.767 539.288 193.011C539.478 192.515 539.819 192.156 540.01 191.659Z" fill="#002D5D"/>
<path d="M534.487 191.079L538.964 193.867L539.288 193.011L534.487 191.079Z" fill="#002D5D"/>
<path d="M552.687 167.4C552.687 167.4 551.734 167.05 551.202 167.754" stroke="#002D5D" stroke-width="0.8018" stroke-miterlimit="10"/>
<path d="M556.052 270.529L553.99 273.765L550.493 275.121L550.985 275.994L561.654 275.453L561.428 269.562" fill="#193157"/>
<path d="M539.402 270.21L538.232 273.765L534.73 275.121L535.227 275.994L545.892 275.453L545.67 269.562" fill="#193157"/>
<path d="M528.857 200.418L537.559 208.65L540.803 205.52L531.694 195.879L528.857 200.418Z" fill="#E39184"/>
<path d="M540.183 204.877L541.326 203.326L541.287 206.021L544.429 210.055C544.429 210.055 543.919 210.214 542.749 209.638L543.405 210.755C543.405 210.755 543.339 211.504 542.665 211.322C541.991 211.145 541.73 212.036 541.251 211.695C540.777 211.353 537.55 208.65 537.55 208.65L540.183 204.877Z" fill="#E39184"/>
<path d="M565.489 191.345L569.35 198.69L565.174 201.402L560.861 193.658L565.489 191.345Z" fill="#E39184"/>
<path d="M565.497 191.345L560.776 193.672L557.718 186.3L558.68 182.87C559.548 181.819 560.417 180.769 561.286 179.722C561.406 179.811 561.521 179.895 561.641 179.984C562.572 181.748 563.081 183.242 563.374 184.275C563.702 185.427 563.759 186.012 564.11 187.338C564.579 189.093 565.12 190.467 565.497 191.345Z" fill="#588DC4"/>
<path d="M559.952 191.682L557.709 186.606L560.967 189.886L562.456 192.413C561.845 192.63 561.228 192.843 560.617 193.06C560.448 192.564 560.125 192.187 559.952 191.682Z" fill="#002D5D"/>
<path d="M565.497 191.345L560.905 193.933L560.617 193.065L565.497 191.345Z" fill="#002D5D"/>
<path d="M570.71 200.924L561.663 208.765L558.556 205.498L568.077 196.265L570.71 200.924Z" fill="#E39184"/>
<path d="M559.203 204.882L558.126 203.286L558.046 205.981L554.73 209.873C554.73 209.873 555.231 210.055 556.428 209.527L555.723 210.613C555.723 210.613 555.759 211.362 556.437 211.216C557.115 211.065 557.341 211.97 557.833 211.65C558.325 211.331 561.663 208.769 561.663 208.769L559.203 204.882Z" fill="#E39184"/>
<path d="M454.429 203.441H355.086V231.469H454.429V203.441Z" fill="#11213B"/>
<path d="M38.8506 218.432H324.718L330.84 210.95H48.5801L38.8506 218.432Z" fill="#193157"/>
<path d="M311.474 238.335H264.253C257.006 238.335 251.133 232.461 251.133 225.214H311.474V238.335Z" fill="#193157"/>
<path d="M350.529 247.328C350.529 226.748 367.214 210.068 387.79 210.068C408.366 210.068 425.05 226.752 425.05 247.328" stroke="#11213B" stroke-width="26" stroke-miterlimit="10"/>
<path d="M79.5908 247.328C79.5908 243.472 80.1759 239.749 81.2663 236.247C82.3257 232.843 83.8018 229.837 84.7903 228.335C89.5509 221.092 101.364 220.635 116.115 220.254C132.184 219.837 142.45 219.709 147.711 226.438C150.442 229.93 152.339 235.923 152.441 236.251C153.828 240.719 154.116 244.633 154.116 247.333" stroke="#11213B" stroke-width="26" stroke-miterlimit="10"/>
<path d="M139.626 246.225C139.626 230.365 126.772 217.51 110.912 217.51C95.0518 217.51 82.1973 230.365 82.1973 246.225C82.1973 262.085 95.0518 274.939 110.912 274.939C118.013 274.939 119.733 274.895 126.39 274.722C134.506 274.514 139.626 254.988 139.626 246.225Z" fill="#193157"/>
<path d="M123.377 274.939C139.235 274.939 152.091 262.083 152.091 246.225C152.091 230.366 139.235 217.51 123.377 217.51C107.518 217.51 94.6621 230.366 94.6621 246.225C94.6621 262.083 107.518 274.939 123.377 274.939Z" fill="#435C85"/>
<path d="M123.376 267.825C135.306 267.825 144.977 258.154 144.977 246.225C144.977 234.295 135.306 224.625 123.376 224.625C111.447 224.625 101.776 234.295 101.776 246.225C101.776 258.154 111.447 267.825 123.376 267.825Z" fill="#8194B8"/>
<mask id="mask15_3257_101390" style="mask-type:luminance" maskUnits="userSpaceOnUse" x="101" y="224" width="44" height="44">
<path d="M123.376 267.825C135.306 267.825 144.977 258.154 144.977 246.225C144.977 234.295 135.306 224.625 123.376 224.625C111.447 224.625 101.776 234.295 101.776 246.225C101.776 258.154 111.447 267.825 123.376 267.825Z" fill="white"/>
</mask>
<g mask="url(#mask15_3257_101390)">
<path d="M145.961 254.593L127.734 246.003C125.398 244.904 122.747 245.227 120.779 246.619L131.803 251.814L128.625 257.843L110.903 249.492L112.353 246.411C115.58 239.562 123.78 236.61 130.633 239.842L147.042 247.577" fill="#435C85"/>
</g>
<path d="M382.417 118.22H352.488V203.933H382.417V118.22Z" fill="#193157"/>
<path d="M459.754 233.991H431.186L415.707 204.891L366.718 203.929V118.22H419.311C426.66 118.22 433.482 122.028 437.338 128.282L459.754 164.634V233.991Z" fill="#00CE7C"/>
<mask id="mask16_3257_101390" style="mask-type:luminance" maskUnits="userSpaceOnUse" x="366" y="118" width="94" height="116">
<path d="M459.754 233.991H431.186L415.707 204.891L366.718 203.929V118.22H419.311C426.66 118.22 433.482 122.028 437.338 128.282L459.754 164.634V233.991Z" fill="white"/>
</mask>
<g mask="url(#mask16_3257_101390)">
<path d="M411.735 209.638H442.538C447.746 209.638 451.983 205.4 451.983 200.192V197.852H438.508C439.328 196.407 440.88 195.431 442.657 195.431H459.754V190.742H442.657C437.444 190.742 433.211 194.979 433.211 200.188V202.528H446.686C445.866 203.973 444.315 204.948 442.542 204.948H412.79L411.735 209.638Z" fill="white"/>
</g>
<mask id="mask17_3257_101390" style="mask-type:luminance" maskUnits="userSpaceOnUse" x="366" y="118" width="94" height="116">
<path d="M459.754 233.991H431.186L415.707 204.891L366.718 203.929V118.22H419.311C426.66 118.22 433.482 122.028 437.338 128.282L459.754 164.634V233.991Z" fill="white"/>
</mask>
<g mask="url(#mask17_3257_101390)">
<path d="M366.718 195.117L419.616 196.265L437.693 225.511" stroke="#193157" stroke-width="2" stroke-miterlimit="10"/>
</g>
<path d="M349.86 161.925V228.313L315.889 220.644L341.31 161.925H349.86Z" fill="#0E4A31"/>
<path d="M9.5957 228.313H359.075V216.646H35.4378C29.9546 216.646 24.5956 218.273 20.0389 221.322L9.5957 228.313Z" fill="#00CE7C"/>
<path d="M347.604 222.054V119.536C347.604 116.021 348.991 112.648 351.46 110.153L359.075 102.453V222.054H347.604Z" fill="#00CE7C"/>
<path d="M381.154 125.751V160.707H403.14C408.712 160.707 414.066 162.861 418.082 166.722L432.865 180.928H447.417V166.123L429.492 136.079C425.671 129.674 418.765 125.751 411.305 125.751H381.154Z" fill="#0E4A31"/>
<path d="M450.52 166.123V180.928H435.972L422.164 167.661L421.189 166.722C418.49 164.128 415.192 162.307 411.624 161.389C409.882 160.941 408.073 160.707 406.247 160.707H384.257V125.751H414.412C417.023 125.751 419.563 126.23 421.93 127.13C424.571 128.136 426.996 129.661 429.048 131.624C430.409 132.927 431.61 134.421 432.599 136.079L436.664 142.892L450.52 166.123Z" fill="#D4F1FF"/>
<path d="M468.02 163.495H459.438V146.872H462.639C465.613 146.872 468.02 149.284 468.02 152.253V163.495Z" fill="#193157"/>
<path d="M456.247 166.066L460.498 160.472L462.626 162.089L459.993 165.556C459.102 166.726 457.422 166.956 456.247 166.066Z" fill="#193157"/>
<path d="M384.257 185.848H400.857V183.827C400.857 182.71 399.953 181.806 398.836 181.806H388.299C386.07 181.806 384.257 183.614 384.257 185.848Z" fill="#193157"/>
<path d="M411.734 246.225C411.734 230.365 398.88 217.51 383.02 217.51C367.16 217.51 354.306 230.365 354.306 246.225C354.306 262.085 367.16 274.939 383.02 274.939C390.121 274.939 391.841 274.895 398.499 274.722C406.619 274.514 411.734 254.988 411.734 246.225Z" fill="#193157"/>
<path d="M395.489 274.939C411.347 274.939 424.203 262.083 424.203 246.225C424.203 230.366 411.347 217.51 395.489 217.51C379.63 217.51 366.774 230.366 366.774 246.225C366.774 262.083 379.63 274.939 395.489 274.939Z" fill="#435C85"/>
<path d="M395.489 267.825C407.418 267.825 417.089 258.154 417.089 246.225C417.089 234.295 407.418 224.625 395.489 224.625C383.559 224.625 373.889 234.295 373.889 246.225C373.889 258.154 383.559 267.825 395.489 267.825Z" fill="#8194B8"/>
<mask id="mask18_3257_101390" style="mask-type:luminance" maskUnits="userSpaceOnUse" x="373" y="224" width="45" height="44">
<path d="M395.489 267.825C407.418 267.825 417.089 258.154 417.089 246.225C417.089 234.295 407.418 224.625 395.489 224.625C383.559 224.625 373.889 234.295 373.889 246.225C373.889 258.154 383.559 267.825 395.489 267.825Z" fill="white"/>
</mask>
<g mask="url(#mask18_3257_101390)">
<path d="M418.073 254.593L399.846 246.003C397.51 244.904 394.86 245.227 392.891 246.619L403.915 251.814L400.737 257.843L383.016 249.492L384.465 246.411C387.692 239.562 395.892 236.61 402.745 239.842L419.155 247.577" fill="#435C85"/>
</g>
<path d="M469.496 217.51H429.674L424.395 236.73H450.547C458.619 236.73 465.697 231.336 467.838 223.548L469.496 217.51Z" fill="#0E4A31"/>
<mask id="mask19_3257_101390" style="mask-type:luminance" maskUnits="userSpaceOnUse" x="9" y="102" width="461" height="173">
<path d="M459.754 217.51V195.369V190.684V185.848V165.822C459.838 165.737 459.918 165.649 459.993 165.551L461.553 163.495H468.016V152.254C468.016 149.279 465.605 146.872 462.635 146.872H459.435V161.863L458.668 162.874L441.376 134.833L441.389 134.811L441.35 134.789L437.334 128.278C433.477 122.023 426.655 118.216 419.306 118.216H366.713V122.107H359.072V102.449L351.456 110.148C348.987 112.648 347.6 116.017 347.6 119.532V161.921H341.306L320.078 210.946H48.5765L41.174 216.637H35.4382C29.9551 216.637 24.5961 218.264 20.0394 221.313L9.60059 228.304H84.8042C84.7997 228.313 84.7953 228.317 84.7864 228.326C83.7979 229.833 82.3219 232.834 81.2625 236.238C80.1721 239.74 79.587 243.459 79.587 247.32H82.2199C82.8006 262.67 95.4158 274.935 110.908 274.935C115.757 274.935 118.097 274.913 121.214 274.846C121.927 274.899 122.65 274.935 123.377 274.935C138.869 274.935 151.484 262.67 152.064 247.32H154.112C154.112 244.625 153.824 240.706 152.437 236.238C152.353 235.963 151.01 231.726 148.975 228.304H251.506C252.897 234.053 258.075 238.326 264.254 238.326H311.474V228.304H355.011V229.585C352.152 234.86 350.53 240.897 350.53 247.315H354.333C354.914 262.665 367.529 274.93 383.021 274.93C387.87 274.93 390.211 274.908 393.327 274.842C394.04 274.895 394.763 274.93 395.49 274.93C410.982 274.93 423.597 262.665 424.178 247.315H425.051C425.051 241.575 423.752 236.141 421.434 231.287H425.884L424.39 236.721H450.543C458.615 236.721 465.693 231.327 467.834 223.539L469.492 217.501H459.754V217.51Z" fill="white"/>
</mask>
<g mask="url(#mask19_3257_101390)">
<path opacity="0.26" d="M178.776 250.741C259.234 250.741 324.458 223.571 324.458 190.055C324.458 156.538 259.234 129.368 178.776 129.368C98.3178 129.368 33.0938 156.538 33.0938 190.055C33.0938 223.571 98.3178 250.741 178.776 250.741Z" fill="url(#paint1_radial_3257_101390)"/>
</g>
<path d="M421.93 127.13L402.276 160.707H393.752L414.213 125.751H414.412C417.023 125.751 419.563 126.23 421.93 127.13Z" fill="#EBF8FF"/>
<path d="M436.664 142.892L422.165 167.661L421.19 166.722C418.49 164.128 415.192 162.307 411.624 161.389L429.049 131.624C430.409 132.927 431.611 134.421 432.599 136.079L436.664 142.892Z" fill="#EBF8FF"/>
</g>
<defs>
<radialGradient id="paint0_radial_3257_101390" cx="0" cy="0" r="1" gradientUnits="userSpaceOnUse" gradientTransform="translate(100.961 85.6767) rotate(180) scale(87.7136)">
<stop stop-color="white"/>
<stop offset="1" stop-color="#F7F7F7" stop-opacity="0"/>
</radialGradient>
<radialGradient id="paint1_radial_3257_101390" cx="0" cy="0" r="1" gradientUnits="userSpaceOnUse" gradientTransform="translate(178.78 190.055) scale(145.682 60.6884)">
<stop stop-color="#1C3863"/>
<stop offset="0.1391" stop-color="#203B66" stop-opacity="0.8609"/>
<stop offset="0.2748" stop-color="#2C466E" stop-opacity="0.7252"/>
<stop offset="0.4092" stop-color="#3F577B" stop-opacity="0.5908"/>
<stop offset="0.5429" stop-color="#5B6F8D" stop-opacity="0.4571"/>
<stop offset="0.6761" stop-color="#7E8EA6" stop-opacity="0.3239"/>
<stop offset="0.8089" stop-color="#AAB4C3" stop-opacity="0.1911"/>
<stop offset="0.939" stop-color="#DDE0E5" stop-opacity="0.061"/>
<stop offset="1" stop-color="#F7F7F7" stop-opacity="0"/>
</radialGradient>
<clipPath id="clip0_3257_101390">
<rect width="592" height="380" fill="white"/>
</clipPath>
</defs>
</svg>
