<svg width="592" height="380" viewBox="0 0 592 380" fill="none" xmlns="http://www.w3.org/2000/svg">
<path opacity="0.26" d="M587.187 330.356H4.55957V337H587.187V330.356Z" fill="#00899E"/>
<path d="M234.217 332.787H82.5921C76.6449 332.787 71.8262 327.968 71.8262 322.021V54.2281C71.8262 48.2809 76.6449 43.4622 82.5921 43.4622H234.217C240.164 43.4622 244.983 48.2809 244.983 54.2281V322.025C244.983 327.968 240.164 332.787 234.217 332.787Z" fill="#00A866"/>
<path d="M246.495 332.787H94.8655C88.9183 332.787 84.0996 327.968 84.0996 322.021V54.2281C84.0996 48.2809 88.9183 43.4622 94.8655 43.4622H246.49C252.437 43.4622 257.256 48.2809 257.256 54.2281V322.025C257.256 327.968 252.437 332.787 246.495 332.787Z" fill="#CEE6F2"/>
<mask id="mask0_3257_100461" style="mask-type:luminance" maskUnits="userSpaceOnUse" x="84" y="43" width="174" height="290">
<path d="M246.495 332.787H94.8655C88.9183 332.787 84.0996 327.968 84.0996 322.021V54.2281C84.0996 48.2809 88.9183 43.4622 94.8655 43.4622H246.49C252.437 43.4622 257.256 48.2809 257.256 54.2281V322.025C257.256 327.968 252.437 332.787 246.495 332.787Z" fill="white"/>
</mask>
<g mask="url(#mask0_3257_100461)">
<path opacity="0.58" d="M313.888 232.177C428.028 232.177 520.557 226.327 520.557 219.111C520.557 211.894 428.028 206.044 313.888 206.044C199.747 206.044 107.218 211.894 107.218 219.111C107.218 226.327 199.747 232.177 313.888 232.177Z" fill="url(#paint0_radial_3257_100461)"/>
<path d="M336.578 126.688L371.312 150.738L361.291 154.877L231.451 147.758L222.005 130.796L236.927 125.498L266.576 126.248L336.578 126.688Z" fill="white"/>
<path d="M267.301 126.259L264.108 124.928L255.457 145.674L258.65 147.006L267.301 126.259Z" fill="#7B7B7C"/>
<path d="M190.199 170.135L183.864 178.051V202.385H441.131C441.131 202.385 441.131 187.323 435.868 170.135H190.199Z" fill="#7B7B7C"/>
<mask id="mask1_3257_100461" style="mask-type:luminance" maskUnits="userSpaceOnUse" x="183" y="120" width="258" height="70">
<path d="M439.358 184.87C437.876 176.322 435.157 165.721 430.164 155.613C430.164 155.613 412.894 149.688 374.967 148.054L345.083 128.805C336.434 123.233 326.366 120.27 316.079 120.27H208.577L214.829 125.925C214.829 125.925 197.262 136.347 191.01 169.098L183.864 178.03V184.866V189.658H204.481C208.437 179.21 218.532 171.782 230.361 171.782C242.195 171.782 252.289 179.21 256.241 189.658H370.588C374.544 179.21 384.639 171.782 396.468 171.782C407.574 171.782 417.15 178.326 421.555 187.767C422.091 188.917 423.25 189.654 424.522 189.654H440.098C439.893 188.159 439.649 186.556 439.358 184.87ZM266.24 146.991C260.236 146.76 254.307 145.549 248.691 143.414L226.322 134.901C231.381 129.65 238.36 126.683 245.65 126.683H323.573C330.766 126.683 337.724 129.237 343.214 133.885L363.107 150.738L266.24 146.991Z" fill="white"/>
</mask>
<g mask="url(#mask1_3257_100461)">
<path d="M439.322 188.36C437.776 178.814 434.931 166.976 429.707 155.692C429.707 155.692 411.647 149.078 371.982 147.252L340.73 125.76C331.685 119.538 321.154 116.231 310.397 116.231H197.967L204.507 122.549C204.507 122.549 186.134 134.186 179.594 170.753L172.122 180.726V188.36V193.714H193.684C197.819 182.051 208.376 173.755 220.75 173.755C233.123 173.755 243.68 182.051 247.815 193.714H367.403C371.538 182.051 382.094 173.755 394.468 173.755C406.842 173.755 417.398 182.051 421.533 193.714H440.094C439.884 192.028 439.627 190.238 439.322 188.36Z" fill="#7B7B7C"/>
</g>
<mask id="mask2_3257_100461" style="mask-type:luminance" maskUnits="userSpaceOnUse" x="183" y="120" width="258" height="70">
<path d="M439.358 184.87C437.876 176.322 435.157 165.721 430.164 155.613C430.164 155.613 412.894 149.688 374.967 148.054L345.083 128.805C336.434 123.233 326.366 120.27 316.079 120.27H208.577L214.829 125.925C214.829 125.925 197.262 136.347 191.01 169.098L183.864 178.03V184.866V189.658H204.481C208.437 179.21 218.532 171.782 230.361 171.782C242.195 171.782 252.289 179.21 256.241 189.658H370.588C374.544 179.21 384.639 171.782 396.468 171.782C407.574 171.782 417.15 178.326 421.555 187.767C422.091 188.917 423.25 189.654 424.522 189.654H440.098C439.893 188.159 439.649 186.556 439.358 184.87ZM266.24 146.991C260.236 146.76 254.307 145.549 248.691 143.414L226.322 134.901C231.381 129.65 238.36 126.683 245.65 126.683H323.573C330.766 126.683 337.724 129.237 343.214 133.885L363.107 150.738L266.24 146.991Z" fill="white"/>
</mask>
<g mask="url(#mask2_3257_100461)">
<path d="M240.072 211.225C251.906 211.225 267.355 179.006 271.311 189.453L381.419 208.371C385.375 197.923 400.929 221.878 412.758 221.878C424.592 221.878 433.558 201.727 437.514 212.175L455.961 195.144C455.757 193.636 454.72 186.343 454.428 184.656C452.947 176.108 450.228 165.508 445.235 155.4C445.235 155.4 427.964 149.474 390.037 147.841L360.153 128.592C351.505 123.019 341.436 120.057 331.149 120.057H223.647L229.899 125.712C229.899 125.712 212.432 137.284 206.18 170.035C204.978 174.601 203.775 179.167 202.573 183.728C201.361 185.632 200.146 187.541 198.935 189.445L216.201 208.049C220.157 197.61 228.243 211.225 240.072 211.225Z" fill="#CCCCCD"/>
</g>
<mask id="mask3_3257_100461" style="mask-type:luminance" maskUnits="userSpaceOnUse" x="183" y="120" width="258" height="70">
<path d="M439.358 184.87C437.876 176.322 435.157 165.721 430.164 155.613C430.164 155.613 412.894 149.688 374.967 148.054L345.083 128.805C336.434 123.233 326.366 120.27 316.079 120.27H208.577L214.829 125.925C214.829 125.925 197.262 136.347 191.01 169.098L183.864 178.03V184.866V189.658H204.481C208.437 179.21 218.532 171.782 230.361 171.782C242.195 171.782 252.289 179.21 256.241 189.658H370.588C374.544 179.21 384.639 171.782 396.468 171.782C407.574 171.782 417.15 178.326 421.555 187.767C422.091 188.917 423.25 189.654 424.522 189.654H440.098C439.893 188.159 439.649 186.556 439.358 184.87ZM266.24 146.991C260.236 146.76 254.307 145.549 248.691 143.414L226.322 134.901C231.381 129.65 238.36 126.683 245.65 126.683H323.573C330.766 126.683 337.724 129.237 343.214 133.885L363.107 150.738L266.24 146.991Z" fill="white"/>
</mask>
<g mask="url(#mask3_3257_100461)">
<path d="M370.588 189.998V172.122H291.841C281.167 172.122 270.893 176.2 263.121 183.519L256.241 189.998" fill="#DADADA"/>
</g>
<mask id="mask4_3257_100461" style="mask-type:luminance" maskUnits="userSpaceOnUse" x="183" y="120" width="258" height="70">
<path d="M439.358 184.87C437.876 176.322 435.157 165.721 430.164 155.613C430.164 155.613 412.894 149.688 374.967 148.054L345.083 128.805C336.434 123.233 326.366 120.27 316.079 120.27H208.577L214.829 125.925C214.829 125.925 197.262 136.347 191.01 169.098L183.864 178.03V184.866V189.658H204.481C208.437 179.21 218.532 171.782 230.361 171.782C242.195 171.782 252.289 179.21 256.241 189.658H370.588C374.544 179.21 384.639 171.782 396.468 171.782C407.574 171.782 417.15 178.326 421.555 187.767C422.091 188.917 423.25 189.654 424.522 189.654H440.098C439.893 188.159 439.649 186.556 439.358 184.87ZM266.24 146.991C260.236 146.76 254.307 145.549 248.691 143.414L226.322 134.901C231.381 129.65 238.36 126.683 245.65 126.683H323.573C330.766 126.683 337.724 129.237 343.214 133.885L363.107 150.738L266.24 146.991Z" fill="white"/>
</mask>
<g mask="url(#mask4_3257_100461)">
<path d="M195.767 152.428L212.362 149.975L213.373 154.881L192.016 163.974C192.395 162.07 192.926 159.953 193.689 157.683C194.338 155.735 195.052 153.979 195.767 152.428Z" fill="white"/>
<mask id="mask5_3257_100461" style="mask-type:luminance" maskUnits="userSpaceOnUse" x="192" y="149" width="22" height="15">
<path d="M195.767 152.428L212.362 149.975L213.373 154.881L192.016 163.974C192.395 162.07 192.926 159.953 193.689 157.683C194.338 155.735 195.052 153.979 195.767 152.428Z" fill="white"/>
</mask>
<g mask="url(#mask5_3257_100461)">
<path d="M193.797 150.424L210.393 147.971L211.403 152.877L190.046 161.97C190.425 160.066 190.957 157.949 191.719 155.679C192.364 153.731 193.083 151.975 193.797 150.424Z" fill="white"/>
</g>
</g>
<mask id="mask6_3257_100461" style="mask-type:luminance" maskUnits="userSpaceOnUse" x="183" y="120" width="258" height="70">
<path d="M439.358 184.87C437.876 176.322 435.157 165.721 430.164 155.613C430.164 155.613 412.894 149.688 374.967 148.054L345.083 128.805C336.434 123.233 326.366 120.27 316.079 120.27H208.577L214.829 125.925C214.829 125.925 197.262 136.347 191.01 169.098L183.864 178.03V184.866V189.658H204.481C208.437 179.21 218.532 171.782 230.361 171.782C242.195 171.782 252.289 179.21 256.241 189.658H370.588C374.544 179.21 384.639 171.782 396.468 171.782C407.574 171.782 417.15 178.326 421.555 187.767C422.091 188.917 423.25 189.654 424.522 189.654H440.098C439.893 188.159 439.649 186.556 439.358 184.87ZM266.24 146.991C260.236 146.76 254.307 145.549 248.691 143.414L226.322 134.901C231.381 129.65 238.36 126.683 245.65 126.683H323.573C330.766 126.683 337.724 129.237 343.214 133.885L363.107 150.738L266.24 146.991Z" fill="white"/>
</mask>
<g mask="url(#mask6_3257_100461)">
<path d="M202.729 162.427L189.493 167.621L188.504 165.103L204.258 158.92C204.807 160.31 204.119 161.878 202.729 162.427Z" fill="#7B7B7C"/>
</g>
<mask id="mask7_3257_100461" style="mask-type:luminance" maskUnits="userSpaceOnUse" x="183" y="120" width="258" height="70">
<path d="M439.358 184.87C437.876 176.322 435.157 165.721 430.164 155.613C430.164 155.613 412.894 149.688 374.967 148.054L345.083 128.805C336.434 123.233 326.366 120.27 316.079 120.27H208.577L214.829 125.925C214.829 125.925 197.262 136.347 191.01 169.098L183.864 178.03V184.866V189.658H204.481C208.437 179.21 218.532 171.782 230.361 171.782C242.195 171.782 252.289 179.21 256.241 189.658H370.588C374.544 179.21 384.639 171.782 396.468 171.782C407.574 171.782 417.15 178.326 421.555 187.767C422.091 188.917 423.25 189.654 424.522 189.654H440.098C439.893 188.159 439.649 186.556 439.358 184.87ZM266.24 146.991C260.236 146.76 254.307 145.549 248.691 143.414L226.322 134.901C231.381 129.65 238.36 126.683 245.65 126.683H323.573C330.766 126.683 337.724 129.237 343.214 133.885L363.107 150.738L266.24 146.991Z" fill="white"/>
</mask>
<g mask="url(#mask7_3257_100461)">
<path d="M228.022 163.979C219.735 163.979 212.115 166.828 206.076 171.59C205.244 174.67 202.943 183.637 202.695 189.667L194.962 192.433L193.463 191.436C192.866 194.015 192.539 196.699 192.539 199.461C192.539 219.054 208.424 234.939 228.017 234.939C247.61 234.939 263.496 219.054 263.496 199.461C263.5 179.864 247.615 163.979 228.022 163.979Z" fill="#E5E5E6"/>
<path d="M202.695 189.667C202.939 183.641 205.239 174.675 206.076 171.59C199.85 176.5 195.314 183.449 193.467 191.431L194.966 192.429L202.695 189.667Z" fill="#D0D0D0"/>
</g>
<path d="M242.796 199.457C242.796 188.386 233.821 179.406 222.746 179.406C211.671 179.406 202.695 188.381 202.695 199.457C202.695 210.532 211.671 219.507 222.746 219.507C227.704 219.507 228.902 219.477 233.551 219.355C239.224 219.207 242.796 205.574 242.796 199.457Z" fill="#7B7B7C"/>
<path d="M231.451 219.507C242.524 219.507 251.501 210.53 251.501 199.457C251.501 188.383 242.524 179.406 231.451 179.406C220.377 179.406 211.4 188.383 211.4 199.457C211.4 210.53 220.377 219.507 231.451 219.507Z" fill="#A2A2A2"/>
<path d="M231.451 214.54C239.781 214.54 246.534 207.787 246.534 199.457C246.534 191.126 239.781 184.373 231.451 184.373C223.12 184.373 216.367 191.126 216.367 199.457C216.367 207.787 223.12 214.54 231.451 214.54Z" fill="white"/>
<mask id="mask8_3257_100461" style="mask-type:luminance" maskUnits="userSpaceOnUse" x="216" y="184" width="31" height="31">
<path d="M231.451 214.54C239.781 214.54 246.534 207.787 246.534 199.457C246.534 191.126 239.781 184.373 231.451 184.373C223.12 184.373 216.367 191.126 216.367 199.457C216.367 207.787 223.12 214.54 231.451 214.54Z" fill="white"/>
</mask>
<g mask="url(#mask8_3257_100461)">
<path d="M247.218 205.299L234.492 199.304C232.862 198.537 231.011 198.76 229.634 199.731L237.332 203.36L235.115 207.569L222.741 201.74L223.756 199.587C226.009 194.803 231.734 192.747 236.518 195L247.972 200.398" fill="#A2A2A2"/>
</g>
<path d="M234.923 160.471H222.005V154.141C222.005 151.509 224.135 149.379 226.767 149.379H234.923V160.471Z" fill="#D0D0D0"/>
<path d="M257.514 145.335L250.386 152.698C249.096 154.132 248.382 155.992 248.382 157.918V180.657" stroke="#7B7B7C" stroke-width="2.2906" stroke-miterlimit="10"/>
<path d="M202.529 202.367C202.412 201.413 202.346 200.441 202.346 199.457C202.346 186.212 213.478 175.476 227.207 175.476C240.935 175.476 252.067 186.212 252.067 199.457C252.067 200.441 252.006 201.413 251.884 202.367H375.063C374.945 201.413 374.88 200.441 374.88 199.457C374.88 186.212 386.012 175.476 399.74 175.476C413.469 175.476 424.601 186.212 424.601 199.457C424.601 200.441 424.54 201.413 424.418 202.367H445.854C445.854 202.367 445.854 197.287 444.786 189.667H426.387C422.287 179.219 411.822 171.79 399.553 171.79C387.288 171.79 376.819 179.219 372.719 189.667H254.167C250.068 179.219 239.602 171.79 227.333 171.79C215.064 171.79 204.599 179.219 200.499 189.667H179.124V202.367H202.529Z" fill="#7B7B7C"/>
</g>
<path opacity="0.61" d="M181.306 286.586C234.426 286.586 277.489 243.524 277.489 190.403C277.489 137.283 234.426 94.2202 181.306 94.2202C128.186 94.2202 85.123 137.283 85.123 190.403C85.123 243.524 128.186 286.586 181.306 286.586Z" fill="url(#paint1_radial_3257_100461)"/>
<mask id="mask9_3257_100461" style="mask-type:luminance" maskUnits="userSpaceOnUse" x="84" y="43" width="318" height="290">
<path d="M401.138 43.4622H84.1035V332.787H401.138V43.4622Z" fill="white"/>
</mask>
<g mask="url(#mask9_3257_100461)">
<path d="M222.575 161.648L257.308 185.698L247.287 189.837L117.447 182.718L108.001 165.76L122.923 160.458L152.568 161.208L222.575 161.648Z" fill="#D4F1FF"/>
<path d="M193.797 192.442L189.676 189.144L214.114 158.646L220.213 159.473L193.797 192.442Z" fill="#EBF8FF"/>
<path d="M168.597 193.34L158.415 185.924L178.705 158.075L193.475 159.195L168.597 193.34Z" fill="#EBF8FF"/>
<path d="M193.135 161.648H189.676V183.467H193.135V161.648Z" fill="#193157"/>
<path d="M153.288 161.221L150.095 159.89L141.443 180.636L144.636 181.968L153.288 161.221Z" fill="#193157"/>
<path d="M76.1914 205.099L69.8564 213.015V237.349H327.123C327.123 237.349 327.123 222.287 321.86 205.099H76.1914Z" fill="#193157"/>
<mask id="mask10_3257_100461" style="mask-type:luminance" maskUnits="userSpaceOnUse" x="69" y="155" width="258" height="70">
<path d="M325.354 219.834C323.873 211.286 321.154 200.685 316.161 190.577C316.161 190.577 298.89 184.652 260.963 183.018L231.079 163.769C222.431 158.197 212.362 155.234 202.075 155.234H94.5688L100.821 160.89C100.821 160.89 83.2539 171.311 77.0018 204.062L69.8564 212.994V219.83V224.622H90.4733C94.4294 214.174 104.524 206.746 116.353 206.746C128.187 206.746 138.282 214.174 142.233 224.622H256.58C260.536 214.174 270.631 206.746 282.46 206.746C293.566 206.746 303.143 213.29 307.547 222.731C308.083 223.882 309.242 224.618 310.514 224.618H326.09C325.89 223.124 325.646 221.52 325.354 219.834ZM152.237 181.955C146.233 181.724 140.303 180.513 134.687 178.378L112.319 169.865C117.377 164.615 124.357 161.648 131.646 161.648H209.569C216.763 161.648 223.721 164.201 229.21 168.85L249.104 185.702L152.237 181.955Z" fill="white"/>
</mask>
<g mask="url(#mask10_3257_100461)">
<path d="M325.319 223.32C323.772 213.774 320.927 201.936 315.703 190.652C315.703 190.652 297.644 184.038 257.979 182.212L226.727 160.72C217.682 154.498 207.151 151.191 196.394 151.191H83.9594L90.4991 157.509C90.4991 157.509 72.1261 169.146 65.5864 205.713L58.1143 215.686V223.32V228.674H79.6766C83.8113 217.011 94.3681 208.715 106.742 208.715C119.115 208.715 129.672 217.011 133.807 228.674H253.395C257.53 217.011 268.087 208.715 280.46 208.715C292.834 208.715 303.391 217.011 307.525 228.674H326.086C325.881 226.992 325.624 225.202 325.319 223.32Z" fill="#193157"/>
</g>
<mask id="mask11_3257_100461" style="mask-type:luminance" maskUnits="userSpaceOnUse" x="69" y="155" width="258" height="70">
<path d="M325.354 219.834C323.873 211.286 321.154 200.685 316.161 190.577C316.161 190.577 298.89 184.652 260.963 183.018L231.079 163.769C222.431 158.197 212.362 155.234 202.075 155.234H94.5688L100.821 160.89C100.821 160.89 83.2539 171.311 77.0018 204.062L69.8564 212.994V219.83V224.622H90.4733C94.4294 214.174 104.524 206.746 116.353 206.746C128.187 206.746 138.282 214.174 142.233 224.622H256.58C260.536 214.174 270.631 206.746 282.46 206.746C293.566 206.746 303.143 213.29 307.547 222.731C308.083 223.882 309.242 224.618 310.514 224.618H326.09C325.89 223.124 325.646 221.52 325.354 219.834ZM152.237 181.955C146.233 181.724 140.303 180.513 134.687 178.378L112.319 169.865C117.377 164.615 124.357 161.648 131.646 161.648H209.569C216.763 161.648 223.721 164.201 229.21 168.85L249.104 185.702L152.237 181.955Z" fill="white"/>
</mask>
<g mask="url(#mask11_3257_100461)">
<path d="M126.07 246.185C137.903 246.185 153.352 213.965 157.309 224.413L267.416 243.331C271.372 232.883 286.926 256.837 298.755 256.837C310.589 256.837 319.555 236.687 323.511 247.134L341.959 230.103C341.754 228.596 340.717 221.302 340.425 219.616C338.944 211.068 336.225 200.468 331.232 190.36C331.232 190.36 313.961 184.434 276.034 182.8L246.15 163.552C237.502 157.979 227.433 155.016 217.146 155.016H109.644L115.896 160.672C115.896 160.672 98.4293 172.244 92.1772 204.994C90.9747 209.56 89.7722 214.126 88.5697 218.688C87.3584 220.592 86.1429 222.5 84.9316 224.404L102.198 243.008C106.15 232.569 114.241 246.185 126.07 246.185Z" fill="#3E7BBD"/>
</g>
<mask id="mask12_3257_100461" style="mask-type:luminance" maskUnits="userSpaceOnUse" x="69" y="155" width="258" height="70">
<path d="M325.354 219.834C323.873 211.286 321.154 200.685 316.161 190.577C316.161 190.577 298.89 184.652 260.963 183.018L231.079 163.769C222.431 158.197 212.362 155.234 202.075 155.234H94.5688L100.821 160.89C100.821 160.89 83.2539 171.311 77.0018 204.062L69.8564 212.994V219.83V224.622H90.4733C94.4294 214.174 104.524 206.746 116.353 206.746C128.187 206.746 138.282 214.174 142.233 224.622H256.58C260.536 214.174 270.631 206.746 282.46 206.746C293.566 206.746 303.143 213.29 307.547 222.731C308.083 223.882 309.242 224.618 310.514 224.618H326.09C325.89 223.124 325.646 221.52 325.354 219.834ZM152.237 181.955C146.233 181.724 140.303 180.513 134.687 178.378L112.319 169.865C117.377 164.615 124.357 161.648 131.646 161.648H209.569C216.763 161.648 223.721 164.201 229.21 168.85L249.104 185.702L152.237 181.955Z" fill="white"/>
</mask>
<g mask="url(#mask12_3257_100461)">
<path d="M308.951 200.398H319.991V197.692H306.245C306.245 199.187 307.456 200.398 308.951 200.398Z" fill="#193157"/>
</g>
<mask id="mask13_3257_100461" style="mask-type:luminance" maskUnits="userSpaceOnUse" x="69" y="155" width="258" height="70">
<path d="M325.354 219.834C323.873 211.286 321.154 200.685 316.161 190.577C316.161 190.577 298.89 184.652 260.963 183.018L231.079 163.769C222.431 158.197 212.362 155.234 202.075 155.234H94.5688L100.821 160.89C100.821 160.89 83.2539 171.311 77.0018 204.062L69.8564 212.994V219.83V224.622H90.4733C94.4294 214.174 104.524 206.746 116.353 206.746C128.187 206.746 138.282 214.174 142.233 224.622H256.58C260.536 214.174 270.631 206.746 282.46 206.746C293.566 206.746 303.143 213.29 307.547 222.731C308.083 223.882 309.242 224.618 310.514 224.618H326.09C325.89 223.124 325.646 221.52 325.354 219.834ZM152.237 181.955C146.233 181.724 140.303 180.513 134.687 178.378L112.319 169.865C117.377 164.615 124.357 161.648 131.646 161.648H209.569C216.763 161.648 223.721 164.201 229.21 168.85L249.104 185.702L152.237 181.955Z" fill="white"/>
</mask>
<g mask="url(#mask13_3257_100461)">
<path d="M322.544 190.242H300.354L298.659 197.81H322.544" fill="#D4F1FF"/>
<mask id="mask14_3257_100461" style="mask-type:luminance" maskUnits="userSpaceOnUse" x="298" y="190" width="25" height="8">
<path d="M322.544 190.242H300.354L298.659 197.81H322.544" fill="white"/>
</mask>
<g mask="url(#mask14_3257_100461)">
<path d="M325.593 188.734H303.408L301.713 196.302H325.593" fill="white"/>
</g>
</g>
<mask id="mask15_3257_100461" style="mask-type:luminance" maskUnits="userSpaceOnUse" x="69" y="155" width="258" height="70">
<path d="M325.354 219.834C323.873 211.286 321.154 200.685 316.161 190.577C316.161 190.577 298.89 184.652 260.963 183.018L231.079 163.769C222.431 158.197 212.362 155.234 202.075 155.234H94.5688L100.821 160.89C100.821 160.89 83.2539 171.311 77.0018 204.062L69.8564 212.994V219.83V224.622H90.4733C94.4294 214.174 104.524 206.746 116.353 206.746C128.187 206.746 138.282 214.174 142.233 224.622H256.58C260.536 214.174 270.631 206.746 282.46 206.746C293.566 206.746 303.143 213.29 307.547 222.731C308.083 223.882 309.242 224.618 310.514 224.618H326.09C325.89 223.124 325.646 221.52 325.354 219.834ZM152.237 181.955C146.233 181.724 140.303 180.513 134.687 178.378L112.319 169.865C117.377 164.615 124.357 161.648 131.646 161.648H209.569C216.763 161.648 223.721 164.201 229.21 168.85L249.104 185.702L152.237 181.955Z" fill="white"/>
</mask>
<g mask="url(#mask15_3257_100461)">
<path d="M256.585 224.962V207.086H177.834C167.159 207.086 156.886 211.164 149.113 218.483L142.233 224.962" fill="#69A4C2"/>
</g>
<mask id="mask16_3257_100461" style="mask-type:luminance" maskUnits="userSpaceOnUse" x="69" y="155" width="258" height="70">
<path d="M325.354 219.834C323.873 211.286 321.154 200.685 316.161 190.577C316.161 190.577 298.89 184.652 260.963 183.018L231.079 163.769C222.431 158.197 212.362 155.234 202.075 155.234H94.5688L100.821 160.89C100.821 160.89 83.2539 171.311 77.0018 204.062L69.8564 212.994V219.83V224.622H90.4733C94.4294 214.174 104.524 206.746 116.353 206.746C128.187 206.746 138.282 214.174 142.233 224.622H256.58C260.536 214.174 270.631 206.746 282.46 206.746C293.566 206.746 303.143 213.29 307.547 222.731C308.083 223.882 309.242 224.618 310.514 224.618H326.09C325.89 223.124 325.646 221.52 325.354 219.834ZM152.237 181.955C146.233 181.724 140.303 180.513 134.687 178.378L112.319 169.865C117.377 164.615 124.357 161.648 131.646 161.648H209.569C216.763 161.648 223.721 164.201 229.21 168.85L249.104 185.702L152.237 181.955Z" fill="white"/>
</mask>
<g mask="url(#mask16_3257_100461)">
<path d="M200.393 210.022H191.928V224.627H200.393V210.022Z" fill="#91C5DE"/>
</g>
<mask id="mask17_3257_100461" style="mask-type:luminance" maskUnits="userSpaceOnUse" x="69" y="155" width="258" height="70">
<path d="M325.354 219.834C323.873 211.286 321.154 200.685 316.161 190.577C316.161 190.577 298.89 184.652 260.963 183.018L231.079 163.769C222.431 158.197 212.362 155.234 202.075 155.234H94.5688L100.821 160.89C100.821 160.89 83.2539 171.311 77.0018 204.062L69.8564 212.994V219.83V224.622H90.4733C94.4294 214.174 104.524 206.746 116.353 206.746C128.187 206.746 138.282 214.174 142.233 224.622H256.58C260.536 214.174 270.631 206.746 282.46 206.746C293.566 206.746 303.143 213.29 307.547 222.731C308.083 223.882 309.242 224.618 310.514 224.618H326.09C325.89 223.124 325.646 221.52 325.354 219.834ZM152.237 181.955C146.233 181.724 140.303 180.513 134.687 178.378L112.319 169.865C117.377 164.615 124.357 161.648 131.646 161.648H209.569C216.763 161.648 223.721 164.201 229.21 168.85L249.104 185.702L152.237 181.955Z" fill="white"/>
</mask>
<g mask="url(#mask17_3257_100461)">
<path d="M284.996 269.899C304.59 269.899 320.474 254.015 320.474 234.421C320.474 214.827 304.59 198.943 284.996 198.943C265.402 198.943 249.518 214.827 249.518 234.421C249.518 254.015 265.402 269.899 284.996 269.899Z" fill="#91C5DE"/>
</g>
<mask id="mask18_3257_100461" style="mask-type:luminance" maskUnits="userSpaceOnUse" x="69" y="155" width="258" height="70">
<path d="M325.354 219.834C323.873 211.286 321.154 200.685 316.161 190.577C316.161 190.577 298.89 184.652 260.963 183.018L231.079 163.769C222.431 158.197 212.362 155.234 202.075 155.234H94.5688L100.821 160.89C100.821 160.89 83.2539 171.311 77.0018 204.062L69.8564 212.994V219.83V224.622H90.4733C94.4294 214.174 104.524 206.746 116.353 206.746C128.187 206.746 138.282 214.174 142.233 224.622H256.58C260.536 214.174 270.631 206.746 282.46 206.746C293.566 206.746 303.143 213.29 307.547 222.731C308.083 223.882 309.242 224.618 310.514 224.618H326.09C325.89 223.124 325.646 221.52 325.354 219.834ZM152.237 181.955C146.233 181.724 140.303 180.513 134.687 178.378L112.319 169.865C117.377 164.615 124.357 161.648 131.646 161.648H209.569C216.763 161.648 223.721 164.201 229.21 168.85L249.104 185.702L152.237 181.955Z" fill="white"/>
</mask>
<g mask="url(#mask18_3257_100461)">
<path d="M324.222 213.094H316.889L311.892 226.574H327.123L324.222 213.094Z" fill="#D1F0FF"/>
</g>
<mask id="mask19_3257_100461" style="mask-type:luminance" maskUnits="userSpaceOnUse" x="69" y="155" width="258" height="70">
<path d="M325.354 219.834C323.873 211.286 321.154 200.685 316.161 190.577C316.161 190.577 298.89 184.652 260.963 183.018L231.079 163.769C222.431 158.197 212.362 155.234 202.075 155.234H94.5688L100.821 160.89C100.821 160.89 83.2539 171.311 77.0018 204.062L69.8564 212.994V219.83V224.622H90.4733C94.4294 214.174 104.524 206.746 116.353 206.746C128.187 206.746 138.282 214.174 142.233 224.622H256.58C260.536 214.174 270.631 206.746 282.46 206.746C293.566 206.746 303.143 213.29 307.547 222.731C308.083 223.882 309.242 224.618 310.514 224.618H326.09C325.89 223.124 325.646 221.52 325.354 219.834ZM152.237 181.955C146.233 181.724 140.303 180.513 134.687 178.378L112.319 169.865C117.377 164.615 124.357 161.648 131.646 161.648H209.569C216.763 161.648 223.721 164.201 229.21 168.85L249.104 185.702L152.237 181.955Z" fill="white"/>
</mask>
<g mask="url(#mask19_3257_100461)">
<path d="M81.764 187.393L98.3594 184.94L99.3702 189.845L78.0127 198.938C78.3917 197.034 78.9233 194.917 79.6857 192.647C80.3349 190.695 81.0495 188.944 81.764 187.393Z" fill="#D4F1FF"/>
<mask id="mask20_3257_100461" style="mask-type:luminance" maskUnits="userSpaceOnUse" x="78" y="184" width="22" height="15">
<path d="M81.764 187.393L98.3594 184.94L99.3702 189.845L78.0127 198.938C78.3917 197.034 78.9233 194.917 79.6857 192.647C80.3349 190.695 81.0495 188.944 81.764 187.393Z" fill="white"/>
</mask>
<g mask="url(#mask20_3257_100461)">
<path d="M79.7904 185.388L96.3858 182.935L97.3966 187.841L76.0391 196.934C76.4181 195.03 76.9497 192.913 77.7121 190.643C78.3613 188.691 79.0758 186.939 79.7904 185.388Z" fill="white"/>
</g>
</g>
<mask id="mask21_3257_100461" style="mask-type:luminance" maskUnits="userSpaceOnUse" x="69" y="155" width="258" height="70">
<path d="M325.354 219.834C323.873 211.286 321.154 200.685 316.161 190.577C316.161 190.577 298.89 184.652 260.963 183.018L231.079 163.769C222.431 158.197 212.362 155.234 202.075 155.234H94.5688L100.821 160.89C100.821 160.89 83.2539 171.311 77.0018 204.062L69.8564 212.994V219.83V224.622H90.4733C94.4294 214.174 104.524 206.746 116.353 206.746C128.187 206.746 138.282 214.174 142.233 224.622H256.58C260.536 214.174 270.631 206.746 282.46 206.746C293.566 206.746 303.143 213.29 307.547 222.731C308.083 223.882 309.242 224.618 310.514 224.618H326.09C325.89 223.124 325.646 221.52 325.354 219.834ZM152.237 181.955C146.233 181.724 140.303 180.513 134.687 178.378L112.319 169.865C117.377 164.615 124.357 161.648 131.646 161.648H209.569C216.763 161.648 223.721 164.201 229.21 168.85L249.104 185.702L152.237 181.955Z" fill="white"/>
</mask>
<g mask="url(#mask21_3257_100461)">
<path d="M88.7263 197.387L75.49 202.581L74.501 200.062L90.2555 193.88C90.8002 195.27 90.1161 196.843 88.7263 197.387Z" fill="#193157"/>
</g>
<mask id="mask22_3257_100461" style="mask-type:luminance" maskUnits="userSpaceOnUse" x="69" y="155" width="258" height="70">
<path d="M325.354 219.834C323.873 211.286 321.154 200.685 316.161 190.577C316.161 190.577 298.89 184.652 260.963 183.018L231.079 163.769C222.431 158.197 212.362 155.234 202.075 155.234H94.5688L100.821 160.89C100.821 160.89 83.2539 171.311 77.0018 204.062L69.8564 212.994V219.83V224.622H90.4733C94.4294 214.174 104.524 206.746 116.353 206.746C128.187 206.746 138.282 214.174 142.233 224.622H256.58C260.536 214.174 270.631 206.746 282.46 206.746C293.566 206.746 303.143 213.29 307.547 222.731C308.083 223.882 309.242 224.618 310.514 224.618H326.09C325.89 223.124 325.646 221.52 325.354 219.834ZM152.237 181.955C146.233 181.724 140.303 180.513 134.687 178.378L112.319 169.865C117.377 164.615 124.357 161.648 131.646 161.648H209.569C216.763 161.648 223.721 164.201 229.21 168.85L249.104 185.702L152.237 181.955Z" fill="white"/>
</mask>
<g mask="url(#mask22_3257_100461)">
<path d="M114.018 198.938C105.731 198.938 98.1107 201.788 92.0721 206.55C91.2399 209.63 88.9394 218.597 88.6911 224.627L80.9576 227.393L79.4588 226.396C78.8619 228.975 78.5352 231.659 78.5352 234.421C78.5352 254.014 94.4204 269.899 114.013 269.899C133.606 269.899 149.492 254.014 149.492 234.421C149.496 214.824 133.611 198.938 114.018 198.938Z" fill="#91C5DE"/>
<path d="M88.6908 224.627C88.9348 218.601 91.2352 209.635 92.0718 206.55C85.8458 211.46 81.3102 218.409 79.4629 226.391L80.9617 227.389L88.6908 224.627Z" fill="#7FACC2"/>
</g>
<path d="M128.787 234.421C128.787 223.35 119.812 214.37 108.737 214.37C97.6661 214.37 88.6865 223.346 88.6865 234.421C88.6865 245.496 97.6617 254.471 108.737 254.471C113.695 254.471 114.893 254.441 119.542 254.319C125.215 254.171 128.787 240.534 128.787 234.421Z" fill="#193157"/>
<path d="M117.447 254.471C128.521 254.471 137.497 245.495 137.497 234.421C137.497 223.347 128.521 214.37 117.447 214.37C106.373 214.37 97.3965 223.347 97.3965 234.421C97.3965 245.495 106.373 254.471 117.447 254.471Z" fill="#435C85"/>
<path d="M117.447 249.505C125.777 249.505 132.53 242.751 132.53 234.421C132.53 226.091 125.777 219.337 117.447 219.337C109.116 219.337 102.363 226.091 102.363 234.421C102.363 242.751 109.116 249.505 117.447 249.505Z" fill="#D4F1FF"/>
<mask id="mask23_3257_100461" style="mask-type:luminance" maskUnits="userSpaceOnUse" x="102" y="219" width="31" height="31">
<path d="M117.447 249.505C125.777 249.505 132.53 242.751 132.53 234.421C132.53 226.091 125.777 219.337 117.447 219.337C109.116 219.337 102.363 226.091 102.363 234.421C102.363 242.751 109.116 249.505 117.447 249.505Z" fill="white"/>
</mask>
<g mask="url(#mask23_3257_100461)">
<path d="M133.214 240.259L120.488 234.264C118.858 233.497 117.007 233.72 115.63 234.691L123.329 238.32L121.111 242.529L108.737 236.7L109.752 234.547C112.005 229.763 117.73 227.707 122.514 229.96L133.968 235.358" fill="#435C85"/>
</g>
<path d="M297.713 234.421C297.713 223.35 288.738 214.37 277.663 214.37C266.588 214.37 257.612 223.346 257.612 234.421C257.612 245.496 266.588 254.471 277.663 254.471C282.621 254.471 283.819 254.441 288.468 254.319C294.136 254.171 297.713 240.534 297.713 234.421Z" fill="#193157"/>
<path d="M286.368 254.471C297.441 254.471 306.418 245.495 306.418 234.421C306.418 223.347 297.441 214.37 286.368 214.37C275.294 214.37 266.317 223.347 266.317 234.421C266.317 245.495 275.294 254.471 286.368 254.471Z" fill="#435C85"/>
<path d="M286.368 249.505C294.698 249.505 301.451 242.751 301.451 234.421C301.451 226.091 294.698 219.337 286.368 219.337C278.037 219.337 271.284 226.091 271.284 234.421C271.284 242.751 278.037 249.505 286.368 249.505Z" fill="#D4F1FF"/>
<mask id="mask24_3257_100461" style="mask-type:luminance" maskUnits="userSpaceOnUse" x="271" y="219" width="31" height="31">
<path d="M286.368 249.505C294.698 249.505 301.451 242.751 301.451 234.421C301.451 226.091 294.698 219.337 286.368 219.337C278.037 219.337 271.284 226.091 271.284 234.421C271.284 242.751 278.037 249.505 286.368 249.505Z" fill="white"/>
</mask>
<g mask="url(#mask24_3257_100461)">
<path d="M302.135 240.259L289.409 234.264C287.779 233.497 285.928 233.72 284.551 234.691L292.249 238.32L290.032 242.529L277.658 236.7L278.673 234.547C280.926 229.763 286.651 227.707 291.435 229.96L302.889 235.358" fill="#435C85"/>
</g>
<path d="M144.556 193.283H158.698V191.562C158.698 190.612 157.927 189.841 156.977 189.841H148.002C146.098 189.837 144.556 191.379 144.556 193.283Z" fill="#193157"/>
<path d="M196.494 193.283H210.637V191.562C210.637 190.612 209.865 189.841 208.916 189.841H199.94C198.036 189.837 196.494 191.379 196.494 193.283Z" fill="#193157"/>
<path d="M230.97 184.277H247.282V178.003C247.282 176.322 245.919 174.962 244.241 174.962H237.052C233.693 174.962 230.966 177.685 230.966 181.049V184.277H230.97Z" fill="#193157"/>
<path d="M120.919 195.431H108.001V189.1C108.001 186.469 110.132 184.338 112.763 184.338H120.919V195.431Z" fill="#69A4C2"/>
<path d="M191.405 182.718V237.331" stroke="#193157" stroke-width="2.2906" stroke-miterlimit="10"/>
<path d="M143.505 180.295L136.377 187.658C135.088 189.092 134.373 190.952 134.373 192.878V215.617" stroke="#193157" stroke-width="2.2906" stroke-miterlimit="10"/>
<path d="M250.001 186.465L246.381 181.698L244.568 183.075L246.812 186.025C247.57 187.031 248.999 187.227 250.001 186.465Z" fill="#193157"/>
<path d="M88.5211 237.331C88.4035 236.377 88.3381 235.406 88.3381 234.421C88.3381 221.176 99.47 210.441 113.199 210.441C126.927 210.441 138.063 221.176 138.063 234.421C138.063 235.406 138.003 236.377 137.881 237.331H261.059C260.941 236.377 260.876 235.406 260.876 234.421C260.876 221.176 272.008 210.441 285.736 210.441C299.465 210.441 310.597 221.176 310.597 234.421C310.597 235.406 310.536 236.377 310.414 237.331H331.85C331.85 237.331 331.85 232.251 330.782 224.631H312.383C308.283 214.183 297.818 206.755 285.549 206.755C273.284 206.755 262.815 214.183 258.715 224.631H140.164C136.064 214.183 125.598 206.755 113.329 206.755C101.06 206.755 90.595 214.183 86.4952 224.631H65.1289V237.331H88.5211Z" fill="#193157"/>
</g>
<mask id="mask25_3257_100461" style="mask-type:luminance" maskUnits="userSpaceOnUse" x="84" y="43" width="174" height="290">
<path d="M257.26 43.4622H84.1035V332.787H257.26V43.4622Z" fill="white"/>
</mask>
<g mask="url(#mask25_3257_100461)">
<path opacity="0.26" d="M305.539 248.167H66.502V254.811H305.539V248.167Z" fill="#00899E"/>
</g>
<mask id="mask26_3257_100461" style="mask-type:luminance" maskUnits="userSpaceOnUse" x="84" y="43" width="174" height="290">
<path d="M257.26 43.4622H84.1035V332.787H257.26V43.4622Z" fill="white"/>
</mask>
<g mask="url(#mask26_3257_100461)">
<path opacity="0.26" d="M223.367 286.586H-15.6699V293.23H223.367V286.586Z" fill="#00899E"/>
</g>
<mask id="mask27_3257_100461" style="mask-type:luminance" maskUnits="userSpaceOnUse" x="84" y="43" width="174" height="290">
<path d="M257.26 43.4622H84.1035V332.787H257.26V43.4622Z" fill="white"/>
</mask>
<g mask="url(#mask27_3257_100461)">
<path d="M113.421 198.843L148.154 222.897L138.134 227.032L8.29344 219.913L-1.15234 202.955L13.7701 197.653L43.4188 198.402L113.421 198.843Z" fill="white"/>
<path d="M84.6441 229.642L80.5225 226.339L104.96 195.841L111.064 196.668L84.6441 229.642Z" fill="white"/>
<path d="M59.4434 230.535L49.2656 223.119L69.5514 195.27L84.3213 196.39L59.4434 230.535Z" fill="white"/>
<path d="M-32.958 242.294L-39.293 250.21V274.544H217.969C217.969 274.544 217.969 259.482 212.706 242.294H-32.958Z" fill="#7B7B7C"/>
<mask id="mask28_3257_100461" style="mask-type:luminance" maskUnits="userSpaceOnUse" x="-40" y="192" width="257" height="70">
<path d="M216.2 257.029C214.719 248.481 212 237.88 207.007 227.772C207.007 227.772 189.736 221.847 151.81 220.213L121.926 200.964C113.277 195.392 103.208 192.429 92.9217 192.429H-14.5806L-8.32845 198.084C-8.32845 198.084 -25.8955 208.506 -32.1476 241.257L-39.293 250.189V257.025V261.817H-18.6761C-14.72 251.369 -4.62506 243.941 7.20393 243.941C19.0329 243.941 29.1322 251.369 33.0839 261.817H147.431C151.387 251.369 161.482 243.941 173.311 243.941C184.417 243.941 193.993 250.485 198.398 259.926C198.934 261.077 200.093 261.813 201.365 261.813H216.941C216.736 260.318 216.492 258.715 216.2 257.029ZM43.083 219.15C37.0792 218.919 31.1495 217.708 25.5334 215.573L3.16507 207.06C8.22344 201.81 15.2032 198.843 22.4923 198.843H100.416C107.609 198.843 114.567 201.396 120.056 206.045L139.95 222.897L43.083 219.15Z" fill="white"/>
</mask>
<g mask="url(#mask28_3257_100461)">
<path d="M216.17 260.515C214.623 250.969 211.778 239.131 206.554 227.846C206.554 227.846 188.494 221.233 148.829 219.407L117.577 197.915C108.532 191.693 98.0015 188.386 87.2443 188.386H-25.19L-18.6503 194.703C-18.6503 194.703 -37.0234 206.341 -43.5631 242.908L-51.0352 252.881V260.515V265.869H-29.4728C-25.3381 254.206 -14.7813 245.91 -2.40773 245.91C9.96589 245.91 20.5227 254.206 24.6574 265.869H144.246C148.38 254.206 158.937 245.91 171.311 245.91C183.684 245.91 194.241 254.206 198.376 265.869H216.936C216.727 264.187 216.475 262.397 216.17 260.515Z" fill="#7B7B7C"/>
</g>
<mask id="mask29_3257_100461" style="mask-type:luminance" maskUnits="userSpaceOnUse" x="-40" y="192" width="257" height="70">
<path d="M216.2 257.029C214.719 248.481 212 237.88 207.007 227.772C207.007 227.772 189.736 221.847 151.81 220.213L121.926 200.964C113.277 195.392 103.208 192.429 92.9217 192.429H-14.5806L-8.32845 198.084C-8.32845 198.084 -25.8955 208.506 -32.1476 241.257L-39.293 250.189V257.025V261.817H-18.6761C-14.72 251.369 -4.62506 243.941 7.20393 243.941C19.0329 243.941 29.1322 251.369 33.0839 261.817H147.431C151.387 251.369 161.482 243.941 173.311 243.941C184.417 243.941 193.993 250.485 198.398 259.926C198.934 261.077 200.093 261.813 201.365 261.813H216.941C216.736 260.318 216.492 258.715 216.2 257.029ZM43.083 219.15C37.0792 218.919 31.1495 217.708 25.5334 215.573L3.16507 207.06C8.22344 201.81 15.2032 198.843 22.4923 198.843H100.416C107.609 198.843 114.567 201.396 120.056 206.045L139.95 222.897L43.083 219.15Z" fill="white"/>
</mask>
<g mask="url(#mask29_3257_100461)">
<path d="M16.9196 283.384C28.7529 283.384 44.2025 251.165 48.1586 261.612L158.266 280.53C162.222 270.082 177.777 294.037 189.606 294.037C201.439 294.037 210.405 273.886 214.361 284.334L232.809 267.303C232.604 265.795 231.567 258.502 231.275 256.816C229.794 248.267 227.075 237.667 222.082 227.559C222.082 227.559 204.811 221.634 166.884 220L137 200.751C128.352 195.178 118.283 192.216 107.996 192.216H0.48971L6.74187 197.871C6.74187 197.871 -10.725 209.443 -16.9771 242.194C-18.1796 246.76 -19.3821 251.326 -20.5846 255.888C-21.7959 257.791 -23.0114 259.7 -24.2227 261.604L-6.95624 280.208C-3.00017 269.769 5.08624 283.384 16.9196 283.384Z" fill="#CCCCCD"/>
</g>
<mask id="mask30_3257_100461" style="mask-type:luminance" maskUnits="userSpaceOnUse" x="-40" y="192" width="257" height="70">
<path d="M216.2 257.029C214.719 248.481 212 237.88 207.007 227.772C207.007 227.772 189.736 221.847 151.81 220.213L121.926 200.964C113.277 195.392 103.208 192.429 92.9217 192.429H-14.5806L-8.32845 198.084C-8.32845 198.084 -25.8955 208.506 -32.1476 241.257L-39.293 250.189V257.025V261.817H-18.6761C-14.72 251.369 -4.62506 243.941 7.20393 243.941C19.0329 243.941 29.1322 251.369 33.0839 261.817H147.431C151.387 251.369 161.482 243.941 173.311 243.941C184.417 243.941 193.993 250.485 198.398 259.926C198.934 261.077 200.093 261.813 201.365 261.813H216.941C216.736 260.318 216.492 258.715 216.2 257.029ZM43.083 219.15C37.0792 218.919 31.1495 217.708 25.5334 215.573L3.16507 207.06C8.22344 201.81 15.2032 198.843 22.4923 198.843H100.416C107.609 198.843 114.567 201.396 120.056 206.045L139.95 222.897L43.083 219.15Z" fill="white"/>
</mask>
<g mask="url(#mask30_3257_100461)">
<path d="M199.801 237.593H210.842V234.887H197.096C197.091 236.382 198.307 237.593 199.801 237.593Z" fill="#7B7B7C"/>
</g>
<mask id="mask31_3257_100461" style="mask-type:luminance" maskUnits="userSpaceOnUse" x="-40" y="192" width="257" height="70">
<path d="M216.2 257.029C214.719 248.481 212 237.88 207.007 227.772C207.007 227.772 189.736 221.847 151.81 220.213L121.926 200.964C113.277 195.392 103.208 192.429 92.9217 192.429H-14.5806L-8.32845 198.084C-8.32845 198.084 -25.8955 208.506 -32.1476 241.257L-39.293 250.189V257.025V261.817H-18.6761C-14.72 251.369 -4.62506 243.941 7.20393 243.941C19.0329 243.941 29.1322 251.369 33.0839 261.817H147.431C151.387 251.369 161.482 243.941 173.311 243.941C184.417 243.941 193.993 250.485 198.398 259.926C198.934 261.077 200.093 261.813 201.365 261.813H216.941C216.736 260.318 216.492 258.715 216.2 257.029ZM43.083 219.15C37.0792 218.919 31.1495 217.708 25.5334 215.573L3.16507 207.06C8.22344 201.81 15.2032 198.843 22.4923 198.843H100.416C107.609 198.843 114.567 201.396 120.056 206.045L139.95 222.897L43.083 219.15Z" fill="white"/>
</mask>
<g mask="url(#mask31_3257_100461)">
<path d="M213.39 227.437H191.205L189.51 235.005H213.39" fill="white"/>
<mask id="mask32_3257_100461" style="mask-type:luminance" maskUnits="userSpaceOnUse" x="189" y="227" width="25" height="9">
<path d="M213.39 227.437H191.205L189.51 235.005H213.39" fill="white"/>
</mask>
<g mask="url(#mask32_3257_100461)">
<path d="M216.444 225.934H194.254L192.56 233.497H216.444" fill="white"/>
</g>
</g>
<mask id="mask33_3257_100461" style="mask-type:luminance" maskUnits="userSpaceOnUse" x="-40" y="192" width="257" height="70">
<path d="M216.2 257.029C214.719 248.481 212 237.88 207.007 227.772C207.007 227.772 189.736 221.847 151.81 220.213L121.926 200.964C113.277 195.392 103.208 192.429 92.9217 192.429H-14.5806L-8.32845 198.084C-8.32845 198.084 -25.8955 208.506 -32.1476 241.257L-39.293 250.189V257.025V261.817H-18.6761C-14.72 251.369 -4.62506 243.941 7.20393 243.941C19.0329 243.941 29.1322 251.369 33.0839 261.817H147.431C151.387 251.369 161.482 243.941 173.311 243.941C184.417 243.941 193.993 250.485 198.398 259.926C198.934 261.077 200.093 261.813 201.365 261.813H216.941C216.736 260.318 216.492 258.715 216.2 257.029ZM43.083 219.15C37.0792 218.919 31.1495 217.708 25.5334 215.573L3.16507 207.06C8.22344 201.81 15.2032 198.843 22.4923 198.843H100.416C107.609 198.843 114.567 201.396 120.056 206.045L139.95 222.897L43.083 219.15Z" fill="white"/>
</mask>
<g mask="url(#mask33_3257_100461)">
<path d="M147.431 262.157V244.281H68.6842C58.0098 244.281 47.7363 248.359 39.9635 255.678L33.084 262.157" fill="#DADADA"/>
</g>
<mask id="mask34_3257_100461" style="mask-type:luminance" maskUnits="userSpaceOnUse" x="-40" y="192" width="257" height="70">
<path d="M216.2 257.029C214.719 248.481 212 237.88 207.007 227.772C207.007 227.772 189.736 221.847 151.81 220.213L121.926 200.964C113.277 195.392 103.208 192.429 92.9217 192.429H-14.5806L-8.32845 198.084C-8.32845 198.084 -25.8955 208.506 -32.1476 241.257L-39.293 250.189V257.025V261.817H-18.6761C-14.72 251.369 -4.62506 243.941 7.20393 243.941C19.0329 243.941 29.1322 251.369 33.0839 261.817H147.431C151.387 251.369 161.482 243.941 173.311 243.941C184.417 243.941 193.993 250.485 198.398 259.926C198.934 261.077 200.093 261.813 201.365 261.813H216.941C216.736 260.318 216.492 258.715 216.2 257.029ZM43.083 219.15C37.0792 218.919 31.1495 217.708 25.5334 215.573L3.16507 207.06C8.22344 201.81 15.2032 198.843 22.4923 198.843H100.416C107.609 198.843 114.567 201.396 120.056 206.045L139.95 222.897L43.083 219.15Z" fill="white"/>
</mask>
<g mask="url(#mask34_3257_100461)">
<path d="M91.2399 247.222H82.7744V261.826H91.2399V247.222Z" fill="#E5E5E6"/>
</g>
<mask id="mask35_3257_100461" style="mask-type:luminance" maskUnits="userSpaceOnUse" x="-40" y="192" width="257" height="70">
<path d="M216.2 257.029C214.719 248.481 212 237.88 207.007 227.772C207.007 227.772 189.736 221.847 151.81 220.213L121.926 200.964C113.277 195.392 103.208 192.429 92.9217 192.429H-14.5806L-8.32845 198.084C-8.32845 198.084 -25.8955 208.506 -32.1476 241.257L-39.293 250.189V257.025V261.817H-18.6761C-14.72 251.369 -4.62506 243.941 7.20393 243.941C19.0329 243.941 29.1322 251.369 33.0839 261.817H147.431C151.387 251.369 161.482 243.941 173.311 243.941C184.417 243.941 193.993 250.485 198.398 259.926C198.934 261.077 200.093 261.813 201.365 261.813H216.941C216.736 260.318 216.492 258.715 216.2 257.029ZM43.083 219.15C37.0792 218.919 31.1495 217.708 25.5334 215.573L3.16507 207.06C8.22344 201.81 15.2032 198.843 22.4923 198.843H100.416C107.609 198.843 114.567 201.396 120.056 206.045L139.95 222.897L43.083 219.15Z" fill="white"/>
</mask>
<g mask="url(#mask35_3257_100461)">
<path d="M175.843 307.094C195.437 307.094 211.321 291.21 211.321 271.616C211.321 252.022 195.437 236.138 175.843 236.138C156.248 236.138 140.364 252.022 140.364 271.616C140.364 291.21 156.248 307.094 175.843 307.094Z" fill="#E5E5E6"/>
</g>
<mask id="mask36_3257_100461" style="mask-type:luminance" maskUnits="userSpaceOnUse" x="-40" y="192" width="257" height="70">
<path d="M216.2 257.029C214.719 248.481 212 237.88 207.007 227.772C207.007 227.772 189.736 221.847 151.81 220.213L121.926 200.964C113.277 195.392 103.208 192.429 92.9217 192.429H-14.5806L-8.32845 198.084C-8.32845 198.084 -25.8955 208.506 -32.1476 241.257L-39.293 250.189V257.025V261.817H-18.6761C-14.72 251.369 -4.62506 243.941 7.20393 243.941C19.0329 243.941 29.1322 251.369 33.0839 261.817H147.431C151.387 251.369 161.482 243.941 173.311 243.941C184.417 243.941 193.993 250.485 198.398 259.926C198.934 261.077 200.093 261.813 201.365 261.813H216.941C216.736 260.318 216.492 258.715 216.2 257.029ZM43.083 219.15C37.0792 218.919 31.1495 217.708 25.5334 215.573L3.16507 207.06C8.22344 201.81 15.2032 198.843 22.4923 198.843H100.416C107.609 198.843 114.567 201.396 120.056 206.045L139.95 222.897L43.083 219.15Z" fill="white"/>
</mask>
<g mask="url(#mask36_3257_100461)">
<path d="M215.068 250.289H207.735L202.742 263.769H217.97L215.068 250.289Z" fill="white"/>
</g>
<path d="M188.56 271.616C188.56 260.545 179.585 251.566 168.509 251.566C157.434 251.566 148.459 260.541 148.459 271.616C148.459 282.691 157.434 291.667 168.509 291.667C173.468 291.667 174.666 291.636 179.315 291.514C184.987 291.366 188.56 277.733 188.56 271.616Z" fill="#7B7B7C"/>
<path d="M177.215 291.667C188.288 291.667 197.265 282.69 197.265 271.616C197.265 260.542 188.288 251.566 177.215 251.566C166.141 251.566 157.164 260.542 157.164 271.616C157.164 282.69 166.141 291.667 177.215 291.667Z" fill="#A2A2A2"/>
<path d="M177.214 286.7C185.545 286.7 192.298 279.946 192.298 271.616C192.298 263.286 185.545 256.532 177.214 256.532C168.884 256.532 162.131 263.286 162.131 271.616C162.131 279.946 168.884 286.7 177.214 286.7Z" fill="white"/>
<mask id="mask37_3257_100461" style="mask-type:luminance" maskUnits="userSpaceOnUse" x="162" y="256" width="31" height="31">
<path d="M177.214 286.7C185.545 286.7 192.298 279.946 192.298 271.616C192.298 263.286 185.545 256.532 177.214 256.532C168.884 256.532 162.131 263.286 162.131 271.616C162.131 279.946 168.884 286.7 177.214 286.7Z" fill="white"/>
</mask>
<g mask="url(#mask37_3257_100461)">
<path d="M192.987 277.454L180.26 271.459C178.631 270.692 176.779 270.915 175.402 271.886L183.101 275.515L180.883 279.724L168.51 273.895L169.525 271.742C171.777 266.959 177.502 264.902 182.286 267.155L193.741 272.553" fill="#A2A2A2"/>
</g>
<path d="M87.3408 230.478H101.483V228.757C101.483 227.807 100.712 227.036 99.7624 227.036H90.7871C88.8832 227.032 87.3408 228.574 87.3408 230.478Z" fill="#7B7B7C"/>
<path d="M121.817 221.472H138.129V215.198C138.129 213.517 136.765 212.157 135.088 212.157H127.899C124.54 212.157 121.812 214.88 121.812 218.244V221.472H121.817Z" fill="#7B7B7C"/>
<path d="M140.848 223.66L137.228 218.893L135.415 220.27L137.659 223.219C138.421 224.226 139.85 224.422 140.848 223.66Z" fill="#7B7B7C"/>
<path d="M-20.6279 274.526C-20.7455 273.572 -20.8109 272.601 -20.8109 271.616C-20.8109 258.371 -9.67902 247.636 4.04959 247.636C17.7782 247.636 28.9101 258.371 28.9101 271.616C28.9101 272.601 28.8491 273.572 28.7271 274.526H151.906C151.788 273.572 151.723 272.601 151.723 271.616C151.723 258.371 162.854 247.636 176.583 247.636C190.312 247.636 201.444 258.371 201.444 271.616C201.444 272.601 201.383 273.572 201.261 274.526H222.697C222.697 274.526 222.697 269.446 221.629 261.826H203.23C199.13 251.378 188.665 243.95 176.396 243.95C164.131 243.95 153.661 251.378 149.562 261.826H31.0101C26.9103 251.378 16.445 243.95 4.17595 243.95C-8.08874 243.95 -18.5584 251.378 -22.6582 261.826H-44.0332V274.526H-20.6279Z" fill="#7B7B7C"/>
</g>
<path d="M257.26 302.158H84.1035V332.791H257.26V302.158Z" fill="#00BD72"/>
<path d="M203.217 56.7115H138.142C130.701 56.7115 124.671 50.6816 124.671 43.24H216.689C216.689 50.6772 210.654 56.7115 203.217 56.7115Z" fill="#00BD72"/>
<path d="M170.68 325.733C175.242 325.733 178.94 322.035 178.94 317.472C178.94 312.91 175.242 309.212 170.68 309.212C166.117 309.212 162.419 312.91 162.419 317.472C162.419 322.035 166.117 325.733 170.68 325.733Z" stroke="#D6F8FF" stroke-width="3" stroke-miterlimit="10"/>
<path d="M135.354 48.8821H204.542" stroke="#53B77B" stroke-width="1.6472" stroke-miterlimit="10"/>
<path d="M315.028 178.243L321.468 156.707" stroke="#193157" stroke-width="3.2944" stroke-miterlimit="10"/>
<path d="M325.123 186.064L335.937 181.145" stroke="#193157" stroke-width="3.2944" stroke-miterlimit="10"/>
<path d="M465.934 214.571L462.74 324.74L473.65 323.067C475.929 293.631 477.946 261.608 480.224 232.173C480.787 226.657 481.863 220.392 482.42 214.876C477.096 214.523 471.258 214.924 465.934 214.571Z" fill="#002D5D"/>
<path d="M494.054 212.175C494.263 214.249 494.472 216.322 494.681 218.396C496.747 253.286 498.812 288.177 500.872 323.067L491.571 324.74C487.41 288.325 483.253 251.91 479.097 215.495" fill="#194C82"/>
<path d="M484.282 143.475C484.282 143.475 487.366 142.603 487.959 145.449C488.547 148.294 482.334 150.542 482.334 150.542L484.282 143.475Z" fill="#E39184"/>
<path d="M495.897 190.686C495.54 199.056 495.187 207.426 494.83 215.795C490.015 215.647 485.201 215.503 480.386 215.355C475.572 215.207 470.758 215.063 465.943 214.915C465.804 204.973 465.664 195.03 465.525 185.083C465.05 181.245 464.593 177.367 464.157 173.45C463.869 170.875 463.599 168.318 463.338 165.778C468.039 163.848 472.736 161.918 477.437 159.988C479.55 159.29 481.663 158.585 483.776 157.883C485.68 158.672 487.676 159.591 489.732 160.663C494.224 163.003 498.019 165.556 501.147 167.982C499.544 170.523 497.94 173.063 496.337 175.598C496.189 180.631 496.041 185.658 495.897 190.686Z" fill="#588DC4"/>
<path d="M478.482 164.806C479.162 165.068 480.408 165.447 481.972 165.329C482.377 165.299 484.425 165.111 486.39 163.569C487.885 162.397 488.617 161.011 488.943 160.262C488.063 159.861 487.179 159.465 486.299 159.064C485.419 158.663 484.534 158.267 483.654 157.866C481.933 160.184 480.208 162.493 478.482 164.806Z" fill="#002D5D"/>
<path d="M481.588 147.732L484.769 158.314C484.769 158.314 483.126 166.501 478.177 165.961C478.177 165.961 476.495 165.717 476.386 164.954L474.674 156.001L481.588 147.732Z" fill="#E39184"/>
<path d="M474.574 155.531C474.836 156.89 475.093 158.249 475.354 159.609C476.631 159.312 478.068 158.864 479.572 158.166C480.016 157.962 480.434 157.748 480.835 157.53C481.118 156.929 481.249 156.415 481.319 156.053C481.415 155.539 481.423 155.021 481.449 153.988C481.454 153.814 481.458 153.566 481.458 153.234C481.454 152.463 481.423 151.779 481.375 151.191C479.105 152.638 476.84 154.084 474.574 155.531Z" fill="#002D5D"/>
<path d="M473.571 133.201C473.571 133.201 470.631 133.236 469.502 140.068C468.374 146.899 470.4 157.112 470.4 157.112C470.4 157.112 478.151 157.696 480.312 156.877C481.383 154.132 482.455 151.383 483.527 148.638L485.021 140.107L484.978 136.569L473.571 133.201Z" fill="#E39184"/>
<path d="M480.957 135.384C480.957 135.384 474.975 135.685 472.383 133.711L473.259 131.581L480.953 133.354L487.946 136.517L488.211 139.51L485.606 143.78L484.107 145.331L483.04 148.708L481.14 148.268C481.619 146.111 482.099 143.959 482.578 141.802C482.866 141.632 483.345 141.301 483.728 140.717C484.369 139.741 484.303 138.73 484.273 138.408C484.094 137.998 483.794 137.445 480.957 135.384Z" fill="#002D5D"/>
<path d="M473.99 139.327C473.546 141.493 473.101 143.658 472.657 145.823C471.907 146.795 471.154 147.766 470.404 148.738C470.674 149.008 471.071 149.335 471.607 149.601C472.74 150.163 473.816 150.102 474.308 150.041" stroke="#002D5D" stroke-width="1.4117" stroke-miterlimit="10"/>
<path d="M480.63 141.388C480.63 141.388 480.634 141.392 480.638 141.388C480.669 141.375 480.634 141.022 480.577 140.604C480.103 140.281 479.514 139.95 478.813 139.689C477.68 139.266 476.648 139.166 475.863 139.175C475.889 139.493 475.92 139.806 475.946 140.125C475.946 140.129 479.506 140.63 480.63 141.388Z" fill="#002D5D"/>
<path d="M472.818 139.745L473.084 138.966C472.683 138.922 472.252 138.896 471.799 138.883C471.211 138.865 470.653 138.883 470.139 138.918C470.052 139.144 469.969 139.371 469.882 139.602C470.862 139.65 471.842 139.698 472.818 139.745Z" fill="#002D5D"/>
<path d="M474.064 152.681C474.518 152.707 475.463 152.698 476.5 152.202C477.397 151.77 477.955 151.165 478.23 150.816" stroke="#002D5D" stroke-width="1.4117" stroke-miterlimit="10"/>
<path d="M446.738 173.285L433.554 178.966L436.216 187.162L450.445 181.437L446.738 173.285Z" fill="#E39184"/>
<path d="M476.021 144.089C476.021 144.089 476.212 146.647 478.791 146.377" stroke="#002D5D" stroke-width="1.0588" stroke-miterlimit="10"/>
<path d="M472.357 144.02C472.187 144.264 471.847 144.682 471.276 145C470.84 145.244 470.431 145.335 470.165 145.375" stroke="#002D5D" stroke-width="1.0588" stroke-miterlimit="10"/>
<path d="M476.909 144.664C477.489 144.664 477.959 144.194 477.959 143.614C477.959 143.034 477.489 142.564 476.909 142.564C476.329 142.564 475.859 143.034 475.859 143.614C475.859 144.194 476.329 144.664 476.909 144.664Z" fill="#002D5D"/>
<path d="M470.775 143.841C471.268 143.841 471.668 143.441 471.668 142.948C471.668 142.454 471.268 142.055 470.775 142.055C470.282 142.055 469.882 142.454 469.882 142.948C469.882 143.441 470.282 143.841 470.775 143.841Z" fill="#002D5D"/>
<path d="M446.638 173.298L449.496 181.942C455.077 179.772 460.658 177.602 466.239 175.437C465.947 174.099 465.66 172.758 465.368 171.42C465.921 168.958 463.442 167.965 463.996 165.508C457.199 168.592 453.434 170.213 446.638 173.298Z" fill="#588DC4"/>
<path d="M452.95 180.548L464.588 176.078L464.27 171.738L449.295 180.295C449.774 181.315 449.966 180.386 450.445 181.406C451.269 181.005 452.123 180.949 452.95 180.548Z" fill="#002D5D"/>
<path d="M446.638 173.298L449.021 182.108L450.441 181.406L446.638 173.298Z" fill="#002D5D"/>
<path d="M485.745 146.263C485.745 146.263 484.094 145.658 483.175 146.878" stroke="#002D5D" stroke-width="1.4117" stroke-miterlimit="10"/>
<path d="M491.571 324.74L488.002 330.338L481.946 332.687L482.8 334.198L501.26 333.262L500.873 323.067" fill="#193157"/>
<path d="M462.758 324.191L460.732 330.338L454.672 332.687L455.526 334.198L473.99 333.262L473.598 323.067" fill="#193157"/>
<path d="M433.593 178.953L414.227 186.325L416.662 193.736L436.216 187.162L433.593 178.953Z" fill="#E39184"/>
<path d="M507.904 187.702L514.579 200.411L507.355 205.108L499.892 191.706L507.904 187.702Z" fill="#E39184"/>
<path d="M507.917 187.706L499.753 191.732L494.459 178.975L496.119 173.041C497.622 171.224 499.125 169.407 500.633 167.59C500.837 167.743 501.042 167.891 501.243 168.044C502.855 171.093 503.739 173.681 504.245 175.468C504.811 177.463 504.911 178.474 505.521 180.77C506.327 183.802 507.264 186.181 507.917 187.706Z" fill="#588DC4"/>
<path d="M498.319 188.29L494.441 179.507L500.079 185.184L502.654 189.558C501.591 189.933 500.532 190.307 499.469 190.682C499.173 189.806 498.615 189.161 498.319 188.29Z" fill="#002D5D"/>
<path d="M507.918 187.706L499.966 192.185L499.47 190.678L507.918 187.706Z" fill="#002D5D"/>
<path d="M516.937 204.276L501.278 217.847L495.901 212.196L512.375 196.22L516.937 204.276Z" fill="#E39184"/>
<path d="M497.021 211.133L495.16 208.367L495.025 213.029L489.287 219.76C489.287 219.76 490.154 220.078 492.224 219.163L491.004 221.041C491.004 221.041 491.065 222.339 492.237 222.082C493.413 221.825 493.801 223.385 494.65 222.832C495.5 222.278 501.282 217.843 501.282 217.843L497.021 211.133Z" fill="#E39184"/>
<path d="M408.51 189.414C407.952 189.719 407.39 190.02 406.833 190.325C406.819 190.573 406.824 190.878 406.872 191.218C406.937 191.667 407.059 192.041 407.172 192.32C407.752 192.338 408.035 192.394 408.614 192.412C408.614 192.412 408.501 194.355 409.943 194.516L410.283 194.329C410.283 194.329 410.601 196.642 411.656 196.071C412.754 195.475 418.265 192.969 418.265 192.969L414.47 187.332C413.32 187.227 411.873 187.223 410.248 187.519C409.577 187.641 408.963 187.802 408.41 187.972C408.44 188.451 408.475 188.935 408.51 189.414Z" fill="#DB6958"/>
<mask id="mask38_3257_100461" style="mask-type:luminance" maskUnits="userSpaceOnUse" x="406" y="187" width="13" height="10">
<path d="M408.51 189.414C407.952 189.719 407.39 190.02 406.833 190.325C406.819 190.573 406.824 190.878 406.872 191.218C406.937 191.667 407.059 192.041 407.172 192.32C407.752 192.338 408.035 192.394 408.614 192.412C408.614 192.412 408.501 194.355 409.943 194.516L410.283 194.329C410.283 194.329 410.601 196.642 411.656 196.071C412.754 195.475 418.265 192.969 418.265 192.969L414.47 187.332C413.32 187.227 411.873 187.223 410.248 187.519C409.577 187.641 408.963 187.802 408.41 187.972C408.44 188.451 408.475 188.935 408.51 189.414Z" fill="white"/>
</mask>
<g mask="url(#mask38_3257_100461)">
<path d="M410.279 194.324L415.106 192.512C415.106 192.512 415.15 193.911 411.651 196.063C408.153 198.22 409.856 195 409.856 195L410.279 194.324C410.279 194.324 411.555 194.956 411.603 195.51L410.279 194.324Z" fill="#E39184"/>
</g>
<mask id="mask39_3257_100461" style="mask-type:luminance" maskUnits="userSpaceOnUse" x="406" y="187" width="13" height="10">
<path d="M408.51 189.414C407.952 189.719 407.39 190.02 406.833 190.325C406.819 190.573 406.824 190.878 406.872 191.218C406.937 191.667 407.059 192.041 407.172 192.32C407.752 192.338 408.035 192.394 408.614 192.412C408.614 192.412 408.501 194.355 409.943 194.516L410.283 194.329C410.283 194.329 410.601 196.642 411.656 196.071C412.754 195.475 418.265 192.969 418.265 192.969L414.47 187.332C413.32 187.227 411.873 187.223 410.248 187.519C409.577 187.641 408.963 187.802 408.41 187.972C408.44 188.451 408.475 188.935 408.51 189.414Z" fill="white"/>
</mask>
<g mask="url(#mask39_3257_100461)">
<path d="M408.414 194.934C407.639 193.989 408.371 192.115 410.039 190.743C411.712 189.375 413.695 189.031 414.466 189.972C415.241 190.917 414.509 192.791 412.841 194.163C411.172 195.536 409.185 195.875 408.414 194.934Z" fill="url(#paint2_radial_3257_100461)"/>
</g>
<mask id="mask40_3257_100461" style="mask-type:luminance" maskUnits="userSpaceOnUse" x="406" y="187" width="13" height="10">
<path d="M408.51 189.414C407.952 189.719 407.39 190.02 406.833 190.325C406.819 190.573 406.824 190.878 406.872 191.218C406.937 191.667 407.059 192.041 407.172 192.32C407.752 192.338 408.035 192.394 408.614 192.412C408.614 192.412 408.501 194.355 409.943 194.516L410.283 194.329C410.283 194.329 410.601 196.642 411.656 196.071C412.754 195.475 418.265 192.969 418.265 192.969L414.47 187.332C413.32 187.227 411.873 187.223 410.248 187.519C409.577 187.641 408.963 187.802 408.41 187.972C408.44 188.451 408.475 188.935 408.51 189.414Z" fill="white"/>
</mask>
<g mask="url(#mask40_3257_100461)">
<path d="M408.61 192.412L413.355 190.612C413.355 190.612 414.2 191.466 413.067 192.608C411.939 193.749 410.275 194.324 410.275 194.324L408.632 195.64L407.412 194.133L408.61 192.412Z" fill="#E39184"/>
</g>
<path d="M410.924 186.573L400.764 189.449C400.764 189.449 402.332 191.157 404.611 190.251L411.002 188.443L410.924 186.573Z" fill="#E39184"/>
<path d="M409.255 193.701C407.996 192.163 408.367 189.776 410.088 188.369C411.804 186.961 414.222 187.066 415.481 188.604C416.741 190.142 416.37 192.529 414.649 193.937C412.928 195.34 410.515 195.235 409.255 193.701Z" fill="url(#paint3_radial_3257_100461)"/>
<path d="M414.192 186.356L410.863 186.578L409.665 193.157C409.665 193.157 411.338 194.207 412.819 190.386C412.819 190.386 413.072 191.423 416 190.207L417.359 189.628" fill="#E39184"/>
<defs>
<radialGradient id="paint0_radial_3257_100461" cx="0" cy="0" r="1" gradientUnits="userSpaceOnUse" gradientTransform="translate(313.912 219.107) scale(206.671 13.0656)">
<stop stop-color="#858588"/>
<stop offset="0.1898" stop-color="#89898C" stop-opacity="0.8102"/>
<stop offset="0.3749" stop-color="#959597" stop-opacity="0.6251"/>
<stop offset="0.5582" stop-color="#A8A8AA" stop-opacity="0.4418"/>
<stop offset="0.7404" stop-color="#C4C4C5" stop-opacity="0.2596"/>
<stop offset="0.9202" stop-color="#E7E7E7" stop-opacity="0.0798"/>
<stop offset="1" stop-color="#F9F9F9" stop-opacity="0"/>
</radialGradient>
<radialGradient id="paint1_radial_3257_100461" cx="0" cy="0" r="1" gradientUnits="userSpaceOnUse" gradientTransform="translate(172.526 202.665) scale(108.174)">
<stop offset="0.0027933" stop-color="white"/>
<stop offset="1" stop-color="#F7F7F7" stop-opacity="0"/>
</radialGradient>
<radialGradient id="paint2_radial_3257_100461" cx="0" cy="0" r="1" gradientUnits="userSpaceOnUse" gradientTransform="translate(411.397 192.427) rotate(140.673) scale(3.91281 2.21017)">
<stop offset="0.3296" stop-color="#DB6958"/>
<stop offset="0.4639" stop-color="#DC6C5B" stop-opacity="0.7997"/>
<stop offset="0.5683" stop-color="#DE7565" stop-opacity="0.644"/>
<stop offset="0.6625" stop-color="#E18375" stop-opacity="0.5034"/>
<stop offset="0.7508" stop-color="#E6988D" stop-opacity="0.3717"/>
<stop offset="0.835" stop-color="#EDB3AB" stop-opacity="0.2461"/>
<stop offset="0.916" stop-color="#F5D5D0" stop-opacity="0.1252"/>
<stop offset="0.9932" stop-color="#FEFBFB" stop-opacity="0.0101"/>
<stop offset="1" stop-color="white" stop-opacity="0"/>
</radialGradient>
<radialGradient id="paint3_radial_3257_100461" cx="0" cy="0" r="1" gradientUnits="userSpaceOnUse" gradientTransform="translate(412.412 191.164) rotate(140.67) scale(4.02289 3.59742)">
<stop offset="0.3296" stop-color="#DB6958"/>
<stop offset="0.4639" stop-color="#DC6C5B" stop-opacity="0.7997"/>
<stop offset="0.5683" stop-color="#DE7565" stop-opacity="0.644"/>
<stop offset="0.6625" stop-color="#E18375" stop-opacity="0.5034"/>
<stop offset="0.7508" stop-color="#E6988D" stop-opacity="0.3717"/>
<stop offset="0.835" stop-color="#EDB3AB" stop-opacity="0.2461"/>
<stop offset="0.916" stop-color="#F5D5D0" stop-opacity="0.1252"/>
<stop offset="0.9932" stop-color="#FEFBFB" stop-opacity="0.0101"/>
<stop offset="1" stop-color="white" stop-opacity="0"/>
</radialGradient>
</defs>
</svg>
