<?xml version="1.0" encoding="UTF-8"?>
<svg width="512" height="512" version="1.1" viewBox="0 0 135.47 135.47" xmlns="http://www.w3.org/2000/svg">
 <g transform="translate(0 -161.53)">
  <g transform="matrix(.89583 0 0 .89583 7.0514 31.41)">
   <path d="m60.682 162.83s-2.7342 6.0475-2.7342 10.489c0 4.4416 2.7342 10.489 2.7342 10.489s2.7342-6.0475 2.7342-10.489c0-4.4416-2.7342-10.489-2.7342-10.489z" fill="#c4a000"/>
   <path d="m60.682 197.13c-19.05 0-34.396 15.346-34.396 34.396 0 19.05 15.346 34.396 34.396 34.396 19.05 0 34.396-15.346 34.396-34.396 0-19.05-15.346-34.396-34.396-34.396zm0 4.2994c16.624 0 30.096 13.472 30.096 30.096 0 16.624-13.472 30.096-30.096 30.096-16.624 0-30.096-13.472-30.096-30.096 0-16.624 13.472-30.096 30.096-30.096z" fill="#f1c232"/>
   <path d="m60.682 201.43c-16.624 0-30.096 13.472-30.096 30.096 0 16.624 13.472 30.096 30.096 30.096 16.624 0 30.096-13.472 30.096-30.096 0-16.624-13.472-30.096-30.096-30.096zm0 4.2994c14.197 0 25.797 11.6 25.797 25.797 0 14.197-11.6 25.797-25.797 25.797-14.197 0-25.797-11.6-25.797-25.797 0-14.197 11.6-25.797 25.797-25.797z" fill="#f1c232"/>
   <path d="m60.682 205.73c-14.197 0-25.797 11.6-25.797 25.797 0 14.197 11.6 25.797 25.797 25.797 14.197 0 25.797-11.6 25.797-25.797 0-14.197-11.6-25.797-25.797-25.797zm0 8.5989c9.4649 0 17.198 7.7329 17.198 17.198 0 9.4649-7.7329 17.198-17.198 17.198-9.4649 0-17.198-7.7329-17.198-17.198 0-9.4649 7.7329-17.198 17.198-17.198z" fill="#ffd966"/>
   <path d="m60.682 214.33c-9.4649 0-17.198 7.7329-17.198 17.198 0 9.4649 7.7329 17.198 17.198 17.198 9.4649 0 17.198-7.7329 17.198-17.198 0-9.4649-7.7329-17.198-17.198-17.198zm0 4.2994c7.0987 0 12.899 5.7998 12.899 12.899 0 7.0987-5.7998 12.899-12.899 12.899-7.0987 0-12.899-5.7998-12.899-12.899 0-7.0987 5.7998-12.899 12.899-12.899z" fill="#ffd966"/>
   <path d="m60.682 218.63c-7.0987 0-12.899 5.7998-12.899 12.899 0 7.0987 5.7998 12.899 12.899 12.899 7.0987 0 12.899-5.7998 12.899-12.899 0-7.0987-5.7998-12.899-12.899-12.899zm0 4.2994c4.7325 0 8.5989 3.8665 8.5989 8.5989 0 4.7325-3.8665 8.5989-8.5989 8.5989-4.7325 0-8.5989-3.8665-8.5989-8.5989 0-4.7325 3.8665-8.5989 8.5989-8.5989z" fill="#ffd966"/>
   <path d="m60.682 265.92s-2.7342 6.0475-2.7342 10.489c0 4.4416 2.7342 10.489 2.7342 10.489s2.7342-6.0475 2.7342-10.489c0-4.4416-2.7342-10.489-2.7342-10.489z" fill="#c4a000"/>
   <path d="m26.286 231.53s-6.0475-2.7342-10.489-2.7342c-4.4416 0-10.489 2.7342-10.489 2.7342s6.0475 2.7342 10.489 2.7342c4.4416 0 10.489-2.7342 10.489-2.7342z" fill="#c4a000"/>
   <path d="m95.078 231.53s6.0475-2.7342 10.489-2.7342c4.4416 0 10.489 2.7342 10.489 2.7342s-6.0475 2.7342-10.489 2.7342c-4.4416 0-10.489-2.7342-10.489-2.7342z" fill="#c4a000"/>
   <path d="m36.775 207.62s-5.2366-4.0733-9.0831-5.2366c-3.8465-1.1633-10.246 0-10.246 0s7.3141 4.0733 11.161 5.2366c3.8465 1.1633 8.1684 0 8.1684 0z" fill="#c4a000"/>
   <path d="m84.589 207.62s5.2366-4.0733 9.0831-5.2366c3.8465-1.1633 10.246 0 10.246 0s-7.3141 4.0733-11.161 5.2366c-3.8465 1.1633-8.1684 0-8.1684 0z" fill="#c4a000"/>
   <path d="m36.775 255.43s-5.2366 4.0733-9.0831 5.2366c-3.8465 1.1633-10.246 0-10.246 0s7.3141-4.0733 11.161-5.2366c3.8465-1.1633 8.1684 0 8.1684 0z" fill="#c4a000"/>
   <path d="m84.589 255.43s5.2366 4.0733 9.0831 5.2366c3.8465 1.1633 10.246 0 10.246 0s-7.3141-4.0733-11.161-5.2366c-3.8465-1.1633-8.1684 0-8.1684 0z" fill="#c4a000"/>
  </g>
 </g>
</svg>
