<svg width="20" height="20" viewBox="0 0 20 20" fill="none" xmlns="http://www.w3.org/2000/svg">
<path d="M15.5 4.32007L4.5 15.3201M6.5 8.32007V4.32007M4.5 6.32007H8.5M11.5 13.3201H15.5M5.8 18.8201H14.2C15.8802 18.8201 16.7202 18.8201 17.362 18.4931C17.9265 18.2055 18.3854 17.7465 18.673 17.182C19 16.5403 19 15.7002 19 14.0201V5.62007C19 3.93991 19 3.09983 18.673 2.4581C18.3854 1.89361 17.9265 1.43467 17.362 1.14705C16.7202 0.820068 15.8802 0.820068 14.2 0.820068H5.8C4.11984 0.820068 3.27976 0.820068 2.63803 1.14705C2.07354 1.43467 1.6146 1.89361 1.32698 2.4581C1 3.09983 1 3.93991 1 5.62007V14.0201C1 15.7002 1 16.5403 1.32698 17.182C1.6146 17.7465 2.07354 18.2055 2.63803 18.4931C3.27976 18.8201 4.11984 18.8201 5.8 18.8201Z" stroke="#002246" stroke-width="1.5" stroke-linecap="round" stroke-linejoin="round"/>
</svg>
