<svg width="262" height="183" viewBox="0 0 262 183" fill="none" xmlns="http://www.w3.org/2000/svg">
<path d="M177.311 169.864H0L23.8248 21.6777H201.136L177.311 169.864Z" fill="#193157"/>
<path d="M209.773 21.6777H32.4619V169.868H209.773V21.6777Z" fill="#E6E6E6"/>
<g opacity="0.52">
<path d="M197.167 72.5164H179.132V90.5285H197.167V72.5164Z" fill="#7196BD"/>
<path d="M170.993 72.5164H152.958V90.5285H170.993V72.5164Z" fill="#7196BD"/>
<path d="M144.819 72.5164H126.784V90.5285H144.819V72.5164Z" fill="#7196BD"/>
<path d="M92.4726 72.5164H74.4375V90.5285H92.4726V72.5164Z" fill="#7196BD"/>
<path opacity="0.3" d="M119.035 72.5164H101V90.5285H119.035V72.5164Z" fill="#7196BD"/>
<path d="M66.3008 72.5164H48.2656V90.5285H66.3008V72.5164Z" fill="#7196BD"/>
<path opacity="0.4" d="M197.167 97.1375H179.132V115.15H197.167V97.1375Z" fill="#7196BD"/>
<path opacity="0.4" d="M170.993 97.1375H152.958V115.15H170.993V97.1375Z" fill="#7196BD"/>
<path d="M144.819 97.1375H126.784V115.15H144.819V97.1375Z" fill="#7196BD"/>
<path opacity="0.4" d="M118.646 97.1375H100.611V115.15H118.646V97.1375Z" fill="#7196BD"/>
<path d="M92.4726 97.1375H74.4375V115.15H92.4726V97.1375Z" fill="#7196BD"/>
<path d="M66.3008 97.1375H48.2656V115.15H66.3008V97.1375Z" fill="#7196BD"/>
<path d="M197.167 121.764H179.132V139.776H197.167V121.764Z" fill="#7196BD"/>
<path d="M170.993 121.764H152.958V139.776H170.993V121.764Z" fill="#7196BD"/>
<path d="M144.819 121.764H126.784V139.776H144.819V121.764Z" fill="#7196BD"/>
<path d="M118.646 121.764H100.611V139.776H118.646V121.764Z" fill="#7196BD"/>
<path d="M92.4726 121.764H74.4375V139.776H92.4726V121.764Z" fill="#7196BD"/>
<path d="M66.3008 121.764H48.2656V139.776H66.3008V121.764Z" fill="#7196BD"/>
</g>
<path d="M209.773 21.6777H32.4619V47.5275H209.773V21.6777Z" fill="#00CE7C"/>
<path d="M34.6748 21.6777V13H45.9126C52.1933 13 57.2827 18.083 57.2827 24.3556V35.5791H51.0917" stroke="#193157" stroke-width="2.5658" stroke-miterlimit="10"/>
<path d="M48.2676 21.6777V13H59.5054C65.7861 13 70.8755 18.083 70.8755 24.3556V35.5791H64.6845" stroke="#193157" stroke-width="2.5658" stroke-miterlimit="10"/>
<path d="M61.8545 21.6777V13H73.0923C79.373 13 84.4624 18.083 84.4624 24.3556V35.5791H78.2714" stroke="#193157" stroke-width="2.5658" stroke-miterlimit="10"/>
<path d="M75.4463 21.6777V13H86.6841C92.9648 13 98.0542 18.083 98.0542 24.3556V35.5791H91.8632" stroke="#193157" stroke-width="2.5658" stroke-miterlimit="10"/>
<path d="M89.0371 21.6777V13H100.275C106.556 13 111.645 18.083 111.645 24.3556V35.5791H105.454" stroke="#193157" stroke-width="2.5658" stroke-miterlimit="10"/>
<path d="M102.627 21.6777V13H113.865C120.145 13 125.235 18.083 125.235 24.3556V35.5791H119.044" stroke="#193157" stroke-width="2.5658" stroke-miterlimit="10"/>
<path d="M116.218 21.6777V13H127.456C133.736 13 138.826 18.083 138.826 24.3556V35.5791H132.635" stroke="#193157" stroke-width="2.5658" stroke-miterlimit="10"/>
<path d="M129.807 21.6777V13H141.044C147.325 13 152.415 18.083 152.415 24.3556V35.5791H146.224" stroke="#193157" stroke-width="2.5658" stroke-miterlimit="10"/>
<path d="M143.397 21.6777V13H154.635C160.916 13 166.005 18.083 166.005 24.3556V35.5791H159.814" stroke="#193157" stroke-width="2.5658" stroke-miterlimit="10"/>
<path d="M156.988 21.6777V13H168.226C174.507 13 179.596 18.083 179.596 24.3556V35.5791H173.405" stroke="#193157" stroke-width="2.5658" stroke-miterlimit="10"/>
<path d="M170.579 21.6777V13H181.817C188.098 13 193.187 18.083 193.187 24.3556V35.5791H186.996" stroke="#193157" stroke-width="2.5658" stroke-miterlimit="10"/>
<path d="M184.169 21.6777V13H195.407C201.687 13 206.777 18.083 206.777 24.3556V35.5791H200.586" stroke="#193157" stroke-width="2.5658" stroke-miterlimit="10"/>
<path d="M194.527 69.3544L212.731 81.9438L207.477 84.1101L139.428 80.3844L134.478 71.5067L142.298 68.7334L157.837 69.1256L194.527 69.3544Z" fill="#D4F1FF"/>
<path d="M179.443 85.4738L177.283 83.7464L190.09 67.7837L193.29 68.2179L179.443 85.4738Z" fill="#EBF8FF"/>
<path d="M166.238 85.9454L160.901 82.0633L171.534 67.4849L179.276 68.0708L166.238 85.9454Z" fill="#EBF8FF"/>
<path d="M179.097 69.3545H177.283V80.7768H179.097V69.3545Z" fill="#193157"/>
<path d="M156.554 68.4286L152.02 79.2881L153.694 79.9853L158.228 69.1259L156.554 68.4286Z" fill="#193157"/>
<path d="M117.805 92.0986L114.486 96.2422V108.979H249.319C249.319 108.979 249.319 101.093 246.561 92.0986H117.805Z" fill="#193157"/>
<mask id="mask0_2913_97984" style="mask-type:luminance" maskUnits="userSpaceOnUse" x="114" y="66" width="135" height="37">
<path d="M248.391 99.8116C247.615 95.3365 246.191 89.7876 243.573 84.4979C243.573 84.4979 234.523 81.3954 214.646 80.541L198.983 70.4657C194.451 67.55 189.173 66 183.781 66H127.438L130.715 68.96C130.715 68.96 121.508 74.4155 118.231 91.5571L114.486 96.2329V99.8116V102.321H125.292C127.365 96.8539 132.655 92.9648 138.856 92.9648C145.057 92.9648 150.349 96.8539 152.42 102.321H212.351C214.424 96.8539 219.713 92.9648 225.914 92.9648C231.735 92.9648 236.753 96.3917 239.062 101.334C239.343 101.936 239.95 102.321 240.617 102.321H248.779C248.671 101.532 248.545 100.694 248.391 99.8116ZM157.66 79.9854C154.512 79.8641 151.405 79.2314 148.463 78.1132L136.738 73.6569C139.389 70.9093 143.047 69.3569 146.869 69.3569H187.71C191.48 69.3569 195.126 70.6922 198.004 73.1246L208.431 81.9464L157.66 79.9854Z" fill="white"/>
</mask>
<g mask="url(#mask0_2913_97984)">
<path d="M248.375 101.637C247.564 96.6416 246.073 90.4461 243.335 84.5377C243.335 84.5377 233.869 81.0757 213.083 80.1186L196.702 68.8691C191.962 65.6126 186.443 63.8828 180.803 63.8828H121.878L125.304 67.1883C125.304 67.1883 115.676 73.2788 112.248 92.421L108.33 97.6407V101.637V104.438H119.631C121.798 98.334 127.333 93.992 133.817 93.992C140.303 93.992 145.836 98.334 148.003 104.438H210.677C212.844 98.334 218.379 93.992 224.863 93.992C231.349 93.992 236.882 98.334 239.049 104.438H248.775C248.667 103.558 248.534 102.62 248.375 101.637Z" fill="#193157"/>
</g>
<mask id="mask1_2913_97984" style="mask-type:luminance" maskUnits="userSpaceOnUse" x="114" y="66" width="135" height="37">
<path d="M248.391 99.8116C247.615 95.3365 246.191 89.7876 243.573 84.4979C243.573 84.4979 234.523 81.3954 214.646 80.541L198.983 70.4657C194.451 67.55 189.173 66 183.781 66H127.438L130.715 68.96C130.715 68.96 121.508 74.4155 118.231 91.5571L114.486 96.2329V99.8116V102.321H125.292C127.365 96.8539 132.655 92.9648 138.856 92.9648C145.057 92.9648 150.349 96.8539 152.42 102.321H212.351C214.424 96.8539 219.713 92.9648 225.914 92.9648C231.735 92.9648 236.753 96.3917 239.062 101.334C239.343 101.936 239.95 102.321 240.617 102.321H248.779C248.671 101.532 248.545 100.694 248.391 99.8116ZM157.66 79.9854C154.512 79.8641 151.405 79.2314 148.463 78.1132L136.738 73.6569C139.389 70.9093 143.047 69.3569 146.869 69.3569H187.71C191.48 69.3569 195.126 70.6922 198.004 73.1246L208.431 81.9464L157.66 79.9854Z" fill="white"/>
</mask>
<g mask="url(#mask1_2913_97984)">
<path d="M143.947 114.367C150.148 114.367 157.191 102.321 160.321 102.97L218.028 112.873C220.102 107.405 228.252 119.944 234.453 119.944C240.654 119.944 245.355 109.397 247.428 114.864L257.096 105.949C256.988 105.16 256.446 101.341 256.292 100.461C255.516 95.9855 254.092 90.4366 251.474 85.1468C251.474 85.1468 242.424 82.0444 222.547 81.19L206.884 71.1147C202.352 68.199 197.074 65.7385 191.681 65.7385H135.336L138.613 69.6113C138.613 69.6113 129.46 75.6691 126.183 92.8107L122.385 96.8842V100.463V102.972L131.435 112.709C133.508 107.24 137.746 114.367 143.947 114.367Z" fill="#3E7BBD"/>
</g>
<mask id="mask2_2913_97984" style="mask-type:luminance" maskUnits="userSpaceOnUse" x="114" y="66" width="135" height="37">
<path d="M248.391 99.8116C247.615 95.3365 246.191 89.7876 243.573 84.4979C243.573 84.4979 234.523 81.3954 214.646 80.541L198.983 70.4657C194.451 67.55 189.173 66 183.781 66H127.438L130.715 68.96C130.715 68.96 121.508 74.4155 118.231 91.5571L114.486 96.2329V99.8116V102.321H125.292C127.365 96.8539 132.655 92.9648 138.856 92.9648C145.057 92.9648 150.349 96.8539 152.42 102.321H212.351C214.424 96.8539 219.713 92.9648 225.914 92.9648C231.735 92.9648 236.753 96.3917 239.062 101.334C239.343 101.936 239.95 102.321 240.617 102.321H248.779C248.671 101.532 248.545 100.694 248.391 99.8116ZM157.66 79.9854C154.512 79.8641 151.405 79.2314 148.463 78.1132L136.738 73.6569C139.389 70.9093 143.047 69.3569 146.869 69.3569H187.71C191.48 69.3569 195.126 70.6922 198.004 73.1246L208.431 81.9464L157.66 79.9854Z" fill="white"/>
</mask>
<g mask="url(#mask2_2913_97984)">
<path d="M239.796 89.6384H245.583V88.2214H238.377C238.377 89.0035 239.01 89.6384 239.796 89.6384Z" fill="#193157"/>
</g>
<mask id="mask3_2913_97984" style="mask-type:luminance" maskUnits="userSpaceOnUse" x="114" y="66" width="135" height="37">
<path d="M248.391 99.8116C247.615 95.3365 246.191 89.7876 243.573 84.4979C243.573 84.4979 234.523 81.3954 214.646 80.541L198.983 70.4657C194.451 67.55 189.173 66 183.781 66H127.438L130.715 68.96C130.715 68.96 121.508 74.4155 118.231 91.5571L114.486 96.2329V99.8116V102.321H125.292C127.365 96.8539 132.655 92.9648 138.856 92.9648C145.057 92.9648 150.349 96.8539 152.42 102.321H212.351C214.424 96.8539 219.713 92.9648 225.914 92.9648C231.735 92.9648 236.753 96.3917 239.062 101.334C239.343 101.936 239.95 102.321 240.617 102.321H248.779C248.671 101.532 248.545 100.694 248.391 99.8116ZM157.66 79.9854C154.512 79.8641 151.405 79.2314 148.463 78.1132L136.738 73.6569C139.389 70.9093 143.047 69.3569 146.869 69.3569H187.71C191.48 69.3569 195.126 70.6922 198.004 73.1246L208.431 81.9464L157.66 79.9854Z" fill="white"/>
</mask>
<g mask="url(#mask3_2913_97984)">
<path d="M246.918 84.323H235.29L234.401 88.2821H246.918" fill="#D4F1FF"/>
<mask id="mask4_2913_97984" style="mask-type:luminance" maskUnits="userSpaceOnUse" x="234" y="84" width="13" height="5">
<path d="M246.918 84.323H235.29L234.401 88.2821H246.918" fill="white"/>
</mask>
<g mask="url(#mask4_2913_97984)">
<path d="M248.519 83.5337H236.89L236.002 87.4952H248.519" fill="white"/>
</g>
</g>
<mask id="mask5_2913_97984" style="mask-type:luminance" maskUnits="userSpaceOnUse" x="114" y="66" width="135" height="37">
<path d="M248.391 99.8116C247.615 95.3365 246.191 89.7876 243.573 84.4979C243.573 84.4979 234.523 81.3954 214.646 80.541L198.983 70.4657C194.451 67.55 189.173 66 183.781 66H127.438L130.715 68.96C130.715 68.96 121.508 74.4155 118.231 91.5571L114.486 96.2329V99.8116V102.321H125.292C127.365 96.8539 132.655 92.9648 138.856 92.9648C145.057 92.9648 150.349 96.8539 152.42 102.321H212.351C214.424 96.8539 219.713 92.9648 225.914 92.9648C231.735 92.9648 236.753 96.3917 239.062 101.334C239.343 101.936 239.95 102.321 240.617 102.321H248.779C248.671 101.532 248.545 100.694 248.391 99.8116ZM157.66 79.9854C154.512 79.8641 151.405 79.2314 148.463 78.1132L136.738 73.6569C139.389 70.9093 143.047 69.3569 146.869 69.3569H187.71C191.48 69.3569 195.126 70.6922 198.004 73.1246L208.431 81.9464L157.66 79.9854Z" fill="white"/>
</mask>
<g mask="url(#mask5_2913_97984)">
<path d="M182.899 94.6758H178.463V102.321H182.899V94.6758Z" fill="#69A4C2"/>
</g>
<mask id="mask6_2913_97984" style="mask-type:luminance" maskUnits="userSpaceOnUse" x="114" y="66" width="135" height="37">
<path d="M248.391 99.8116C247.615 95.3365 246.191 89.7876 243.573 84.4979C243.573 84.4979 234.523 81.3954 214.646 80.541L198.983 70.4657C194.451 67.55 189.173 66 183.781 66H127.438L130.715 68.96C130.715 68.96 121.508 74.4155 118.231 91.5571L114.486 96.2329V99.8116V102.321H125.292C127.365 96.8539 132.655 92.9648 138.856 92.9648C145.057 92.9648 150.349 96.8539 152.42 102.321H212.351C214.424 96.8539 219.713 92.9648 225.914 92.9648C231.735 92.9648 236.753 96.3917 239.062 101.334C239.343 101.936 239.95 102.321 240.617 102.321H248.779C248.671 101.532 248.545 100.694 248.391 99.8116ZM157.66 79.9854C154.512 79.8641 151.405 79.2314 148.463 78.1132L136.738 73.6569C139.389 70.9093 143.047 69.3569 146.869 69.3569H187.71C191.48 69.3569 195.126 70.6922 198.004 73.1246L208.431 81.9464L157.66 79.9854Z" fill="white"/>
</mask>
<g mask="url(#mask6_2913_97984)">
<path d="M227.239 126.015C237.509 126.015 245.833 117.701 245.833 107.445C245.833 97.1892 237.509 88.875 227.239 88.875C216.97 88.875 208.646 97.1892 208.646 107.445C208.646 117.701 216.97 126.015 227.239 126.015Z" fill="#91C5DE"/>
</g>
<mask id="mask7_2913_97984" style="mask-type:luminance" maskUnits="userSpaceOnUse" x="114" y="66" width="135" height="37">
<path d="M248.391 99.8116C247.615 95.3365 246.191 89.7876 243.573 84.4979C243.573 84.4979 234.523 81.3954 214.646 80.541L198.983 70.4657C194.451 67.55 189.173 66 183.781 66H127.438L130.715 68.96C130.715 68.96 121.508 74.4155 118.231 91.5571L114.486 96.2329V99.8116V102.321H125.292C127.365 96.8539 132.655 92.9648 138.856 92.9648C145.057 92.9648 150.349 96.8539 152.42 102.321H212.351C214.424 96.8539 219.713 92.9648 225.914 92.9648C231.735 92.9648 236.753 96.3917 239.062 101.334C239.343 101.936 239.95 102.321 240.617 102.321H248.779C248.671 101.532 248.545 100.694 248.391 99.8116ZM157.66 79.9854C154.512 79.8641 151.405 79.2314 148.463 78.1132L136.738 73.6569C139.389 70.9093 143.047 69.3569 146.869 69.3569H187.71C191.48 69.3569 195.126 70.6922 198.004 73.1246L208.431 81.9464L157.66 79.9854Z" fill="white"/>
</mask>
<g mask="url(#mask7_2913_97984)">
<path d="M247.796 96.2844H243.954L241.336 103.339H249.318L247.796 96.2844Z" fill="#D1F0FF"/>
</g>
<mask id="mask8_2913_97984" style="mask-type:luminance" maskUnits="userSpaceOnUse" x="114" y="66" width="135" height="37">
<path d="M248.391 99.8116C247.615 95.3365 246.191 89.7876 243.573 84.4979C243.573 84.4979 234.523 81.3954 214.646 80.541L198.983 70.4657C194.451 67.55 189.173 66 183.781 66H127.438L130.715 68.96C130.715 68.96 121.508 74.4155 118.231 91.5571L114.486 96.2329V99.8116V102.321H125.292C127.365 96.8539 132.655 92.9648 138.856 92.9648C145.057 92.9648 150.349 96.8539 152.42 102.321H212.351C214.424 96.8539 219.713 92.9648 225.914 92.9648C231.735 92.9648 236.753 96.3917 239.062 101.334C239.343 101.936 239.95 102.321 240.617 102.321H248.779C248.671 101.532 248.545 100.694 248.391 99.8116ZM157.66 79.9854C154.512 79.8641 151.405 79.2314 148.463 78.1132L136.738 73.6569C139.389 70.9093 143.047 69.3569 146.869 69.3569H187.71C191.48 69.3569 195.126 70.6922 198.004 73.1246L208.431 81.9464L157.66 79.9854Z" fill="white"/>
</mask>
<g mask="url(#mask8_2913_97984)">
<path d="M120.726 82.8288L129.423 81.5449L129.952 84.1128L118.758 88.8703C118.956 87.8758 119.237 86.7647 119.634 85.5765C119.976 84.5586 120.35 83.6412 120.726 82.8288Z" fill="#D4F1FF"/>
<mask id="mask9_2913_97984" style="mask-type:luminance" maskUnits="userSpaceOnUse" x="118" y="81" width="12" height="8">
<path d="M120.724 82.8293L129.421 81.5454L129.95 84.1133L118.756 88.8708C118.955 87.8763 119.235 86.7652 119.632 85.5769C119.974 84.5591 120.348 83.6417 120.724 82.8293Z" fill="white"/>
</mask>
<g mask="url(#mask9_2913_97984)">
<path d="M119.69 81.7808L128.387 80.4968L128.915 83.0647L117.722 87.8222C117.92 86.8277 118.201 85.7166 118.598 84.5284C118.942 83.5106 119.316 82.5931 119.69 81.7808Z" fill="white"/>
</g>
</g>
<mask id="mask10_2913_97984" style="mask-type:luminance" maskUnits="userSpaceOnUse" x="114" y="66" width="135" height="37">
<path d="M248.391 99.8116C247.615 95.3365 246.191 89.7876 243.573 84.4979C243.573 84.4979 234.523 81.3954 214.646 80.541L198.983 70.4657C194.451 67.55 189.173 66 183.781 66H127.438L130.715 68.96C130.715 68.96 121.508 74.4155 118.231 91.5571L114.486 96.2329V99.8116V102.321H125.292C127.365 96.8539 132.655 92.9648 138.856 92.9648C145.057 92.9648 150.349 96.8539 152.42 102.321H212.351C214.424 96.8539 219.713 92.9648 225.914 92.9648C231.735 92.9648 236.753 96.3917 239.062 101.334C239.343 101.936 239.95 102.321 240.617 102.321H248.779C248.671 101.532 248.545 100.694 248.391 99.8116ZM157.66 79.9854C154.512 79.8641 151.405 79.2314 148.463 78.1132L136.738 73.6569C139.389 70.9093 143.047 69.3569 146.869 69.3569H187.71C191.48 69.3569 195.126 70.6922 198.004 73.1246L208.431 81.9464L157.66 79.9854Z" fill="white"/>
</mask>
<g mask="url(#mask10_2913_97984)">
<path d="M124.374 88.0623L117.439 90.7795L116.92 89.4606L125.176 86.2251C125.463 86.9534 125.103 87.7775 124.374 88.0623Z" fill="#193157"/>
</g>
<mask id="mask11_2913_97984" style="mask-type:luminance" maskUnits="userSpaceOnUse" x="114" y="66" width="135" height="37">
<path d="M248.391 99.8116C247.615 95.3365 246.191 89.7876 243.573 84.4979C243.573 84.4979 234.523 81.3954 214.646 80.541L198.983 70.4657C194.451 67.55 189.173 66 183.781 66H127.438L130.715 68.96C130.715 68.96 121.508 74.4155 118.231 91.5571L114.486 96.2329V99.8116V102.321H125.292C127.365 96.8539 132.655 92.9648 138.856 92.9648C145.057 92.9648 150.349 96.8539 152.42 102.321H212.351C214.424 96.8539 219.713 92.9648 225.914 92.9648C231.735 92.9648 236.753 96.3917 239.062 101.334C239.343 101.936 239.95 102.321 240.617 102.321H248.779C248.671 101.532 248.545 100.694 248.391 99.8116ZM157.66 79.9854C154.512 79.8641 151.405 79.2314 148.463 78.1132L136.738 73.6569C139.389 70.9093 143.047 69.3569 146.869 69.3569H187.71C191.48 69.3569 195.126 70.6922 198.004 73.1246L208.431 81.9464L157.66 79.9854Z" fill="white"/>
</mask>
<g mask="url(#mask11_2913_97984)">
<path d="M137.629 88.875C133.283 88.875 129.291 90.3667 126.126 92.8598C125.689 94.4729 124.483 99.1651 124.354 102.321L120.301 103.769L119.516 103.246C119.203 104.595 119.032 106 119.032 107.445C119.032 117.703 127.358 126.018 137.626 126.018C147.897 126.018 156.22 117.703 156.22 107.445C156.225 97.1902 147.899 88.875 137.629 88.875Z" fill="#91C5DE"/>
<path d="M124.357 102.321C124.486 99.1672 125.692 94.4727 126.129 92.8596C122.866 95.4298 120.489 99.0668 119.519 103.245L120.304 103.768L124.357 102.321Z" fill="#7FACC2"/>
</g>
<path d="M145.374 107.445C145.374 101.649 140.669 96.9497 134.865 96.9497C129.062 96.9497 124.356 101.649 124.356 107.445C124.356 113.242 129.062 117.941 134.865 117.941C137.462 117.941 138.093 117.924 140.529 117.861C143.502 117.784 145.374 110.648 145.374 107.445Z" fill="#193157"/>
<path d="M139.427 117.941C145.231 117.941 149.936 113.242 149.936 107.445C149.936 101.649 145.231 96.9497 139.427 96.9497C133.623 96.9497 128.918 101.649 128.918 107.445C128.918 113.242 133.623 117.941 139.427 117.941Z" fill="#435C85"/>
<path d="M139.426 115.34C143.791 115.34 147.331 111.805 147.331 107.445C147.331 103.085 143.791 99.5498 139.426 99.5498C135.06 99.5498 131.521 103.085 131.521 107.445C131.521 111.805 135.06 115.34 139.426 115.34Z" fill="#91C5DE"/>
<mask id="mask12_2913_97984" style="mask-type:luminance" maskUnits="userSpaceOnUse" x="131" y="99" width="17" height="17">
<path d="M139.424 115.34C143.789 115.34 147.329 111.805 147.329 107.445C147.329 103.084 143.789 99.5496 139.424 99.5496C135.058 99.5496 131.519 103.084 131.519 107.445C131.519 111.805 135.058 115.34 139.424 115.34Z" fill="white"/>
</mask>
<g mask="url(#mask12_2913_97984)">
<path d="M147.69 110.502L141.021 107.363C140.166 106.961 139.198 107.078 138.476 107.587L142.51 109.485L141.346 111.688L134.862 108.637L135.393 107.512C136.573 105.007 139.574 103.931 142.083 105.11L148.087 107.937" fill="#435C85"/>
</g>
<path d="M233.905 107.445C233.905 101.649 229.199 96.9497 223.396 96.9497C217.592 96.9497 212.887 101.649 212.887 107.445C212.887 113.242 217.592 117.941 223.396 117.941C225.992 117.941 226.624 117.924 229.059 117.861C232.032 117.784 233.905 110.648 233.905 107.445Z" fill="#193157"/>
<path d="M227.961 117.941C233.765 117.941 238.47 113.242 238.47 107.445C238.47 101.649 233.765 96.9497 227.961 96.9497C222.157 96.9497 217.452 101.649 217.452 107.445C217.452 113.242 222.157 117.941 227.961 117.941Z" fill="#435C85"/>
<path d="M227.96 115.34C232.326 115.34 235.865 111.805 235.865 107.445C235.865 103.084 232.326 99.5496 227.96 99.5496C223.594 99.5496 220.055 103.084 220.055 107.445C220.055 111.805 223.594 115.34 227.96 115.34Z" fill="#91C5DE"/>
<mask id="mask13_2913_97984" style="mask-type:luminance" maskUnits="userSpaceOnUse" x="220" y="99" width="16" height="17">
<path d="M227.959 115.339C232.325 115.339 235.864 111.805 235.864 107.444C235.864 103.084 232.325 99.5493 227.959 99.5493C223.593 99.5493 220.054 103.084 220.054 107.444C220.054 111.805 223.593 115.339 227.959 115.339Z" fill="white"/>
</mask>
<g mask="url(#mask13_2913_97984)">
<path d="M236.224 110.502L229.556 107.363C228.7 106.961 227.732 107.078 227.01 107.587L231.044 109.485L229.88 111.688L223.396 108.637L223.927 107.512C225.107 105.007 228.109 103.931 230.617 105.11L236.621 107.937" fill="#435C85"/>
</g>
<path d="M153.637 85.9125H161.049V85.0114C161.049 84.5142 160.644 84.1104 160.146 84.1104H155.444C154.445 84.1104 153.637 84.9181 153.637 85.9125Z" fill="#193157"/>
<path d="M180.857 85.9125H188.269V85.0114C188.269 84.5142 187.865 84.1104 187.367 84.1104H182.664C181.666 84.1104 180.857 84.9181 180.857 85.9125Z" fill="#193157"/>
<path d="M198.926 81.1993H207.476V77.9148C207.476 77.0348 206.763 76.3228 205.882 76.3228H202.116C200.354 76.3228 198.928 77.7491 198.928 79.5069V81.1993H198.926Z" fill="#193157"/>
<path d="M141.249 87.0379H134.478V83.7253C134.478 82.348 135.595 81.2322 136.974 81.2322H141.249V87.0379Z" fill="#69A4C2"/>
<path d="M178.19 80.3845V108.969" stroke="#193157" stroke-width="1.8708" stroke-miterlimit="10"/>
<path d="M153.087 79.115L149.349 82.9691C148.674 83.7184 148.3 84.6919 148.3 85.7003V97.6012" stroke="#193157" stroke-width="1.8708" stroke-miterlimit="10"/>
<path d="M208.901 82.3454L207.003 79.8523L206.052 80.5736L207.227 82.119C207.627 82.6419 208.375 82.7423 208.901 82.3454Z" fill="#193157"/>
<path d="M124.269 108.97C124.206 108.47 124.173 107.961 124.173 107.445C124.173 100.514 130.007 94.8931 137.202 94.8931C144.399 94.8931 150.23 100.512 150.23 107.445C150.23 107.961 150.198 108.47 150.135 108.97H214.693C214.63 108.47 214.597 107.961 214.597 107.445C214.597 100.514 220.432 94.8931 227.626 94.8931C234.821 94.8931 240.655 100.512 240.655 107.445C240.655 107.961 240.622 108.47 240.559 108.97H251.795C251.795 108.97 251.795 106.311 251.234 102.321H241.592C239.444 96.854 233.958 92.9648 227.528 92.9648C221.098 92.9648 215.614 96.854 213.464 102.321H151.331C149.183 96.854 143.697 92.9648 137.267 92.9648C130.837 92.9648 125.354 96.854 123.203 102.321H112V108.97H124.269Z" fill="#193157"/>
<path d="M196.586 133H85.2979V152.567H196.586V133Z" fill="#429162"/>
<path d="M249.181 133H137.894V152.567H249.181V133Z" fill="#00CE7C"/>
<path d="M207.132 133H179.946V152.567H207.132V133Z" fill="#4CA871"/>
<path d="M204.841 133H182.236V152.567H204.841V133Z" fill="#E6E6E6"/>
<path d="M249.184 133H85.2979V135.639H249.184V133Z" fill="#4CA871"/>
<path d="M187.969 152H76.6807V169.567H187.969V152Z" fill="#429162"/>
<path d="M240.564 152H129.276V169.567H240.564V152Z" fill="#00CE7C"/>
<path d="M198.515 152H171.329V169.567H198.515V152Z" fill="#4CA871"/>
<path d="M196.224 152H173.619V169.567H196.224V152Z" fill="#E6E6E6"/>
<path d="M240.566 152H76.6797V154.369H240.566V152Z" fill="#4CA871"/>
<path d="M208.406 118H97.1182V133.049H208.406V118Z" fill="#429162"/>
<path d="M261.002 118H149.714V133.049H261.002V118Z" fill="#00CE7C"/>
<path d="M218.953 118H191.767V133.049H218.953V118Z" fill="#4CA871"/>
<path d="M216.662 118H194.057V133.049H216.662V118Z" fill="#E6E6E6"/>
</svg>
