<svg width="20" height="21" viewBox="0 0 20 21" fill="none" xmlns="http://www.w3.org/2000/svg">
<g clip-path="url(#clip0_632_36054)">
<path d="M13.3333 20.9398H9.99992C9.76992 20.9398 9.58325 20.7531 9.58325 20.5231V15.5231C9.58325 15.2931 9.76992 15.1064 9.99992 15.1064H11.2499V8.02311C11.2499 7.79311 11.4366 7.60645 11.6666 7.60645H14.9999C15.2299 7.60645 15.4166 7.79311 15.4166 8.02311V18.8564C15.4166 19.0864 15.2299 19.2731 14.9999 19.2731H13.7499V20.5231C13.7499 20.7531 13.5633 20.9398 13.3333 20.9398ZM10.4166 20.1064H12.9166V18.8564C12.9166 18.6264 13.1033 18.4398 13.3333 18.4398H14.5833V8.43978H12.0833V15.5231C12.0833 15.7531 11.8966 15.9398 11.6666 15.9398H10.4166V20.1064Z" fill="#3B9C53"/>
<path d="M13.3332 10.9398C13.1032 10.9398 12.9165 10.7531 12.9165 10.5231V5.52311C12.9165 5.29311 13.1032 5.10645 13.3332 5.10645C13.5632 5.10645 13.7498 5.29311 13.7498 5.52311V10.5231C13.7498 10.7531 13.5632 10.9398 13.3332 10.9398Z" fill="#3B9C53"/>
<path d="M13.3333 5.93994C12.0617 5.93994 11.25 4.02494 11.25 3.02327C11.25 1.87494 12.1842 0.939941 13.3333 0.939941C14.4825 0.939941 15.4167 1.87494 15.4167 3.02327C15.4167 4.02494 14.605 5.93994 13.3333 5.93994ZM13.3333 1.77327C12.6442 1.77327 12.0833 2.33411 12.0833 3.02327C12.0833 3.84577 12.7542 5.10661 13.3333 5.10661C13.9125 5.10661 14.5833 3.84577 14.5833 3.02327C14.5833 2.33411 14.0225 1.77327 13.3333 1.77327Z" fill="#3B9C53"/>
<path d="M4.99992 5.9401C4.76992 5.9401 4.58325 5.75344 4.58325 5.52344V2.1901C4.58325 1.9601 4.76992 1.77344 4.99992 1.77344H5.83325C6.52242 1.77344 7.08325 2.33427 7.08325 3.02344C7.08325 3.7126 6.52242 4.27344 5.83325 4.27344H5.41659V5.52344C5.41659 5.75344 5.22992 5.9401 4.99992 5.9401ZM5.41659 3.4401H5.83325C6.06242 3.4401 6.24992 3.25344 6.24992 3.02344C6.24992 2.79344 6.06242 2.60677 5.83325 2.60677H5.41659V3.4401Z" fill="#3B9C53"/>
<path d="M6.66658 10.9401C6.54075 10.9401 6.41492 10.8826 6.33325 10.7734L5.41659 9.55177V10.5234C5.41659 10.7534 5.22992 10.9401 4.99992 10.9401C4.76992 10.9401 4.58325 10.7534 4.58325 10.5234V7.1901C4.58325 6.9601 4.76992 6.77344 4.99992 6.77344H5.83325C6.52242 6.77344 7.08325 7.33427 7.08325 8.02344C7.08325 8.5826 6.71492 9.05677 6.20658 9.21677L6.99992 10.2734C7.13742 10.4576 7.09992 10.7184 6.91575 10.8568C6.84158 10.9126 6.75325 10.9401 6.66658 10.9401ZM5.41659 8.4401H5.83325C6.06242 8.4401 6.24992 8.25344 6.24992 8.02344C6.24992 7.79344 6.06242 7.60677 5.83325 7.60677H5.41659V8.4401Z" fill="#3B9C53"/>
<path d="M5.83325 15.9401H4.99992C4.76992 15.9401 4.58325 15.7534 4.58325 15.5234V12.1901C4.58325 11.9601 4.76992 11.7734 4.99992 11.7734H5.83325C6.52242 11.7734 7.08325 12.3343 7.08325 13.0234V14.6901C7.08325 15.3793 6.52242 15.9401 5.83325 15.9401ZM5.41659 15.1068H5.83325C6.06242 15.1068 6.24992 14.9201 6.24992 14.6901V13.0234C6.24992 12.7934 6.06242 12.6068 5.83325 12.6068H5.41659V15.1068Z" fill="#3B9C53"/>
<path d="M6.66658 20.9401C6.51075 20.9401 6.36575 20.8535 6.29409 20.7101L5.41659 18.9551V20.5235C5.41659 20.7535 5.22992 20.9401 4.99992 20.9401C4.76992 20.9401 4.58325 20.7535 4.58325 20.5235V17.1901C4.58325 16.9968 4.71575 16.8285 4.90409 16.7843C5.09659 16.741 5.28659 16.8301 5.37325 17.0035L6.24992 18.7585V17.1901C6.24992 16.9601 6.43658 16.7735 6.66658 16.7735C6.89658 16.7735 7.08325 16.9601 7.08325 17.1901V20.5235C7.08325 20.7168 6.95075 20.8851 6.76242 20.9293C6.72992 20.9368 6.69825 20.9401 6.66658 20.9401Z" fill="#3B9C53"/>
</g>
<defs>
<clipPath id="clip0_632_36054">
<rect width="20" height="20" fill="white" transform="translate(0 0.939941)"/>
</clipPath>
</defs>
</svg>
